<?xml version="1.0" encoding="utf-8"?>
<!-- Generator: Adobe Illustrator 19.2.1, SVG Export Plug-In . SVG Version: 6.00 Build 0)  -->
<svg version="1.1" xmlns="http://www.w3.org/2000/svg" xmlns:xlink="http://www.w3.org/1999/xlink" x="0px" y="0px"
	 viewBox="0 0 417.7 207.2" style="enable-background:new 0 0 417.7 207.2;" xml:space="preserve">
<style type="text/css">
	.st0{fill:#999BA3;}
	.st1{clip-path:url(#SVGID_2_);fill:#E3E4E6;}
	.st2{clip-path:url(#SVGID_2_);fill:#E4E5E7;}
	.st3{clip-path:url(#SVGID_2_);fill:#E5E6E8;}
	.st4{clip-path:url(#SVGID_2_);fill:#E6E7E9;}
	.st5{clip-path:url(#SVGID_2_);fill:#E7E8EA;}
	.st6{clip-path:url(#SVGID_2_);fill:#E8E9EB;}
	.st7{clip-path:url(#SVGID_2_);fill:#E9EAEC;}
	.st8{clip-path:url(#SVGID_2_);fill:#EAEBEC;}
	.st9{clip-path:url(#SVGID_2_);fill:#EBECED;}
	.st10{clip-path:url(#SVGID_2_);fill:#ECEDEE;}
	.st11{clip-path:url(#SVGID_2_);fill:#EDEEEF;}
	.st12{clip-path:url(#SVGID_2_);fill:#EEEFF0;}
	.st13{clip-path:url(#SVGID_2_);fill:#EFF0F1;}
	.st14{clip-path:url(#SVGID_2_);fill:#F0F1F2;}
	.st15{clip-path:url(#SVGID_2_);fill:#F2F2F3;}
	.st16{clip-path:url(#SVGID_2_);fill:#F3F3F4;}
	.st17{clip-path:url(#SVGID_2_);fill:#F4F4F5;}
	.st18{clip-path:url(#SVGID_2_);fill:#F5F5F6;}
	.st19{clip-path:url(#SVGID_2_);fill:#F6F6F7;}
	.st20{clip-path:url(#SVGID_2_);fill:#F7F7F8;}
	.st21{clip-path:url(#SVGID_2_);fill:#F8F8F9;}
	.st22{clip-path:url(#SVGID_2_);fill:#F9F9F9;}
	.st23{clip-path:url(#SVGID_2_);fill:#FAFAFA;}
	.st24{clip-path:url(#SVGID_2_);fill:#FBFBFB;}
	.st25{clip-path:url(#SVGID_2_);fill:#FCFCFC;}
	.st26{clip-path:url(#SVGID_2_);fill:#FDFDFD;}
	.st27{clip-path:url(#SVGID_2_);fill:#FEFEFE;}
	.st28{clip-path:url(#SVGID_2_);fill:#FFFFFF;}
	.st29{fill:#6E707B;}
	.st30{fill:#CC0000;}
	.st31{fill:#FFFFFF;}
	.st32{fill:#002868;}
	.st33{clip-path:url(#SVGID_4_);fill:#FBFBFB;}
	.st34{clip-path:url(#SVGID_4_);fill:#FCFCFC;}
	.st35{clip-path:url(#SVGID_4_);fill:#FFFFFF;}
	.st36{clip-path:url(#SVGID_4_);fill:#FEFEFE;}
	.st37{clip-path:url(#SVGID_4_);fill:#FDFDFD;}
	.st38{clip-path:url(#SVGID_4_);fill:#E8E9EB;}
	.st39{clip-path:url(#SVGID_4_);fill:#E9EAEC;}
	.st40{clip-path:url(#SVGID_4_);fill:#E7E8EA;}
	.st41{clip-path:url(#SVGID_4_);fill:#E6E7E9;}
	.st42{clip-path:url(#SVGID_4_);fill:#E5E6E8;}
	.st43{clip-path:url(#SVGID_4_);fill:#E4E5E7;}
	.st44{clip-path:url(#SVGID_4_);fill:#FAFAFA;}
	.st45{clip-path:url(#SVGID_4_);fill:#F9F9F9;}
	.st46{clip-path:url(#SVGID_4_);fill:#F7F7F8;}
	.st47{clip-path:url(#SVGID_4_);fill:#F8F8F9;}
	.st48{clip-path:url(#SVGID_4_);fill:#EEEFF0;}
	.st49{clip-path:url(#SVGID_4_);fill:#EFF0F1;}
	.st50{clip-path:url(#SVGID_4_);fill:#F0F1F2;}
	.st51{clip-path:url(#SVGID_4_);fill:#F2F2F3;}
	.st52{clip-path:url(#SVGID_4_);fill:#F3F3F4;}
	.st53{clip-path:url(#SVGID_4_);fill:#F4F4F5;}
	.st54{clip-path:url(#SVGID_4_);fill:#F6F6F7;}
	.st55{clip-path:url(#SVGID_4_);fill:#EBECED;}
	.st56{clip-path:url(#SVGID_4_);fill:#E3E4E6;}
	.st57{clip-path:url(#SVGID_4_);fill:#EAEBEC;}
	.st58{clip-path:url(#SVGID_4_);fill:#ECEDEE;}
	.st59{clip-path:url(#SVGID_4_);fill:#EDEEEF;}
	.st60{clip-path:url(#SVGID_4_);fill:#F5F5F6;}
	.st61{clip-path:url(#SVGID_6_);fill:#E3E4E6;}
	.st62{clip-path:url(#SVGID_6_);fill:#E4E5E7;}
	.st63{clip-path:url(#SVGID_6_);fill:#E5E6E8;}
	.st64{clip-path:url(#SVGID_6_);fill:#E6E7E9;}
	.st65{clip-path:url(#SVGID_6_);fill:#E7E8EA;}
	.st66{clip-path:url(#SVGID_6_);fill:#E8E9EB;}
	.st67{clip-path:url(#SVGID_6_);fill:#E9EAEC;}
	.st68{clip-path:url(#SVGID_6_);fill:#EAEBEC;}
	.st69{clip-path:url(#SVGID_6_);fill:#EBECED;}
	.st70{clip-path:url(#SVGID_6_);fill:#ECEDEE;}
	.st71{clip-path:url(#SVGID_6_);fill:#EDEEEF;}
	.st72{clip-path:url(#SVGID_6_);fill:#EEEFF0;}
	.st73{clip-path:url(#SVGID_6_);fill:#EFF0F1;}
	.st74{clip-path:url(#SVGID_6_);fill:#F0F1F2;}
	.st75{clip-path:url(#SVGID_6_);fill:#F2F2F3;}
	.st76{clip-path:url(#SVGID_6_);fill:#F3F3F4;}
	.st77{clip-path:url(#SVGID_6_);fill:#F4F4F5;}
	.st78{clip-path:url(#SVGID_6_);fill:#F5F5F6;}
	.st79{clip-path:url(#SVGID_6_);fill:#F6F6F7;}
	.st80{clip-path:url(#SVGID_6_);fill:#F7F7F8;}
	.st81{clip-path:url(#SVGID_6_);fill:#F8F8F9;}
	.st82{clip-path:url(#SVGID_6_);fill:#F9F9F9;}
	.st83{clip-path:url(#SVGID_6_);fill:#FAFAFA;}
	.st84{clip-path:url(#SVGID_6_);fill:#FBFBFB;}
	.st85{clip-path:url(#SVGID_6_);fill:#FCFCFC;}
	.st86{clip-path:url(#SVGID_6_);fill:#FDFDFD;}
	.st87{clip-path:url(#SVGID_6_);fill:#FEFEFE;}
	.st88{clip-path:url(#SVGID_6_);fill:#FFFFFF;}
	.st89{fill:#33347F;}
</style>
<g id="background">
</g>
<g id="objects">
	<g>
		<g>
			<g>
				<g>
					
						<rect x="103.8" y="100.3" transform="matrix(0.4783 -0.8782 0.8782 0.4783 22.4581 243.5721)" class="st0" width="224.9" height="5.1"/>
				</g>
				<g>
					<g>
						<defs>
							
								<rect id="SVGID_1_" x="107.9" y="102.5" transform="matrix(0.4783 -0.8782 0.8782 0.4783 22.245 244.8905)" width="218.7" height="2.5"/>
						</defs>
						<clipPath id="SVGID_2_">
							<use xlink:href="#SVGID_1_"  style="overflow:visible;"/>
						</clipPath>
						<polygon class="st1" points="268.6,7.1 163.8,199.5 163.8,7.1 						"/>
						<polygon class="st1" points="268.8,7.1 163.8,199.8 163.8,199.5 268.6,7.1 						"/>
						<polygon class="st2" points="269,7.1 163.8,200.2 163.8,199.8 268.8,7.1 						"/>
						<polygon class="st3" points="269.2,7.1 163.9,200.4 163.8,200.4 163.8,200.2 269,7.1 						"/>
						<polygon class="st4" points="269.4,7.1 164.1,200.4 163.9,200.4 269.2,7.1 						"/>
						<polygon class="st5" points="269.6,7.1 164.3,200.4 164.1,200.4 269.4,7.1 						"/>
						<polygon class="st6" points="269.7,7.1 164.5,200.4 164.3,200.4 269.6,7.1 						"/>
						<polygon class="st7" points="269.9,7.1 164.7,200.4 164.5,200.4 269.7,7.1 						"/>
						<polygon class="st8" points="270.1,7.1 164.9,200.4 164.7,200.4 269.9,7.1 						"/>
						<polygon class="st9" points="270.3,7.1 165,200.4 164.9,200.4 270.1,7.1 						"/>
						<polygon class="st10" points="270.5,7.1 165.2,200.4 165,200.4 270.3,7.1 						"/>
						<polygon class="st11" points="270.7,7.1 165.4,200.4 165.2,200.4 270.5,7.1 270.7,7.1 						"/>
						<polygon class="st12" points="270.7,7.5 165.6,200.4 165.4,200.4 270.7,7.1 						"/>
						<polygon class="st13" points="270.7,7.8 165.8,200.4 165.6,200.4 270.7,7.5 						"/>
						<polygon class="st14" points="270.7,8.1 166,200.4 165.8,200.4 270.7,7.8 						"/>
						<polygon class="st15" points="270.7,8.5 166.2,200.4 166,200.4 270.7,8.1 						"/>
						<polygon class="st16" points="270.7,8.8 166.4,200.4 166.2,200.4 270.7,8.5 						"/>
						<polygon class="st17" points="270.7,9.2 166.5,200.4 166.4,200.4 270.7,8.8 						"/>
						<polygon class="st18" points="270.7,9.5 166.7,200.4 166.5,200.4 270.7,9.2 						"/>
						<polygon class="st19" points="270.7,9.9 166.9,200.4 166.7,200.4 270.7,9.5 						"/>
						<polygon class="st20" points="270.7,10.2 167.1,200.4 166.9,200.4 270.7,9.9 						"/>
						<polygon class="st21" points="270.7,10.6 167.3,200.4 167.1,200.4 270.7,10.2 						"/>
						<polygon class="st22" points="270.7,10.9 167.5,200.4 167.3,200.4 270.7,10.6 						"/>
						<polygon class="st23" points="270.7,11.2 167.7,200.4 167.5,200.4 270.7,10.9 						"/>
						<polygon class="st24" points="270.7,11.6 167.9,200.4 167.7,200.4 270.7,11.2 						"/>
						<polygon class="st25" points="270.7,11.9 168,200.4 167.9,200.4 270.7,11.6 						"/>
						<polygon class="st26" points="270.7,12.3 168.2,200.4 168,200.4 270.7,11.9 						"/>
						<polygon class="st27" points="270.7,12.6 168.4,200.4 168.2,200.4 270.7,12.3 						"/>
						<polygon class="st28" points="270.7,13 168.6,200.4 168.4,200.4 270.7,12.6 						"/>
						<polygon class="st28" points="168.6,200.4 270.7,13 270.7,200.4 						"/>
					</g>
				</g>
				<g>
					
						<rect x="265.7" y="4.1" transform="matrix(0.4783 -0.8782 0.8782 0.4783 134.242 239.4079)" class="st29" width="5.8" height="5.1"/>
				</g>
				<g>
					<path class="st0" d="M274.9,7.1L274.9,7.1c-0.8,1.5-2.7,2.1-4.2,1.2l-4.6-2.5c-1.5-0.8-2.1-2.7-1.2-4.2l0,0
						c0.8-1.5,2.7-2.1,4.2-1.2l4.6,2.5C275.2,3.7,275.8,5.6,274.9,7.1z"/>
				</g>
				<g>
					
						<rect x="160.2" y="197.9" transform="matrix(0.4783 -0.8782 0.8782 0.4783 -90.9502 247.7991)" class="st29" width="5.8" height="5.1"/>
				</g>
				<g>
					<path class="st0" d="M166.9,205.5L166.9,205.5c0.8-1.5,0.3-3.4-1.2-4.2l-4.6-2.5c-1.5-0.8-3.4-0.3-4.2,1.2l0,0
						c-0.8,1.5-0.3,3.4,1.2,4.2l4.6,2.5C164.1,207.6,166,207,166.9,205.5z"/>
				</g>
			</g>
			<g>
				<g>
					<g id="g390_4_">
						<g id="g169_4_">
							<g id="rect156_4_">
								<path class="st30" d="M266,6c68.3-4.9,83.5,87.6,151.8,82.7c-1.2,2.2-2.4,4.4-3.6,6.6c-68.3,4.9-83.5-87.6-151.8-82.7
									C263.6,10.4,264.8,8.2,266,6z"/>
							</g>
							<g id="rect158_4_">
								<path class="st30" d="M258.8,19.2c68.3-4.9,83.5,87.6,151.8,82.7c-1.2,2.2-2.4,4.4-3.6,6.6c-68.3,4.9-83.5-87.6-151.8-82.7
									C256.4,23.5,257.6,21.3,258.8,19.2z"/>
							</g>
							<g id="rect160_4_">
								<path class="st30" d="M251.6,32.3c68.3-4.9,83.5,87.6,151.8,82.7c-1.2,2.2-2.4,4.4-3.6,6.6c-68.3,4.9-83.5-87.6-151.8-82.7
									C249.3,36.7,250.5,34.5,251.6,32.3z"/>
							</g>
							<g id="rect162_4_">
								<path class="st30" d="M244.5,45.4c68.3-4.9,83.5,87.6,151.8,82.7c-1.2,2.2-2.4,4.4-3.6,6.6c-68.3,4.9-83.5-87.6-151.8-82.7
									C242.1,49.8,243.3,47.6,244.5,45.4z"/>
							</g>
							<g id="rect164_4_">
								<path class="st30" d="M237.3,58.6c68.3-4.9,83.5,87.6,151.8,82.7c-1.2,2.2-2.4,4.4-3.6,6.6c-68.3,4.9-83.5-87.6-151.8-82.7
									C235,62.9,236.1,60.7,237.3,58.6z"/>
							</g>
							<g id="rect166_4_">
								<path class="st30" d="M230.2,71.7c68.3-4.9,83.5,87.6,151.8,82.7c-1.2,2.2-2.4,4.4-3.6,6.6c-68.3,4.9-83.5-87.6-151.8-82.7
									C227.8,76.1,229,73.9,230.2,71.7z"/>
							</g>
							<g id="rect168_4_">
								<path class="st30" d="M223,84.8c68.3-4.9,83.5,87.6,151.8,82.7c-1.2,2.2-2.4,4.4-3.6,6.6C303,179,287.7,86.5,219.5,91.4
									C220.6,89.2,221.8,87,223,84.8z"/>
							</g>
						</g>
						<g id="g177_4_">
							<g id="rect157_4_">
								<path class="st31" d="M262.4,12.6c68.3-4.9,83.5,87.6,151.8,82.7c-1.2,2.2-2.4,4.4-3.6,6.6c-68.3,4.9-83.5-87.6-151.8-82.7
									C260,17,261.2,14.8,262.4,12.6z"/>
							</g>
							<g id="rect159_4_">
								<path class="st31" d="M255.2,25.7c68.3-4.9,83.5,87.6,151.8,82.7c-1.2,2.2-2.4,4.4-3.6,6.6c-68.3,4.9-83.5-87.6-151.8-82.7
									C252.8,30.1,254,27.9,255.2,25.7z"/>
							</g>
							<g id="rect161_4_">
								<path class="st31" d="M248.1,38.9c68.3-4.9,83.5,87.6,151.8,82.7c-1.2,2.2-2.4,4.4-3.6,6.6C328,133,312.8,40.5,244.5,45.4
									C245.7,43.2,246.9,41,248.1,38.9z"/>
							</g>
							<g id="rect163_4_">
								<path class="st31" d="M240.9,52c68.3-4.9,83.5,87.6,151.8,82.7c-1.2,2.2-2.4,4.4-3.6,6.6c-68.3,4.9-83.5-87.6-151.8-82.7
									C238.5,56.4,239.7,54.2,240.9,52z"/>
							</g>
							<g id="rect165_4_">
								<path class="st31" d="M233.8,65.1c68.3-4.9,83.5,87.6,151.8,82.7c-1.2,2.2-2.4,4.4-3.6,6.6c-68.3,4.9-83.5-87.6-151.8-82.7
									C231.4,69.5,232.6,67.3,233.8,65.1z"/>
							</g>
							<g id="rect167_4_">
								<path class="st31" d="M226.6,78.3c68.3-4.9,83.5,87.6,151.8,82.7c-1.2,2.2-2.4,4.4-3.6,6.6c-68.3,4.9-83.5-87.6-151.8-82.7
									C224.2,82.6,225.4,80.5,226.6,78.3z"/>
							</g>
						</g>
					</g>
					<g id="rect200_4_">
						<path class="st32" d="M266,6c27.3-2,46.1,11.7,63.3,28.4c-8.3,15.3-16.7,30.6-25,46C287,63.7,268.2,50,240.9,52
							C249.3,36.7,257.6,21.3,266,6z"/>
					</g>
					<g id="g274_4_">
						<g id="g218_4_">
							<g id="g194_4_">
								<g id="polygon207_4_">
									
										<path sodipodi:arg1="-1.570796" sodipodi:arg2="-0.942477796" sodipodi:cx="0.000000" sodipodi:cy="0.000000" sodipodi:r1="4.004000" sodipodi:r2="1.529391909" sodipodi:sides="5" sodipodi:type="star" class="st31" d="
										M271.5,7.8c-0.1,0.6-0.2,1.2-0.3,1.8c0.8,0,1.5,0.1,2.3,0.1c-0.8,0.3-1.6,0.7-2.4,1c-0.1,0.6-0.2,1.2-0.3,1.8
										c-0.4-0.4-0.8-0.8-1.2-1.2c-0.8,0.4-1.6,0.7-2.5,1.1c0.6-0.6,1.1-1.2,1.7-1.8c-0.4-0.4-0.8-0.7-1.3-1.1c0.8,0,1.6,0,2.3,0
										C270.4,9,271,8.4,271.5,7.8z"/>
								</g>
								<g id="polygon188_4_">
									
										<path sodipodi:arg1="-1.570796" sodipodi:arg2="-0.942477796" sodipodi:cx="0.000000" sodipodi:cy="0.000000" sodipodi:r1="4.004000" sodipodi:r2="1.529391909" sodipodi:sides="5" sodipodi:type="star" class="st31" d="
										M283.9,9.2c-0.1,0.7-0.2,1.3-0.3,2c0.7,0.2,1.4,0.3,2,0.5c-0.8,0.2-1.5,0.5-2.3,0.7c-0.1,0.7-0.2,1.3-0.4,2
										c-0.3-0.5-0.7-1-1.1-1.5c-0.8,0.3-1.5,0.5-2.3,0.8c0.5-0.6,1.1-1.1,1.6-1.7c-0.4-0.5-0.7-1-1.1-1.4
										c0.7,0.1,1.4,0.3,2.1,0.4C282.8,10.4,283.3,9.8,283.9,9.2z"/>
								</g>
								<g id="polygon189_4_">
									
										<path sodipodi:arg1="-1.570796" sodipodi:arg2="-0.942477796" sodipodi:cx="0.000000" sodipodi:cy="0.000000" sodipodi:r1="4.004000" sodipodi:r2="1.529391909" sodipodi:sides="5" sodipodi:type="star" class="st31" d="
										M295.1,12.8c-0.1,0.7-0.3,1.4-0.4,2.1c0.6,0.3,1.3,0.5,1.9,0.8c-0.7,0.1-1.4,0.3-2.1,0.5c-0.1,0.7-0.3,1.4-0.4,2.1
										c-0.3-0.6-0.6-1.2-0.9-1.8c-0.7,0.2-1.4,0.3-2.2,0.5c0.5-0.5,1.1-1.1,1.6-1.6c-0.3-0.6-0.6-1.2-0.9-1.7
										c0.6,0.2,1.3,0.5,1.9,0.7C294,13.8,294.6,13.3,295.1,12.8z"/>
								</g>
								<g id="polygon190_4_">
									
										<path sodipodi:arg1="-1.570796" sodipodi:arg2="-0.942477796" sodipodi:cx="0.000000" sodipodi:cy="0.000000" sodipodi:r1="4.004000" sodipodi:r2="1.529391909" sodipodi:sides="5" sodipodi:type="star" class="st31" d="
										M305.4,18c-0.2,0.7-0.3,1.4-0.5,2.1c0.6,0.4,1.2,0.7,1.7,1.1c-0.7,0.1-1.3,0.2-2,0.2c-0.2,0.7-0.3,1.4-0.5,2.2
										c-0.3-0.7-0.5-1.3-0.8-2c-0.7,0.1-1.3,0.2-2,0.3c0.5-0.5,1-1,1.5-1.5c-0.3-0.7-0.5-1.3-0.8-1.9c0.6,0.3,1.2,0.7,1.8,1
										C304.3,19,304.8,18.5,305.4,18z"/>
								</g>
								<g id="polygon191_4_">
									
										<path sodipodi:arg1="-1.570796" sodipodi:arg2="-0.942477796" sodipodi:cx="0.000000" sodipodi:cy="0.000000" sodipodi:r1="4.004000" sodipodi:r2="1.529391909" sodipodi:sides="5" sodipodi:type="star" class="st31" d="
										M314.9,24.6c-0.2,0.7-0.3,1.5-0.5,2.2c0.5,0.4,1.1,0.9,1.6,1.3c-0.6,0-1.3,0-1.9,0.1c-0.2,0.7-0.3,1.5-0.5,2.2
										c-0.2-0.7-0.5-1.4-0.7-2.2c-0.6,0-1.3,0.1-1.9,0.1c0.5-0.5,1-1,1.5-1.4c-0.2-0.7-0.5-1.4-0.7-2.1c0.5,0.4,1.1,0.8,1.6,1.2
										C313.9,25.6,314.4,25.1,314.9,24.6z"/>
								</g>
								<g id="polygon192_4_">
									
										<path sodipodi:arg1="-1.570796" sodipodi:arg2="-0.942477796" sodipodi:cx="0.000000" sodipodi:cy="0.000000" sodipodi:r1="4.004000" sodipodi:r2="1.529391909" sodipodi:sides="5" sodipodi:type="star" class="st31" d="
										M323.8,32.3c-0.2,0.8-0.3,1.5-0.5,2.3c0.5,0.5,1,1,1.5,1.4c-0.6,0-1.2,0-1.9,0c-0.2,0.8-0.3,1.5-0.5,2.3
										c-0.2-0.8-0.4-1.5-0.6-2.3c-0.6,0-1.2,0-1.9,0c0.5-0.5,1-0.9,1.5-1.4c-0.2-0.8-0.4-1.5-0.6-2.3c0.5,0.5,1,0.9,1.6,1.4
										C322.8,33.2,323.3,32.7,323.8,32.3z"/>
								</g>
							</g>
							<g id="g205_4_">
								<g id="polygon193_4_">
									
										<path sodipodi:arg1="-1.570796" sodipodi:arg2="-0.942477796" sodipodi:cx="0.000000" sodipodi:cy="0.000000" sodipodi:r1="4.004000" sodipodi:r2="1.529391909" sodipodi:sides="5" sodipodi:type="star" class="st31" d="
										M275.4,12.8c-0.1,0.6-0.2,1.3-0.3,1.9c0.7,0.1,1.4,0.2,2.1,0.3c-0.8,0.3-1.6,0.6-2.3,0.9c-0.1,0.6-0.2,1.3-0.3,1.9
										c-0.4-0.5-0.8-0.9-1.1-1.4c-0.8,0.3-1.6,0.6-2.4,0.9c0.6-0.6,1.1-1.2,1.7-1.8c-0.4-0.4-0.8-0.9-1.2-1.3
										c0.7,0.1,1.5,0.1,2.2,0.2C274.3,14,274.8,13.4,275.4,12.8z"/>
								</g>
								<g id="polygon201_4_">
									
										<path sodipodi:arg1="-1.570796" sodipodi:arg2="-0.942477796" sodipodi:cx="0.000000" sodipodi:cy="0.000000" sodipodi:r1="4.004000" sodipodi:r2="1.529391909" sodipodi:sides="5" sodipodi:type="star" class="st31" d="
										M287.1,15.4c-0.1,0.7-0.3,1.3-0.4,2c0.7,0.2,1.3,0.4,2,0.7c-0.7,0.2-1.5,0.4-2.2,0.6c-0.1,0.7-0.3,1.3-0.4,2
										c-0.3-0.6-0.6-1.1-1-1.6c-0.7,0.2-1.5,0.4-2.2,0.6c0.5-0.5,1.1-1.1,1.6-1.6c-0.3-0.5-0.7-1.1-1-1.6c0.7,0.2,1.3,0.4,2,0.6
										C286,16.4,286.6,15.9,287.1,15.4z"/>
								</g>
								<g id="polygon202_4_">
									
										<path sodipodi:arg1="-1.570796" sodipodi:arg2="-0.942477796" sodipodi:cx="0.000000" sodipodi:cy="0.000000" sodipodi:r1="4.004000" sodipodi:r2="1.529391909" sodipodi:sides="5" sodipodi:type="star" class="st31" d="
										M297.8,19.8c-0.1,0.7-0.3,1.4-0.4,2.1c0.6,0.3,1.2,0.6,1.8,1c-0.7,0.1-1.4,0.2-2.1,0.3c-0.1,0.7-0.3,1.4-0.4,2.1
										c-0.3-0.6-0.6-1.3-0.8-1.9c-0.7,0.1-1.4,0.3-2.1,0.4c0.5-0.5,1-1,1.6-1.5c-0.3-0.6-0.6-1.2-0.9-1.8
										c0.6,0.3,1.2,0.6,1.8,0.9C296.8,20.8,297.3,20.3,297.8,19.8z"/>
								</g>
								<g id="polygon203_4_">
									
										<path sodipodi:arg1="-1.570796" sodipodi:arg2="-0.942477796" sodipodi:cx="0.000000" sodipodi:cy="0.000000" sodipodi:r1="4.004000" sodipodi:r2="1.529391909" sodipodi:sides="5" sodipodi:type="star" class="st31" d="
										M307.7,25.7c-0.2,0.7-0.3,1.5-0.5,2.2c0.6,0.4,1.1,0.8,1.7,1.2c-0.6,0-1.3,0.1-2,0.1c-0.2,0.7-0.3,1.5-0.5,2.2
										c-0.2-0.7-0.5-1.4-0.7-2.1c-0.7,0.1-1.3,0.1-2,0.2c0.5-0.5,1-1,1.5-1.5c-0.3-0.7-0.5-1.4-0.8-2c0.6,0.4,1.1,0.8,1.7,1.1
										C306.7,26.7,307.2,26.2,307.7,25.7z"/>
								</g>
								<g id="polygon204_4_">
									
										<path sodipodi:arg1="-1.570796" sodipodi:arg2="-0.942477796" sodipodi:cx="0.000000" sodipodi:cy="0.000000" sodipodi:r1="4.004000" sodipodi:r2="1.529391909" sodipodi:sides="5" sodipodi:type="star" class="st31" d="
										M316.9,32.9c-0.2,0.7-0.3,1.5-0.5,2.2c0.5,0.5,1,0.9,1.6,1.4c-0.6,0-1.3,0-1.9,0c-0.2,0.7-0.3,1.5-0.5,2.2
										c-0.2-0.7-0.4-1.5-0.7-2.2c-0.6,0-1.3,0-1.9,0c0.5-0.5,1-0.9,1.5-1.4c-0.2-0.7-0.4-1.5-0.7-2.2c0.5,0.4,1.1,0.9,1.6,1.3
										C315.9,33.9,316.4,33.4,316.9,32.9z"/>
								</g>
							</g>
						</g>
						<g id="g232_4_" transform="translate(0,14)">
							<g id="g233_4_">
								<g id="polygon234_4_">
									
										<path sodipodi:arg1="-1.570796" sodipodi:arg2="-0.942477796" sodipodi:cx="0.000000" sodipodi:cy="0.000000" sodipodi:r1="4.004000" sodipodi:r2="1.529391909" sodipodi:sides="5" sodipodi:type="star" class="st31" d="
										M266.5,3c-0.1,0.6-0.2,1.2-0.3,1.8c0.8,0,1.5,0.1,2.3,0.1c-0.8,0.3-1.6,0.7-2.4,1c-0.1,0.6-0.2,1.2-0.3,1.8
										c-0.4-0.4-0.8-0.8-1.2-1.2c-0.8,0.4-1.6,0.7-2.5,1.1c0.6-0.6,1.1-1.2,1.7-1.8c-0.4-0.4-0.8-0.7-1.3-1.1c0.8,0,1.6,0,2.3,0
										C265.4,4.2,266,3.6,266.5,3z"/>
								</g>
								<g id="polygon235_4_">
									
										<path sodipodi:arg1="-1.570796" sodipodi:arg2="-0.942477796" sodipodi:cx="0.000000" sodipodi:cy="0.000000" sodipodi:r1="4.004000" sodipodi:r2="1.529391909" sodipodi:sides="5" sodipodi:type="star" class="st31" d="
										M278.9,4.4c-0.1,0.7-0.2,1.3-0.3,2c0.7,0.2,1.4,0.3,2,0.5c-0.8,0.2-1.5,0.5-2.3,0.7c-0.1,0.7-0.2,1.3-0.4,2
										c-0.3-0.5-0.7-1-1.1-1.5c-0.8,0.3-1.5,0.5-2.3,0.8c0.5-0.6,1.1-1.1,1.6-1.7c-0.4-0.5-0.7-1-1.1-1.4
										c0.7,0.1,1.4,0.3,2.1,0.4C277.8,5.6,278.3,5,278.9,4.4z"/>
								</g>
								<g id="polygon236_4_">
									
										<path sodipodi:arg1="-1.570796" sodipodi:arg2="-0.942477796" sodipodi:cx="0.000000" sodipodi:cy="0.000000" sodipodi:r1="4.004000" sodipodi:r2="1.529391909" sodipodi:sides="5" sodipodi:type="star" class="st31" d="
										M290.1,7.9c-0.1,0.7-0.3,1.4-0.4,2.1c0.6,0.3,1.3,0.5,1.9,0.8c-0.7,0.1-1.4,0.3-2.1,0.5c-0.1,0.7-0.3,1.4-0.4,2.1
										c-0.3-0.6-0.6-1.2-0.9-1.8c-0.7,0.2-1.4,0.3-2.2,0.5c0.5-0.5,1.1-1.1,1.6-1.6c-0.3-0.6-0.6-1.1-0.9-1.7
										c0.6,0.2,1.3,0.5,1.9,0.7C289,9,289.6,8.5,290.1,7.9z"/>
								</g>
								<g id="polygon237_4_">
									
										<path sodipodi:arg1="-1.570796" sodipodi:arg2="-0.942477796" sodipodi:cx="0.000000" sodipodi:cy="0.000000" sodipodi:r1="4.004000" sodipodi:r2="1.529391909" sodipodi:sides="5" sodipodi:type="star" class="st31" d="
										M300.4,13.2c-0.2,0.7-0.3,1.4-0.5,2.1c0.6,0.4,1.2,0.7,1.7,1.1c-0.7,0.1-1.3,0.2-2,0.2c-0.2,0.7-0.3,1.4-0.5,2.2
										c-0.3-0.7-0.5-1.3-0.8-2c-0.7,0.1-1.3,0.2-2,0.3c0.5-0.5,1-1,1.5-1.5c-0.3-0.7-0.5-1.3-0.8-1.9c0.6,0.3,1.2,0.7,1.8,1
										C299.3,14.2,299.8,13.7,300.4,13.2z"/>
								</g>
								<g id="polygon238_4_">
									
										<path sodipodi:arg1="-1.570796" sodipodi:arg2="-0.942477796" sodipodi:cx="0.000000" sodipodi:cy="0.000000" sodipodi:r1="4.004000" sodipodi:r2="1.529391909" sodipodi:sides="5" sodipodi:type="star" class="st31" d="
										M309.9,19.8c-0.2,0.7-0.3,1.5-0.5,2.2c0.5,0.4,1.1,0.9,1.6,1.3c-0.6,0-1.3,0-1.9,0.1c-0.2,0.7-0.3,1.5-0.5,2.2
										c-0.2-0.7-0.5-1.4-0.7-2.2c-0.6,0-1.3,0.1-1.9,0.1c0.5-0.5,1-1,1.5-1.4c-0.2-0.7-0.5-1.4-0.7-2.1c0.5,0.4,1.1,0.8,1.6,1.2
										C308.9,20.8,309.4,20.3,309.9,19.8z"/>
								</g>
								<g id="polygon239_4_">
									
										<path sodipodi:arg1="-1.570796" sodipodi:arg2="-0.942477796" sodipodi:cx="0.000000" sodipodi:cy="0.000000" sodipodi:r1="4.004000" sodipodi:r2="1.529391909" sodipodi:sides="5" sodipodi:type="star" class="st31" d="
										M318.8,27.5c-0.2,0.8-0.3,1.5-0.5,2.3c0.5,0.5,1,1,1.5,1.4c-0.6,0-1.2,0-1.9,0c-0.2,0.8-0.3,1.5-0.5,2.3
										c-0.2-0.8-0.4-1.5-0.6-2.3c-0.6,0-1.2,0-1.9,0c0.5-0.5,1-0.9,1.5-1.4c-0.2-0.8-0.4-1.5-0.6-2.3c0.5,0.5,1,0.9,1.6,1.4
										C317.8,28.4,318.3,27.9,318.8,27.5z"/>
								</g>
							</g>
							<g id="g240_4_">
								<g id="polygon241_4_">
									
										<path sodipodi:arg1="-1.570796" sodipodi:arg2="-0.942477796" sodipodi:cx="0.000000" sodipodi:cy="0.000000" sodipodi:r1="4.004000" sodipodi:r2="1.529391909" sodipodi:sides="5" sodipodi:type="star" class="st31" d="
										M270.4,8c-0.1,0.6-0.2,1.3-0.3,1.9c0.7,0.1,1.4,0.2,2.1,0.3c-0.8,0.3-1.6,0.6-2.3,0.9c-0.1,0.6-0.2,1.3-0.3,1.9
										c-0.4-0.5-0.8-0.9-1.1-1.4c-0.8,0.3-1.6,0.6-2.4,0.9c0.6-0.6,1.1-1.2,1.7-1.8c-0.4-0.4-0.8-0.9-1.2-1.3
										c0.7,0.1,1.5,0.1,2.2,0.2C269.2,9.2,269.8,8.6,270.4,8z"/>
								</g>
								<g id="polygon242_4_">
									
										<path sodipodi:arg1="-1.570796" sodipodi:arg2="-0.942477796" sodipodi:cx="0.000000" sodipodi:cy="0.000000" sodipodi:r1="4.004000" sodipodi:r2="1.529391909" sodipodi:sides="5" sodipodi:type="star" class="st31" d="
										M282.1,10.6c-0.1,0.7-0.3,1.3-0.4,2c0.7,0.2,1.3,0.4,2,0.7c-0.7,0.2-1.5,0.4-2.2,0.6c-0.1,0.7-0.3,1.3-0.4,2
										c-0.3-0.6-0.6-1.1-1-1.6c-0.7,0.2-1.5,0.4-2.2,0.6c0.5-0.5,1.1-1.1,1.6-1.6c-0.3-0.5-0.7-1.1-1-1.6c0.7,0.2,1.3,0.4,2,0.6
										C281,11.6,281.6,11.1,282.1,10.6z"/>
								</g>
								<g id="polygon243_4_">
									
										<path sodipodi:arg1="-1.570796" sodipodi:arg2="-0.942477796" sodipodi:cx="0.000000" sodipodi:cy="0.000000" sodipodi:r1="4.004000" sodipodi:r2="1.529391909" sodipodi:sides="5" sodipodi:type="star" class="st31" d="
										M292.8,15c-0.1,0.7-0.3,1.4-0.4,2.1c0.6,0.3,1.2,0.6,1.8,1c-0.7,0.1-1.4,0.2-2.1,0.3c-0.1,0.7-0.3,1.4-0.4,2.1
										c-0.3-0.6-0.6-1.3-0.8-1.9c-0.7,0.1-1.4,0.3-2.1,0.4c0.5-0.5,1-1,1.6-1.5c-0.3-0.6-0.6-1.2-0.9-1.8
										c0.6,0.3,1.2,0.6,1.8,0.9C291.8,16,292.3,15.5,292.8,15z"/>
								</g>
								<g id="polygon244_4_">
									
										<path sodipodi:arg1="-1.570796" sodipodi:arg2="-0.942477796" sodipodi:cx="0.000000" sodipodi:cy="0.000000" sodipodi:r1="4.004000" sodipodi:r2="1.529391909" sodipodi:sides="5" sodipodi:type="star" class="st31" d="
										M302.7,20.9c-0.2,0.7-0.3,1.5-0.5,2.2c0.6,0.4,1.1,0.8,1.7,1.2c-0.6,0-1.3,0.1-2,0.1c-0.2,0.7-0.3,1.5-0.5,2.2
										c-0.2-0.7-0.5-1.4-0.7-2.1c-0.7,0.1-1.3,0.1-2,0.2c0.5-0.5,1-1,1.5-1.5c-0.3-0.7-0.5-1.4-0.8-2c0.6,0.4,1.1,0.8,1.7,1.1
										C301.7,21.9,302.2,21.4,302.7,20.9z"/>
								</g>
								<g id="polygon245_4_">
									
										<path sodipodi:arg1="-1.570796" sodipodi:arg2="-0.942477796" sodipodi:cx="0.000000" sodipodi:cy="0.000000" sodipodi:r1="4.004000" sodipodi:r2="1.529391909" sodipodi:sides="5" sodipodi:type="star" class="st31" d="
										M311.9,28.1c-0.2,0.7-0.3,1.5-0.5,2.2c0.5,0.5,1,0.9,1.6,1.4c-0.6,0-1.3,0-1.9,0c-0.2,0.7-0.3,1.5-0.5,2.2
										c-0.2-0.7-0.4-1.5-0.7-2.2c-0.6,0-1.3,0-1.9,0c0.5-0.5,1-0.9,1.5-1.4c-0.2-0.7-0.4-1.5-0.7-2.2c0.5,0.4,1.1,0.9,1.6,1.3
										C310.9,29.1,311.4,28.6,311.9,28.1z"/>
								</g>
							</g>
						</g>
						<g id="g246_4_" transform="translate(0,28)">
							<g id="g247_4_">
								<g id="polygon248_4_">
									
										<path sodipodi:arg1="-1.570796" sodipodi:arg2="-0.942477796" sodipodi:cx="0.000000" sodipodi:cy="0.000000" sodipodi:r1="4.004000" sodipodi:r2="1.529391909" sodipodi:sides="5" sodipodi:type="star" class="st31" d="
										M261.5-1.8c-0.1,0.6-0.2,1.2-0.3,1.8c0.8,0,1.5,0.1,2.3,0.1c-0.8,0.3-1.6,0.7-2.4,1c-0.1,0.6-0.2,1.2-0.3,1.8
										c-0.4-0.4-0.8-0.8-1.2-1.2c-0.8,0.4-1.6,0.7-2.5,1.1c0.6-0.6,1.1-1.2,1.7-1.8c-0.4-0.4-0.8-0.7-1.3-1.1c0.8,0,1.6,0,2.3,0
										C260.4-0.6,261-1.2,261.5-1.8z"/>
								</g>
								<g id="polygon249_4_">
									
										<path sodipodi:arg1="-1.570796" sodipodi:arg2="-0.942477796" sodipodi:cx="0.000000" sodipodi:cy="0.000000" sodipodi:r1="4.004000" sodipodi:r2="1.529391909" sodipodi:sides="5" sodipodi:type="star" class="st31" d="
										M273.9-0.4c-0.1,0.7-0.2,1.3-0.3,2c0.7,0.2,1.4,0.3,2,0.5c-0.8,0.2-1.5,0.5-2.3,0.7c-0.1,0.7-0.2,1.3-0.4,2
										c-0.3-0.5-0.7-1-1.1-1.5c-0.8,0.3-1.5,0.5-2.3,0.8c0.5-0.6,1.1-1.1,1.6-1.7c-0.4-0.5-0.7-1-1.1-1.4
										c0.7,0.1,1.4,0.3,2.1,0.4C272.8,0.8,273.3,0.2,273.9-0.4z"/>
								</g>
								<g id="polygon250_4_">
									
										<path sodipodi:arg1="-1.570796" sodipodi:arg2="-0.942477796" sodipodi:cx="0.000000" sodipodi:cy="0.000000" sodipodi:r1="4.004000" sodipodi:r2="1.529391909" sodipodi:sides="5" sodipodi:type="star" class="st31" d="
										M285.1,3.1c-0.1,0.7-0.3,1.4-0.4,2.1c0.6,0.3,1.3,0.5,1.9,0.8c-0.7,0.1-1.4,0.3-2.1,0.5c-0.1,0.7-0.3,1.4-0.4,2.1
										c-0.3-0.6-0.6-1.2-0.9-1.8c-0.7,0.2-1.4,0.3-2.2,0.5c0.5-0.5,1.1-1.1,1.6-1.6c-0.3-0.6-0.6-1.2-0.9-1.7
										c0.6,0.2,1.3,0.5,1.9,0.7C284,4.2,284.5,3.7,285.1,3.1z"/>
								</g>
								<g id="polygon251_4_">
									
										<path sodipodi:arg1="-1.570796" sodipodi:arg2="-0.942477796" sodipodi:cx="0.000000" sodipodi:cy="0.000000" sodipodi:r1="4.004000" sodipodi:r2="1.529391909" sodipodi:sides="5" sodipodi:type="star" class="st31" d="
										M295.3,8.4c-0.2,0.7-0.3,1.4-0.5,2.1c0.6,0.4,1.2,0.7,1.7,1.1c-0.7,0.1-1.3,0.2-2,0.2c-0.2,0.7-0.3,1.4-0.5,2.2
										c-0.3-0.7-0.5-1.3-0.8-2c-0.7,0.1-1.3,0.2-2,0.3c0.5-0.5,1-1,1.5-1.5c-0.3-0.7-0.5-1.3-0.8-1.9c0.6,0.3,1.2,0.7,1.8,1
										C294.3,9.4,294.8,8.9,295.3,8.4z"/>
								</g>
								<g id="polygon252_4_">
									
										<path sodipodi:arg1="-1.570796" sodipodi:arg2="-0.942477796" sodipodi:cx="0.000000" sodipodi:cy="0.000000" sodipodi:r1="4.004000" sodipodi:r2="1.529391909" sodipodi:sides="5" sodipodi:type="star" class="st31" d="
										M304.9,15c-0.2,0.7-0.3,1.5-0.5,2.2c0.5,0.4,1.1,0.9,1.6,1.3c-0.6,0-1.3,0-1.9,0.1c-0.2,0.7-0.3,1.5-0.5,2.2
										c-0.2-0.7-0.5-1.4-0.7-2.2c-0.6,0-1.3,0.1-1.9,0.1c0.5-0.5,1-1,1.5-1.4c-0.2-0.7-0.5-1.4-0.7-2.1c0.5,0.4,1.1,0.8,1.6,1.2
										C303.9,16,304.4,15.5,304.9,15z"/>
								</g>
								<g id="polygon253_4_">
									
										<path sodipodi:arg1="-1.570796" sodipodi:arg2="-0.942477796" sodipodi:cx="0.000000" sodipodi:cy="0.000000" sodipodi:r1="4.004000" sodipodi:r2="1.529391909" sodipodi:sides="5" sodipodi:type="star" class="st31" d="
										M313.8,22.7c-0.2,0.8-0.3,1.5-0.5,2.3c0.5,0.5,1,1,1.5,1.4c-0.6,0-1.2,0-1.9,0c-0.2,0.8-0.3,1.5-0.5,2.3
										c-0.2-0.8-0.4-1.5-0.6-2.3c-0.6,0-1.2,0-1.9,0c0.5-0.5,1-0.9,1.5-1.4c-0.2-0.8-0.4-1.5-0.6-2.3c0.5,0.5,1,0.9,1.6,1.4
										C312.8,23.6,313.3,23.1,313.8,22.7z"/>
								</g>
							</g>
							<g id="g254_4_">
								<g id="polygon255_4_">
									
										<path sodipodi:arg1="-1.570796" sodipodi:arg2="-0.942477796" sodipodi:cx="0.000000" sodipodi:cy="0.000000" sodipodi:r1="4.004000" sodipodi:r2="1.529391909" sodipodi:sides="5" sodipodi:type="star" class="st31" d="
										M265.3,3.2c-0.1,0.6-0.2,1.3-0.3,1.9c0.7,0.1,1.4,0.2,2.1,0.3c-0.8,0.3-1.6,0.6-2.3,0.9c-0.1,0.6-0.2,1.3-0.3,1.9
										c-0.4-0.5-0.8-0.9-1.1-1.4c-0.8,0.3-1.6,0.6-2.4,0.9c0.6-0.6,1.1-1.2,1.7-1.8c-0.4-0.4-0.8-0.9-1.2-1.3
										c0.7,0.1,1.5,0.1,2.2,0.2C264.2,4.4,264.8,3.8,265.3,3.2z"/>
								</g>
								<g id="polygon256_4_">
									
										<path sodipodi:arg1="-1.570796" sodipodi:arg2="-0.942477796" sodipodi:cx="0.000000" sodipodi:cy="0.000000" sodipodi:r1="4.004000" sodipodi:r2="1.529391909" sodipodi:sides="5" sodipodi:type="star" class="st31" d="
										M277.1,5.7c-0.1,0.7-0.3,1.3-0.4,2c0.7,0.2,1.3,0.4,2,0.7c-0.7,0.2-1.5,0.4-2.2,0.6c-0.1,0.7-0.3,1.3-0.4,2
										c-0.3-0.6-0.6-1.1-1-1.6c-0.7,0.2-1.5,0.4-2.2,0.6c0.5-0.5,1.1-1.1,1.6-1.6c-0.3-0.5-0.7-1.1-1-1.6c0.7,0.2,1.3,0.4,2,0.6
										C276,6.8,276.6,6.3,277.1,5.7z"/>
								</g>
								<g id="polygon257_4_">
									
										<path sodipodi:arg1="-1.570796" sodipodi:arg2="-0.942477796" sodipodi:cx="0.000000" sodipodi:cy="0.000000" sodipodi:r1="4.004000" sodipodi:r2="1.529391909" sodipodi:sides="5" sodipodi:type="star" class="st31" d="
										M287.8,10.2c-0.1,0.7-0.3,1.4-0.4,2.1c0.6,0.3,1.2,0.6,1.8,1c-0.7,0.1-1.4,0.2-2.1,0.3c-0.1,0.7-0.3,1.4-0.4,2.1
										c-0.3-0.6-0.6-1.3-0.8-1.9c-0.7,0.1-1.4,0.3-2.1,0.4c0.5-0.5,1-1,1.6-1.5c-0.3-0.6-0.6-1.2-0.9-1.8
										c0.6,0.3,1.2,0.6,1.8,0.9C286.8,11.2,287.3,10.7,287.8,10.2z"/>
								</g>
								<g id="polygon258_4_">
									
										<path sodipodi:arg1="-1.570796" sodipodi:arg2="-0.942477796" sodipodi:cx="0.000000" sodipodi:cy="0.000000" sodipodi:r1="4.004000" sodipodi:r2="1.529391909" sodipodi:sides="5" sodipodi:type="star" class="st31" d="
										M297.7,16.1c-0.2,0.7-0.3,1.5-0.5,2.2c0.6,0.4,1.1,0.8,1.7,1.2c-0.6,0-1.3,0.1-2,0.1c-0.2,0.7-0.3,1.5-0.5,2.2
										c-0.2-0.7-0.5-1.4-0.7-2.1c-0.7,0.1-1.3,0.1-2,0.2c0.5-0.5,1-1,1.5-1.5c-0.3-0.7-0.5-1.4-0.8-2c0.6,0.4,1.1,0.8,1.7,1.1
										C296.7,17.1,297.2,16.6,297.7,16.1z"/>
								</g>
								<g id="polygon259_4_">
									
										<path sodipodi:arg1="-1.570796" sodipodi:arg2="-0.942477796" sodipodi:cx="0.000000" sodipodi:cy="0.000000" sodipodi:r1="4.004000" sodipodi:r2="1.529391909" sodipodi:sides="5" sodipodi:type="star" class="st31" d="
										M306.9,23.3c-0.2,0.7-0.3,1.5-0.5,2.2c0.5,0.5,1,0.9,1.6,1.4c-0.6,0-1.3,0-1.9,0c-0.2,0.7-0.3,1.5-0.5,2.2
										c-0.2-0.7-0.4-1.5-0.7-2.2c-0.6,0-1.3,0-1.9,0c0.5-0.5,1-0.9,1.5-1.4c-0.2-0.7-0.4-1.5-0.7-2.2c0.5,0.4,1.1,0.9,1.6,1.3
										C305.9,24.3,306.4,23.8,306.9,23.3z"/>
								</g>
							</g>
						</g>
						<g id="g260_4_" transform="translate(0,42)">
							<g id="g261_4_">
								<g id="polygon262_4_">
									
										<path sodipodi:arg1="-1.570796" sodipodi:arg2="-0.942477796" sodipodi:cx="0.000000" sodipodi:cy="0.000000" sodipodi:r1="4.004000" sodipodi:r2="1.529391909" sodipodi:sides="5" sodipodi:type="star" class="st31" d="
										M256.5-6.6c-0.1,0.6-0.2,1.2-0.3,1.8c0.8,0,1.5,0.1,2.3,0.1c-0.8,0.3-1.6,0.7-2.4,1c-0.1,0.6-0.2,1.2-0.3,1.8
										c-0.4-0.4-0.8-0.8-1.2-1.2c-0.8,0.4-1.6,0.7-2.5,1.1c0.6-0.6,1.1-1.2,1.7-1.8c-0.4-0.4-0.8-0.7-1.3-1.1c0.8,0,1.6,0,2.3,0
										C255.4-5.4,255.9-6,256.5-6.6z"/>
								</g>
								<g id="polygon263_4_">
									
										<path sodipodi:arg1="-1.570796" sodipodi:arg2="-0.942477796" sodipodi:cx="0.000000" sodipodi:cy="0.000000" sodipodi:r1="4.004000" sodipodi:r2="1.529391909" sodipodi:sides="5" sodipodi:type="star" class="st31" d="
										M268.9-5.2c-0.1,0.7-0.2,1.3-0.3,2c0.7,0.2,1.4,0.3,2,0.5c-0.8,0.2-1.5,0.5-2.3,0.7c-0.1,0.7-0.2,1.3-0.4,2
										c-0.3-0.5-0.7-1-1.1-1.5c-0.8,0.3-1.5,0.5-2.3,0.8c0.5-0.6,1.1-1.1,1.6-1.7c-0.4-0.5-0.7-1-1.1-1.4
										c0.7,0.1,1.4,0.3,2.1,0.4C267.8-4,268.3-4.6,268.9-5.2z"/>
								</g>
								<g id="polygon264_4_">
									
										<path sodipodi:arg1="-1.570796" sodipodi:arg2="-0.942477796" sodipodi:cx="0.000000" sodipodi:cy="0.000000" sodipodi:r1="4.004000" sodipodi:r2="1.529391909" sodipodi:sides="5" sodipodi:type="star" class="st31" d="
										M280.1-1.7c-0.1,0.7-0.3,1.4-0.4,2.1c0.6,0.3,1.3,0.5,1.9,0.8c-0.7,0.1-1.4,0.3-2.1,0.5c-0.1,0.7-0.3,1.4-0.4,2.1
										c-0.3-0.6-0.6-1.2-0.9-1.8c-0.7,0.2-1.4,0.3-2.2,0.5c0.5-0.5,1.1-1.1,1.6-1.6c-0.3-0.6-0.6-1.2-0.9-1.7
										c0.6,0.2,1.3,0.5,1.9,0.7C279-0.6,279.5-1.1,280.1-1.7z"/>
								</g>
								<g id="polygon265_4_">
									
										<path sodipodi:arg1="-1.570796" sodipodi:arg2="-0.942477796" sodipodi:cx="0.000000" sodipodi:cy="0.000000" sodipodi:r1="4.004000" sodipodi:r2="1.529391909" sodipodi:sides="5" sodipodi:type="star" class="st31" d="
										M290.3,3.6c-0.2,0.7-0.3,1.4-0.5,2.1c0.6,0.4,1.2,0.7,1.7,1.1c-0.7,0.1-1.3,0.2-2,0.2c-0.2,0.7-0.3,1.4-0.5,2.2
										c-0.3-0.7-0.5-1.3-0.8-2c-0.7,0.1-1.3,0.2-2,0.3c0.5-0.5,1-1,1.5-1.5c-0.3-0.7-0.5-1.3-0.8-1.9c0.6,0.3,1.2,0.7,1.8,1
										C289.3,4.6,289.8,4.1,290.3,3.6z"/>
								</g>
								<g id="polygon266_4_">
									
										<path sodipodi:arg1="-1.570796" sodipodi:arg2="-0.942477796" sodipodi:cx="0.000000" sodipodi:cy="0.000000" sodipodi:r1="4.004000" sodipodi:r2="1.529391909" sodipodi:sides="5" sodipodi:type="star" class="st31" d="
										M299.8,10.2c-0.2,0.7-0.3,1.5-0.5,2.2c0.5,0.4,1.1,0.9,1.6,1.3c-0.6,0-1.3,0-1.9,0.1c-0.2,0.7-0.3,1.5-0.5,2.2
										c-0.2-0.7-0.5-1.4-0.7-2.2c-0.6,0-1.3,0.1-1.9,0.1c0.5-0.5,1-1,1.5-1.4c-0.2-0.7-0.5-1.4-0.7-2.1c0.5,0.4,1.1,0.8,1.6,1.2
										C298.9,11.1,299.3,10.7,299.8,10.2z"/>
								</g>
								<g id="polygon267_4_">
									
										<path sodipodi:arg1="-1.570796" sodipodi:arg2="-0.942477796" sodipodi:cx="0.000000" sodipodi:cy="0.000000" sodipodi:r1="4.004000" sodipodi:r2="1.529391909" sodipodi:sides="5" sodipodi:type="star" class="st31" d="
										M308.8,17.9c-0.2,0.8-0.3,1.5-0.5,2.3c0.5,0.5,1,1,1.5,1.4c-0.6,0-1.2,0-1.9,0c-0.2,0.8-0.3,1.5-0.5,2.3
										c-0.2-0.8-0.4-1.5-0.6-2.3c-0.6,0-1.2,0-1.9,0c0.5-0.5,1-0.9,1.5-1.4c-0.2-0.8-0.4-1.5-0.6-2.3c0.5,0.5,1,0.9,1.6,1.4
										C307.8,18.8,308.3,18.3,308.8,17.9z"/>
								</g>
							</g>
							<g id="g268_4_">
								<g id="polygon269_4_">
									
										<path sodipodi:arg1="-1.570796" sodipodi:arg2="-0.942477796" sodipodi:cx="0.000000" sodipodi:cy="0.000000" sodipodi:r1="4.004000" sodipodi:r2="1.529391909" sodipodi:sides="5" sodipodi:type="star" class="st31" d="
										M260.3-1.6c-0.1,0.6-0.2,1.3-0.3,1.9c0.7,0.1,1.4,0.2,2.1,0.3c-0.8,0.3-1.6,0.6-2.3,0.9c-0.1,0.6-0.2,1.3-0.3,1.9
										c-0.4-0.5-0.8-0.9-1.1-1.4c-0.8,0.3-1.6,0.6-2.4,0.9c0.6-0.6,1.1-1.2,1.7-1.8c-0.4-0.4-0.8-0.9-1.2-1.3
										c0.7,0.1,1.5,0.1,2.2,0.2C259.2-0.4,259.8-1,260.3-1.6z"/>
								</g>
								<g id="polygon270_4_">
									
										<path sodipodi:arg1="-1.570796" sodipodi:arg2="-0.942477796" sodipodi:cx="0.000000" sodipodi:cy="0.000000" sodipodi:r1="4.004000" sodipodi:r2="1.529391909" sodipodi:sides="5" sodipodi:type="star" class="st31" d="
										M272.1,0.9c-0.1,0.7-0.3,1.3-0.4,2c0.7,0.2,1.3,0.4,2,0.7c-0.7,0.2-1.5,0.4-2.2,0.6c-0.1,0.7-0.3,1.3-0.4,2
										c-0.3-0.6-0.6-1.1-1-1.6c-0.7,0.2-1.5,0.4-2.2,0.6c0.5-0.5,1.1-1.1,1.6-1.6c-0.3-0.5-0.7-1.1-1-1.6c0.7,0.2,1.3,0.4,2,0.6
										C271,2,271.6,1.5,272.1,0.9z"/>
								</g>
								<g id="polygon271_4_">
									
										<path sodipodi:arg1="-1.570796" sodipodi:arg2="-0.942477796" sodipodi:cx="0.000000" sodipodi:cy="0.000000" sodipodi:r1="4.004000" sodipodi:r2="1.529391909" sodipodi:sides="5" sodipodi:type="star" class="st31" d="
										M282.8,5.4c-0.1,0.7-0.3,1.4-0.4,2.1c0.6,0.3,1.2,0.6,1.8,1c-0.7,0.1-1.4,0.2-2.1,0.3c-0.1,0.7-0.3,1.4-0.4,2.1
										c-0.3-0.6-0.6-1.3-0.8-1.9c-0.7,0.1-1.4,0.3-2.1,0.4c0.5-0.5,1-1,1.6-1.5c-0.3-0.6-0.6-1.2-0.9-1.8
										c0.6,0.3,1.2,0.6,1.8,0.9C281.8,6.4,282.3,5.9,282.8,5.4z"/>
								</g>
								<g id="polygon272_4_">
									
										<path sodipodi:arg1="-1.570796" sodipodi:arg2="-0.942477796" sodipodi:cx="0.000000" sodipodi:cy="0.000000" sodipodi:r1="4.004000" sodipodi:r2="1.529391909" sodipodi:sides="5" sodipodi:type="star" class="st31" d="
										M292.7,11.3c-0.2,0.7-0.3,1.5-0.5,2.2c0.6,0.4,1.1,0.8,1.7,1.2c-0.6,0-1.3,0.1-2,0.1c-0.2,0.7-0.3,1.5-0.5,2.2
										c-0.2-0.7-0.5-1.4-0.7-2.1c-0.7,0.1-1.3,0.1-2,0.2c0.5-0.5,1-1,1.5-1.5c-0.3-0.7-0.5-1.4-0.8-2c0.6,0.4,1.1,0.8,1.7,1.1
										C291.7,12.3,292.2,11.8,292.7,11.3z"/>
								</g>
								<g id="polygon273_4_">
									
										<path sodipodi:arg1="-1.570796" sodipodi:arg2="-0.942477796" sodipodi:cx="0.000000" sodipodi:cy="0.000000" sodipodi:r1="4.004000" sodipodi:r2="1.529391909" sodipodi:sides="5" sodipodi:type="star" class="st31" d="
										M301.9,18.5c-0.2,0.7-0.3,1.5-0.5,2.2c0.5,0.5,1,0.9,1.6,1.4c-0.6,0-1.3,0-1.9,0c-0.2,0.7-0.3,1.5-0.5,2.2
										c-0.2-0.7-0.4-1.5-0.7-2.2c-0.6,0-1.3,0-1.9,0c0.5-0.5,1-0.9,1.5-1.4c-0.2-0.7-0.4-1.5-0.7-2.2c0.5,0.4,1.1,0.9,1.6,1.3
										C300.9,19.4,301.4,19,301.9,18.5z"/>
								</g>
							</g>
						</g>
						<g id="g211_4_" transform="translate(0,56)">
							<g id="polygon212_4_">
								
									<path sodipodi:arg1="-1.570796" sodipodi:arg2="-0.942477796" sodipodi:cx="0.000000" sodipodi:cy="0.000000" sodipodi:r1="4.004000" sodipodi:r2="1.529391909" sodipodi:sides="5" sodipodi:type="star" class="st31" d="
									M251.5-11.4c-0.1,0.6-0.2,1.2-0.3,1.8c0.8,0,1.5,0.1,2.3,0.1c-0.8,0.3-1.6,0.7-2.4,1c-0.1,0.6-0.2,1.2-0.3,1.8
									c-0.4-0.4-0.8-0.8-1.2-1.2c-0.8,0.4-1.6,0.7-2.5,1.1c0.6-0.6,1.1-1.2,1.7-1.8c-0.4-0.4-0.8-0.7-1.3-1.1c0.8,0,1.6,0,2.3,0
									C250.4-10.2,250.9-10.8,251.5-11.4z"/>
							</g>
							<g id="polygon213_4_">
								
									<path sodipodi:arg1="-1.570796" sodipodi:arg2="-0.942477796" sodipodi:cx="0.000000" sodipodi:cy="0.000000" sodipodi:r1="4.004000" sodipodi:r2="1.529391909" sodipodi:sides="5" sodipodi:type="star" class="st31" d="
									M263.8-10c-0.1,0.7-0.2,1.3-0.3,2c0.7,0.2,1.4,0.3,2,0.5c-0.8,0.2-1.5,0.5-2.3,0.7c-0.1,0.7-0.2,1.3-0.4,2
									c-0.3-0.5-0.7-1-1.1-1.5c-0.8,0.3-1.5,0.5-2.3,0.8c0.5-0.6,1.1-1.1,1.6-1.7c-0.4-0.5-0.7-1-1.1-1.4c0.7,0.1,1.4,0.3,2.1,0.4
									C262.8-8.9,263.3-9.4,263.8-10z"/>
							</g>
							<g id="polygon214_4_">
								
									<path sodipodi:arg1="-1.570796" sodipodi:arg2="-0.942477796" sodipodi:cx="0.000000" sodipodi:cy="0.000000" sodipodi:r1="4.004000" sodipodi:r2="1.529391909" sodipodi:sides="5" sodipodi:type="star" class="st31" d="
									M275.1-6.5c-0.1,0.7-0.3,1.4-0.4,2.1c0.6,0.3,1.3,0.5,1.9,0.8c-0.7,0.1-1.4,0.3-2.1,0.5c-0.1,0.7-0.3,1.4-0.4,2.1
									c-0.3-0.6-0.6-1.2-0.9-1.8c-0.7,0.2-1.4,0.3-2.2,0.5c0.5-0.5,1.1-1.1,1.6-1.6c-0.3-0.6-0.6-1.2-0.9-1.7
									c0.6,0.2,1.3,0.5,1.9,0.7C274-5.4,274.5-5.9,275.1-6.5z"/>
							</g>
							<g id="polygon215_4_">
								
									<path sodipodi:arg1="-1.570796" sodipodi:arg2="-0.942477796" sodipodi:cx="0.000000" sodipodi:cy="0.000000" sodipodi:r1="4.004000" sodipodi:r2="1.529391909" sodipodi:sides="5" sodipodi:type="star" class="st31" d="
									M285.3-1.2c-0.2,0.7-0.3,1.4-0.5,2.1c0.6,0.4,1.2,0.7,1.7,1.1c-0.7,0.1-1.3,0.2-2,0.2c-0.2,0.7-0.3,1.4-0.5,2.2
									c-0.3-0.7-0.5-1.3-0.8-2c-0.7,0.1-1.3,0.2-2,0.3c0.5-0.5,1-1,1.5-1.5c-0.3-0.7-0.5-1.3-0.8-1.9c0.6,0.3,1.2,0.7,1.8,1
									C284.3-0.2,284.8-0.7,285.3-1.2z"/>
							</g>
							<g id="polygon216_4_">
								
									<path sodipodi:arg1="-1.570796" sodipodi:arg2="-0.942477796" sodipodi:cx="0.000000" sodipodi:cy="0.000000" sodipodi:r1="4.004000" sodipodi:r2="1.529391909" sodipodi:sides="5" sodipodi:type="star" class="st31" d="
									M294.8,5.4c-0.2,0.7-0.3,1.5-0.5,2.2c0.5,0.4,1.1,0.9,1.6,1.3c-0.6,0-1.3,0-1.9,0.1c-0.2,0.7-0.3,1.5-0.5,2.2
									c-0.2-0.7-0.5-1.4-0.7-2.2c-0.6,0-1.3,0.1-1.9,0.1c0.5-0.5,1-1,1.5-1.4c-0.2-0.7-0.5-1.4-0.7-2.1c0.5,0.4,1.1,0.8,1.6,1.2
									C293.8,6.3,294.3,5.9,294.8,5.4z"/>
							</g>
							<g id="polygon217_4_">
								
									<path sodipodi:arg1="-1.570796" sodipodi:arg2="-0.942477796" sodipodi:cx="0.000000" sodipodi:cy="0.000000" sodipodi:r1="4.004000" sodipodi:r2="1.529391909" sodipodi:sides="5" sodipodi:type="star" class="st31" d="
									M303.8,13.1c-0.2,0.8-0.3,1.5-0.5,2.3c0.5,0.5,1,1,1.5,1.4c-0.6,0-1.2,0-1.9,0c-0.2,0.8-0.3,1.5-0.5,2.3
									c-0.2-0.8-0.4-1.5-0.6-2.3c-0.6,0-1.2,0-1.9,0c0.5-0.5,1-0.9,1.5-1.4c-0.2-0.8-0.4-1.5-0.6-2.3c0.5,0.5,1,0.9,1.6,1.4
									C302.8,14,303.3,13.5,303.8,13.1z"/>
							</g>
						</g>
					</g>
				</g>
				<g>
					<g>
						<defs>
							<path id="SVGID_3_" d="M329.2,34.4C329.2,34.4,329.2,34.4,329.2,34.4C329.2,34.4,329.2,34.4,329.2,34.4c-0.5-0.5-1-1-1.5-1.4
								c-0.1-0.1-0.2-0.2-0.3-0.3c-1-0.9-1.9-1.8-2.9-2.7c-0.1-0.1-0.2-0.2-0.3-0.3c-0.5-0.4-1-0.9-1.4-1.3
								c-0.1-0.1-0.2-0.1-0.2-0.2c-0.4-0.4-0.9-0.8-1.3-1.2c-0.1-0.1-0.2-0.1-0.2-0.2c-0.5-0.4-1-0.8-1.5-1.2
								c-0.1-0.1-0.2-0.2-0.3-0.3c-1-0.8-2-1.7-3.1-2.5c-0.1-0.1-0.2-0.2-0.3-0.3c-0.5-0.4-1-0.8-1.5-1.2c-0.1-0.1-0.2-0.1-0.3-0.2
								c-0.5-0.3-0.9-0.7-1.4-1c-0.1-0.1-0.2-0.1-0.3-0.2c-0.5-0.4-1-0.7-1.5-1.1c-0.1-0.1-0.2-0.2-0.3-0.2
								c-1.1-0.7-2.1-1.4-3.2-2.1c-0.1-0.1-0.2-0.1-0.4-0.2c-0.5-0.3-1.1-0.7-1.6-1c-0.1-0.1-0.2-0.1-0.3-0.2
								c-0.5-0.3-1-0.6-1.5-0.9c-0.1-0.1-0.2-0.1-0.3-0.2c-0.6-0.3-1.1-0.6-1.7-0.9c-0.1-0.1-0.2-0.1-0.4-0.2
								c-1.1-0.6-2.3-1.1-3.5-1.7c-0.1-0.1-0.3-0.1-0.4-0.2c-0.6-0.3-1.2-0.5-1.7-0.7c-0.1,0-0.2-0.1-0.3-0.1
								c-0.5-0.2-1.1-0.4-1.6-0.6c-0.1,0-0.2-0.1-0.3-0.1c-0.6-0.2-1.2-0.4-1.8-0.6c-0.1,0-0.3-0.1-0.4-0.1
								c-1.2-0.4-2.5-0.8-3.8-1.1c-0.1,0-0.3-0.1-0.4-0.1c-0.6-0.2-1.3-0.3-1.9-0.4c-0.1,0-0.2,0-0.3-0.1c-0.6-0.1-1.2-0.2-1.8-0.3
								c-0.1,0-0.2,0-0.3-0.1c-0.7-0.1-1.3-0.2-2-0.3c-0.1,0-0.3,0-0.4-0.1c-1.4-0.2-2.7-0.3-4.2-0.4c-0.2,0-0.3,0-0.5,0
								c-0.7,0-1.4-0.1-2.1-0.1c-0.1,0-0.2,0-0.3,0c-0.6,0-1.3,0-2,0c-0.1,0-0.2,0-0.4,0c-0.7,0-1.4,0-2.2,0c-0.2,0-0.3,0-0.5,0
								c-0.7,0-1.5,0.1-2.3,0.1c-1.2,2.2-2.4,4.4-3.6,6.6c-1.2,2.2-2.4,4.4-3.6,6.6c-1.2,2.2-2.4,4.4-3.6,6.6
								c-1.2,2.2-2.4,4.4-3.6,6.6c-1.2,2.2-2.4,4.4-3.6,6.6c-1.2,2.2-2.4,4.4-3.6,6.6c-1.2,2.2-2.4,4.4-3.6,6.6
								c-1.2,2.2-2.4,4.4-3.6,6.6c-1.2,2.2-2.4,4.4-3.6,6.6c-1.2,2.2-2.4,4.4-3.6,6.6c-1.2,2.2-2.4,4.4-3.6,6.6
								c-1.2,2.2-2.4,4.4-3.6,6.6c-1.2,2.2-2.4,4.4-3.6,6.6c68.3-4.9,83.5,87.6,151.8,82.7c1.2-2.2,2.4-4.4,3.6-6.6
								c1.2-2.2,2.4-4.4,3.6-6.6c1.2-2.2,2.4-4.4,3.6-6.6c1.2-2.2,2.4-4.4,3.6-6.6c1.2-2.2,2.4-4.4,3.6-6.6c1.2-2.2,2.4-4.4,3.6-6.6
								c1.2-2.2,2.4-4.4,3.6-6.6c1.2-2.2,2.4-4.4,3.6-6.6c1.2-2.2,2.4-4.4,3.6-6.6c1.2-2.2,2.4-4.4,3.6-6.6c1.2-2.2,2.4-4.4,3.6-6.6
								c1.2-2.2,2.4-4.4,3.6-6.6c1.2-2.2,2.4-4.4,3.6-6.6C376.8,91.6,354.9,59.5,329.2,34.4z M255.6,52.5L255.6,52.5
								c-0.1,0-0.3,0-0.4-0.1c0,0,0,0,0,0C255.3,52.4,255.5,52.5,255.6,52.5z M260,53.3L260,53.3c-0.1,0-0.2,0-0.3-0.1l0,0
								C259.8,53.2,259.9,53.3,260,53.3z M270.5,56.5L270.5,56.5c-0.1,0-0.2-0.1-0.3-0.1l0,0C270.3,56.4,270.4,56.5,270.5,56.5z
								 M272.3,57.3c0.1,0.1,0.3,0.1,0.4,0.2l0,0C272.5,57.4,272.4,57.3,272.3,57.3L272.3,57.3z M274.4,58.2
								C274.4,58.2,274.4,58.2,274.4,58.2C274.4,58.2,274.4,58.2,274.4,58.2L274.4,58.2z M292.6,70C292.6,70,292.6,70,292.6,70
								C292.6,70,292.6,70,292.6,70z M302.4,78.7c0.1,0.1,0.2,0.2,0.3,0.3c0,0,0,0,0,0C302.6,78.9,302.5,78.8,302.4,78.7
								C302.4,78.7,302.4,78.7,302.4,78.7z M304.1,80.3c1.3,1.3,2.6,2.5,3.9,3.8c0.7,0.7,1.3,1.3,2,2c-0.7-0.7-1.3-1.3-2-2
								C306.7,82.9,305.4,81.6,304.1,80.3L304.1,80.3z M316.8,93.3c-1-1-2-2.1-2.9-3.1C314.8,91.3,315.8,92.3,316.8,93.3z
								 M320.7,97.4c1.3,1.4,2.6,2.7,3.9,4.1c0.6,0.6,1.2,1.2,1.8,1.8c-0.6-0.6-1.2-1.2-1.8-1.8C323.3,100.1,322,98.8,320.7,97.4
								c-0.7-0.7-1.3-1.4-2-2C319.4,96.1,320.1,96.7,320.7,97.4z M336.8,113.1c-1.4-1.2-2.8-2.5-4.1-3.7
								C334,110.6,335.4,111.9,336.8,113.1z M345,100.9c0.7,0.6,1.4,1.2,2.1,1.8C346.4,102.1,345.7,101.5,345,100.9z M342.1,98.3
								c0.6,0.6,1.2,1.1,1.9,1.7C343.3,99.4,342.7,98.9,342.1,98.3z M339.8,96.2c0.6,0.6,1.2,1.1,1.8,1.7
								C341,97.4,340.4,96.8,339.8,96.2z M329.8,86.3c0.7,0.7,1.3,1.4,2,2C331.2,87.7,330.5,87,329.8,86.3z M325.9,82.2
								c0.7,0.7,1.3,1.4,2,2C327.2,83.6,326.6,82.9,325.9,82.2z M321,77.1c1,1,2,2,2.9,3.1C323,79.2,322,78.1,321,77.1z M313.4,69.3
								c0.6,0.6,1.2,1.2,1.8,1.8C314.5,70.4,313.9,69.8,313.4,69.3z M311.3,67.3L311.3,67.3c0.5,0.5,1,1,1.5,1.5
								C312.3,68.2,311.8,67.7,311.3,67.3z M266.5,55.1L266.5,55.1c-0.1,0-0.3-0.1-0.4-0.1c0,0,0,0,0,0
								C266.3,55,266.4,55,266.5,55.1z M268.3,55.7c0.1,0,0.2,0.1,0.3,0.1c0,0,0,0,0,0C268.5,55.7,268.4,55.7,268.3,55.7
								C268.3,55.7,268.3,55.7,268.3,55.7z M267.1,63.2c-1.3-0.5-2.5-1-3.8-1.4C264.6,62.2,265.9,62.6,267.1,63.2z M269.7,64.3
								c-0.4-0.2-0.9-0.4-1.3-0.6C268.8,63.9,269.3,64.1,269.7,64.3z M274.5,66.6c-0.4-0.2-0.8-0.4-1.2-0.6
								C273.7,66.2,274.1,66.4,274.5,66.6z M341,116.7c-1.1-0.9-2.1-1.8-3.2-2.7C338.9,114.9,339.9,115.8,341,116.7
								c0.7,0.6,1.4,1.1,2.1,1.7C342.4,117.8,341.7,117.2,341,116.7z M264.2,54.3C264.2,54.3,264.2,54.3,264.2,54.3
								C264.2,54.3,264.2,54.3,264.2,54.3z M260.9,61c-0.5-0.2-1-0.3-1.6-0.4C259.9,60.7,260.4,60.8,260.9,61z M257.3,67.5
								c-0.5-0.2-1-0.3-1.6-0.4C256.3,67.2,256.8,67.4,257.3,67.5z M263.5,69.7c-1.3-0.5-2.5-1-3.8-1.4
								C261,68.7,262.3,69.2,263.5,69.7z M266.1,70.8c-0.4-0.2-0.9-0.4-1.3-0.6C265.2,70.4,265.7,70.6,266.1,70.8z M270.9,73.2
								c-0.4-0.2-0.8-0.4-1.2-0.6C270.1,72.8,270.5,73,270.9,73.2z M345.3,120c0.7,0.5,1.5,1.1,2.2,1.6
								C346.8,121.1,346,120.6,345.3,120z M354.7,108.5c-0.7-0.5-1.5-1-2.2-1.6C353.2,107.4,353.9,108,354.7,108.5z M257.6,52.8
								c0.1,0,0.2,0,0.3,0.1l0,0C257.8,52.8,257.7,52.8,257.6,52.8L257.6,52.8z M256.6,59.9c-0.9-0.2-1.8-0.4-2.8-0.5
								C254.8,59.5,255.7,59.7,256.6,59.9z M253,66.4c-0.9-0.2-1.8-0.4-2.8-0.5C251.2,66.1,252.1,66.2,253,66.4z M254.8,74.4
								c-0.9-0.3-1.8-0.5-2.7-0.8C253.1,73.9,254,74.2,254.8,74.4z M260,76.3c-1.3-0.5-2.5-1-3.8-1.4
								C257.4,75.3,258.7,75.8,260,76.3z M263.7,77.9c-0.8-0.4-1.6-0.8-2.5-1.1C262.1,77.2,262.9,77.5,263.7,77.9z M267.3,79.8
								c-0.4-0.2-0.8-0.4-1.2-0.6C266.5,79.3,266.9,79.6,267.3,79.8z M349.8,123.1c1.5,1,3,1.9,4.6,2.8
								C352.8,125,351.3,124.1,349.8,123.1z M356.9,110c0.8,0.5,1.5,1,2.3,1.4C358.4,111,357.7,110.5,356.9,110z M252.4,59.1
								c-0.9-0.1-1.9-0.3-2.9-0.4C250.5,58.8,251.5,59,252.4,59.1z M248.8,65.7c-0.9-0.1-1.9-0.3-2.9-0.4
								C246.9,65.4,247.9,65.5,248.8,65.7z M249.5,73c-0.9-0.2-1.8-0.4-2.8-0.5C247.6,72.6,248.5,72.8,249.5,73z M245.9,79.6
								c-0.9-0.2-1.8-0.4-2.8-0.5C244,79.2,245,79.4,245.9,79.6z M251.2,81c-0.9-0.3-1.8-0.5-2.7-0.8
								C249.5,80.5,250.4,80.7,251.2,81z M256.4,82.9c-1.3-0.5-2.5-1-3.8-1.4C253.9,81.9,255.1,82.3,256.4,82.9z M260.1,84.5
								c-0.8-0.4-1.6-0.8-2.5-1.1C258.5,83.7,259.3,84.1,260.1,84.5z M263.7,86.3c-0.4-0.2-0.8-0.4-1.2-0.6
								C262.9,85.9,263.3,86.1,263.7,86.3z M353.3,142.1c-0.8-0.4-1.6-0.8-2.4-1.2C351.6,141.4,352.4,141.8,353.3,142.1z
								 M354.4,134.4c0.8,0.4,1.6,0.8,2.4,1.2C356,135.2,355.2,134.8,354.4,134.4z M358,127.8c0.8,0.4,1.6,0.8,2.4,1.2
								C359.6,128.6,358.8,128.2,358,127.8z M245.3,72.2c-0.9-0.1-1.9-0.3-2.9-0.4C243.4,72,244.3,72.1,245.3,72.2z M241.7,78.8
								c-0.9-0.1-1.9-0.3-2.9-0.4C239.8,78.5,240.7,78.7,241.7,78.8z M235.2,85c1,0.1,1.9,0.2,2.9,0.4
								C237.2,85.2,236.2,85.1,235.2,85z M239.5,85.6c0.9,0.2,1.9,0.3,2.8,0.5C241.4,85.9,240.5,85.8,239.5,85.6z M245,86.8
								c0.9,0.2,1.8,0.5,2.7,0.8C246.8,87.3,245.9,87,245,86.8z M249,88c1.3,0.4,2.6,0.9,3.8,1.4C251.6,88.9,250.3,88.4,249,88z
								 M254.1,89.9c0.8,0.4,1.7,0.7,2.5,1.1C255.7,90.7,254.9,90.3,254.1,89.9z M259,92.3c0.4,0.2,0.8,0.4,1.2,0.6
								C259.8,92.7,259.4,92.5,259,92.3z M340.1,160.7c0.8,0.4,1.6,0.8,2.4,1.2C341.7,161.5,340.9,161.1,340.1,160.7z M343.7,154.1
								c0.8,0.4,1.6,0.8,2.4,1.2C345.3,154.9,344.5,154.5,343.7,154.1z M347.2,147.5c0.8,0.4,1.6,0.8,2.4,1.2
								C348.9,148.3,348,147.9,347.2,147.5z M362.9,130.1c0.8,0.3,1.7,0.7,2.5,1C364.6,130.7,363.7,130.4,362.9,130.1z M370.7,132.7
								c0.9,0.2,1.8,0.5,2.7,0.7C372.5,133.1,371.6,132.9,370.7,132.7z M380.5,134.5c1,0.1,2,0.2,2.9,0.2
								C382.4,134.7,381.5,134.6,380.5,134.5z M361.5,121.3c0.8,0.4,1.6,0.8,2.4,1.2C363.2,122.1,362.4,121.7,361.5,121.3z
								 M365.1,114.7c0.8,0.4,1.6,0.8,2.4,1.2C366.7,115.5,365.9,115.1,365.1,114.7z M368.7,108.1c0.8,0.4,1.6,0.8,2.4,1.2
								C370.3,108.9,369.5,108.5,368.7,108.1z M372.3,101.6c0.8,0.4,1.6,0.8,2.4,1.2C373.9,102.4,373.1,102,372.3,101.6z M375.9,95
								c0.8,0.4,1.6,0.8,2.4,1.2C377.5,95.8,376.7,95.4,375.9,95z M379.4,88.4c0.8,0.4,1.6,0.8,2.4,1.2
								C381.1,89.2,380.2,88.8,379.4,88.4z"/>
						</defs>
						<clipPath id="SVGID_4_">
							<use xlink:href="#SVGID_3_"  style="overflow:visible;"/>
						</clipPath>
						<rect x="379.4" y="88.4" class="st33" width="2.4" height="1.2"/>
						<rect x="375.9" y="95" class="st33" width="2.4" height="1.2"/>
						<polygon class="st33" points="374.7,102.3 374.5,102.7 372.3,102.7 372.3,101.6 374.7,101.6 						"/>
						<polygon class="st34" points="374.5,102.7 374.7,102.3 374.7,102.7 						"/>
						<polygon class="st33" points="371,108.1 370.3,109.3 368.7,109.3 368.7,108.1 						"/>
						<polygon class="st34" points="370.3,109.3 371,108.1 371.1,108.1 371.1,109.3 						"/>
						<polygon class="st33" points="366.9,114.7 366.1,115.9 365.1,115.9 365.1,114.7 						"/>
						<polygon class="st34" points="366.1,115.9 366.9,114.7 367.6,114.7 367.6,115.9 						"/>
						<polygon class="st33" points="362.7,121.3 362,122.4 361.5,122.4 361.5,121.3 						"/>
						<polygon class="st34" points="362,122.4 362.7,121.3 364,121.3 364,122.4 						"/>
						<polygon class="st35" points="381.3,134.5 381.1,134.7 380.5,134.7 380.5,134.5 						"/>
						<polygon class="st35" points="381.1,134.7 381.3,134.5 383.4,134.5 383.4,134.7 						"/>
						<rect x="370.7" y="132.7" class="st36" width="2.7" height="0.7"/>
						<polygon class="st34" points="363.9,130.1 363.3,131 362.9,131 362.9,130.1 						"/>
						<polygon class="st37" points="363.3,131 363.9,130.1 365.4,130.1 365.4,131 						"/>
						<rect x="347.2" y="147.5" class="st34" width="2.4" height="1.2"/>
						<rect x="343.7" y="154.1" class="st34" width="2.4" height="1.2"/>
						<rect x="340.1" y="160.7" class="st34" width="2.4" height="1.2"/>
						<polygon class="st38" points="259.9,92.3 259.5,92.9 259,92.9 259,92.3 						"/>
						<polygon class="st39" points="259.5,92.9 259.9,92.3 260.1,92.3 260.1,92.9 						"/>
						<polygon class="st40" points="254.6,89.9 254.1,90.8 254.1,89.9 						"/>
						<polygon class="st38" points="254.1,90.8 254.6,89.9 256.5,89.9 256.5,91.1 254.1,91.1 						"/>
						<polygon class="st41" points="249.1,88 249,88.2 249,88 						"/>
						<polygon class="st40" points="249,88.2 249.1,88 252.8,88 252.8,89.4 249,89.4 						"/>
						<rect x="245" y="86.8" class="st41" width="2.7" height="0.8"/>
						<rect x="239.5" y="85.6" class="st42" width="2.8" height="0.5"/>
						<polygon class="st43" points="237.5,85 237.3,85.4 235.2,85.4 235.2,85 						"/>
						<polygon class="st42" points="237.3,85.4 237.5,85 238.1,85 238.1,85.4 						"/>
						<polygon class="st43" points="241.7,78.4 241.5,78.8 238.8,78.8 238.8,78.4 241.7,78.4 						"/>
						<polygon class="st42" points="241.5,78.8 241.7,78.4 241.7,78.8 						"/>
						<rect x="242.4" y="71.9" class="st43" width="2.9" height="0.4"/>
						<polygon class="st33" points="358.6,127.8 358,128.8 358,127.8 						"/>
						<polygon class="st34" points="358,128.8 358.6,127.8 360.4,127.8 360.4,129 358,129 						"/>
						<rect x="354.4" y="134.4" class="st34" width="2.4" height="1.2"/>
						<rect x="350.8" y="141" class="st34" width="2.4" height="1.2"/>
						<polygon class="st38" points="263.7,86.2 263.6,86.3 262.5,86.3 262.5,85.7 263.7,85.7 						"/>
						<polygon class="st39" points="263.6,86.3 263.7,86.2 263.7,86.3 						"/>
						<polygon class="st40" points="258.8,83.4 258.1,84.5 257.6,84.5 257.6,83.4 						"/>
						<polygon class="st38" points="258.1,84.5 258.8,83.4 260.1,83.4 260.1,84.5 						"/>
						<polygon class="st41" points="253.3,81.4 252.6,82.6 252.6,81.4 						"/>
						<polygon class="st40" points="252.6,82.6 253.3,81.4 256.4,81.4 256.4,82.9 252.6,82.9 						"/>
						<rect x="248.6" y="80.2" class="st41" width="2.7" height="0.8"/>
						<rect x="243.1" y="79" class="st42" width="2.8" height="0.5"/>
						<rect x="246.7" y="72.5" class="st42" width="2.8" height="0.5"/>
						<rect x="246" y="65.3" class="st43" width="2.9" height="0.4"/>
						<rect x="249.5" y="58.7" class="st43" width="2.9" height="0.4"/>
						<rect x="356.9" y="110" class="st44" width="2.3" height="1.4"/>
						<polygon class="st44" points="353.7,123.1 354.4,123.6 354.4,123.8 353,125.9 350.4,125.9 349.8,125.5 349.8,123.1 						"/>
						<polygon class="st33" points="353,125.9 354.4,123.8 354.4,125.9 						"/>
						<rect x="266.1" y="79.1" class="st38" width="1.2" height="0.6"/>
						<polygon class="st40" points="262.9,76.8 262.2,77.9 261.2,77.9 261.2,76.8 						"/>
						<polygon class="st38" points="262.2,77.9 262.9,76.8 263.7,76.8 263.7,77.9 						"/>
						<polygon class="st41" points="257.4,74.9 256.5,76.3 256.1,76.3 256.1,74.9 						"/>
						<polygon class="st40" points="256.5,76.3 257.4,74.9 260,74.9 260,76.3 						"/>
						<rect x="252.2" y="73.7" class="st41" width="2.7" height="0.8"/>
						<rect x="250.3" y="65.9" class="st42" width="2.8" height="0.5"/>
						<rect x="253.8" y="59.3" class="st42" width="2.8" height="0.5"/>
						<polygon class="st43" points="257.9,52.8 257.9,52.9 257.6,52.9 257.6,52.8 257.9,52.8 						"/>
						<polygon class="st42" points="257.9,52.9 257.9,52.8 257.9,52.9 						"/>
						<rect x="352.5" y="106.9" class="st45" width="2.2" height="1.6"/>
						<rect x="345.3" y="120" class="st45" width="2.2" height="1.6"/>
						<rect x="269.7" y="72.6" class="st38" width="1.2" height="0.6"/>
						<rect x="264.8" y="70.2" class="st40" width="1.3" height="0.6"/>
						<polygon class="st41" points="261.6,68.3 260.7,69.7 259.7,69.7 259.7,68.3 						"/>
						<polygon class="st40" points="260.7,69.7 261.6,68.3 263.5,68.3 263.5,69.7 						"/>
						<rect x="255.7" y="67.1" class="st41" width="1.6" height="0.4"/>
						<polygon class="st42" points="259.8,60.5 259.5,61 259.3,61 259.3,60.5 						"/>
						<polygon class="st41" points="259.5,61 259.8,60.5 260.9,60.5 260.9,61 						"/>
						<rect x="264.2" y="54.3" class="st41" width="0" height="0"/>
						<polygon class="st46" points="340.4,114 338.1,117.6 337.8,117.4 337.8,114 						"/>
						<polygon class="st47" points="341.6,114 343.1,115 343.1,118.4 339.4,118.4 338.1,117.6 340.4,114 						"/>
						<rect x="273.3" y="66" class="st38" width="1.2" height="0.6"/>
						<rect x="268.4" y="63.7" class="st40" width="1.3" height="0.6"/>
						<polygon class="st41" points="265.8,61.7 264.9,63.2 263.3,63.2 263.3,61.7 						"/>
						<polygon class="st40" points="264.9,63.2 265.8,61.7 267.1,61.7 267.1,63.2 						"/>
						<rect x="268.3" y="55.7" class="st41" width="0.3" height="0.1"/>
						<rect x="266.1" y="54.9" class="st41" width="0.4" height="0.1"/>
						<rect x="311.3" y="67.3" class="st48" width="1.5" height="1.5"/>
						<polygon class="st48" points="314.9,69.3 313.7,71 313.4,71 313.4,69.3 						"/>
						<polygon class="st49" points="313.7,71 314.9,69.3 315.1,69.3 315.1,71 						"/>
						<polygon class="st50" points="323.4,77.1 321.4,80.2 321,80.2 321,77.1 						"/>
						<polygon class="st51" points="321.4,80.2 323.4,77.1 324,77.1 324,80.2 						"/>
						<polygon class="st51" points="326.8,82.2 325.9,83.7 325.9,82.2 						"/>
						<polygon class="st52" points="325.9,83.7 326.8,82.2 327.9,82.2 327.9,84.3 325.9,84.3 						"/>
						<polygon class="st52" points="331,86.3 329.8,88.1 329.8,86.3 						"/>
						<polygon class="st53" points="329.8,88.1 331,86.3 331.8,86.3 331.8,88.4 329.8,88.4 						"/>
						<rect x="339.8" y="96.2" class="st54" width="1.8" height="1.7"/>
						<polygon class="st54" points="343.6,98.3 342.5,100 342.1,100 342.1,98.3 						"/>
						<polygon class="st46" points="342.5,100 343.6,98.3 343.9,98.3 343.9,100 						"/>
						<rect x="345" y="100.9" class="st46" width="2.1" height="1.8"/>
						<polygon class="st54" points="336.4,109.4 336.5,109.4 334.2,113.1 333,113.1 332.7,112.9 332.7,109.4 						"/>
						<polygon class="st46" points="336.5,109.4 336.8,109.6 336.8,113.1 334.2,113.1 						"/>
						<polygon class="st52" points="322.5,95.4 324.5,96.6 320.9,102.2 318.8,100.8 318.8,95.4 						"/>
						<polygon class="st53" points="324.5,96.6 326.4,97.9 326.4,103.3 322.7,103.3 320.9,102.2 						"/>
						<polygon class="st50" points="315,90.3 313.9,92.1 313.9,90.3 						"/>
						<polygon class="st51" points="313.9,92.1 315,90.3 316.8,90.3 316.8,93.3 313.9,93.3 						"/>
						<polygon class="st48" points="307.8,80.3 307.8,80.3 304.7,85.2 304.1,84.8 304.1,80.3 						"/>
						<polygon class="st49" points="307.8,80.3 309.9,81.7 309.9,86.2 306.2,86.2 304.7,85.2 						"/>
						<rect x="302.4" y="78.7" class="st48" width="0.3" height="0.3"/>
						<rect x="292.6" y="70" class="st55" width="0" height="0"/>
						<rect x="274.4" y="58.2" class="st40" width="0" height="0"/>
						<rect x="272.3" y="57.3" class="st40" width="0.4" height="0.2"/>
						<rect x="270.2" y="56.4" class="st40" width="0.3" height="0.1"/>
						<rect x="259.7" y="53.2" class="st42" width="0.3" height="0.1"/>
						<rect x="255.2" y="52.4" class="st43" width="0.4" height="0.1"/>
						<polygon class="st56" points="274.2,5.8 219.5,92.3 219.5,5.8 						"/>
						<polygon class="st56" points="281,5.8 219.5,102.9 219.5,92.3 274.2,5.8 						"/>
						<polygon class="st43" points="287.7,5.8 219.5,113.5 219.5,102.9 281,5.8 						"/>
						<polygon class="st42" points="294.1,5.8 294.4,6 219.5,124.1 219.5,113.5 287.7,5.8 						"/>
						<polygon class="st41" points="294.4,6 299.2,9 222.3,130.2 219.5,128.4 219.5,124.1 						"/>
						
							<rect x="191.4" y="68.3" transform="matrix(0.5354 -0.8446 0.8446 0.5354 62.1715 255.3107)" class="st40" width="143.5" height="5.7"/>
						
							<rect x="196.2" y="71.3" transform="matrix(0.5354 -0.8446 0.8446 0.5354 61.8312 260.7835)" class="st38" width="143.5" height="5.7"/>
						
							<rect x="201" y="74.4" transform="matrix(0.5354 -0.8446 0.8446 0.5354 61.4909 266.2564)" class="st39" width="143.5" height="5.7"/>
						
							<rect x="205.8" y="77.4" transform="matrix(0.5354 -0.8446 0.8446 0.5354 61.1506 271.7292)" class="st57" width="143.5" height="5.7"/>
						
							<rect x="210.6" y="80.5" transform="matrix(0.5354 -0.8446 0.8446 0.5354 60.8103 277.2021)" class="st55" width="143.5" height="5.7"/>
						
							<rect x="215.4" y="83.5" transform="matrix(0.5354 -0.8446 0.8446 0.5354 60.4699 282.6749)" class="st58" width="143.5" height="5.7"/>
						
							<rect x="220.2" y="86.6" transform="matrix(0.5354 -0.8446 0.8446 0.5354 60.1296 288.1478)" class="st59" width="143.5" height="5.7"/>
						
							<rect x="225" y="89.6" transform="matrix(0.5354 -0.8446 0.8446 0.5354 59.7893 293.6206)" class="st48" width="143.5" height="5.7"/>
						
							<rect x="229.8" y="92.7" transform="matrix(0.5354 -0.8446 0.8446 0.5354 59.449 299.0935)" class="st49" width="143.5" height="5.7"/>
						
							<rect x="234.7" y="95.7" transform="matrix(0.5354 -0.8446 0.8446 0.5354 59.1087 304.5663)" class="st50" width="143.5" height="5.7"/>
						
							<rect x="239.5" y="98.8" transform="matrix(0.5354 -0.8446 0.8446 0.5354 58.7684 310.0392)" class="st51" width="143.5" height="5.7"/>
						
							<rect x="244.3" y="101.8" transform="matrix(0.5354 -0.8446 0.8446 0.5354 58.4281 315.512)" class="st52" width="143.5" height="5.7"/>
						
							<rect x="249.1" y="104.8" transform="matrix(0.5354 -0.8446 0.8446 0.5354 58.0877 320.9849)" class="st53" width="143.5" height="5.7"/>
						
							<rect x="253.9" y="107.9" transform="matrix(0.5354 -0.8446 0.8446 0.5354 57.7474 326.4577)" class="st60" width="143.5" height="5.7"/>
						
							<rect x="258.7" y="110.9" transform="matrix(0.5354 -0.8446 0.8446 0.5354 57.4071 331.9306)" class="st54" width="143.5" height="5.7"/>
						
							<rect x="263.5" y="114" transform="matrix(0.5354 -0.8446 0.8446 0.5354 57.0668 337.4034)" class="st46" width="143.5" height="5.7"/>
						<polygon class="st47" points="376,57.8 380.8,60.8 305.9,179 299.2,179 299.2,178.9 						"/>
						<polygon class="st45" points="380.8,60.8 385.6,63.9 312.7,179 305.9,179 						"/>
						<polygon class="st44" points="385.6,63.9 390.5,66.9 319.4,179 312.7,179 						"/>
						<polygon class="st33" points="390.5,66.9 395.3,69.9 326.1,179 319.4,179 						"/>
						<polygon class="st34" points="395.3,69.9 400.1,73 332.9,179 326.1,179 						"/>
						<polygon class="st37" points="400.1,73 404.9,76 339.6,179 332.9,179 						"/>
						<polygon class="st36" points="404.9,76 409.7,79.1 346.4,179 339.6,179 						"/>
						<polygon class="st35" points="409.7,79.1 414.5,82.1 353.1,179 346.4,179 						"/>
						<polygon class="st35" points="414.5,82.1 417.7,84.2 417.7,179 353.1,179 						"/>
					</g>
				</g>
			</g>
		</g>
		<g>
			<g>
				<g>
					
						<rect x="89.2" y="100.3" transform="matrix(-0.4783 -0.8782 0.8782 -0.4783 207.7171 329.1585)" class="st0" width="224.9" height="5.1"/>
				</g>
				<g>
					<g>
						<defs>
							
								<rect id="SVGID_5_" x="91.3" y="102.5" transform="matrix(-0.4783 -0.8782 0.8782 -0.4783 205.4977 329.5172)" width="218.7" height="2.5"/>
						</defs>
						<clipPath id="SVGID_6_">
							<use xlink:href="#SVGID_5_"  style="overflow:visible;"/>
						</clipPath>
						<polygon class="st61" points="254,199.5 149.3,7.1 254,7.1 						"/>
						<polygon class="st61" points="254,199.8 149.1,7.1 149.3,7.1 254,199.5 						"/>
						<polygon class="st62" points="254,200.2 148.9,7.1 149.1,7.1 254,199.8 						"/>
						<polygon class="st63" points="254,200.4 148.7,7.1 148.9,7.1 254,200.2 254,200.4 						"/>
						<polygon class="st64" points="253.8,200.4 148.5,7.1 148.7,7.1 254,200.4 						"/>
						<polygon class="st65" points="253.6,200.4 148.3,7.1 148.5,7.1 253.8,200.4 						"/>
						<polygon class="st66" points="253.4,200.4 148.1,7.1 148.3,7.1 253.6,200.4 						"/>
						<polygon class="st67" points="253.2,200.4 147.9,7.1 148.1,7.1 253.4,200.4 						"/>
						<polygon class="st68" points="253,200.4 147.8,7.1 147.9,7.1 253.2,200.4 						"/>
						<polygon class="st69" points="252.8,200.4 147.6,7.1 147.8,7.1 253,200.4 						"/>
						<polygon class="st70" points="252.6,200.4 147.4,7.1 147.6,7.1 252.8,200.4 						"/>
						<polygon class="st71" points="252.5,200.4 147.2,7.1 147.2,7.1 147.4,7.1 252.6,200.4 						"/>
						<polygon class="st72" points="252.3,200.4 147.2,7.5 147.2,7.1 252.5,200.4 						"/>
						<polygon class="st73" points="252.1,200.4 147.2,7.8 147.2,7.5 252.3,200.4 						"/>
						<polygon class="st74" points="251.9,200.4 147.2,8.1 147.2,7.8 252.1,200.4 						"/>
						<polygon class="st75" points="251.7,200.4 147.2,8.5 147.2,8.1 251.9,200.4 						"/>
						<polygon class="st76" points="251.5,200.4 147.2,8.8 147.2,8.5 251.7,200.4 						"/>
						<polygon class="st77" points="251.3,200.4 147.2,9.2 147.2,8.8 251.5,200.4 						"/>
						<polygon class="st78" points="251.1,200.4 147.2,9.5 147.2,9.2 251.3,200.4 						"/>
						<polygon class="st79" points="251,200.4 147.2,9.9 147.2,9.5 251.1,200.4 						"/>
						<polygon class="st80" points="250.8,200.4 147.2,10.2 147.2,9.9 251,200.4 						"/>
						<polygon class="st81" points="250.6,200.4 147.2,10.6 147.2,10.2 250.8,200.4 						"/>
						<polygon class="st82" points="250.4,200.4 147.2,10.9 147.2,10.6 250.6,200.4 						"/>
						<polygon class="st83" points="250.2,200.4 147.2,11.2 147.2,10.9 250.4,200.4 						"/>
						<polygon class="st84" points="250,200.4 147.2,11.6 147.2,11.2 250.2,200.4 						"/>
						<polygon class="st85" points="249.8,200.4 147.2,11.9 147.2,11.6 250,200.4 						"/>
						<polygon class="st86" points="249.6,200.4 147.2,12.3 147.2,11.9 249.8,200.4 						"/>
						<polygon class="st87" points="249.5,200.4 147.2,12.6 147.2,12.3 249.6,200.4 						"/>
						<polygon class="st88" points="249.3,200.4 147.2,13 147.2,12.6 249.5,200.4 						"/>
						<polygon class="st88" points="147.2,13 249.3,200.4 147.2,200.4 						"/>
					</g>
				</g>
				<g>
					
						<rect x="146.7" y="3.8" transform="matrix(0.8782 -0.4783 0.4783 0.8782 14.9704 72.2052)" class="st29" width="5.1" height="5.8"/>
				</g>
				<g>
					<path class="st0" d="M142.9,7.1L142.9,7.1c0.8,1.5,2.7,2.1,4.2,1.2l4.6-2.5c1.5-0.8,2.1-2.7,1.2-4.2l0,0
						c-0.8-1.5-2.7-2.1-4.2-1.2l-4.6,2.5C142.7,3.7,142.1,5.6,142.9,7.1z"/>
				</g>
				<g>
					
						<rect x="252.2" y="197.5" transform="matrix(0.8782 -0.4783 0.4783 0.8782 -64.8487 146.2879)" class="st29" width="5.1" height="5.8"/>
				</g>
				<g>
					<path class="st0" d="M251,205.5L251,205.5c-0.8-1.5-0.3-3.4,1.2-4.2l4.6-2.5c1.5-0.8,3.4-0.3,4.2,1.2v0
						c0.8,1.5,0.3,3.4-1.2,4.2l-4.6,2.5C253.7,207.6,251.8,207,251,205.5z"/>
				</g>
			</g>
			<g>
				<g>
					<g id="g390_5_">
						<g id="g169_5_">
							<g>
								<path class="st31" d="M152.9,6.4C84.7,1.6,68.3,94,0,89.1c1.2,2.2,13.3,23.9,14.5,26.1c68.3,4.9,83.5-87.9,151.8-83
									C165.1,30,154.1,8.6,152.9,6.4z"/>
							</g>
							<g>
								<g>
									<path class="st89" d="M166.2,32.2C98,27.3,82.7,119.7,14.5,114.9c1.2,2.2,2.4,4.4,3.6,6.6c1.1,2,11.1,21.9,12,23.1
										c68.3,4.9,83.4-88.8,151.7-83.9C180.5,58.4,167.4,34.4,166.2,32.2z"/>
								</g>
							</g>
							<g>
								<path class="st30" d="M181.6,60.4c-68.3-4.9-84.1,87.6-152.4,82.7c1,1.8,15.1,28.6,16.3,30.7c68.3,4.9,83.5-89.4,151.8-84.5
									C196.1,87.1,182.8,62.6,181.6,60.4z"/>
							</g>
						</g>
					</g>
				</g>
			</g>
		</g>
	</g>
</g>
</svg>
