<?xml version="1.0" encoding="utf-8"?>
<!-- Generator: Adobe Illustrator 19.2.1, SVG Export Plug-In . SVG Version: 6.00 Build 0)  -->
<svg version="1.1" xmlns="http://www.w3.org/2000/svg" xmlns:xlink="http://www.w3.org/1999/xlink" x="0px" y="0px"
	 viewBox="0 0 161.3 164" style="enable-background:new 0 0 161.3 164;" xml:space="preserve">
<style type="text/css">
	.st0{opacity:8.000000e-002;}
	.st1{opacity:0.7;}
	.st2{fill:url(#SVGID_1_);}
	.st3{fill:url(#SVGID_2_);}
	.st4{fill:url(#SVGID_3_);}
	.st5{fill:url(#SVGID_4_);}
	.st6{fill:#A8D8F4;}
	.st7{fill:url(#SVGID_5_);}
	.st8{fill:#402E4A;}
	.st9{opacity:0.4;fill:#A8D8F4;}
	.st10{fill-rule:evenodd;clip-rule:evenodd;fill:#A8D8F4;}
	.st11{fill-rule:evenodd;clip-rule:evenodd;fill:none;}
	.st12{fill:url(#SVGID_6_);}
	.st13{fill:url(#SVGID_7_);}
	.st14{opacity:0.64;fill:#A2D7F7;}
	.st15{fill:url(#SVGID_8_);}
</style>
<g id="Слой_1">
</g>
<g id="Слой_3">
	<g class="st0">
		<g class="st1">
			<g>
				<linearGradient id="SVGID_1_" gradientUnits="userSpaceOnUse" x1="5.6647" y1="85.0859" x2="129.2695" y2="85.0859">
					<stop  offset="0" style="stop-color:#FFFFFF"/>
					<stop  offset="0.9894" style="stop-color:#230038"/>
				</linearGradient>
				<circle class="st2" cx="67.5" cy="85.1" r="61.8"/>
				<linearGradient id="SVGID_2_" gradientUnits="userSpaceOnUse" x1="17.6201" y1="85.086" x2="117.3145" y2="85.086">
					<stop  offset="0" style="stop-color:#FFFFFF"/>
					<stop  offset="0.9894" style="stop-color:#230038"/>
				</linearGradient>
				<circle class="st3" cx="67.5" cy="85.1" r="49.8"/>
				<linearGradient id="SVGID_3_" gradientUnits="userSpaceOnUse" x1="27.093" y1="85.0861" x2="107.8425" y2="85.0861">
					<stop  offset="0" style="stop-color:#FFFFFF"/>
					<stop  offset="0.9894" style="stop-color:#230038"/>
				</linearGradient>
				<circle class="st4" cx="67.5" cy="85.1" r="40.4"/>
				<linearGradient id="SVGID_4_" gradientUnits="userSpaceOnUse" x1="34.5765" y1="85.0859" x2="100.3578" y2="85.0859">
					<stop  offset="0" style="stop-color:#FFFFFF"/>
					<stop  offset="0.9894" style="stop-color:#230038"/>
				</linearGradient>
				<circle class="st5" cx="67.5" cy="85.1" r="32.9"/>
			</g>
		</g>
	</g>
</g>
<g id="Слой_2">
	<g>
		<g>
			<g>
				<g>
					<path class="st6" d="M55.6,11.6c0,0-3.9,1.6-4,0.3C51.6,12,51.4,10.6,55.6,11.6z"/>
					<path class="st6" d="M55,11.7c0,0-3,1.2-3.1,0.3C51.8,11.9,51.7,11,55,11.7z"/>
					<path class="st6" d="M54.4,11.7c0,0-2.4,0.9-2.4,0.2C52,11.9,51.8,11.2,54.4,11.7z"/>
				</g>
				<g>
					<path class="st6" d="M55.4,8.9c0,0-3.9,1.6-4,0.3C51.4,9.3,51.2,7.9,55.4,8.9z"/>
					<path class="st6" d="M54.7,9c0,0-3,1.2-3.1,0.3C51.6,9.2,51.4,8.3,54.7,9z"/>
					<path class="st6" d="M54.2,9c0,0-2.4,0.9-2.4,0.2C51.7,9.2,51.6,8.5,54.2,9z"/>
				</g>
				<g>
					<path class="st6" d="M57.6,10.1c0,0-3.9,1.6-4,0.3C53.6,10.4,53.3,9.1,57.6,10.1z"/>
					<path class="st6" d="M56.9,10.1c0,0-3,1.2-3.1,0.3C53.8,10.4,53.6,9.4,56.9,10.1z"/>
					<path class="st6" d="M56.4,10.2c0,0-2.4,0.9-2.4,0.2C53.9,10.4,53.8,9.6,56.4,10.2z"/>
				</g>
			</g>
			<g>
				<g>
					<g>
						<path class="st6" d="M46.7,13.7c0,0,0.5,1.7,2.1,2c1.1,0.2,2.9-0.9,3.5-1.9c0,0-2.6,0.9-3.3-0.9L46.7,13.7z"/>
					</g>
					<g>
						<path class="st6" d="M46.3,8.3c0,0,0.2-1.7,1.7-2.3c1.1-0.4,3,0.4,3.7,1.3c0,0-2.7-0.4-3.1,1.4L46.3,8.3z"/>
					</g>
				</g>
				<g>
					<g>
						<g>
							<path class="st6" d="M49.8,9.1c0.3,0.5,0.4,1.4,0.5,1.6c0,0.2,0,1.1-0.2,1.6l0.9-0.1c0,0,0.2-0.7,0.1-1.6l0,0c0,0,0,0,0,0
								c0,0,0,0,0,0l0,0c-0.1-0.9-0.4-1.6-0.4-1.6L49.8,9.1z"/>
						</g>
						<g>
							<g>
								<path class="st6" d="M39.4,8.7C37,9.8,35.9,12,35.9,12s1.4,1.9,4,2.6c1.8,0.5,3.6,0.4,6.5-0.6c2.9-0.9,3.8-1.3,3.8-1.3
									s0.3-0.7,0.2-1.9c-0.1-1.2-0.6-2-0.6-2s-0.9-0.2-3.9-0.6C42.9,7.7,41.1,7.9,39.4,8.7z"/>
								<g>
									<polygon class="st6" points="38.8,10.3 38.8,10.3 38.8,10.3 									"/>
								</g>
								<g>
									<path class="st6" d="M45.9,11.2c0.2,1.8,0,2.9,0,3l-0.6,0.2c0,0,0.5-3-0.5-6.3l0.6,0.1C45.7,9.2,45.8,10.2,45.9,11.2z"/>
								</g>
								<g>
									<path class="st6" d="M45,11.2c0.2,1.8,0,3.1,0,3.2l-0.4,0.1c0,0,0.4-3.2-0.6-6.6l0.4,0C44.7,9.1,44.9,10.3,45,11.2z"/>
								</g>
								<g>
									<path class="st6" d="M40,8.5c-0.6,3.6,0.5,6.2,0.5,6.2l-0.4-0.1c0-0.1-1-2.6-0.5-6L40,8.5z"/>
								</g>
							</g>
							<g>
								
									<linearGradient id="SVGID_5_" gradientUnits="userSpaceOnUse" x1="40.3419" y1="10.364" x2="44.2925" y2="10.364" gradientTransform="matrix(0.9738 -0.2274 0.2274 0.9738 -1.3435 10.9396)">
									<stop  offset="0" style="stop-color:#FFFFFF"/>
									<stop  offset="0.9894" style="stop-color:#230038"/>
								</linearGradient>
								<circle class="st7" cx="42.2" cy="11.4" r="2"/>
								
									<ellipse transform="matrix(0.9963 -8.554386e-002 8.554386e-002 0.9963 -0.8214 3.6537)" class="st8" cx="42.2" cy="11.4" rx="1.4" ry="1.4"/>
							</g>
							<g>
								<path class="st6" d="M38.9,9c-2.1,1.2-3,3-3,3s1.2,1.7,3.5,2.5C39.4,14.4,38.5,12.5,38.9,9z"/>
								<g>
									<polygon class="st6" points="38.8,10.3 38.8,10.3 38.8,10.3 									"/>
								</g>
							</g>
						</g>
					</g>
					<g>
						<path class="st6" d="M46.5,11c0,0,2.5,1.9,6.7-0.6C53.2,10.4,49,8.9,46.5,11z"/>
					</g>
				</g>
			</g>
		</g>
		<path class="st9" d="M36,12C36,12,36,12,36,12C36,12,36,12,36,12C36,12,36,12,36,12C36,12,36,12,36,12C36,12,36,12,36,12
			C36,12.1,36,12.1,36,12c0.1,0.1,0.1,0.1,0.1,0.1c0,0,0,0,0,0c0,0,0,0,0,0c0,0,0,0,0,0c0,0,0,0,0,0c0,0,0,0,0,0c0,0,0,0,0,0
			c0,0,0,0,0,0c0,0,0,0,0,0.1c0,0,0,0,0,0c0,0,0,0,0.1,0.1c0,0,0,0,0,0c0,0,0,0,0.1,0.1c0,0,0,0,0,0c0.2,0.2,0.4,0.4,0.6,0.6
			c0,0,0,0,0,0c0,0,0.1,0.1,0.1,0.1c0,0,0,0,0,0c0,0,0.1,0.1,0.1,0.1c0,0,0,0,0,0c0,0,0.1,0.1,0.1,0.1c0,0,0,0,0,0
			c0,0,0.1,0.1,0.1,0.1c0,0,0,0,0,0c0,0,0.1,0.1,0.1,0.1c0,0,0,0,0,0c0,0,0.1,0.1,0.1,0.1c0,0,0,0,0,0c0,0,0.1,0.1,0.1,0.1
			c0,0,0,0,0,0c0,0,0.1,0.1,0.1,0.1c0,0,0,0,0,0c0,0,0.1,0.1,0.1,0.1c0,0,0,0,0,0c0.1,0,0.1,0.1,0.2,0.1c0,0,0,0,0,0
			c0.2,0.1,0.5,0.2,0.8,0.3c0,0,0,0,0,0l0,0c0.2,0.1,0.3,0.1,0.5,0.2c0.1,0,0.1,0,0.2,0.1c0,0,0,0,0,0l0,0c0.1,0,0.2,0,0.3,0.1
			l0.1,0c0,0,0,0,0,0c1.2,0.2,2.5,0.2,4.1-0.2c0,0,0,0,0,0l0.2,0c0,0,0.1,0,0.1,0l0,0c0,0,0,0,0,0c0.1,0,0.2-0.1,0.3-0.1
			c0,0,0,0,0,0l0.1,0c0.2,0,0.3-0.1,0.5-0.2l0,0l0,0c0.2-0.1,0.3-0.1,0.5-0.2c0.1,0,0.3-0.1,0.4-0.1c0.2,0.4,0.7,1.6,2.1,1.8
			c1.1,0.2,2.9-0.9,3.5-1.9c0,0-2.5,0.8-3.2-0.7c0.8-0.3,1.1-0.4,1.1-0.4s0.1-0.1,0.1-0.4l0.7-0.1c0,0,0.1-0.4,0.1-1
			c0.6-0.2,1.3-0.5,2-0.9L36,12z"/>
	</g>
	<polygon class="st10" points="101.2,47.1 90.6,41.3 98.4,39.1 	"/>
	<path class="st11" d="M92.4,41.9c2.2-0.3,4.3-0.5,6.5-0.8"/>
	<path class="st10" d="M102.8,50.1c0.2-0.1,0.3-0.2,0.5-0.3c0.3-0.1,0.8-0.1,1,0.1c0.7,0.6-0.3,1.6-0.8,1.9
		c-0.4,0.3-0.9,0.5-1.2,0.9c-0.3,0.3-0.5,0.7-0.7,1c-0.3,0.3-0.6,0.6-1.1,0.6c-0.1,0-0.2,0-0.3-0.1c-0.1-0.1,0-0.3,0.2-0.4
		c0.6-0.6,1.1-1.3,1.4-2.2C102.1,51.1,102.2,50.6,102.8,50.1z"/>
	<circle class="st10" cx="103.4" cy="50.3" r="2"/>
	<g>
		<linearGradient id="SVGID_6_" gradientUnits="userSpaceOnUse" x1="93.4748" y1="129.2649" x2="71.4748" y2="103.2649">
			<stop  offset="5.319149e-003" style="stop-color:#9DDAF8"/>
			<stop  offset="2.334331e-002" style="stop-color:#98D1F0"/>
			<stop  offset="0.1453" style="stop-color:#799AC0"/>
			<stop  offset="0.2681" style="stop-color:#5F6B96"/>
			<stop  offset="0.3895" style="stop-color:#494574"/>
			<stop  offset="0.5089" style="stop-color:#39275A"/>
			<stop  offset="0.626" style="stop-color:#2D1147"/>
			<stop  offset="0.7395" style="stop-color:#25043C"/>
			<stop  offset="0.8457" style="stop-color:#230038"/>
		</linearGradient>
		<path class="st12" d="M40.5,123.7c-7,2.6-13.1,7.8-17.7,13.6c-1.7,2.1-5.5,6.1-5,9c0.6,3.9,6.9,2.8,9.7,2.4
			c13.5-1.8,26.5-8.1,39.3-12.1c22.7-7.1,39.7-21.7,58.1-36c3.1-2.4,28.2-22.4,17.1-25.1c-4.4-1.1-10,1.3-14,2.8
			c-5.2,1.9-12.3,4.3-16.7,7.5c9.6-6.9,29.4-20.3,41.9-14.8c10.9,4.8-13.3,30.2-65.9,59.7C48.9,152,6.1,169.2,6.5,154
			c0.3-15.8,21.7-25.9,34.3-30.4C40.6,123.6,40.5,123.7,40.5,123.7z"/>
	</g>
	<linearGradient id="SVGID_7_" gradientUnits="userSpaceOnUse" x1="8.6221" y1="85.2393" x2="157.9221" y2="85.2393">
		<stop  offset="0" style="stop-color:#FFFFFF"/>
		<stop  offset="0.9894" style="stop-color:#230038"/>
	</linearGradient>
	<path class="st13" d="M14.7,79.3c1.1,0.7,2.3,1.3,3.6,1.6c8,2.1,17.6-2.1,23.7-7.2c4.9-4.1,9.7-8.7,15.9-10.6
		c10.4-3.1,23.3,3.9,26.2,14.4c4.2,15-7.8,33.7-24.7,28.4c-4.7-1.5-7.9-4.2-8.4-9.3c-0.2-2.4,0.7-5.2,2.8-6.3
		c4.5-2.5,12.9,0.7,9.8-7.5c-1.6-4.2-6-5.6-10.1-5.8c-8.1-0.2-18.1,4.4-23.8,10.1c-17.6,17.7,3,40.3,21.9,44c15.6,3.1,29,1.2,42-8.2
		c28.4-20.7,24.8-67.1-7.8-81.4c-17.8-7.8-40.3-3.2-53.5,11c-2.8,3-13.4,15.3-17.9,9.2c-0.9-1.2-1.9-3.1-3.2-2.4
		c-0.3,0.2-0.6,0.5-0.7,0.8C6.7,66.6,8.9,75.4,14.7,79.3z"/>
	<path class="st6" d="M14.7,79.3c1.1,0.7,2.3,1.3,3.6,1.6c8,2.1,17.6-2.1,23.7-7.2c11.2-9.3,30.3-22.2,45.7-15.2
		c30.5,11.9,19.8,60.1-13,58.1c-7.9,0.3-15.7-2.7-20.1-9.2c-3.2-4.8-7.8-13.3-0.8-17.1c4.5-2.5,12.9,0.7,9.8-7.5
		c-1.6-4.2-6-5.6-10.1-5.8c-8.1-0.2-18.1,4.4-23.8,10.1c-17.6,17.7,3,40.3,21.9,44c15.6,3.1,29,1.2,42-8.2
		c28.4-20.7,24.8-67.1-7.8-81.4c-17.8-7.8-40.3-3.2-53.5,11c-2.8,3-13.4,15.3-17.9,9.2c-0.9-1.2-1.9-3.1-3.2-2.4
		c-0.3,0.2-0.6,0.5-0.7,0.8C6.7,66.6,8.9,75.4,14.7,79.3z"/>
	<path class="st14" d="M62.3,11.8c-2.1-0.2-4.3-0.4-6.5-0.4c-1.1,0-2.2,0-3.2-0.6c0.2-0.7,1.1-0.9,1.8-0.9
		c14.3-0.3,28.7,3.5,41.2,10.5c9.6,5.4,17.8,13.3,23.9,22.5c5.9,9,9.5,18.2,9.2,29c0.4-16.2-10.7-35.1-23.8-44.2
		c-9.6-6.6-21.7-11-32.9-14C68.9,12.8,65.7,12.2,62.3,11.8z"/>
	<path class="st10" d="M72,29.1l0.1-0.3c0,0-0.1,0-0.1-0.1c0-0.1-0.2-0.2-0.2-0.2s0.1-0.1,0-0.1c-0.1-0.1-0.1-0.1-0.1-0.1l0.6-0.7
		l0.1,0l0.4-0.4c0,0-0.1-0.1-0.2-0.3c-0.1-0.1-0.1-0.3-0.2-0.4c-0.1-0.1,0.1,0,0.2,0.1c0.1,0.1,0.3,0.1,0.2,0c0-0.2,0-0.3,0.1-0.1
		c0.2,0.2,0.3,0.4,0.3,0.4s0-0.1-0.1-0.2c0-0.1,0.2-0.2,0.2-0.3c0-0.1,0-0.2,0.1-0.1c0.1,0.1,0.1,0.3,0.1,0.3s0-0.2,0.1-0.4
		c0.1-0.1,0.2-0.2,0.3-0.2c0.1,0,0.1,0.1,0.1,0.3c0,0.1,0,0.2,0,0.3c-0.1,0.1-0.1,0.1-0.1,0.1s0.1,0,0.1,0.1c0,0.1,0,0.2,0,0.2
		s0.2-0.1,0.2,0c0,0,0.3,0,0.4,0c0.1,0,0.1,0.1,0,0.1c-0.1,0.1-0.2,0.2-0.2,0.2s0.3,0,0.2,0c-0.1,0.1-0.3,0.2-0.4,0.2
		c-0.1,0-0.2,0-0.1,0.1c0.1,0.1,0.1,0.1,0.1,0.1l1.3,0.5c0,0,0.1,0,0.1-0.1c0-0.1-0.1-0.5-0.1-0.5c0-0.1,0.2,0.1,0.2,0.2
		c0.1,0.1,0.2,0.2,0.1,0.1c0-0.1,0-0.3-0.1-0.4c0-0.1,0-0.2,0.1,0c0.1,0.1,0.2,0.2,0.3,0.4c0.1,0.1,0.1,0.2,0.1,0.2s0.1-0.3,0.2-0.4
		c0.1-0.1,0.3-0.3,0.5-0.2c0.1,0.1,0.1,0.3,0,0.3c-0.1,0-0.2,0.3-0.2,0.3s0.1,0,0.2,0c0.1-0.1,0.2,0,0.1,0.1
		c-0.1,0.1-0.2,0.2-0.2,0.2s0.2,0,0.3,0c0.1-0.1,0.1,0.1,0,0.1c-0.1,0-0.1,0.1-0.2,0.2c-0.1,0.1,0,0.2,0,0.2c0,0,0.1,0.1,0.1,0.1
		l1.9,0.8l0.1-0.4c0,0,0-0.1-0.1-0.1c-0.1,0-0.1-0.1-0.1-0.1s0,0,0-0.1c0,0-0.1-0.1-0.1-0.1l0.2-0.1c0,0,0-0.1,0-0.1
		c-0.1,0-0.1,0-0.1,0l0.5-0.2l0.1,0l0.4-0.2l0-0.1l0.4-0.2l0.3,0.1c0,0,0.4-0.2,0.9-0.4c0.5-0.2,1-0.2,1-0.2s0-0.1,0.1-0.2
		c0.1-0.1,0.2-0.1,0.2-0.1s0-0.4,0.2-0.4c0.2,0,0.3,0.1,0.3,0.2c0,0.1-0.1,0.2-0.1,0.2s0,0.2,0,0.2c-0.1,0-0.1,0-0.1,0
		s0.1,0.1,0.1,0.1c0,0.1,0.1,0.1,0.3,0.1c0.1,0,0.1,0,0.3,0c0.1,0,0.3,0,0.2,0c-0.1,0-0.1,0.1-0.1,0.1s0.2,0.1,0.3,0.1
		c0.1,0.1,0.3,0.2,0.3,0.2s0.1-0.1,0-0.2c-0.1-0.1,0.1-0.1,0.1,0c0,0.1,0.1,0.2,0.1,0.1c-0.1-0.1,0.1-0.1,0.1,0
		c0,0.1,0.1,0.3,0.1,0.3l0.2,0.1c0,0,0.1-0.1,0.1-0.2c0-0.1-0.1-0.3,0-0.2c0.1,0.1,0.3-0.1,0.3,0c0,0.1,0,0.2,0,0.3
		c0,0.1,0.2,0.2,0.1,0.3c0,0.1,0,0.2,0,0.2s0.2,0,0.3,0.1c0,0.1,0,0.3,0,0.3s0.1,0.2,0.2,0.4c0.1,0.2,0.2,0.4,0.2,0.4l-0.4,0.2
		l-0.2,1.2l0.1,0.2l-0.1,0.3l1.7,0.7c0,0,0-0.1,0-0.2c-0.1-0.1,0.1-0.2,0-0.2c-0.1-0.1,0-0.1,0-0.2c-0.1-0.1-0.1-0.2,0-0.1
		c0.1,0.1,0.4,0.4,0.4,0.4s0-0.1,0-0.2c0-0.1,0-0.2,0.1-0.3c0.1-0.1,0.3-0.1,0.4,0c0.1,0.1,0,0.1-0.1,0.1c-0.1,0.1,0,0.1,0,0.2
		c0,0.1-0.1,0.2-0.1,0.2s0.2,0,0.4-0.1c0.1,0,0.2,0,0.1,0.1c-0.1,0.1-0.1,0.1-0.1,0.2c-0.1,0.1,0,0.1,0,0.3c0,0.2,0,0.2,0,0.2
		l0.7,0.3c0,0,0.1-0.1,0-0.3c0-0.2-0.1-0.5,0-0.4c0.1,0.1,0.2,0.4,0.2,0.4s0.1-0.2,0.2-0.2c0.1,0,0.1,0,0.1,0s0-0.2,0.1-0.3
		c0.1-0.1,0.2-0.1,0.3,0c0.1,0.1-0.1,0-0.1,0.2c0,0.1-0.1,0.3-0.1,0.3s0.1,0.1,0.1,0.2c0,0.1-0.1,0.2-0.1,0.2s0.2,0.1,0.2,0.1
		c0.1,0-0.1,0.3-0.1,0.3c-0.1,0.4,0.4,0.4,0.5,0.5c0.4,0.5,0.4,0.3,0.4,1.1c0,1.1-0.7,2.7-1,3.8c-0.6,2.3-1.1,6.1-2.5,8
		c-0.5,0.7-1.1,1-1.4,0.1c-0.1-0.5,0.4-1.7,0.6-2.2c0.1-0.6,2.1-8,2-8.1c0,0-0.8-0.3-0.8-0.3l-2.9,11.4L83.3,48l3-11.9
		c0.4-1.6-1.2-2-1.6-0.5l-3.1,12l-1.5-0.4l3.2-12.5c0.1-0.5-0.2-1.2-0.7-1.3c-0.5-0.1-1.1,0.2-1.3,0.7l-3.2,12.7l-3.4-0.8L78,33.7
		c0.5-1.9-1.7-2.7-2.3-0.8l-3.4,12.5L71.1,45l3.3-12.1l-1.7-0.6l-3.4,12.3l-1.9-0.4l2.7-10l-2.2,9L71.7,30c0,0-0.2-0.1-0.1-0.3
		c0.1-0.1,0-0.2,0.1-0.2c0.1,0,0.2-0.1,0.2-0.1l0-0.2l-0.1,0L72,29.1z"/>
	<linearGradient id="SVGID_8_" gradientUnits="userSpaceOnUse" x1="172.0238" y1="110.2617" x2="62.4691" y2="84.6212">
		<stop  offset="0" style="stop-color:#FFFFFF"/>
		<stop  offset="0.9894" style="stop-color:#230038"/>
	</linearGradient>
	<path class="st15" d="M14.7,79.3c1.1,0.7,2.3,1.3,3.6,1.6c8,2.1,17.6-2.1,23.7-7.2c4.6-3.8,10.2-10,16.4-10.2
		c6.6-0.2,13.6,1,18.9,5.2c16.3,12.9,2.9,43.9-18,37.3c-4.7-1.5-7.9-4.2-8.4-9.3c-0.2-2.4,0.7-5.2,2.8-6.3c4.5-2.5,12.9,0.7,9.8-7.5
		c-1.6-4.2-6-5.6-10.1-5.8c-9.8-0.3-19.7,4.7-25.7,12.3c-6,7.5-5.9,16.9-0.9,24.8c5.3,8.6,14.9,15.1,24.7,17c15.6,3.1,29,1.2,42-8.2
		c28.4-20.7,24.8-67.1-7.8-81.4c-17.8-7.8-40.3-3.2-53.5,11c-2.8,3-13.4,15.3-17.9,9.2c-0.9-1.2-1.9-3.1-3.2-2.4
		c-0.3,0.2-0.6,0.5-0.7,0.8C6.7,66.6,8.9,75.4,14.7,79.3z"/>
	<path class="st6" d="M14.7,79.3c1.1,0.7,2.3,1.3,3.6,1.6c8,2.1,17.6-2.1,23.7-7.2c11.2-9.3,30.3-22.2,45.7-15.2
		c30.5,11.9,19.8,60.1-13,58.1c-7.9,0.3-15.7-2.7-20.1-9.2c-3.2-4.8-7.8-13.3-0.8-17.1c4.5-2.5,12.9,0.7,9.8-7.5
		c-1.6-4.2-6-5.6-10.1-5.8c-8.1-0.2-18.1,4.4-23.8,10.1c-17.6,17.7,3,40.3,21.9,44c15.6,3.1,29,1.2,42-8.2
		c28.4-20.7,24.8-67.1-7.8-81.4c-17.8-7.8-40.3-3.2-53.5,11c-2.8,3-13.4,15.3-17.9,9.2c-0.9-1.2-1.9-3.1-3.2-2.4
		c-0.3,0.2-0.6,0.5-0.7,0.8C6.7,66.6,8.9,75.4,14.7,79.3z"/>
	<path class="st10" d="M94.2,49.7L92,48.4c-1.4-0.8-1.8-2.5-1-3.9l1.3-2.2c0.8-1.4,2.5-1.8,3.9-1l2.2,1.3c1.4,0.8,1.8,2.5,1,3.9
		l-1.3,2.2C97.3,50,95.5,50.5,94.2,49.7z"/>
</g>
</svg>
