<?xml version="1.0" standalone="no"?>
<!DOCTYPE svg PUBLIC "-//W3C//DTD SVG 20010904//EN"
 "http://www.w3.org/TR/2001/REC-SVG-20010904/DTD/svg10.dtd">
<svg version="1.0" xmlns="http://www.w3.org/2000/svg"
 width="249.000000pt" height="249.000000pt" viewBox="0 0 249.000000 249.000000"
 preserveAspectRatio="xMidYMid meet">
<metadata>
Created by potrace 1.11, written by Peter Selinger 2001-2013
</metadata>
<g transform="translate(0.000000,249.000000) scale(0.100000,-0.100000)"
fill="#000000" stroke="none">
<path d="M953 2477 c0 -8 6 -14 14 -14 9 0 10 4 2 14 -6 7 -12 13 -14 13 -1 0
-2 -6 -2 -13z"/>
<path d="M1144 2479 c-4 -7 -3 -9 4 -5 5 3 13 0 15 -6 4 -9 6 -10 6 -1 1 17
-16 25 -25 12z"/>
<path d="M1212 2478 c-7 -7 -8 -16 -2 -23 6 -7 1 -10 -18 -9 -15 1 -29 3 -32
4 -3 1 -9 2 -13 1 -4 -1 -10 5 -13 13 -4 11 -13 10 -47 -7 -23 -11 -51 -21
-62 -21 -11 -1 -26 -5 -34 -10 -9 -6 -12 -5 -9 5 3 8 13 13 22 13 9 -1 16 2
16 7 0 5 -6 9 -12 9 -20 -1 -45 -24 -41 -37 3 -7 -3 -9 -16 -6 -12 3 -21 1
-21 -6 0 -6 -4 -11 -10 -11 -18 0 -10 19 11 25 11 4 18 9 16 11 -7 8 -57 -18
-52 -27 6 -9 -34 -24 -54 -20 -7 1 -10 -2 -6 -9 3 -6 3 -10 -2 -9 -15 2 -53
-13 -53 -22 0 -5 -6 -9 -12 -9 -7 0 0 12 16 26 15 14 25 28 22 32 -4 3 -11 0
-16 -8 -5 -8 -15 -15 -21 -15 -7 0 -13 -8 -15 -18 -4 -26 -24 -47 -46 -47 -10
0 -17 -4 -13 -9 3 -5 -4 -12 -15 -16 -11 -3 -20 -11 -20 -16 0 -6 -4 -7 -10
-4 -9 5 -14 -7 -12 -26 1 -4 -6 -6 -16 -5 -9 0 -17 -5 -17 -12 0 -8 -8 -20
-18 -27 -10 -7 -17 -15 -15 -18 2 -3 -1 -9 -6 -14 -5 -5 -6 -3 -2 5 4 6 2 12
-3 12 -6 0 -11 -8 -11 -19 0 -30 -26 -46 -47 -30 -17 13 -17 13 -1 -6 15 -19
15 -21 -3 -44 -16 -20 -22 -21 -35 -10 -12 10 -15 10 -12 -2 2 -8 -3 -13 -10
-11 -9 1 -8 -5 4 -23 12 -18 14 -29 7 -36 -8 -8 -13 -7 -18 2 -6 8 -4 10 4 4
10 -6 11 -3 2 14 -7 11 -14 21 -17 21 -3 0 -2 -5 1 -10 4 -6 1 -18 -7 -27 -9
-12 -9 -15 0 -9 6 4 13 2 13 -3 1 -6 2 -17 3 -23 1 -7 -2 -18 -6 -24 -5 -7 -7
-16 -6 -20 2 -5 -7 -19 -20 -32 -12 -12 -20 -27 -16 -33 3 -6 7 -21 9 -35 2
-19 -1 -24 -12 -20 -9 4 -13 1 -10 -6 2 -7 10 -12 16 -10 8 1 9 -2 5 -10 -7
-11 -13 -71 -15 -155 -1 -13 -5 -23 -11 -23 -5 0 -7 3 -5 8 3 4 -1 13 -9 20
-22 20 -16 -2 8 -33 12 -15 23 -37 24 -49 1 -11 3 -23 4 -26 6 -15 4 -87 -2
-83 -5 2 -8 0 -8 -6 0 -6 -7 -8 -15 -5 -8 4 -12 10 -9 15 3 5 9 7 14 4 5 -3 7
4 5 15 -2 11 0 20 6 20 5 0 9 5 9 12 0 9 -3 9 -11 1 -6 -6 -19 -9 -28 -6 -13
5 -12 3 2 -9 18 -13 18 -14 -2 -32 -16 -14 -18 -23 -10 -37 6 -13 6 -19 -1
-19 -5 0 -10 -8 -10 -18 0 -25 -10 -34 -24 -22 -7 5 -17 5 -26 -2 -12 -8 -12
-9 2 -4 10 3 21 -1 26 -11 8 -14 10 -13 15 2 4 9 12 13 18 9 7 -4 9 0 5 14 -8
24 9 39 18 16 4 -9 9 -14 13 -10 3 3 -2 15 -12 26 -10 11 -15 23 -10 28 4 4
10 1 12 -6 4 -10 8 -10 21 0 15 11 15 11 4 -3 -7 -9 -10 -23 -7 -31 4 -9 -5
-28 -20 -44 -15 -16 -24 -24 -21 -17 4 6 2 14 -4 18 -6 4 -10 -5 -10 -21 0
-21 -3 -24 -13 -15 -8 6 -18 7 -22 3 -5 -4 -6 0 -2 9 4 13 1 16 -13 12 -17 -5
-17 -6 -2 -22 11 -11 20 -13 24 -7 5 8 8 7 8 -1 0 -6 -10 -19 -21 -27 -19 -13
-24 -13 -45 1 -22 14 -24 14 -18 -1 3 -9 10 -14 14 -11 4 3 10 -2 13 -10 4
-10 1 -12 -10 -8 -13 5 -15 2 -9 -12 4 -11 5 -17 2 -14 -3 3 -35 -22 -71 -56
-66 -62 -165 -139 -151 -117 4 7 2 12 -3 12 -8 0 -11 -162 -11 -525 l0 -525
1245 0 1245 0 0 635 c0 409 -4 634 -10 630 -6 -3 -10 -1 -10 4 0 6 -3 10 -8 9
-4 -2 -33 19 -65 46 l-57 50 23 25 c18 21 18 23 2 10 -31 -25 -49 -34 -41 -21
4 7 2 13 -3 13 -6 1 -17 2 -23 3 -7 0 -13 12 -13 25 0 13 -6 26 -12 28 -7 3
-13 0 -13 -7 0 -6 5 -8 12 -4 7 4 8 3 4 -4 -12 -19 -26 -14 -26 11 0 12 -5 29
-11 37 -9 13 -10 12 -5 -2 8 -27 -15 -34 -34 -10 -10 12 -21 18 -25 14 -4 -4
-3 3 4 15 6 12 11 28 10 35 0 7 -4 4 -8 -6 -9 -24 -51 -33 -51 -11 0 8 5 15
11 15 5 0 8 -4 5 -8 -3 -5 1 -9 8 -9 17 0 16 50 -3 67 -13 13 -14 12 -7 -5 16
-39 18 -50 6 -32 -13 21 -65 49 -74 40 -10 -10 -7 -33 5 -33 5 0 8 4 4 9 -7
13 36 4 49 -9 8 -8 3 -10 -16 -6 -18 3 -28 0 -28 -7 -1 -7 -10 -1 -21 12 -11
13 -16 27 -11 30 5 3 8 14 7 23 -2 10 0 17 3 17 20 -3 25 3 12 12 -12 8 -12
10 -1 7 8 -2 15 -12 17 -22 5 -32 21 -40 40 -22 13 13 13 17 3 16 -26 -4 -36
0 -36 15 0 8 5 15 11 15 6 0 5 4 -3 9 -8 5 -20 7 -27 4 -9 -3 -12 3 -8 22 3
20 1 25 -8 19 -7 -4 -10 -4 -6 1 4 4 3 16 -2 26 -7 12 -7 20 0 24 8 5 7 12 -2
23 -7 9 -8 13 -3 10 6 -4 17 3 24 15 11 18 11 20 0 10 -13 -13 -38 -19 -26 -7
3 4 2 15 -4 26 -7 14 -7 23 2 34 10 12 9 13 -7 7 -16 -6 -17 -5 -6 9 10 13 10
18 1 24 -8 5 -10 3 -4 -7 5 -8 4 -10 0 -6 -5 4 -10 14 -11 22 -2 11 2 12 15 5
13 -6 18 -5 18 5 0 8 -3 14 -6 13 -3 0 -15 0 -26 1 -17 1 -18 3 -5 11 13 9 8
14 -12 11 -3 0 -5 7 -4 16 2 9 -3 24 -11 32 -7 9 -13 20 -13 24 1 4 -13 24
-29 44 -20 24 -27 41 -21 48 5 6 5 17 1 24 -6 9 -11 10 -15 2 -4 -6 -2 -11 5
-11 7 0 9 -3 6 -7 -4 -3 -18 6 -31 20 -24 26 -22 39 2 15 9 -9 12 -9 12 -1 0
15 -36 26 -52 17 -9 -5 -8 -2 1 10 8 9 21 14 30 11 12 -5 13 -3 5 5 -8 8 -18
9 -31 2 -15 -8 -25 -4 -55 24 -20 18 -33 36 -28 39 13 8 13 25 -1 25 -5 0 -7
-4 -4 -10 3 -5 -1 -10 -9 -10 -9 0 -16 5 -16 11 0 5 -4 7 -10 4 -5 -3 -7 0 -4
8 4 10 -1 15 -13 14 -11 -1 -18 4 -17 14 1 9 -4 16 -11 16 -7 0 -11 -7 -8 -16
3 -9 -7 3 -22 27 -14 23 -29 42 -32 42 -3 0 2 -11 11 -25 9 -13 16 -28 16 -32
0 -4 -5 -1 -10 7 -5 8 -13 15 -17 16 -19 2 -43 17 -43 26 0 6 6 5 15 -2 9 -7
15 -8 15 -2 0 15 -26 22 -38 10 -8 -8 -15 -8 -24 -1 -7 6 -21 9 -30 8 -21 -4
-22 -1 -8 28 l11 22 -17 -22 c-13 -18 -20 -20 -42 -12 -14 5 -31 8 -38 5 -8
-3 -16 -1 -19 5 -4 5 -10 7 -15 4 -5 -3 -13 2 -18 10 -5 9 -21 18 -35 19 -20
2 -24 0 -18 -8 7 -8 4 -12 -10 -12 -14 0 -18 5 -13 21 4 16 3 17 -5 5 -6 -8
-11 -10 -11 -5 0 6 -7 1 -15 -9 -8 -11 -15 -14 -15 -7 0 7 -4 10 -9 7 -5 -4
-16 -3 -25 0 -13 5 -14 9 -5 20 14 17 8 19 -9 2z m158 -39 c0 -6 -4 -7 -10 -4
-5 3 -10 11 -10 16 0 6 5 7 10 4 6 -3 10 -11 10 -16z m-896 -400 c-3 -5 -10
-7 -15 -3 -5 3 -7 10 -3 15 3 5 10 7 15 3 5 -3 7 -10 3 -15z m-67 -168 c0 -11
-5 -18 -9 -15 -4 3 -5 11 -1 19 7 21 12 19 10 -4z"/>
<path d="M1235 2470 c-3 -5 -1 -10 4 -10 6 0 11 5 11 10 0 6 -2 10 -4 10 -3 0
-8 -4 -11 -10z"/>
<path d="M1040 2460 c-8 -5 -12 -11 -10 -14 3 -2 14 2 24 10 22 15 10 19 -14
4z"/>
<path d="M1395 2459 c-4 -6 -5 -12 -2 -15 2 -3 7 2 10 11 7 17 1 20 -8 4z"/>
<path d="M906 2448 c3 -5 10 -6 15 -3 13 9 11 12 -6 12 -8 0 -12 -4 -9 -9z"/>
<path d="M1415 2450 c-3 -5 0 -12 6 -16 8 -5 9 -3 4 6 -6 10 -4 12 8 7 9 -3
18 -3 21 1 3 4 -4 8 -14 9 -11 1 -22 -2 -25 -7z"/>
<path d="M1476 2448 c3 -4 0 -8 -7 -8 -7 0 -10 -2 -7 -5 7 -7 38 5 38 14 0 4
-7 8 -15 8 -8 0 -12 -4 -9 -9z"/>
<path d="M1540 2430 c-24 -15 -7 -18 20 -3 14 7 18 13 10 13 -8 0 -22 -4 -30
-10z"/>
<path d="M1596 2432 c-3 -5 1 -9 9 -9 8 0 12 4 9 9 -3 4 -7 8 -9 8 -2 0 -6 -4
-9 -8z"/>
<path d="M854 2410 c0 -13 4 -16 10 -10 7 7 7 13 0 20 -6 6 -10 3 -10 -10z"/>
<path d="M825 2410 c-3 -5 -1 -10 4 -10 6 0 11 5 11 10 0 6 -2 10 -4 10 -3 0
-8 -4 -11 -10z"/>
<path d="M745 2390 c-3 -6 1 -7 9 -4 18 7 21 14 7 14 -6 0 -13 -4 -16 -10z"/>
<path d="M1690 2370 c0 -5 5 -10 11 -10 5 0 7 5 4 10 -3 6 -8 10 -11 10 -2 0
-4 -4 -4 -10z"/>
<path d="M713 2340 c1 -11 5 -20 9 -20 11 0 10 28 -1 35 -6 3 -9 -4 -8 -15z"/>
<path d="M673 2326 c0 -8 6 -12 14 -9 7 3 10 9 7 14 -8 14 -21 11 -21 -5z"/>
<path d="M1715 2330 c-3 -6 1 -7 9 -4 18 7 21 14 7 14 -6 0 -13 -4 -16 -10z"/>
<path d="M1755 2320 c-3 -5 -1 -10 4 -10 6 0 11 5 11 10 0 6 -2 10 -4 10 -3 0
-8 -4 -11 -10z"/>
<path d="M1810 2310 c0 -5 5 -10 11 -10 5 0 7 5 4 10 -3 6 -8 10 -11 10 -2 0
-4 -4 -4 -10z"/>
<path d="M630 2306 c0 -2 9 -6 20 -9 11 -3 18 -1 14 4 -5 9 -34 13 -34 5z"/>
<path d="M614 2274 c0 -12 4 -20 8 -18 5 3 6 9 3 14 -3 5 3 10 12 12 16 3 15
5 -2 9 -17 5 -21 1 -21 -17z"/>
<path d="M1810 2281 c14 -10 7 -16 -15 -11 -5 1 3 -12 19 -29 20 -21 33 -28
40 -21 16 16 16 39 -1 33 -11 -4 -11 -8 -3 -13 8 -5 9 -10 2 -14 -13 -8 -27
12 -27 38 0 11 -7 21 -15 23 -13 4 -13 3 0 -6z"/>
<path d="M589 2248 c-5 -9 -5 -48 -1 -43 6 6 11 45 5 45 -2 0 -4 -1 -4 -2z"/>
<path d="M537 2201 c-4 -17 -3 -21 5 -13 5 5 8 16 6 23 -3 8 -7 3 -11 -10z"/>
<path d="M1913 2205 c0 -8 4 -12 9 -9 4 3 8 9 8 15 0 5 -4 9 -8 9 -5 0 -9 -7
-9 -15z"/>
<path d="M1959 2178 c-5 -18 -6 -38 -1 -34 7 8 12 36 6 36 -2 0 -4 -1 -5 -2z"/>
<path d="M526 2155 c7 -18 6 -19 -12 -5 -18 14 -18 14 -5 -3 10 -12 17 -15 25
-7 7 7 6 14 -3 23 -10 10 -11 8 -5 -8z"/>
<path d="M1965 2129 c-4 -6 -5 -12 -2 -15 2 -3 7 2 10 11 7 17 1 20 -8 4z"/>
<path d="M486 2103 c2 -7 -1 -13 -5 -13 -5 0 -12 6 -14 13 -4 9 -6 9 -6 0 -2
-21 21 -26 37 -8 10 10 12 15 5 11 -6 -3 -13 -3 -16 1 -2 5 -2 2 -1 -4z"/>
<path d="M1953 2088 c14 -18 31 -32 38 -30 7 2 9 -4 5 -13 -3 -9 -4 -21 -1
-25 7 -11 35 -1 35 12 0 6 -8 4 -17 -3 -15 -12 -16 -12 -10 4 5 12 0 28 -13
44 -12 16 -20 20 -21 12 0 -8 -5 -4 -11 9 -6 12 -15 22 -21 22 -5 0 2 -15 16
-32z"/>
<path d="M389 2013 c-13 -16 -12 -17 4 -4 9 7 17 15 17 17 0 8 -8 3 -21 -13z"/>
<path d="M2016 1978 c3 -4 11 -5 19 -1 21 7 19 12 -4 10 -11 0 -18 -5 -15 -9z"/>
<path d="M410 1967 c0 -10 -4 -16 -9 -13 -5 4 -8 -2 -6 -11 1 -10 -3 -25 -9
-33 -9 -13 -9 -13 5 -3 9 7 20 9 25 5 4 -4 3 1 -4 10 -11 13 -10 18 2 25 11 6
12 13 6 23 -8 13 -10 12 -10 -3z"/>
<path d="M357 1925 c-4 -8 -3 -16 1 -19 4 -3 9 4 9 15 2 23 -3 25 -10 4z"/>
<path d="M2066 1886 c3 -8 13 -17 22 -21 13 -5 13 -2 -3 15 -21 24 -26 25 -19
6z"/>
<path d="M335 1870 c3 -5 8 -10 11 -10 2 0 4 5 4 10 0 6 -5 10 -11 10 -5 0 -7
-4 -4 -10z"/>
<path d="M356 1851 c-3 -5 1 -14 8 -20 10 -9 16 -9 21 -1 4 6 1 9 -7 8 -7 -2
-12 3 -10 10 2 14 -4 16 -12 3z"/>
<path d="M2050 1853 c0 -14 20 -39 20 -26 0 7 7 10 18 6 14 -5 13 -3 -3 10
-22 18 -35 21 -35 10z"/>
<path d="M2136 1792 c-3 -5 1 -9 9 -9 8 0 12 4 9 9 -3 4 -7 8 -9 8 -2 0 -6 -4
-9 -8z"/>
<path d="M335 1779 c-4 -6 -5 -12 -2 -15 2 -3 7 2 10 11 7 17 1 20 -8 4z"/>
<path d="M357 1767 c-3 -8 1 -14 8 -14 7 0 11 6 8 14 -3 7 -6 13 -8 13 -2 0
-5 -6 -8 -13z"/>
<path d="M2076 1772 c2 -3 -1 -11 -7 -18 -7 -9 -5 -18 9 -32 13 -13 17 -24 11
-31 -5 -6 -6 -9 -3 -6 4 2 14 0 24 -5 12 -6 17 -5 17 5 0 7 -6 11 -13 8 -9 -3
-12 4 -9 24 2 15 2 22 -1 16 -3 -7 -10 -13 -15 -13 -6 0 -7 5 -4 10 3 6 0 10
-7 10 -9 0 -9 3 2 10 10 6 12 12 4 18 -6 5 -9 7 -8 4z"/>
<path d="M2126 1748 c3 -5 10 -6 15 -3 13 9 11 12 -6 12 -8 0 -12 -4 -9 -9z"/>
<path d="M324 1729 c-3 -5 1 -6 9 -3 8 3 18 0 22 -5 7 -12 25 -6 25 8 0 11
-49 11 -56 0z"/>
<path d="M2156 1723 c-6 -14 -5 -15 5 -6 7 7 10 15 7 18 -3 3 -9 -2 -12 -12z"/>
<path d="M355 1690 c-3 -5 -2 -10 4 -10 5 0 13 5 16 10 3 6 2 10 -4 10 -5 0
-13 -4 -16 -10z"/>
<path d="M357 1653 c3 -7 6 -13 8 -13 2 0 5 6 8 13 3 8 -1 14 -8 14 -7 0 -11
-6 -8 -14z"/>
<path d="M296 1652 c-2 -4 -1 -14 4 -22 7 -11 9 -9 7 8 -1 24 -3 26 -11 14z"/>
<path d="M320 1590 c-12 -7 -10 -9 7 -7 12 0 19 5 17 9 -6 10 -6 10 -24 -2z"/>
<path d="M2194 1576 c1 -8 5 -18 8 -22 4 -3 5 1 4 10 -1 8 -5 18 -8 22 -4 3
-5 -1 -4 -10z"/>
<path d="M362 1570 c1 -8 -4 -26 -11 -38 -7 -13 -11 -25 -9 -27 2 -2 11 9 20
24 10 19 13 33 6 42 -7 12 -8 11 -6 -1z"/>
<path d="M315 1559 c-4 -6 -5 -12 -2 -15 2 -3 7 2 10 11 7 17 1 20 -8 4z"/>
<path d="M336 1553 c-6 -14 -5 -15 5 -6 7 7 10 15 7 18 -3 3 -9 -2 -12 -12z"/>
<path d="M365 1510 c-3 -5 -2 -10 4 -10 5 0 13 5 16 10 3 6 2 10 -4 10 -5 0
-13 -4 -16 -10z"/>
<path d="M2197 1514 c-9 -10 12 -44 26 -43 9 0 9 2 -1 6 -6 2 -10 9 -6 14 3 5
0 9 -6 9 -6 0 -8 5 -5 10 7 11 2 13 -8 4z"/>
<path d="M2253 1500 c2 -8 16 -15 30 -16 14 -1 24 3 21 7 -2 4 -12 5 -20 2 -9
-3 -20 0 -26 8 -8 12 -9 11 -5 -1z"/>
<path d="M2296 1457 c3 -10 9 -15 12 -12 3 3 0 11 -7 18 -10 9 -11 8 -5 -6z"/>
<path d="M2336 1452 c-3 -5 1 -9 9 -9 8 0 12 4 9 9 -3 4 -7 8 -9 8 -2 0 -6 -4
-9 -8z"/>
<path d="M2293 1416 c-3 -6 -3 -8 2 -4 4 4 16 3 26 -2 12 -7 20 -6 25 2 4 7 3
8 -4 4 -7 -4 -12 -3 -12 2 0 12 -30 11 -37 -2z"/>
<path d="M313 1399 c-2 -23 3 -25 10 -4 4 8 3 16 -1 19 -4 3 -9 -4 -9 -15z"/>
<path d="M2372 1386 l-23 -12 33 -26 c18 -14 42 -35 53 -45 21 -20 21 -20 40
6 18 25 18 25 0 11 -17 -14 -18 -13 -12 15 l6 30 -12 -27 c-6 -16 -15 -28 -20
-28 -4 0 -6 4 -3 8 8 14 -33 52 -49 46 -24 -10 -17 12 8 24 12 6 18 11 12 11
-5 0 -20 -6 -33 -13z m43 -46 c10 -11 16 -20 13 -20 -3 0 -13 9 -23 20 -10 11
-16 20 -13 20 3 0 13 -9 23 -20z"/>
<path d="M250 1386 c0 -2 8 -10 18 -17 15 -13 16 -12 3 4 -13 16 -21 21 -21
13z"/>
<path d="M354 1350 c0 -13 4 -16 10 -10 7 7 7 13 0 20 -6 6 -10 3 -10 -10z"/>
<path d="M230 1356 c0 -2 7 -7 16 -10 8 -3 12 -2 9 4 -6 10 -25 14 -25 6z"/>
<path d="M196 1288 c3 -5 10 -6 15 -3 13 9 11 12 -6 12 -8 0 -12 -4 -9 -9z"/>
<path d="M250 1289 c0 -5 5 -7 12 -3 7 5 9 2 5 -9 -4 -11 -2 -14 9 -10 11 4
12 9 3 19 -14 17 -29 18 -29 3z"/>
<path d="M2475 1290 c-3 -5 -1 -10 4 -10 6 0 11 5 11 10 0 6 -2 10 -4 10 -3 0
-8 -4 -11 -10z"/>
<path d="M175 1270 c-3 -5 -1 -10 4 -10 6 0 11 5 11 10 0 6 -2 10 -4 10 -3 0
-8 -4 -11 -10z"/>
<path d="M207 1241 c-4 -17 -3 -21 5 -13 5 5 8 16 6 23 -3 8 -7 3 -11 -10z"/>
<path d="M164 1229 c-4 -7 -3 -9 3 -6 6 4 13 -2 16 -13 3 -11 1 -23 -4 -26 -5
-3 -9 1 -10 8 0 7 -5 3 -11 -9 -6 -13 -15 -23 -20 -23 -5 0 -6 4 -3 10 3 6 -1
7 -10 3 -13 -5 -14 -7 -3 -14 10 -7 9 -12 -6 -26 -16 -16 -18 -16 -13 -1 10
27 -4 29 -35 3 -16 -14 -33 -23 -38 -20 -4 3 -6 -4 -3 -15 3 -11 10 -20 16
-20 6 0 8 -2 5 -5 -9 -10 -38 7 -31 18 3 6 1 7 -5 3 -9 -5 -9 -13 -2 -27 13
-24 24 -19 105 51 68 59 106 96 88 86 -8 -4 -13 -1 -13 8 0 20 -17 29 -26 15z
m-69 -101 c-1 -13 -4 -21 -8 -18 -3 3 -12 -4 -20 -14 -10 -13 -16 -15 -21 -8
-5 9 33 55 50 62 0 0 0 -10 -1 -22z"/>
<path d="M109 1193 c-13 -16 -12 -17 4 -4 9 7 17 15 17 17 0 8 -8 3 -21 -13z"/>
<path d="M30 1167 c0 -2 6 -10 14 -16 11 -9 16 -9 22 1 4 7 4 10 -1 6 -4 -4
-14 -3 -22 3 -7 6 -13 9 -13 6z"/>
</g>
</svg>
