<?xml version="1.0" encoding="utf-8"?>
<!-- Generator: Adobe Illustrator 19.0.0, SVG Export Plug-In . SVG Version: 6.00 Build 0)  -->
<svg version="1.1" id="Слой_1" xmlns="http://www.w3.org/2000/svg" xmlns:xlink="http://www.w3.org/1999/xlink" x="0px" y="0px"
	 viewBox="0 0 76 79.8" style="enable-background:new 0 0 76 79.8;" xml:space="preserve">
<style type="text/css">
	.st0{fill:#FFFFFF;}
</style>
<g>
	<path class="st0" d="M75.6,9.7c-0.3-0.2-0.6-0.2-0.9-0.1L22.4,32c-0.4,0.2-0.6,0.5-0.6,0.9v45.8c0,0.3,0.2,0.7,0.5,0.8
		c0.2,0.1,0.4,0.2,0.5,0.2c0.1,0,0.3,0,0.4-0.1l52.2-22.4c0.4-0.2,0.6-0.5,0.6-0.9V10.5C76,10.2,75.8,9.9,75.6,9.7z M74,55.7
		L23.8,77.3V33.6L74,12V55.7z"/>
	<path class="st0" d="M28.1,70.6c0.1,0,0.3,0,0.4-0.1l5.3-2.3v0.5c0,0.6,0.4,1,1,1c0.6,0,1-0.4,1-1v-1.3l34-14.6
		c0.5-0.2,0.7-0.8,0.5-1.3C70.1,51,69.5,50.7,69,51L35.8,65.2v-0.4c0-0.6-0.4-1-1-1c-0.6,0-1,0.4-1,1v1.3l-6.1,2.6
		c-0.5,0.2-0.7,0.8-0.5,1.3C27.4,70.4,27.8,70.6,28.1,70.6z"/>
	<path class="st0" d="M17.4,67.8l-4.8,2.4V27.5l49-21.1v5.4c0,0.4,0.3,0.8,0.8,0.8c0.4,0,0.8-0.3,0.8-0.8V5.3c0-0.3-0.1-0.5-0.3-0.6
		c-0.2-0.1-0.5-0.2-0.7-0.1L11.5,26.3C11.2,26.5,11,26.7,11,27v44.4c0,0.3,0.1,0.5,0.4,0.6c0.1,0.1,0.3,0.1,0.4,0.1
		c0.1,0,0.2,0,0.3-0.1l5.9-2.9c0.4-0.2,0.5-0.6,0.3-1C18.2,67.7,17.7,67.6,17.4,67.8z"/>
	<path class="st0" d="M6.3,60.8l-4.8,2.4V22.2L48.7,1.9V6c0,0.4,0.3,0.8,0.8,0.8c0.4,0,0.8-0.3,0.8-0.8V0.7c0-0.3-0.1-0.5-0.3-0.6
		C49.6,0,49.4,0,49.1,0.1L0.5,21C0.2,21.1,0,21.4,0,21.7v42.8c0,0.3,0.1,0.5,0.4,0.6c0.1,0.1,0.3,0.1,0.4,0.1c0.1,0,0.2,0,0.3-0.1
		L7,62.2c0.4-0.2,0.5-0.6,0.3-1C7.1,60.8,6.7,60.7,6.3,60.8z"/>
	<path class="st0" d="M42.8,52.5c0.1,0.1,0.3,0.1,0.4,0.1c0.3,0,0.5-0.1,0.7-0.3l13-12.3c0.3-0.3,0.4-0.6,0.3-1
		c-0.1-0.4-0.4-0.6-0.8-0.7l-12.8-2.7c-0.3-0.1-0.6,0-0.8,0.2c-0.2,0.2-0.4,0.5-0.4,0.8l-0.2,15C42.2,51.9,42.5,52.3,42.8,52.5z
		 M44.4,37.8l9.8,2l-9.9,9.4L44.4,37.8z"/>
</g>
</svg>
