<?xml version="1.0" encoding="utf-8"?>
<!-- Generator: Adobe Illustrator 19.0.0, SVG Export Plug-In . SVG Version: 6.00 Build 0)  -->
<svg version="1.1" id="Слой_1" xmlns="http://www.w3.org/2000/svg" xmlns:xlink="http://www.w3.org/1999/xlink" x="0px" y="0px"
	 viewBox="0 0 117.4 117.8" style="enable-background:new 0 0 117.4 117.8;" xml:space="preserve">
<style type="text/css">
	.st0{fill:#FFFFFF;}
</style>
<g>
	<path class="st0" d="M84.9,57.6c-0.2-6.5-2.7-11.9-7.5-16.4C73,37.1,67,34.9,59.8,34.5c0,0-0.1,0-0.1,0l-1.8,0
		c-6.5,0.2-11.9,2.4-16.6,6.8c-1.8,1.7-3.7,3.7-5.1,6.5c-1.4,2.9-2.2,5.9-2.3,9.3v1.4c0,0,0,0.1,0,0.2c0.2,4.2,1,7.4,2.4,10.2
		c1.2,2.3,2.5,4.5,3.8,6.6l0.5,0.8c0.2,0.4,0.5,0.8,0.8,1.2l0.1,0.2c1.1,1.7,2.2,3.4,2.7,5.3c0.2,0.8,0.3,1.7,0.5,2.7
		c0.1,0.6,0.2,1.2,0.3,1.8c0.4,2.3,1.9,3.8,3,4.8l0.1,0.1c0.3,0.3,0.8,0.8,1.7,1.1c0.1,0,0.3,0.1,0.4,0.1l0.6,0.1c0.1,0,0.1,0,0.2,0
		h16.9c0.4,0,1,0.4,1,1c0,0.3-0.7,0.9-1.1,0.9H50.8c-0.5,0-0.7-0.3-0.7-0.3c0-0.9-0.8-1.7-1.7-1.7c-0.9,0-1.7,0.8-1.7,1.7
		c0,2.1,1.8,3.7,4.1,3.7h16.8c1.1,0,2.3-0.5,3.2-1.5c0.8-0.9,1.3-1.9,1.3-3c-0.1-2.4-2.1-4.3-4.4-4.3H50.8l-0.3,0
		c-0.1-0.1-0.2-0.2-0.3-0.2c-0.1-0.1-0.2-0.2-0.2-0.2c-0.7-0.6-1.7-1.6-1.9-2.8c-0.1-0.5-0.2-1.1-0.2-1.7c-0.1-1.1-0.3-2.2-0.6-3.2
		c-0.7-2.3-1.9-4.3-3.1-6.2l-0.1-0.2c-0.3-0.4-0.5-0.8-0.7-1.2l-0.5-0.8c-1.2-2-2.5-4.2-3.7-6.4c-1.2-2.3-1.8-5.1-2-8.8l0-1.3
		c0.1-2.8,0.7-5.3,2-7.8c1.1-2.3,2.8-4,4.4-5.5c4.1-3.8,8.8-5.7,14.4-5.9l1.7,0c6.4,0.3,11.6,2.3,15.5,5.8c4.1,3.8,6.2,8.4,6.4,13.9
		v0.6c0,0,0,0,0,0c-0.3,5.9-2.8,10.1-5.2,14.2c-0.4,0.6-0.7,1.2-1.1,1.9c-0.3,0.5-0.5,0.9-0.8,1.4c-1.1,1.9-2.3,4-3.1,6.1
		c-0.4,1-0.5,2.1-0.7,3.1c-0.2,0.9,0.5,1.8,1.4,2c0.9,0.1,1.8-0.5,2-1.4c0.2-0.9,0.3-1.8,0.5-2.5c0.7-1.9,1.8-3.8,2.9-5.6
		c0.3-0.5,0.6-1,0.8-1.4c0.4-0.6,0.7-1.2,1.1-1.8c2.6-4.4,5.3-9,5.7-15.7h0c0-0.1,0-0.1,0-0.2L84.9,57.6z"/>
	<path class="st0" d="M64.7,111.7c-0.9-0.4-1.9,0-2.2,0.9c-0.4,1-1.7,1.8-3.1,1.8c-1.4,0-2.7-0.7-3.1-1.8c-0.4-0.9-1.4-1.3-2.2-0.9
		c-0.9,0.4-1.3,1.4-0.9,2.2c1,2.3,3.5,3.8,6.2,3.8c2.8,0,5.3-1.5,6.2-3.8C66,113.1,65.6,112.1,64.7,111.7z"/>
	<path class="st0" d="M69.6,99.6c-0.9,0-1.7,0.8-1.7,1.7c0,0.1-0.2,0.3-0.7,0.3H51.5c-0.5,0-0.7-0.3-0.7-0.3c0-0.9-0.8-1.7-1.7-1.7
		c-0.9,0-1.7,0.8-1.7,1.7c0,2.1,1.8,3.7,4.1,3.7h15.8c2.3,0,4.1-1.7,4.1-3.7C71.4,100.4,70.6,99.6,69.6,99.6z"/>
	<path class="st0" d="M68.9,105.7c-0.9,0-1.7,0.8-1.7,1.7c0,0.1-0.2,0.3-0.7,0.3H52.2c-0.5,0-0.7-0.3-0.7-0.3c0-0.9-0.8-1.7-1.7-1.7
		c-0.9,0-1.7,0.8-1.7,1.7c0,2.1,1.8,3.7,4.1,3.7h14.4c2.3,0,4.1-1.7,4.1-3.7C70.6,106.5,69.9,105.7,68.9,105.7z"/>
	<path class="st0" d="M41.3,57.8c0,0.9,0.8,1.7,1.7,1.7c0.9,0,1.7-0.8,1.7-1.7c0-7.4,6.6-13.4,14.6-13.4c0.9,0,1.7-0.8,1.7-1.7
		c0-0.9-0.8-1.7-1.7-1.7C49.4,41,41.3,48.6,41.3,57.8z"/>
	<path class="st0" d="M80,27.2c0.3,0,0.5-0.1,0.7-0.3l0.2-0.2c0.4-0.4,0.5-1.1,0.1-1.5c-0.4-0.4-1.1-0.5-1.5-0.1l-0.2,0.2
		c-0.4,0.4-0.5,1.1-0.1,1.5C79.4,27.1,79.7,27.2,80,27.2z"/>
	<path class="st0" d="M74.1,8.8c0.3,0,0.5-0.1,0.7-0.3l0.2-0.2c0.4-0.4,0.5-1.1,0.1-1.5c-0.4-0.4-1.1-0.5-1.5-0.1L73.4,7
		C73,7.4,72.9,8,73.3,8.5C73.5,8.7,73.8,8.8,74.1,8.8z"/>
	<path class="st0" d="M103.4,74.6l-0.4-0.3c-0.5-0.3-1.2-0.1-1.5,0.4c-0.3,0.5-0.1,1.2,0.4,1.5l0.4,0.3c0.2,0.1,0.4,0.1,0.5,0.1
		c0.4,0,0.7-0.2,0.9-0.5C104.1,75.5,103.9,74.9,103.4,74.6z"/>
	<path class="st0" d="M21.6,40.8c0.2,0.1,0.4,0.2,0.6,0.2c0.3,0,0.7-0.2,0.9-0.5c0.3-0.5,0.2-1.1-0.3-1.5l-1.6-1.1
		c-0.5-0.3-1.1-0.2-1.5,0.3c-0.3,0.5-0.2,1.1,0.3,1.5L21.6,40.8z"/>
	<path class="st0" d="M98.5,44.7c0.1,0.5,0.6,0.8,1,0.8c0.1,0,0.2,0,0.3,0l0.6-0.2c0.6-0.2,0.9-0.8,0.7-1.3
		c-0.2-0.6-0.8-0.9-1.3-0.7l-0.6,0.2C98.7,43.6,98.4,44.2,98.5,44.7z"/>
	<path class="st0" d="M22.1,70.8l-0.9,0.2c-0.6,0.1-0.9,0.7-0.8,1.3c0.1,0.5,0.6,0.8,1,0.8c0.1,0,0.1,0,0.2,0l0.9-0.2
		c0.6-0.1,0.9-0.7,0.8-1.3C23.2,71,22.7,70.6,22.1,70.8z"/>
	<path class="st0" d="M42.5,17.9c0.1,0.5,0.6,0.8,1,0.8c0.1,0,0.2,0,0.3,0c0.6-0.2,0.9-0.8,0.7-1.3l-0.3-0.9
		c-0.2-0.6-0.8-0.9-1.3-0.7c-0.6,0.2-0.9,0.8-0.7,1.3L42.5,17.9z"/>
	<path class="st0" d="M98.7,21.9c-0.4-0.4-1.1-0.5-1.5-0.1L85.1,33c-0.4,0.4-0.5,1.1-0.1,1.5c0.2,0.2,0.5,0.3,0.8,0.3
		c0.3,0,0.5-0.1,0.7-0.3l12.1-11.1C99,23,99.1,22.3,98.7,21.9z"/>
	<path class="st0" d="M27.4,81.7l-11.9,11c-0.4,0.4-0.5,1.1-0.1,1.5c0.2,0.2,0.5,0.3,0.8,0.3c0.3,0,0.5-0.1,0.7-0.3l11.9-11
		c0.4-0.4,0.5-1.1,0.1-1.5C28.5,81.4,27.8,81.3,27.4,81.7z"/>
	<path class="st0" d="M93,87c-0.4-0.4-1.1-0.5-1.5-0.1C91,87.4,91,88,91.4,88.5l8.5,9.3c0.2,0.2,0.5,0.3,0.8,0.3
		c0.3,0,0.5-0.1,0.7-0.3c0.4-0.4,0.5-1.1,0.1-1.5L93,87z"/>
	<path class="st0" d="M34.7,32.6c0.4-0.4,0.5-1.1,0.1-1.5L23.4,18.8c-0.4-0.4-1.1-0.5-1.5-0.1c-0.4,0.4-0.5,1.1-0.1,1.5l11.3,12.3
		c0.2,0.2,0.5,0.3,0.8,0.3C34.2,32.9,34.5,32.8,34.7,32.6z"/>
	<path class="st0" d="M116.4,60l-21.2-0.9c-0.6,0-1.1,0.4-1.1,1c0,0.6,0.4,1.1,1,1.1l21.2,0.9c0,0,0,0,0,0c0.6,0,1-0.4,1.1-1
		C117.4,60.5,116.9,60,116.4,60z"/>
	<path class="st0" d="M21.4,58.2c0.6,0,1-0.4,1.1-1c0-0.6-0.4-1.1-1-1.1L1.1,55.2c-0.6,0-1.1,0.4-1.1,1c0,0.6,0.4,1.1,1,1.1
		L21.4,58.2C21.4,58.2,21.4,58.2,21.4,58.2z"/>
	<path class="st0" d="M60.2,23.5C60.2,23.5,60.2,23.5,60.2,23.5c0.6,0,1.1-0.4,1.1-1l0.9-21.4c0-0.6-0.4-1.1-1-1.1
		C60.6,0,60,0.4,60,1l-0.9,21.4C59.1,23,59.6,23.5,60.2,23.5z"/>
</g>
</svg>
