<?xml version="1.0" encoding="utf-8"?>
<!-- Generator: Adobe Illustrator 19.0.0, SVG Export Plug-In . SVG Version: 6.00 Build 0)  -->
<svg version="1.1" id="Слой_1" xmlns="http://www.w3.org/2000/svg" xmlns:xlink="http://www.w3.org/1999/xlink" x="0px" y="0px"
	 viewBox="0 0 72.8 75.3" style="enable-background:new 0 0 72.8 75.3;" xml:space="preserve">
<style type="text/css">
	.st0{fill-rule:evenodd;clip-rule:evenodd;fill:#C44D45;}
	.st1{fill-rule:evenodd;clip-rule:evenodd;fill:#B0B1B4;}
	.st2{fill-rule:evenodd;clip-rule:evenodd;fill:#FFFFFF;}
</style>
<g>
	<g>
		<g>
			<g>
				<path class="st0" d="M45.4,4.7L45.4,4.7l-0.3,8.5l-5.1-1.9L45.4,4.7L45.4,4.7z M29.2,21.5c-0.2-0.1-0.3,0-0.4,0.2l-1.2,3.2
					c-0.1,0.2,0,0.3,0.2,0.4l17.6,6.5c0.2,0.1,0.3,0,0.4-0.2l1.2-3.2c0.1-0.2,0-0.3-0.2-0.4L29.2,21.5L29.2,21.5z M47.1,0.2
					C45.2-0.5,44,0.7,43,1.8L32.2,14.6c-0.1,0.1-0.1,0.3,0,0.4l2.5,2.2c0.1,0.1,0.3,0.1,0.4,0l2.6-3l7.4,2.8l0,3.9
					c0,0.2,0.1,0.3,0.3,0.3l3.3,0c0.2,0,0.3-0.2,0.3-0.3l0.1-16.7C49.1,2.5,49,0.9,47.1,0.2L47.1,0.2z"/>
			</g>
			<g>
				<path class="st1" d="M6.2,15.6L6.2,15.6l8,2.9l-3.3,4.2L6.2,15.6L6.2,15.6z M2.5,12.7C1.2,14.3,2,15.7,2.8,17l8.7,14.2
					c0.1,0.1,0.3,0.2,0.4,0.1l2.9-1.7c0.2-0.1,0.2-0.3,0.1-0.4l-2.1-3.4l4.9-6.2l3.7,1.2c0.2,0.1,0.3,0,0.4-0.2l1-3.2
					c0.1-0.2-0.1-0.3-0.2-0.4L6.8,12C5.3,11.5,3.8,11.1,2.5,12.7L2.5,12.7z"/>
			</g>
		</g>
		<g>
			<g>
				<path class="st2" d="M6.2,15.7L6.2,15.7l8,2.9l-3.4,4.2L6.2,15.7L6.2,15.7z M2.5,12.7c-1.3,1.6-0.5,3.1,0.3,4.4l8.7,14.2
					c0.1,0.1,0.3,0.2,0.4,0.1l2.9-1.7c0.2-0.1,0.2-0.3,0.1-0.4l-2.1-3.4l4.9-6.2l3.7,1.2c0.2,0.1,0.3,0,0.4-0.2l1-3.2
					c0.1-0.2-0.1-0.3-0.2-0.4L6.8,12C5.3,11.5,3.8,11.1,2.5,12.7L2.5,12.7z"/>
			</g>
			<g>
				<path class="st2" d="M4.5,56.3L4.5,56.3l5.2-6.7l3,4.5L4.5,56.3L4.5,56.3z M0.5,59c1.1,1.7,2.8,1.4,4.3,1.1L21,56.1
					c0.2,0,0.3-0.2,0.2-0.4l-0.7-3.3c0-0.2-0.2-0.3-0.4-0.2l-3.8,0.9L12,46.6l2.3-3.2c0.1-0.1,0.1-0.3-0.1-0.4l-2.7-1.9
					c-0.2-0.1-0.3,0-0.4,0.1L1.2,54.6C0.3,55.9-0.6,57.3,0.5,59L0.5,59z"/>
			</g>
		</g>
		<g>
			<g>
				<path class="st2" d="M68,38.6L59.8,41l0.2-5.4L68,38.6L68,38.6L68,38.6z M72.8,38.8c0.1-2.1-1.4-2.8-2.8-3.4l-15.4-6.4
					c-0.1,0-0.3,0-0.4,0.2l-1.3,3.1c-0.1,0.1,0,0.3,0.2,0.4l3.6,1.5l-0.3,7.9l-3.7,1.2c-0.1,0-0.3,0.2-0.2,0.4l1.1,3.2
					c0.1,0.2,0.2,0.2,0.4,0.2l15.9-5.1C71.1,41.5,72.7,40.9,72.8,38.8L72.8,38.8z"/>
			</g>
			<g>
				<g id="XMLID_27_">
					<path id="XMLID_28_" class="st2" d="M42.7,70.5l-4.7-7l5.2-1.5L42.7,70.5L42.7,70.5L42.7,70.5z M44,75.1c2-0.6,2.2-2.1,2.3-3.7
						l1.3-16.7c0-0.1-0.1-0.3-0.3-0.3L44,54.1c-0.2,0-0.3,0.1-0.3,0.3l-0.3,3.9l-7.6,2.1l-2.3-3.2c-0.1-0.1-0.3-0.2-0.4-0.1l-2.7,2
						c-0.1,0.1-0.2,0.3-0.1,0.4l9.7,13.6C41,74.4,42,75.7,44,75.1L44,75.1z"/>
				</g>
			</g>
		</g>
	</g>
</g>
</svg>
