<?xml version="1.0" encoding="utf-8"?>
<!-- Generator: Adobe Illustrator 19.2.1, SVG Export Plug-In . SVG Version: 6.00 Build 0)  -->
<svg version="1.1" id="Layer_1" xmlns="http://www.w3.org/2000/svg" xmlns:xlink="http://www.w3.org/1999/xlink" x="0px" y="0px"
	 viewBox="0 0 102.4 96" style="enable-background:new 0 0 102.4 96;" xml:space="preserve">
<style type="text/css">
	.st0{fill:#3F9DD7;}
</style>
<path class="st0" d="M72.7,51.2L60.6,39.1c-1-1-2.8-1-3.8,0L38.7,57.2c-1,1-2.8,1-3.8,0l-6.4-6.4c-1-1-2.5-1-3.5-0.3l-21.7,16
	c-0.7,0.6-1,1.3-1,2.2v24.6c0,1.5,1.2,2.8,2.8,2.8H98c1.5,0,2.8-1.2,2.8-2.8V33.7c0-2.5-2.9-3.6-4.7-1.9L76.4,51.2
	C75.4,52.2,73.7,52.2,72.7,51.2z"/>
<path d="M94.2,0.2c-2,0.4-3.8,2-4.7,3.9c-0.9,2-0.7,3.9,0,5.5c0.1,0.1,0,0.3-0.1,0.4L78.2,21.3c-0.1,0.1-0.4,0.1-0.6,0.1
	c-1-0.6-2-0.9-3.2-0.9c-1,0-2.2,0.3-3.1,0.7c-0.1,0.1-0.4,0-0.4,0l-5.8-5.8c-0.1-0.1-0.1-0.3-0.1-0.4c1-2.6,0.6-5.7-3.1-8.2
	c-1-0.7-2.3-1.2-3.5-1.2c-3.6,0.1-6.6,3.1-6.6,6.8c0,0.9,0.1,1.6,0.4,2.3c0.1,0.1,0,0.4-0.1,0.6L39.9,27.7c-0.1,0.1-0.4,0.1-0.6,0.1
	c-0.9-0.4-1.9-0.7-2.9-0.7c-1,0-2,0.3-2.9,0.7C33.3,28,33,28,32.9,27.7l-5.8-5.2c-0.1-0.1-0.1-0.3-0.1-0.4c0.9-2,0.7-4.2-0.9-6.4
	c-1.5-1.7-3.5-2.9-5.8-2.8c-3.6,0.1-6.4,3.2-6.4,6.8c0,0.7,0.1,1.3,0.3,2c0,0.1,0,0.3-0.1,0.4L11,24.4c-0.1,0.1-0.3,0.1-0.4,0
	c-1.5-1-3.4-1.5-5.2-1c-2.6,0.6-4.7,2.8-5.2,5.4c-0.7,4.1,2.2,7.7,6.1,8c2.9,0.3,5.4-1.5,6.7-4.1c0.9-1.7,0.7-3.2,0.4-4.5
	c0-0.1,0-0.4,0.1-0.6l2.8-2c0.1-0.1,0.4-0.1,0.6,0c1,0.7,2.3,1,3.6,1c1.2,0,2.2-0.3,3.2-0.9c0.1-0.1,0.3,0,0.4,0l5.7,5.1
	c0.1,0.1,0.3,0.4,0.1,0.6c-0.7,1.7-0.7,3.6,0.3,5.7c1,1.9,2.9,3.4,5.1,3.6c4.2,0.6,7.7-2.6,7.7-6.7c0-0.9-0.1-1.7-0.6-2.6
	c-0.1-0.1,0-0.4,0.1-0.6l12.1-12.1c0.1-0.1,0.4-0.1,0.6-0.1c1,0.4,2,0.7,3.1,0.7c1.2,0,2.2-0.3,3.2-0.9c0.1-0.1,0.3,0,0.4,0l5.7,5.7
	c0.1,0.1,0.1,0.3,0.1,0.4c-0.9,2.2-0.7,4.7,1.3,7c1.3,1.5,3.1,2.5,5,2.5c3.8,0,6.8-3.1,6.8-6.8c0-0.9-0.1-1.6-0.4-2.3
	c0-0.1,0-0.4,0.1-0.6l11.5-11.5c0.1-0.1,0.3-0.1,0.4-0.1c1.6,0.7,3.5,1,5.5,0.1c1.9-0.9,3.5-2.6,3.9-4.7C103.5,3.4,99.2-1,94.2,0.2z
	 M7,32.5c-1.5,0-2.6-1.2-2.6-2.6c0-1.5,1.2-2.6,2.6-2.6c1.5,0,2.6,1.2,2.6,2.6C9.7,31.4,8.4,32.5,7,32.5z M18.6,21.2L18.6,21.2
	c-0.3-0.3-0.6-0.9-0.6-1.6c0-1.5,1.2-2.6,2.6-2.6c1.5,0,2.6,1.2,2.6,2.6c0,0.9-0.4,1.5-0.7,1.7l0,0C21.5,22.6,19.5,22.5,18.6,21.2z
	 M36.4,36.6c-1.5,0-2.6-1.2-2.6-2.6c0-0.7,0.3-1.3,0.7-1.9l0,0c1-1,2.9-1,3.9,0.1l0,0l0,0c0.3,0.3,0.7,1,0.7,1.7
	C39.2,35.4,37.8,36.6,36.4,36.6z M56.6,14.3L56.6,14.3L56.6,14.3c-0.3-0.3-0.6-0.9-0.6-1.7c0-1.5,1.2-2.6,2.6-2.6
	c1.5,0,2.6,1.2,2.6,2.6c0,0.7-0.3,1.3-0.6,1.7l0,0C59.7,15.6,57.7,15.6,56.6,14.3z M74.6,30.2c-1.5,0-2.6-1.2-2.6-2.6
	c0-0.9,0.4-1.5,0.7-1.7l0,0c1-1.2,3.1-1.2,4.1,0l0,0c0.3,0.3,0.6,0.9,0.6,1.7C77.2,28.9,76,30.2,74.6,30.2z M95.8,9.5
	c-1.5,0-2.6-1.2-2.6-2.6c0-1.5,1.2-2.6,2.6-2.6c1.5,0,2.6,1.2,2.6,2.6C98.4,8.2,97.3,9.5,95.8,9.5z"/>
</svg>
