<?xml version="1.0" encoding="utf-8"?>
<!-- Generator: Adobe Illustrator 19.2.1, SVG Export Plug-In . SVG Version: 6.00 Build 0)  -->
<svg version="1.1" id="Layer_1" xmlns="http://www.w3.org/2000/svg" xmlns:xlink="http://www.w3.org/1999/xlink" x="0px" y="0px"
	 viewBox="0 0 35 35" style="enable-background:new 0 0 35 35;" xml:space="preserve">
<style type="text/css">
	.st0{fill:#3C95C8;}
</style>
<path class="st0" d="M17.5,0C7.8,0,0,7.8,0,17.5C0,27.2,7.8,35,17.5,35C27.2,35,35,27.2,35,17.5C35,7.8,27.2,0,17.5,0z M22.4,14.2
	l-0.3,3.3h-3.4v11.5h-4.3V17.5h-2.3v-3.3h2.3v-1v-1v-0.2c0-1,0-2.5,0.7-3.4c0.7-1,1.8-1.7,3.5-1.7c2.9,0,4.1,0.4,4.1,0.4l-0.6,3.4
	c0,0-1-0.3-1.8-0.3c-0.9,0-1.7,0.3-1.7,1.2v0.4v1.2v1H22.4z"/>
</svg>
