<?xml version="1.0" encoding="utf-8"?>
<!-- Generator: Adobe Illustrator 19.2.1, SVG Export Plug-In . SVG Version: 6.00 Build 0)  -->
<svg version="1.1" id="Layer_1" xmlns="http://www.w3.org/2000/svg" xmlns:xlink="http://www.w3.org/1999/xlink" x="0px" y="0px"
	 viewBox="0 0 25.3 24.2" style="enable-background:new 0 0 25.3 24.2;" xml:space="preserve">
<style type="text/css">
	.st0{fill-rule:evenodd;clip-rule:evenodd;fill:#3C95C8;}
</style>
<g>
	<path class="st0" d="M3,5.6c1.9,0,3.1-1.3,3.1-2.8c0-1.6-1.2-2.8-3-2.8C1.2,0,0,1.2,0,2.8C0,4.4,1.2,5.6,3,5.6L3,5.6L3,5.6z
		 M5.8,24.2V7.9H0.3v16.3H5.8z"/>
	<path class="st0" d="M8.8,24.2h5.4v-9.1c0-0.5,0-1,0.2-1.3c0.4-1,1.3-2,2.8-2c2,0,2.8,1.5,2.8,3.7v8.7h5.4v-9.4
		c0-5-2.7-7.4-6.3-7.4c-2.9,0-4.2,1.6-4.9,2.8h0V7.9H8.8C8.8,9.4,8.8,24.2,8.8,24.2L8.8,24.2z"/>
</g>
</svg>
