<?xml version="1.0" encoding="utf-8"?>
<!-- Generator: Adobe Illustrator 19.2.1, SVG Export Plug-In . SVG Version: 6.00 Build 0)  -->
<svg version="1.1" id="Layer_1" xmlns="http://www.w3.org/2000/svg" xmlns:xlink="http://www.w3.org/1999/xlink" x="0px" y="0px"
	 viewBox="0 0 41.2 23.9" style="enable-background:new 0 0 41.2 23.9;" xml:space="preserve">
<style type="text/css">
	.st0{fill:#231F20;}
</style>
<path class="st0" d="M41.2,1.7c0-0.1,0-0.1,0-0.2c0,0,0-0.1,0-0.1c0-0.1,0-0.1-0.1-0.2c0-0.1,0-0.1-0.1-0.2c0,0,0-0.1-0.1-0.1
	c0-0.1-0.1-0.1-0.1-0.2c0,0,0,0,0,0c0,0-0.1-0.1-0.1-0.1c0,0-0.1-0.1-0.1-0.1c0,0-0.1-0.1-0.1-0.1c0,0-0.1-0.1-0.1-0.1
	c0,0-0.1-0.1-0.1-0.1s-0.1-0.1-0.2-0.1s-0.1,0-0.2-0.1c-0.1,0-0.1,0-0.2,0c-0.1,0-0.1,0-0.2,0c0,0-0.1,0-0.1,0H1.7c0,0-0.1,0-0.1,0
	C1.6,0,1.5,0,1.4,0c-0.1,0-0.1,0-0.2,0c-0.1,0-0.1,0-0.2,0.1C1.1,0.1,1,0.2,1,0.2c-0.1,0-0.1,0.1-0.2,0.1c0,0-0.1,0.1-0.1,0.1
	c0,0-0.1,0.1-0.1,0.1c0,0-0.1,0.1-0.1,0.1c0,0-0.1,0.1-0.1,0.1c0,0,0,0,0,0c0,0.1-0.1,0.1-0.1,0.2C0.2,1,0.2,1,0.2,1
	c0,0.1,0,0.1-0.1,0.2c0,0.1,0,0.1-0.1,0.2c0,0,0,0.1,0,0.1c0,0.1,0,0.1,0,0.2c0,0,0,0,0,0v20.4c0,1,0.8,1.7,1.7,1.7h37.7
	c1,0,1.7-0.8,1.7-1.7L41.2,1.7C41.2,1.7,41.2,1.7,41.2,1.7z M34.1,3.5l-13.5,9.9L7.1,3.5H34.1z M3.5,20.4V5.2L19.5,17
	c0.3,0.2,0.7,0.3,1,0.3c0.4,0,0.7-0.1,1-0.3L37.7,5.2v15.2H3.5z"/>
</svg>
