<?xml version="1.0" encoding="utf-8"?>
<!-- Generator: Adobe Illustrator 19.2.1, SVG Export Plug-In . SVG Version: 6.00 Build 0)  -->
<svg version="1.1" id="Layer_1" xmlns="http://www.w3.org/2000/svg" xmlns:xlink="http://www.w3.org/1999/xlink" x="0px" y="0px"
	 viewBox="0 0 131.3 88" style="enable-background:new 0 0 131.3 88;" xml:space="preserve">
<style type="text/css">
	.st0{fill:#3F9DD7;}
	.st1{fill:none;stroke:#000000;stroke-width:4;stroke-linejoin:round;stroke-miterlimit:10;}
	.st2{fill:none;stroke:#000000;stroke-width:4;stroke-linecap:round;stroke-linejoin:round;stroke-miterlimit:10;}
</style>
<circle class="st0" cx="65" cy="26.3" r="17"/>
<path class="st1" d="M80.7,44.5c5.1-4.4,8.3-10.9,8.3-18.2c0-13.2-10.8-24-24-24c-13.2,0-24,10.8-24,24c0,7.3,3.3,13.8,8.4,18.2
	C36.6,49,28,58.8,28,70.3c0,13.8,23.3,15.8,37.2,15.8c13.9,0,37.2-2.1,37.2-15.8C102.3,58.7,93.6,48.9,80.7,44.5z"/>
<path class="st0" d="M65.1,49C48.5,49,35,58.6,35,70.3s60.4,11.8,60.4,0S81.8,49,65.1,49z"/>
<path class="st2" d="M45.4,12.6c-3.6-3.1-8.2-5-13.3-5c-11.2,0-20.3,9.1-20.3,20.3c0,4.9,1.7,9.4,4.6,12.9C7.7,44.7,2,52.2,2,60.8
	c0,10.9,14.8,13.6,26,14"/>
<path class="st2" d="M86,12.6c3.6-3.1,8.2-5,13.3-5c11.2,0,20.3,9.1,20.3,20.3c0,4.9-1.7,9.4-4.6,12.9c8.7,4.1,14.4,11.5,14.4,20.2
	c0,10.9-14.8,13.6-26,14"/>
</svg>
