<?xml version="1.0" encoding="utf-8"?>
<!-- Generator: Adobe Illustrator 19.2.1, SVG Export Plug-In . SVG Version: 6.00 Build 0)  -->
<svg version="1.1" id="Layer_1" xmlns="http://www.w3.org/2000/svg" xmlns:xlink="http://www.w3.org/1999/xlink" x="0px" y="0px"
	 viewBox="0 0 40 40" style="enable-background:new 0 0 40 40;" xml:space="preserve">
<style type="text/css">
	.st0{fill:#231F20;}
</style>
<path class="st0" d="M38.9,5.1C38.8,5.1,38.8,5,38.9,5.1L34,0.9C33.4,0.3,32.6,0,31.7,0c-1,0-2,0.4-2.7,1.1c0,0-0.1,0.1-0.1,0.2
	l-4.7,5.9c-1.2,1.3-1.2,3.4,0.1,4.7c0.1,0.1,0.2,0.2,0.3,0.2l2.4,1.6c-0.2,0.9-1.5,3.2-5.8,7.5c-4.3,4.3-6.7,5.5-7.5,5.8l-1.6-2.4
	c-0.1-0.1-0.1-0.2-0.2-0.3c-0.6-0.6-1.5-1-2.4-1c-0.9,0-1.7,0.3-2.3,0.9l-5.9,4.7c-0.1,0-0.1,0.1-0.2,0.1c-1.4,1.4-1.5,3.6-0.2,4.9
	L5,38.8c0,0,0.1,0.1,0.1,0.1C5.9,39.6,7,40,8.5,40l0,0c4.9,0,13.5-3.7,20.6-10.8c4.1-4.1,7.4-9,9.3-13.9C39.4,13,41.2,7.4,38.9,5.1z
	 M26.6,26.6c-6.7,6.7-14.6,9.8-18,9.8c-0.5,0-0.8-0.1-0.9-0.1l-4-4.6l5.7-4.5l1.5,2.3c0,0,0.1,0.1,0.1,0.1c0.6,0.7,1.4,1.1,2.4,1.1
	l0,0c2.3,0,5.8-2.3,10.4-6.9c4.7-4.7,7-8.2,6.9-10.6c0-0.9-0.4-1.7-1.1-2.2c0,0-0.1-0.1-0.1-0.1l-2.3-1.5l4.5-5.7l4.6,4
	C37,9.3,34.7,18.4,26.6,26.6z"/>
</svg>
