<?xml version="1.0" encoding="utf-8"?>
<!-- Generator: Adobe Illustrator 19.2.1, SVG Export Plug-In . SVG Version: 6.00 Build 0)  -->
<svg version="1.1" id="Layer_1" xmlns="http://www.w3.org/2000/svg" xmlns:xlink="http://www.w3.org/1999/xlink" x="0px" y="0px"
	 viewBox="0 0 112.4 112.8" style="enable-background:new 0 0 112.4 112.8;" xml:space="preserve">
<style type="text/css">
	.st0{fill:none;stroke:#000000;stroke-width:4;stroke-miterlimit:10;}
	.st1{fill:#3F9DD7;}
</style>
<g>
	<path class="st0" d="M101.3,60c0,5.5-4.5,10-10,10h-74c-5.5,0-10-4.5-10-10V12c0-5.5,4.5-10,10-10h74c5.5,0,10,4.5,10,10V60z"/>
</g>
<path class="st1" d="M42.9,33.9c0,4.2-3.4,7.7-7.7,7.7c-4.2,0-7.7-3.4-7.7-7.7c0-4.2,3.5-7.7,7.7-7.7C39.5,26.2,42.9,29.6,42.9,33.9
	"/>
<path class="st1" d="M47.9,46.5l14.2-15.1L59,28.4L47.1,40.9c0,0-3.2,2.8-6,2.8H29.5c-5.3,0-9.7,4.4-9.7,9.7v19.5H24V56.7
	c0-0.4,0.3-0.8,0.8-0.8c0.4,0,0.8,0.3,0.8,0.8v37.9h8.1v-20c0-0.8,0.7-1.6,1.6-1.6c0.8,0,1.6,0.7,1.6,1.6v20.2h8.4V56.8
	C45.1,51.8,46.4,48.1,47.9,46.5z"/>
<circle cx="14.1" cy="94.5" r="7.6"/>
<path d="M20.4,104.2H7.8c-4.2,0-7.8,3.1-7.8,7.3v1.3c9.4,0,18.6,0,28,0v-1.3C28,107.2,24.7,104.2,20.4,104.2z"/>
<circle cx="98.4" cy="94.5" r="7.6"/>
<path d="M104.8,104.2H92.2c-4.2,0-7.8,3.1-7.8,7.3v1.3c9.4,0,18.6,0,28,0v-1.3C112.4,107.2,109.1,104.2,104.8,104.2z"/>
<circle cx="56.3" cy="94.5" r="7.6"/>
<path d="M62.6,104.2H50c-4.2,0-7.8,3.1-7.8,7.3v1.3c9.4,0,18.6,0,28,0v-1.3C70.2,107.2,66.9,104.2,62.6,104.2z"/>
</svg>
