<?xml version="1.0" encoding="utf-8"?>
<!-- Generator: Adobe Illustrator 19.2.1, SVG Export Plug-In . SVG Version: 6.00 Build 0)  -->
<svg version="1.1" id="Layer_1" xmlns="http://www.w3.org/2000/svg" xmlns:xlink="http://www.w3.org/1999/xlink" x="0px" y="0px"
	 viewBox="0 0 113 112.7" style="enable-background:new 0 0 113 112.7;" xml:space="preserve">
<style type="text/css">
	.st0{fill:none;stroke:#000000;stroke-width:4;stroke-miterlimit:10;}
	.st1{fill:#3F9DD7;}
</style>
<g>
	<path class="st0" d="M111,74c0,5.5-4.5,10-10,10H39c-5.5,0-10-4.5-10-10V12c0-5.5,4.5-10,10-10h62c5.5,0,10,4.5,10,10V74z"/>
</g>
<g>
	<path class="st0" d="M84,101c0,5.5-4.5,10-10,10H12c-5.5,0-10-4.5-10-10V39c0-5.5,4.5-10,10-10h62c5.5,0,10,4.5,10,10V101z"/>
</g>
<g>
	<g>
		<line class="st0" x1="22.6" y1="92.6" x2="13.6" y2="101.6"/>
		<g>
			<polygon points="16.7,91.8 21.5,93.8 23.4,98.5 28,87.2 			"/>
		</g>
	</g>
</g>
<polygon points="14.6,90.3 29,86.5 25.2,100.9 "/>
<path class="st1" d="M70.5,35H54h-9H35v10v15v9.5c0,7.5,2,8.5,8.5,8.5H59h9h10V68V53V42.5C78,36.8,76.6,35,70.5,35z"/>
</svg>
