<?xml version="1.0" encoding="utf-8"?>
<!-- Generator: Adobe Illustrator 19.0.0, SVG Export Plug-In . SVG Version: 6.00 Build 0)  -->
<svg version="1.1" id="Слой_1" xmlns="http://www.w3.org/2000/svg" xmlns:xlink="http://www.w3.org/1999/xlink" x="0px" y="0px"
	 viewBox="0 0 97.4 76.1" style="enable-background:new 0 0 97.4 76.1;" xml:space="preserve">
<style type="text/css">
	.st0{fill:#FFFFFF;}
</style>
<g>
	<path class="st0" d="M45.4,58.7L10.9,73.6V29.9L61.1,8.4v32.5c0,0.6,0.4,1,1,1c0.6,0,1-0.4,1-1v-34c0-0.3-0.2-0.7-0.5-0.8
		c-0.3-0.2-0.6-0.2-0.9-0.1L9.5,28.4c-0.4,0.2-0.6,0.5-0.6,0.9v45.8c0,0.3,0.2,0.7,0.5,0.8c0.2,0.1,0.4,0.2,0.5,0.2
		c0.1,0,0.3,0,0.4-0.1l35.9-15.5c0.5-0.2,0.7-0.8,0.5-1.3C46.5,58.7,45.9,58.5,45.4,58.7z"/>
	<path class="st0" d="M55.4,21c-0.2-0.5-0.8-0.7-1.3-0.5L17.8,36c-0.5,0.2-0.7,0.8-0.5,1.3c0.2,0.4,0.5,0.6,0.9,0.6
		c0.1,0,0.3,0,0.4-0.1l36.2-15.6C55.4,22.1,55.6,21.5,55.4,21z"/>
	<path class="st0" d="M45.3,32c-0.2-0.5-0.8-0.7-1.3-0.5L17.8,42.7c-0.5,0.2-0.7,0.8-0.5,1.3c0.2,0.4,0.5,0.6,0.9,0.6
		c0.1,0,0.3,0,0.4-0.1l26.2-11.3C45.3,33.1,45.5,32.5,45.3,32z"/>
	<path class="st0" d="M28.5,55.8l-10.7,4.6c-0.5,0.2-0.7,0.8-0.5,1.3c0.2,0.4,0.5,0.6,0.9,0.6c0.1,0,0.3,0,0.4-0.1l10.7-4.6
		c0.5-0.2,0.7-0.8,0.5-1.3C29.6,55.8,29,55.6,28.5,55.8z"/>
	<path class="st0" d="M5.9,66.2l-4.4,1.7V23.7L52.2,1.9v4.8c0,0.4,0.3,0.8,0.8,0.8s0.8-0.3,0.8-0.8v-6c0-0.3-0.1-0.5-0.3-0.6
		C53.1,0,52.9,0,52.6,0.1L0.5,22.5C0.2,22.6,0,22.9,0,23.2V69c0,0.2,0.1,0.5,0.3,0.6c0.1,0.1,0.3,0.1,0.4,0.1c0.1,0,0.2,0,0.3-0.1
		l5.4-2.1c0.4-0.2,0.6-0.6,0.4-1C6.7,66.3,6.3,66.1,5.9,66.2z"/>
	<path class="st0" d="M78.7,43.2c0-1.2-1.1-2.2-2.4-2.2h-1.1c-0.6,0-1.1,0.2-1.6,0.5l-7,5.4H63l-0.1,0c0,0,0,0,0,0h-9.4
		c-1.7,0-3.2,1-3.6,2.4c-0.6,0.5-0.9,1.2-0.9,1.9v4.3c0,0.7,0.3,1.4,0.9,1.9c0.5,1.4,1.9,2.4,3.6,2.4h0.3l2.9,7.9
		c0.3,0.9,1.2,1.5,2.2,1.5c0.3,0,0.5,0,0.8-0.1l1.3-0.5c0.5-0.2,0.8-0.8,0.6-1.3c-0.2-0.5-0.8-0.8-1.3-0.6L59,67.4
		c-0.2,0.1-0.4,0-0.4-0.2l-3.1-8.6c-0.1-0.4-0.5-0.7-0.9-0.7h-1c-0.9,0-1.7-0.5-1.8-1.2c-0.1-0.3-0.2-0.5-0.5-0.7
		c-0.2-0.1-0.3-0.3-0.3-0.5v-4.3c0-0.2,0.1-0.4,0.3-0.5c0.2-0.1,0.4-0.4,0.5-0.7c0.1-0.7,0.9-1.2,1.8-1.2h9.4v0c0,0,0.1,0,0.1,0h4
		c0.2,0,0.4-0.1,0.6-0.2l7.3-5.6c0.1-0.1,0.2-0.1,0.4-0.1h1.1c0.3,0,0.4,0.2,0.4,0.2c0,3.6,0,12.8,0,13.3c0,0,0,0,0,0v7.2
		c0,0.1-0.2,0.2-0.4,0.2h-1.1c-0.1,0-0.3,0-0.4-0.1l-7.3-5.6c-0.2-0.1-0.4-0.2-0.6-0.2h-4c0,0-0.1,0-0.1,0c0,0-0.1,0-0.1,0h-3.2
		c-0.3,0-0.6,0.2-0.8,0.4c-0.2,0.3-0.2,0.6-0.1,0.9L60,63c-0.2,0.3-0.2,0.6-0.1,0.9c0.2,0.5,0.8,0.8,1.3,0.6
		c0.3-0.1,0.6-0.4,0.8-0.7c0.2-0.3,0.2-0.7,0-1.1l-1-2.7h1.8c0,0,0,0,0,0c0,0,0.1,0,0.1,0h3.6l7,5.4c0.4,0.3,1,0.5,1.6,0.5h1.1
		c1.3,0,2.4-1,2.4-2.2v-7.2h0c0-0.5,0-1.1,0-2.1L78.7,43.2z"/>
	<path class="st0" d="M67.3,52c0.5,0,1-0.2,1.3-0.4l5.8-4.5c0.3-0.3,0.4-0.7,0.1-1.1c-0.3-0.3-0.7-0.4-1.1-0.1l-5.8,4.5
		c-0.1,0.1-0.3,0.1-0.4,0.1h-3.3c-0.4,0-0.8,0.3-0.8,0.8c0,0.4,0.3,0.8,0.8,0.8H67.3z"/>
	<path class="st0" d="M86.4,42.9C86,42.5,85.3,42.6,85,43c-0.4,0.4-0.3,1.1,0.1,1.4c2.7,2.2,4.3,5.5,4.3,9c0,3.5-1.6,6.8-4.3,9
		c-0.4,0.4-0.5,1-0.1,1.4c0.2,0.2,0.5,0.4,0.8,0.4c0.2,0,0.5-0.1,0.6-0.2c3.2-2.6,5-6.5,5-10.6C91.4,49.3,89.6,45.5,86.4,42.9z"/>
	<path class="st0" d="M90.7,38.5c-0.4-0.4-1-0.3-1.4,0.1c-0.4,0.4-0.3,1,0.1,1.4c3.9,3.4,6.1,8.2,6.1,13.4c0,5.1-2.2,10-6.1,13.4
		c-0.4,0.4-0.5,1-0.1,1.4c0.2,0.2,0.5,0.3,0.8,0.3c0.2,0,0.5-0.1,0.7-0.2c4.3-3.8,6.8-9.2,6.8-14.9C97.4,47.7,95,42.3,90.7,38.5z"/>
	<path class="st0" d="M82.3,46.9c-0.5-0.3-1.1-0.2-1.4,0.2c-0.3,0.5-0.2,1.1,0.2,1.4c1.6,1.1,2.5,3,2.5,4.9c0,2-0.9,3.8-2.5,4.9
		c-0.5,0.3-0.6,0.9-0.2,1.4c0.2,0.3,0.5,0.4,0.8,0.4c0.2,0,0.4-0.1,0.6-0.2c2.1-1.5,3.4-4,3.4-6.5C85.7,50.8,84.5,48.4,82.3,46.9z"
		/>
</g>
</svg>
