<?xml version="1.0" encoding="utf-8"?>
<!-- Generator: Adobe Illustrator 19.0.0, SVG Export Plug-In . SVG Version: 6.00 Build 0)  -->
<svg version="1.1" id="Слой_1" xmlns="http://www.w3.org/2000/svg" xmlns:xlink="http://www.w3.org/1999/xlink" x="0px" y="0px"
	 viewBox="0 0 103.8 126" style="enable-background:new 0 0 103.8 126;" xml:space="preserve">
<style type="text/css">
	.st0{fill:#FFFFFF;}
</style>
<g>
	<path class="st0" d="M9.7,27.3c0,0.2,0.1,0.5,0.1,0.7c0,0.6,0.5,1,1.1,1c0,0,0.1,0,0.1,0c0.6,0,1.1-0.6,1-1.2c0-0.3,0-0.5-0.1-0.8
		l0-0.2c-0.3-2.5-0.7-6.7,2-10.5c3.3-4.6,9.4-6.5,14.5-4.3c0.6,0.2,1.2,0,1.4-0.6c0.2-0.6,0-1.2-0.6-1.4C23.1,7.5,15.9,9.6,12,15.1
		c-3.2,4.5-2.7,9.2-2.3,12L9.7,27.3z"/>
	<path class="st0" d="M31.4,113.5c-0.2,0.1-0.5,0.2-0.8,0.3l-0.1,0c-2.3,1-6.6,2.9-11.3,1.1c-0.6-0.2-1.2,0.1-1.4,0.6
		c-0.2,0.6,0.1,1.2,0.6,1.4c1.7,0.7,3.4,0.9,5,0.9c3.4,0,6.3-1.3,8-2.1l0.1,0c0.2-0.1,0.5-0.2,0.7-0.3c0.6-0.2,0.8-0.9,0.6-1.4
		C32.6,113.6,32,113.3,31.4,113.5z"/>
	<path class="st0" d="M98,118.6c-3.3,4.6-9.4,6.5-14.5,4.3c-0.6-0.2-1.2,0-1.4,0.6c-0.2,0.6,0,1.2,0.6,1.4c1.7,0.7,3.5,1.1,5.3,1.1
		c4.6,0,9-2.2,11.8-6.1c0.3-0.5,0.2-1.2-0.3-1.5C99,118,98.3,118.1,98,118.6z"/>
	<path class="st0" d="M72.1,9.3c0.1,0,0.3,0,0.4-0.1c0.3-0.1,0.5-0.2,0.8-0.3l0.1,0c2.3-1,6.6-2.9,11.3-1.1c0.6,0.2,1.2-0.1,1.4-0.6
		c0.2-0.6-0.1-1.2-0.6-1.4c-5.6-2.2-10.4,0-13,1.1l-0.1,0c-0.2,0.1-0.5,0.2-0.7,0.3C71.1,7.4,70.8,8,71,8.6
		C71.2,9,71.6,9.3,72.1,9.3z"/>
	<path class="st0" d="M38.2,11.1c0.2,0.1,0.4,0.2,0.6,0.2c0.4,0,0.7-0.2,0.9-0.5c0.1-0.2,0.3-0.4,0.4-0.7l0.1-0.1
		c1.3-2.3,4-7,9.6-7.8c0.6-0.1,1-0.6,0.9-1.2c-0.1-0.6-0.6-1-1.2-0.9C42.8,1,39.8,6.3,38.3,8.9L38.2,9c-0.1,0.2-0.2,0.4-0.4,0.6
		C37.5,10.2,37.7,10.8,38.2,11.1z"/>
	<path class="st0" d="M97,67.1c-0.6-0.6-1.1-1.1-1.4-1.5c-0.4-0.5-1.1-0.5-1.5-0.1c-0.5,0.4-0.5,1.1-0.1,1.5
		c0.3,0.4,0.8,0.9,1.5,1.6c1.9,2,6.3,6.7,6.2,8.4c-0.1,1.8-1.5,3.4-3.3,3.8l-14.5,3.4C83.3,84.5,83,85,83,85.5
		c0.3,3.8,0.6,7.6,0.9,11.4c0,0.4,0.1,0.8,0.1,1.2c0.2,1.8,0.4,3.7-0.5,5.1c-1.1,1.6-3.2,2.3-4.9,1.6l-13.9-5.8
		c-0.5-0.2-1.1,0-1.4,0.4l-7.8,12.8c0,0.1-0.1,0.1-0.2,0.2c-0.9,1.2-2.3,1.8-3.7,1.8c-1.5-0.1-2.8-0.9-3.6-2.3l-7.6-12.5
		c-0.3-0.5-0.9-0.7-1.4-0.4l-10.6,4.4c-0.3,0.1-0.7,0.3-1,0.5c-1.8,0.8-3.5,1.6-5.2,0.9c-1.8-0.7-2.9-2.4-2.8-4.2l1.2-15
		c0-0.5-0.3-1-0.8-1.2L8.8,81.7c-0.4-0.1-0.7-0.2-1.1-0.2c-2-0.4-3.9-0.8-4.9-2.4c-1-1.7-0.8-3.7,0.6-5.3L13,62.7
		c0.4-0.4,0.4-1,0-1.4l-7.3-8.5c-0.2-0.3-0.5-0.6-0.8-0.9c-1.4-1.6-2.8-3.1-2.7-5c0.1-1.8,1.5-3.4,3.3-3.9L20,39.7
		c0.5-0.1,0.9-0.6,0.8-1.2l-0.9-11.4c0-0.4-0.1-0.8-0.1-1.2c-0.2-1.8-0.4-3.7,0.5-5.1c1.1-1.6,3.2-2.3,4.9-1.6l13.9,5.8
		c0.5,0.2,1.1,0,1.4-0.4l6-9.8c0.2-0.3,0.4-0.6,0.6-1c1-1.7,2.1-3.6,3.8-3.9c1.5-0.2,3.5,0,4.7,2.1l7.7,12.6
		c0.3,0.5,0.9,0.7,1.4,0.4l10.6-4.4c0.3-0.1,0.7-0.3,1.1-0.5c1.8-0.8,3.5-1.6,5.2-0.9c1.8,0.7,2.9,2.4,2.7,4.3
		c-0.1,0.8-0.1,1.5-0.2,2.3l-1,12.6c0,0.5,0.3,1,0.8,1.2L95,42.3c0.4,0.1,0.7,0.2,1.1,0.2c2,0.4,3.9,0.8,4.9,2.4
		c1,1.7,0.8,3.7-0.6,5.3l-9.6,11.1c-0.4,0.5-0.3,1.2,0.1,1.5c0.5,0.4,1.2,0.3,1.5-0.1l9.6-11.1c2-2.3,2.3-5.4,0.8-7.8
		c-1.4-2.4-4-2.9-6.3-3.4c-0.4-0.1-0.7-0.1-1-0.2l-10.3-2.4l1-11.7c0.1-0.8,0.1-1.5,0.2-2.4c0.2-2.8-1.5-5.4-4.1-6.5
		c-2.5-1-4.8,0.1-6.9,1c-0.3,0.2-0.7,0.3-1,0.4l-9.8,4.1L57.5,11c-1.4-2.4-4-3.5-6.9-3.1c-2.8,0.4-4.2,2.9-5.4,5
		c-0.2,0.3-0.4,0.6-0.5,0.9l-5.5,9l-13.1-5.5c-2.7-1.1-5.8-0.1-7.6,2.3c-1.4,2-1.2,4.4-0.9,6.6c0,0.4,0.1,0.7,0.1,1.1l0.9,10.4L5,41
		c-2.8,0.7-4.8,3.1-5,5.9c-0.2,2.8,1.6,4.8,3.2,6.5C3.5,53.7,3.7,54,4,54.2l6.7,7.8L1.7,72.4c-2,2.3-2.3,5.4-0.8,7.8
		c1.4,2.4,4,2.9,6.3,3.4c0.4,0.1,0.7,0.1,1,0.2l10.3,2.4l-1.2,14c-0.2,2.8,1.5,5.4,4.1,6.5c2.5,1,4.8-0.1,6.9-1
		c0.3-0.2,0.7-0.3,1-0.4l9.8-4.1l7.1,11.7c1.2,2,3.2,3.2,5.4,3.3c0.1,0,0.2,0,0.3,0c2,0,3.9-0.9,5.2-2.6c0.1-0.1,0.2-0.3,0.3-0.4
		l7.3-12l13.1,5.5c2.7,1.1,5.8,0.1,7.6-2.3c1.4-2,1.2-4.4,0.9-6.6c0-0.4-0.1-0.7-0.1-1.1c-0.3-3.5-0.6-7-0.9-10.4l13.6-3.2
		c2.8-0.7,4.8-3.1,5-5.9C104,74.7,100.7,71,97,67.1z"/>
	<path class="st0" d="M35.6,84.5c0.5,0.3,1,0.5,1.5,0.5c0.8,0,1.6-0.4,2.1-1.1l29.6-40.8c0.9-1.2,0.6-2.8-0.6-3.7
		c-1.2-0.9-2.8-0.6-3.7,0.6L35,80.9C34.1,82,34.4,83.7,35.6,84.5z"/>
	<path class="st0" d="M65.9,85.3l0.2,0h0c5.8,0,10.8-4.9,11.2-10.9c0-0.2,0-0.3,0-0.5c0-0.2,0-0.3,0-0.5C77,67.3,72.1,62.6,66,62.5
		l-0.2,0c-6.1,0-11.1,5.1-11.2,11.3c-0.1,3,1.1,5.9,3.4,8.1C60,84,62.9,85.2,65.9,85.3z M65.8,67.8l0.1,0c3.3,0.1,6,2.6,6.2,6l0,0
		l0,0.1l0,0.1c-0.2,3.3-2.8,6-5.9,6L66,80c-1.6,0-3.2-0.7-4.4-1.9c-1.2-1.2-1.8-2.7-1.8-4.2C59.9,70.6,62.6,67.8,65.8,67.8z"/>
	<path class="st0" d="M38.1,61.5L38.1,61.5c5.8,0,10.8-4.9,11.2-10.9c0-0.2,0-0.4,0-0.5c0-0.2,0-0.4,0-0.5
		c-0.4-6.1-5.2-10.8-11.3-10.9l-0.2,0c-6.1,0-11.1,5.1-11.2,11.3c-0.1,6.1,5.1,11.3,11.3,11.4L38.1,61.5z M31.8,50.2
		c0.1-3.3,2.8-6.2,6-6.2l0.1,0c3.3,0.1,6,2.6,6.2,6l0,0.2l0,0.1c-0.2,3.3-2.8,6-5.9,6H38C34.6,56.2,31.7,53.4,31.8,50.2z"/>
</g>
</svg>
