<?xml version="1.0" encoding="utf-8"?>
<!-- Generator: Adobe Illustrator 19.0.0, SVG Export Plug-In . SVG Version: 6.00 Build 0)  -->
<svg version="1.1" id="Слой_1" xmlns="http://www.w3.org/2000/svg" xmlns:xlink="http://www.w3.org/1999/xlink" x="0px" y="0px"
	 viewBox="0 0 75.9 80.6" style="enable-background:new 0 0 75.9 80.6;" xml:space="preserve">
<style type="text/css">
	.st0{fill:#FFFFFF;}
</style>
<g>
	<path class="st0" d="M20.9,22.9c-0.2,0.3-0.2,0.7-0.1,1.1c0.1,0.6,0.5,1.2,1,1.6c1.2,0.7,2.6,1,3.7,1c0.2,0,0.4,0,0.5,0
		c0.5-0.1,0.9-0.6,0.9-1.1c-0.1-0.5-0.5-0.9-1.1-0.9c-0.7,0.1-1.9-0.1-2.8-0.7L50.6,9.7c0.8,0.9,2,1.8,3.9,2.4
		c0.5,0.2,1.1-0.1,1.3-0.7c0.2-0.5-0.1-1.1-0.7-1.3c-1.9-0.6-2.8-1.6-3.3-2.3c-0.3-0.4-0.8-0.6-1.3-0.3L21.3,22.5
		C21.1,22.6,20.9,22.7,20.9,22.9z"/>
	<path class="st0" d="M25.9,74.6c-0.2,0-0.3-0.2-0.3-0.3V32.1c0-0.6-0.4-1-1-1s-1,0.4-1,1v42.1c0,1.3,1,2.3,2.3,2.3c0.6,0,1-0.4,1-1
		C26.9,75.1,26.5,74.6,25.9,74.6z"/>
	<path class="st0" d="M58.6,11.6c-0.3-0.2-0.7-0.2-1,0L29.9,25.8c-1.1,0.6-2.4,1.3-3.9,1.4c-1.5,0.2-3.3-0.3-4.6-1.1
		c0,0-0.1,0-0.1-0.1c-0.1,0-0.1-0.1-0.2-0.1c-0.3-0.2-0.7-0.3-1.1-0.1c-0.3,0.2-0.6,0.5-0.6,0.9v49.4c0,2.9,2.1,4.6,5.7,4.6
		c1.4,0,3.1-0.4,4.2-1l29.2-14.8c0.3-0.2,0.5-0.5,0.5-0.9V12.5C59.1,12.1,58.9,11.8,58.6,11.6z M57.1,63.3L28.5,77.9
		c-0.8,0.5-2.1,0.8-3.2,0.8c-3.7,0-3.7-1.9-3.7-2.6V28.5c1.5,0.6,3.2,0.9,4.7,0.8c1.9-0.2,3.4-1,4.6-1.7l26.2-13.4V63.3z"/>
	<path class="st0" d="M4,24.4v19.8C4,44.7,4.4,45,4.8,45c0.4,0,0.8-0.3,0.8-0.8V24.4c0-0.4-0.3-0.8-0.8-0.8C4.4,23.7,4,24,4,24.4z"
		/>
	<path class="st0" d="M2.1,17.6c1.1,0.7,2.5,1,3.5,1c0.2,0,0.3,0,0.5,0c0.4,0,0.7-0.4,0.7-0.8c0-0.4-0.4-0.7-0.8-0.7
		c-0.8,0.1-2.1-0.1-3.1-0.7c-0.1,0-0.1-0.1-0.2-0.3L30.8,1.7c0.7,0.9,1.9,1.9,3.9,2.5c0.4,0.1,0.8-0.1,0.9-0.5
		c0.1-0.4-0.1-0.8-0.5-0.9c-1.9-0.6-2.9-1.7-3.5-2.4c-0.2-0.3-0.6-0.4-1-0.3L1.6,15c-0.1,0.1-0.3,0.2-0.3,0.3
		c-0.1,0.2-0.1,0.6-0.1,0.9C1.3,16.8,1.7,17.3,2.1,17.6z"/>
	<path class="st0" d="M14.9,67.3l-6.1,3.1c-0.9,0.5-2.2,0.8-3.3,0.8c-3.9,0-3.9-2.1-3.9-2.8v-48c1.5,0.7,3.4,1.1,4.9,0.9
		c1.9-0.2,3.3-1,4.5-1.6L37.6,6v3c0,0.4,0.3,0.8,0.8,0.8s0.8-0.3,0.8-0.8V4.8c0-0.3-0.1-0.5-0.4-0.6C38.5,4,38.2,4,38,4.1L10.3,18.3
		c-1.2,0.6-2.4,1.3-4,1.5c-1.6,0.2-3.4-0.3-4.8-1.1c0,0-0.1-0.1-0.1-0.1c-0.1,0-0.1-0.1-0.2-0.1c-0.2-0.2-0.5-0.2-0.8-0.1
		C0.2,18.4,0,18.7,0,19v49.4c0,2.8,1.9,4.3,5.4,4.3c1.4,0,3-0.4,4-1l6-3.1c0.4-0.2,0.5-0.6,0.3-1C15.7,67.2,15.2,67.1,14.9,67.3z"/>
	<path class="st0" d="M33.6,43.3c0.2,0,0.3,0,0.5-0.1l19.4-10c0.5-0.3,0.7-0.9,0.4-1.3c-0.3-0.5-0.9-0.7-1.3-0.4l-19.4,10
		c-0.5,0.3-0.7,0.9-0.4,1.3C32.9,43.1,33.2,43.3,33.6,43.3z"/>
	<path class="st0" d="M46.3,46.8l-13.2,6.8c-0.5,0.3-0.7,0.9-0.4,1.3c0.2,0.3,0.5,0.5,0.9,0.5c0.2,0,0.3,0,0.5-0.1l13.2-6.8
		c0.5-0.3,0.7-0.9,0.4-1.3C47.4,46.7,46.8,46.5,46.3,46.8z"/>
	<path class="st0" d="M33.6,49.5c0.2,0,0.3,0,0.5-0.1l13.2-6.8c0.5-0.3,0.7-0.9,0.4-1.3c-0.3-0.5-0.9-0.7-1.3-0.4l-13.2,6.8
		c-0.5,0.3-0.7,0.9-0.4,1.3C32.9,49.3,33.2,49.5,33.6,49.5z"/>
	<path class="st0" d="M78.3,76.5c0-0.2,0-0.3,0-0.5c0-0.6-0.4-1-1-1c0,0,0,0,0,0c-0.5,0-1,0.4-1,1c0,0.2,0,0.4,0,0.6
		c0,0.2,0,0.4,0,0.7c0,0.5-0.1,0.6-0.1,0.6c0,0-0.1,0.1-0.7,0.1c0,0,0,0,0,0l-1,0c-4.1,0-11.7,0-12.1,0c-0.5,0-0.5-0.1-0.6-0.5
		c0-0.3,0-0.6,0-0.9c0-0.2,0-0.3,0-0.5c0-0.6-0.4-1-1-1c-0.5,0-1,0.4-1,1c0,0.1,0,0.3,0,0.4c0,0.4-0.1,0.8,0,1.2
		c0.1,1,0.6,2.2,2.4,2.4c0.2,0,2,0,12.2,0l1,0c0,0,0,0,0,0c1.8,0,2.6-0.8,2.8-2.6C78.3,77.1,78.3,76.8,78.3,76.5z"/>
	<path class="st0" d="M67.2,73.1c0.5,0.5,1.2,0.8,1.9,0.9c0.7,0,1.3-0.3,1.8-0.9c1.7-1.6,3.3-3.3,4.9-4.9c0.4-0.4,0.4-1,0-1.4
		c-0.4-0.4-1-0.4-1.4,0c-1.5,1.5-2.9,2.9-4.4,4.4V55.8c0-0.6-0.4-1-1-1c-0.6,0-1,0.4-1,1v15.4c-1.5-1.5-2.9-2.9-4.4-4.4
		c-0.4-0.4-1-0.4-1.4,0c-0.4,0.4-0.4,1,0,1.4C63.9,69.8,65.5,71.5,67.2,73.1z"/>
</g>
</svg>
