<svg xmlns="http://www.w3.org/2000/svg" id="Layer_1" viewBox="0 0 116.5 90.4"><style>.st0{fill:#FFFFFF;} .st1{fill:#7673C0;} .st2{fill:#EB001B;} .st3{fill:#00A1DF;}</style><path d="M35.2 90v-6c0-2-1.3-3.6-3.3-3.7h-.6c-1.3 0-2.6.6-3.4 1.7-.7-1-2-1.8-3.2-1.7-1 0-2.2.5-2.8 1.4v-1.2h-2V90h2v-5.3c-.2-1.2.7-2.3 2-2.5h.3c1.4 0 2 1 2 2.5V90h2.2v-5.3c-.2-1.2.7-2.4 2-2.5h.3c1.4 0 2 1 2 2.5V90h2.4zM47 85.4v-4.8h-2.2v1.2c-.7-1-1.8-1.4-3-1.4-2.8 0-5 2.2-5 5s2.2 5 5 5c1.2 0 2.3-.5 3-1.4v1h2v-4.7zm-7.8 0c0-1.6 1.5-2.8 3-2.7 1.7 0 3 1.5 2.8 3 0 1.6-1.3 2.8-3 2.8-1.5 0-2.8-1.2-2.8-2.8v-.3zm52.2-5c.7 0 1.4 0 2 .4.6.2 1.2.6 1.6 1 .5.6.8 1 1 1.7.6 1.3.6 2.7 0 4-.2.6-.5 1-1 1.6-.5.5-1 .8-1.6 1-1.3.6-2.8.6-4 0-.7 0-1.3-.5-1.7-1-.5-.5-.8-1-1-1.6-.6-1.3-.6-2.7 0-4 0-.6.5-1 1-1.6.5-.5 1-.8 1.6-1 .6-.4 1.4-.5 2-.5zm0 2c-.4 0-.8 0-1.2.2-.4 0-.7.4-1 .6l-.6 1c-.3 1-.3 1.8 0 2.6 0 .4.4.7.6 1 .3.3.6.5 1 .6.8.3 1.6.3 2.4 0 .4 0 .7-.4 1-.6.3-.3.5-.6.6-1 .3-.8.3-1.7 0-2.5 0-.3-.4-.6-.6-1l-1-.5-1.2-.2zm-33.2 3c0-3-2-5-4.5-5-2.8 0-5 2.3-5 5s2.4 5 5.2 5c1.3 0 2.7-.4 3.8-1.3l-1-1.5c-.8.6-1.8 1-2.8 1-1.4 0-2.7-1-3-2.3h7.2v-1zm-7-.8c0-1.3 1-2.3 2.4-2.3 1.3 0 2.4 1 2.4 2.3h-5zM67 83c-1-.5-2-.8-3-.8s-1.8.4-1.8 1 .7 1 1.6 1h1c2 .4 3.3 1.3 3.3 3s-1.5 3-4.3 3c-1.5 0-3-.3-4-1l1-1.7c.8.7 2 1 3 1 1.5 0 2.3-.4 2.3-1.2 0-.5-.5-.8-1.7-1h-1c-2-.4-3.3-1.4-3.3-3 0-1.8 1.6-3 4-3 1.4 0 2.7.3 4 1L67 83zm10-.5h-3.4v4.3c0 1 .3 1.6 1.4 1.6.6 0 1.3-.2 1.8-.5l.6 1.7c-.8.5-1.7.7-2.6.7-2.5 0-3.3-1.3-3.3-3.5v-4.5h-2v-2h2v-2.8h2v3H77v1.8zm7.2-2.2c.5 0 1 0 1.5.3l-.6 2c-.3-.2-.8-.2-1.2-.2-1.4 0-2 1-2 2.5v5.3h-2v-9.5h2V82c.4-1 1.4-1.7 2.4-1.7z" class="st0"/><path d="M42.5 7.7H74v56.6H42.5z" class="st1"/><path id="_Path_" d="M44.5 36c0-11 5-21.5 13.8-28.3C42.6-4.6 20-2 7.7 13.7-4.6 29.5-2 52 13.7 64.4c13.2 10.3 31.5 10.3 44.6 0C49.6 57.5 44.5 47 44.5 36z" class="st2"/><path d="M116.5 36c0 20-16 36-36 36-8 0-16-2.7-22.2-7.7 15.6-12.3 18.3-35 6-50.5-1.8-2.3-3.8-4.3-6-6 15.5-12.4 38.2-9.7 50.5 6 5 6.3 7.7 14 7.7 22.2z" class="st3"/></svg>