<svg xmlns="http://www.w3.org/2000/svg" id="Layer_1" viewBox="-731.9 243 34.8 15"><style>.st0{fill:#00579F;} .st1{fill:#FAA61A;}</style><path d="M-705.8 255.4c0-.4.7-2 .7-2v-.6l.2.6.4 2h-1.4zm2.2-4.4h-1.4c-.4 0-.7 0-1 .6l-2.5 6.3h2l.3-1h2.3c.2 0 .3 1 .3 1h1.7l-1.6-7zm-4.6 0l-1.6-.2c-1.8 0-3 1-3 2.3 0 1 1 1.6 1.6 2 .7.3 1 .6 1 1s-.7.6-1.2.6c-.7 0-1 0-1.7-.4h-.3l-.2 1.4c.4.2 1.2.4 2 .4 2 0 3-1 3-2.3 0-.8-.4-1.4-1.4-2-.5-.2-1-.4-1-.8s.4-.7 1-.7c.7 0 1 0 1.4.3h.2l.2-1.5zm-8.2 7l1-7h2l-1.2 7h-1.8zm-1.5-7l-1.6 4.7-.2-1c-.4-1.2-1.4-2.4-2.5-3l1.6 6h2l2.7-6.8h-2z" class="st0"/><path d="M-721.2 251h-3c2.3.7 3.8 2 4.4 3.7l-.6-3.2c0-.4-.4-.5-.8-.5z" class="st1"/><path d="M-729.5 249.3h-1l-1.4-6h1.4l1 4.5 2.2-4.6h1.2l-3.3 6zm4.3-3.6c-.4 0-.8.3-1 1h1.7c0-.6-.2-1-.7-1zm1.6 1.7h-2.7c0 .8.3 1.2 1 1.2.5 0 1-.2 1.5-.5v1c-.5.2-1 .4-1.8.4-1.2 0-2-.7-1.7-2.2.2-1.4 1.2-2.2 2.3-2.2 1.3 0 1.7 1 1.5 2v.4zm1.8-.5l-.4 2.3h-1l.6-4.2h1v1c.3-.6.7-1 1.4-1v1c-.6 0-1.2.4-1.6 1zm3-2.6c-.4 0-.7-.2-.6-.6s.4-.6.7-.6.6.3.5.6c0 .3-.4.6-.7.6zm-1.4 5l.6-4.3h1l-.6 4.3h-1zm4.6-5.5c-.4 0-.6 0-.6.4v.6h.7v1h-1l-.4 3.3h-1l.6-3.4h-.6v-1h.7v-.7c.2-1 1-1.3 1.8-1.3h.4v1h-.6zm1.3.4c-.3 0-.6-.2-.5-.6 0-.4.4-.6.7-.6.2 0 .5.3.4.6 0 .3-.4.6-.7.6zm-1.3 5l.6-4.3h1l-.6 4.3h-1zm4.2-3.7c-.4 0-.8.3-1 1h1.7c0-.6-.2-1-.7-1zm1.6 1.7h-2.7c0 .8.3 1.2 1 1.2.5 0 1-.2 1.5-.5v1c-.5.2-1 .4-1.8.4-1.2 0-2-.7-1.7-2.2.2-1.4 1.2-2.2 2.3-2.2 1.3 0 1.7 1 1.5 2v.4zm3.4-1.3h-.8c-.5 0-1 .3-1.2 1.3 0 .8.2 1.2.6 1.2.4 0 .7-.2 1-.6l.4-2zm-.3 3.3v-.6c-.4.4-.8.7-1.4.7-1 0-1.6-.7-1.4-2 .2-1.7 1.2-2.4 2.2-2.4.4 0 .7 0 1 .2l.3-2 1.2-.2-1 6.3h-1zm4.6-2.6c-.4 0-.6.2-1 .4v1.5h.4c.5 0 1-.2 1-1 0-.5 0-.8-.5-.8zm-.6 2.6c-.5 0-1 0-1.3-.2l.8-4.4h.8l-.3 1.8c.2-.2.6-.4 1-.4.7 0 1 .5 1 1.6-.3 1.2-1 1.7-2 1.7zm3.7.2c-.3.8-.7 1-1.3 1h-.3v-.7h.4l.6-.3v-.2l-.6-3 .8-.2.4 2.4 1-2.2h1l-2 3.3z" class="st0"/></svg>