<svg xmlns="http://www.w3.org/2000/svg" id="Layer_1" viewBox="0 0 116.5 90.3"><style>.st0{fill:#FFFFFF;} .st1{fill:#FF5F00;} .st2{fill:#EB001B;} .st3{fill:#F79E1B;}</style><path id="XMLID_1775_" d="M21.2 90v-6c0-2.2-1.4-3.7-3.8-3.7-1.2 0-2.5.4-3.4 1.7-.7-1-1.7-1.7-3.2-1.7-1 0-2 .3-2.8 1.4v-1.2H6V90h2V85c0-1.7 1-2.5 2.4-2.5s2 1 2 2.5V90h2.2V85c0-1.7 1-2.5 2.3-2.5 1.3 0 2 1 2 2.5V90h2.2zm31-9.5H49v-3h-2.2v3h-2v2h2v4.3c0 2.2 1 3.5 3.3 3.5 1 0 2-.3 2.7-.7l-.6-1.8c-.5.4-1.2.5-1.7.5-1 0-1.4-.6-1.4-1.6v-4.3h3.3v-2zm17.8-.2c-1.2 0-2 .6-2.5 1.4v-1.2h-2V90h2v-5.3c0-1.6.7-2.5 2-2.5.4 0 1 0 1.3.2l.6-2H70zm-26.8 1c-1-.7-2.4-1-4-1-2.3 0-4 1.2-4 3 0 1.7 1.3 2.6 3.4 3h1c1 .2 1.7.5 1.7 1 0 .7-.8 1.2-2.2 1.2-1.3 0-2.4-.5-3-1L35 89c1 1 2.5 1.3 4 1.3 2.8 0 4.4-1.3 4.4-3 0-1.8-1.3-2.7-3.3-3h-1c-.8-.2-1.5-.4-1.5-1 0-.7.7-1 1.8-1 1.2 0 2.4.4 3 .7l1-1.7zm55.7-1c-1.3 0-2 .6-2.6 1.4v-1.2h-2V90h2v-5.3c0-1.6.7-2.5 2-2.5.4 0 1 0 1.3.2l.6-2H99zm-27 5c0 3 2 5 5.2 5 1.4 0 2.4-.3 3.4-1l-1-1.8c-.8.6-1.6 1-2.5 1-1.6 0-2.8-1.3-2.8-3.2 0-1.8 1.2-3 3-3 .8 0 1.6.2 2.4.8l1-1.6c-1-.8-2-1-3.4-1-3 0-5 2-5 5zm19.6 0v-4.8h-2v1.2c-.8-1-1.8-1.4-3-1.4-2.8 0-5 2-5 5s2.2 5 5 5c1.3 0 2.3-.5 3-1.4v1h2v-4.7zm-7.8 0c0-1.7 1-3 3-3 1.6 0 2.8 1.2 2.8 3 0 1.7-1.2 3-3 3-1.7 0-2.8-1.3-2.8-3zm-25-5c-3 0-5 2-5 5s2 5 5 5c1.4 0 2.8-.4 4-1.3l-1-1.5c-1 .6-2 1-3 1-1.2 0-2.5-.6-2.8-2.3h7v-.8c.3-3-1.6-5-4.3-5zm0 2c1.2 0 2 .7 2.3 2.2h-5c.4-1.4 1.2-2.3 2.7-2.3zm52 3v-8.6h-2v5c-.7-1-1.7-1.4-3-1.4-2.7 0-4.8 2-4.8 5s2 5 4.8 5c1.4 0 2.4-.5 3-1.4v1h2v-4.7zm-7.7 0c0-1.7 1.2-3 3-3 1.7 0 3 1.2 3 3 0 1.7-1.3 3-3 3-1.8 0-3-1.3-3-3zm-70 0v-4.8h-2.2v1.2c-.7-1-1.7-1.4-3-1.4-2.7 0-4.8 2-4.8 5s2 5 4.8 5c1.4 0 2.4-.5 3-1.4v1h2v-4.7zm-7.8 0c0-1.7 1-3 3-3 1.6 0 2.8 1.2 2.8 3 0 1.7-1.2 3-3 3-1.7 0-2.8-1.3-2.8-3z" class="st0"/><g id="XMLID_328_"><path d="M42.5 7.7H74v56.6H42.5z" class="st1"/><path id="XMLID_330_" d="M44.5 36c0-11.5 5.4-21.7 13.7-28.3C52.2 3 44.4 0 36 0 16 0 0 16 0 36s16 36 36 36c8.4 0 16-3 22.2-7.7C50 57.7 44.5 47.5 44.5 36z" class="st2"/><path d="M116.5 36c0 20-16 36-36 36-8.4 0-16-3-22.2-7.7C66.6 57.7 72 47.5 72 36S66.6 14.3 58.2 7.7C64.4 3 72.2 0 80.5 0c20 0 36 16 36 36z" class="st3"/></g></svg>