<?xml version="1.0" encoding="utf-8"?>
<!-- Generator: Adobe Illustrator 16.2.0, SVG Export Plug-In . SVG Version: 6.00 Build 0)  -->
<!DOCTYPE svg PUBLIC "-//W3C//DTD SVG 1.1//EN" "http://www.w3.org/Graphics/SVG/1.1/DTD/svg11.dtd">
<svg version="1.1" id="Слой_1" xmlns="http://www.w3.org/2000/svg" xmlns:xlink="http://www.w3.org/1999/xlink" x="0px" y="0px"
	 width="841.89px" height="595.275px" viewBox="0 0 841.89 595.275" enable-background="new 0 0 841.89 595.275"
	 xml:space="preserve">
<g id="Слой_x0020_1">
	<g id="_3030528891792">
		<path fill="#FAFAFA" d="M350.419,270.766h2.977c0,5.329,0.68,6.066,1.021,10.006h-3.005
			C351.411,275.499,350.929,274.904,350.419,270.766z M337.946,280.771l-1.53,3.799c-4.621,0.481-2.211-0.057-3.203-0.794
			c1.389-2.013,0.538-0.51,1.19-3.005h-7.229l-0.936,7.03l5.896,0.34l-0.737,1.417l-4.11,6.094
			c-3.77,4.535-6.151,4.252-11.254,7.115l-2.721,2.013l0.057,5.414l7.03-1.417c7.512,1.842,19.021-11.226,18.906-18.993
			c1.701-2.608-0.142-1.729,4.252-1.757l-1.162,2.977c-1.87,7.086-7.682,14.684-13.635,18.142
			c-9.495,5.499-15.618,4.139-26.361,1.644c0-22.988,2.636-22.875-3.997-23.017v20.013c-3.005-2.013-6.066-4.961-7.994-8.022
			c-2.977-4.734-3.657-9.978-5.018-11.594l-0.652-1.53c-2.495-3.402,1.757,1.134-0.936-1.163c-1.587-1.36-0.255-0.425-2.438-0.68
			c0,4.479-0.425,2.438-0.963,3.288l-12.019-0.34v-2.977h8.504l0.793-3.94l12.699-0.198c2.041,0.709,1.616,4.649,2.495,3.005
			c0.085-0.199,0.34,0.539,0.51,0.793l2.013-0.369l1.417-11.055c0.198-4.025-0.142-3.231-10.432-3.231
			c3.997-8.277,4.252-12.784,12.019-18v18.992c6.888-0.142,3.94-0.624,3.969-7.966c0.028-2.607,0.566-4.875,0.595-6.151
			c0.057-2.098-0.566-3.713-0.566-6.888c12.245-5.868,36-2.807,39.77,22.535c0.624,4.224,1.247,3.572,1.247,8.476H337.946z
			 M251.376,266.769c-0.737,7.172,1.021,0.68,9.411,3.997l-1.389,10.063l-18-0.057v2.013l7.001-0.482
			c1.446,2.013,1.871-2.551,1.105,2.438c-4.195,0.227-7.313-0.539-10.545,1.049c1.673,3.203-2.324,1.389,3.317,2.154
			c3.515,0.482,10.459-1.304,14.229,0.822c-0.992,21.968,24.945,48.614,41.896,50.003v22.025c2.579,0.538,3.118,1.417,4.365-1.105
			l-0.368-18.907c12.047,0,9.553,2.948,27.41-1.587c8.277-2.098,15.138-5.755,20.75-10.234c10.262-8.163,21.855-23.13,21.855-41.187
			h-17.008v-3.005h9.269l0.822-3.884l17.32-0.113l-0.907-10.006c-1.645-1.502-7.172-0.992-9.496-0.992
			c-8.107-34.725-16.47-32.088-23.018-40.989h12.019c-1.956-2.665-7.767-5.669-12.019-6.009l3.997-0.992v-4.025l-30.303-2.296
			c2.296-0.34,7.966-1.304,10.46-1.559c2.665-0.255,8.391,0.624,10.403-0.624c2.296-1.417,2.607-7.257-0.709-8.334
			c-0.595-0.198-19.19,1.531-20.863,1.814c-6.718,1.163-12.756,2.551-18.991,3.997c-2.722-4.904,3.939-10.8-4.989-10.999v13.011
			c-8.164,1.899-7.852,5.103-17.972,5.046l-70.044-0.057v4.025h82.999l-2.778,2.183c-6.435,4.819-4.734,3.855-13.266,3.742
			c-5.726-0.057-5.159-0.369-8.277,2.75c-1.871,1.871-3.77,3.657-5.386,5.584c-3.345,3.968-5.981,9.042-8.306,13.72
			C253.644,253.19,249.789,262.488,251.376,266.769z"/>
		<path fill="#FCFCFC" d="M458.419,284.769h2.012v3.005C456.605,285.108,460.005,287.773,458.419,284.769z M470.58,282.784
			l0.596,0.992c-1.559,1.049,2.211,1.984-2.324,0.567l0.084-3.175L470.58,282.784z M532.431,209.735
			c-0.141,0.198-0.311,0.284-0.369,0.624c-0.113,0.652-2.238,2.721-2.635,7.398h-63.355l-1.02,3.6l-3.629,0.907l0.227,5.499
			l-2.238,0.992c-3.346,0-9.326-0.907-11.227,1.021c-2.238,2.466-1.105-0.142-1.559,7.257l-0.227,23.783
			c0,2.466-0.256,7.2,1.021,8.504l10.545,0.822c1.162,3.515,1.189,7.767-0.115,11.055l-13.719,0.142
			c-1.559-3.543-0.963-6.321-0.906-10.205l-2.807,0.482c-2.24,0-0.199-1.219-0.822,1.531c-0.17,0.765-0.313,2.75-0.313,3.543
			c0.057,4.394,0.227,3.827,1.389,7.086c-2.891,1.814-6.943,1.162-10.488,1.105l-0.17,49.012c0.227,6.944-0.537,4.053,2.41,5.301
			l0.453-49.409l0.539-1.02c0.199-0.114,0.539-0.539,0.652-0.34l2.352-0.708c3.26-0.454,8.533-0.369,11.17,0.878l0.113,50.853h28.09
			l-0.027-51.108c0.313-0.085,0.652-1.474,3.629,0.425l0.027,1.02c0.283,0.199,0.852,0.539,1.078,0.595
			c1.699,0.369,1.162,0.255,2.92,0.397c0.623-0.793,1.898-1.049,1.586-4.28c-0.453-4.875-0.254-0.624-0.596-0.737
			c1.305,4.224-0.311-0.34,2.014,3.005c3.742-1.814,0.936,2.494,2.012-1.984c-0.879-2.353-0.34-2.239,0.992-3.997
			c2.723,0,6.35-0.567,8.391,0.681c0.766-4.281,0.143-1.645,1.617-2.665h11.195l-0.197,2.835c-4.422,2.183-1.248,0.198-3.006,4.139
			c1.928-0.709,2.41-1.645,5.727-0.624c2.75,0.822-0.256-0.368,2.268,1.361l6.096,1.672c0.227-0.028,3.939,0.595,6.178,0.595
			c-0.283-0.198-1.133-1.162-1.246-1.389c-1.814-3.657-0.738-2.58-1.021-5.613c-0.34-0.085-0.85-0.425-1.02-0.085
			c-0.17,0.312-0.736-0.057-0.965-0.057c-0.17,0-0.623,0-0.82,0c-0.625,0.028-1.645,1.445-3.828-0.199l-1.359-1.644
			c-0.342,0-0.879-0.142-1.021,0.085l-1.984-2.098c0.738-3.061,0.908-0.17-0.311-4.62c-0.568-2.154-1.164-3.146-1.701-5.386h-10.998
			c-2.213-9.496-11.906-32.06-14.004-40.989h14.004c-1.049-2.211-1.73-3.94-1.984-7.001h42.008c-0.566,2.41-1.049,3.997-2.012,5.981
			h-14.004l-5.131,14.882c-0.793,2.438-1.869,5.159-2.635,7.37c-1.275,3.713-2.127,4.677-2.24,8.759h10.006
			c-1.529,2.891-3.656,7.994-3.996,11.991h10.006c-1.645,3.089-2.523,2.919-1.02,7.001c0.68,3.43,1.615,3.401,0.027,2.012
			c2.637,3.118,3.998-1.956,3.998,3.005c1.672,1.389,1.699,0.369,3.6,0.709l-0.596-0.907l5.867-1.021
			c0.086,0,2.324-3.855,0.113,0.198c2.609,0.397-0.707-1.559,0.539,2.013l0.566,1.502c1.871,3.77,2.184-0.312,2.949,6.406
			l-0.057,48.104c7.936,0,18.963,1.729,26.021-0.992l0.85,0.481l-0.566-51.505c-3.146,0-6.236,0.028-9.354,0.085
			c-6.066,0.113-6.463,1.275-6.945-3.09h9.24l0.766-3.884l17.49-0.142v-10.12l-10.232-0.057l0.736-42.35l14.004,0.624v-7.058h21.004
			v-4.025h-68.996c0.369-4.677,1.871-4.791,1.984-9.978c-2.154,1.021-3.061,0.851-5.98,1.984c-2.863-2.665-1.729-4.309-1.729-8.617
			c-3.572,0.879-2.041-1.956-2.467,3.572C532.998,208.318,534.16,206.674,532.431,209.735z"/>
		<path fill="#F6F6F6" d="M146.381,337.776c15.222,0,23.754-14.627,26.986-17.008v18L146.381,337.776z M138.047,297.779
			c7.256,5.131,9.326,2.835,9.326,14.995c-3.373,2.268-5.386,3.884-10.998,3.997c2.154-4.507,3.004-12.982,0-17.489l-1.871-3.005
			L138.047,297.779z M155.367,284.627l1.163,3.486c-4.677,0.085-0.567,0.312-2.381-1.332
			C153.156,283.266,152.674,285.676,155.367,284.627z M130.365,342.567c8.674,0.255,37.474-1.729,43.229,0.992
			c0.737,9.723-1.559,26.504,1.786,31.096c1.531-2.211,1.729-2.381,1.701-7.852l0.057-23.273
			c4.989-2.238,94.195-1.076,107.263-0.879c0.113-0.17,0.369-0.651,0.397-0.538l0.595-3.345H177.364v-50.995h-16.979
			c0.652-6.038-0.17,0.878,1.871-3.628c1.077-2.325,1.248,0.397,0.114-0.879c-2.013-1.531-1.417,2.239-1.729-2.58
			c0.369,0,3.146,0.085,3.657,0.198c3.231,0.681,1.248,0.312,2.325,0.879l-0.284,3.005h4.025c0.595-5.272-1.105-1.758,2.098-2.92
			c0.51-0.17,5.045-0.085,5.924-0.085c-8.816-13.153-23.018-11.452-27.78-12.217c-2.098-0.34-4.932-1.587-7.653-2.381
			c-7.71-2.211-18.085-2.75-23.839-6.151c-12.359-7.313-9.27-17.008,6.321-18.227c13.663-1.078,21.968,5.215,22.932,16.979h25.001
			c2.126,4.989-1.219,6.406,2.013,9.978c1.758-2.126,0.879,2.721,1.361-3.884c0.028-0.396-0.028-3.571-0.057-4.082
			c-0.199-3.543-0.737-4.705-1.304-7.994c3.657-9.808-13.351-24.123-14.003-25.001h11.99c-3.798-5.216-19.899-8.589-29.026-9.042
			c-4.252-0.227-13.635,1.19-17.093,1.899c-9.581,1.984-9.694,3.798-14.542,5.471c-10.006,3.401-13.975-6.009-25.937,12.076
			c-5.357,8.107-6.18,22.535-1.417,31.578H96.35c1.275,4.733,4.847,5.641,6.009,10.006l-13.946,0.113
			c-2.324,0.539-1.134,0.709-0.652,1.786c1.275,2.778,1.474-1.417,0.595,1.105h-7.994c5.414,8.079,13.691,3.062,24.747,5.244
			c2.522,0.51,20.693,6.378,22.082,7.937c7.654,8.391,1.304,30.897-12.586,13.579c-3.175-3.969-2.296-6.69-4.252-10.772
			c-4.847,0-25.994-1.219-28.063,0.851c-2.551,2.551,3.713,16.81,6.435,20.807c9.071,13.294,23.839,18.368,40.648,18.368
			C129.373,345.345,129.231,341.093,130.365,342.567z"/>
		<path fill="#F6F6F6" d="M677.453,284.769v3.005h-7.994C670.648,283.351,671.697,284.769,677.453,284.769z M681.306,281.82
			l7.145-0.057c0.426,5.131,0.766,1.361,2.012,6.01h-7.992L681.306,281.82z M701.46,268.895l2.014,1.786
			c4.932,0.255-1.135,5.5,4.988,17.093h-8.984v-3.997v-18L701.46,268.895z M710.476,270.766c2.551,0.935,1.672-0.17,3.4,3.6
			c0.852,1.899,1.418,4.195,1.588,6.406h-4.988V270.766z M693.468,269.036c1.502-1.304,1.729,0.51,0-2.268l1.984-3.26
			c0.283,0.453,1.813-1.248,0.48,6.746C693.496,270.907,692.22,271.956,693.468,269.036z M638.136,338.769
			c-2.609,1.645-57.146,1.445-63.838,0.51l-0.85-0.481c0.68,2.239,0.766,2.296,0.992,4.989h61.002
			c-0.396,4.818-1.588,3.174-1.984,7.993h13.012c1.219-2.551,1.756-5.442,2.975-7.993h62.023c2.268,4.733,3.57,10.432,6.01,14.995
			h10.998c-0.396-4.563-6.266-17.575-8.59-23.442c-0.709-1.843-0.793-2.184-1.389-3.6l-2.041-3.657l-28.459-0.425l-0.029,6.122
			c4.168,0,17.008-1.134,20.381,0.992c0.369,2.807,0.199,2.154,1.105,3.997h-42.01c1.475-6.236,6.52-15.563,8.023-21.997h43.992
			c2.949,6.123,6.266,17.943,10.008,25.002h28.006c-0.113-5.074-2.523-9.808-4.139-13.862c-1.701-4.195-3.26-8.276-5.018-12.982
			c-1.898-5.102-9.523-23.13-9.836-27.155c-3.713,0-7.371,0-11.084,0.057c-5.725,0.085-6.803,1.162-7.938-3.062h10.008
			c-0.965-4.592-3.033-3.005,16.016-3.005c-0.227-2.466-3.033-9.978-4.025-11.99H730.46c-0.313-3.827-8.873-25.03-11.283-30.699
			c-1.133-2.693-3.146-7.852-3.713-10.29h14.004c-0.512-2.183-2.098-6.123-3.006-8.022H707.47l-2.154,6.973l-14.854,0.028
			c-0.453,5.414-1.898,3.997-11.99,3.997c-2.324,9.978-13.521,33.08-14.002,39.005h9.977c-1.445,3.061-2.521,6.944-3.996,10.006h-18
			v3.005c-1.588,0-16.811-0.595-12.076,4.139c2.354,2.353,12.982,0.851,17.094,0.851c-3.969,7.483-10.375,26.532-14.457,36.595
			C641.48,329.159,638.986,334.856,638.136,338.769z"/>
		<path fill="#FAFAFA" d="M512.787,295.767l-1.615,2.098l-0.936-2.098c0-3.062-0.736-4.762-1.814-7.001h6.01
			C513.496,292.762,512.503,291.458,512.787,295.767z M529.058,285.789c-0.566,0.765-0.51,1.105-1.049,1.247
			c-2.125,0.567-0.17,0.595-1.559-0.255l0.992-2.211C529.597,283.918,529.058,283.521,529.058,285.789z M488.437,286.781
			c2.92-2.523-0.17-2.013,10.008-2.013c-1.305,2.438,0.566,4.195-7.484,2.608L488.437,286.781z M514.431,279.779l1.984,2.098
			c0.143-0.227,0.68-0.085,1.021-0.085l1.359,1.644c2.184,1.644,3.203,0.227,3.828,0.199c0.197,0,0.65,0,0.82,0
			c0.229,0,0.795,0.368,0.965,0.057c0.17-0.34,0.68,0,1.02,0.085c0.283,3.033-0.793,1.956,1.021,5.613
			c0.113,0.227,0.963,1.19,1.246,1.389c-2.238,0-5.951-0.624-6.178-0.595l-6.096-1.672c-2.523-1.729,0.482-0.539-2.268-1.361
			c-3.316-1.021-3.799-0.085-5.727,0.624c1.758-3.94-1.416-1.956,3.006-4.139l-10.998-0.17h-1.617
			c-2.041-1.248-5.668-0.681-8.391-0.681c-1.332,1.758-1.871,1.644-0.992,3.997c-1.076,4.479,1.73,0.17-2.012,1.984
			c-2.324-3.345-0.709,1.219-2.014-3.005c0.342,0.113,0.143-4.139,0.596,0.737c0.313,3.231-0.963,3.487-1.586,4.28
			c-1.758-0.142-1.221-0.028-2.92-0.397c-0.227-0.057-0.795-0.396-1.078-0.595l12.869,37.134c1.475,4.024,3.742,8.136,4.139,12.869
			h29.99l5.557-17.149l0.453,38.154h3.998c0-13.691-1.928-45.298,2.268-56.75l6.746-15.278v39.005
			c-0.057,7.455-1.078,9.58,1.984,12.019l0.057-48.104c-0.766-6.718-1.078-2.636-2.949-6.406l-0.566-1.502
			c-1.246-3.572,2.07-1.616-0.539-2.013c2.211-4.054-0.027-0.198-0.113-0.198l-5.867,1.021c2.354,1.531,2.891-3.43,1.672,2.211
			l-1.076-1.304c-1.9-0.34-1.928,0.68-3.6-0.709c0-4.96-1.361,0.113-3.998-3.005c1.588,1.389,0.652,1.417-0.027-2.012
			c-0.256,0.17-0.568,0.198-0.709,0.595l-1.418,1.077c-0.227,0.113-0.482,0.312-0.709,0.425c-2.125,1.105-0.51,0.822-4.109,1.049
			C519.902,281.14,516.841,280.517,514.431,279.779z"/>
		<path fill="#F2F2F2" d="M313.767,257.783c3.402,2.069,5.896,0.057,10.829,3.798c4.053,3.062,4.535,4.904,6.803,9.185h7.994
			c-0.709-8.646-11.197-21.458-21.005-19.417l-5.357-0.454L313.767,257.783z"/>
		<path fill="#5F5F5F" d="M284.4,342.651c-13.068-0.197-102.274-1.359-107.263,0.879l-0.057,23.273
			c0.029,5.471-0.17,5.641-1.701,7.852c-3.345-4.592-1.049-21.373-1.786-31.096c-5.754-2.722-34.554-0.737-43.229-0.992
			c0.199,0.17,0.567,0.057,0.709,0.368c0.481,1.219,8.05,0.878,9.297,0.851h32.995v31.011h3.997v-31.011L284.4,342.651z"/>
		<path fill="#5A5A5A" d="M432.878,289.786l-0.453,49.409c-2.947-1.248-2.184,1.644-2.41-5.301l0.17-49.012
			c3.545,0.057,7.598,0.709,10.488-1.105h-11.252v56.013h4.988l-0.029-46.999C433.757,289.786,434.55,291.486,432.878,289.786z"/>
		<path fill="#474747" d="M574.298,339.278c6.691,0.936,61.229,1.135,63.838-0.51h-62.703l-0.029-47.991
			c-0.736-3.231,0.398-1.077-1.672-3.004L574.298,339.278z"/>
		<path fill="#636363" d="M479.396,288.766c-2.977-1.899-3.316-0.511-3.629-0.425l0.027,51.108h-28.09l-0.113-50.853
			c-2.637-1.247-7.91-1.332-11.17-0.878l-2.352,0.708c-0.113-0.199-0.453,0.227-0.652,0.34h14.004
			c-1.984,4.818-0.965,28.63-0.992,39.005c-0.057,14.627-5.982,12.019,29.99,12.019v-51.023H479.396z"/>
		<path fill="#FCFCFC" d="M432.992,228.926l-2.863-0.255l-0.141,37.219c0.539,7.059-0.738,2.92,2.438,4.252L432.992,228.926z"/>
		<path fill="#5A5A5A" d="M432.992,228.926l-0.566,41.216c-3.176-1.332-1.898,2.807-2.438-4.252l0.141-37.219L432.992,228.926z
			 M432.992,228.926c-1.105-1.162,2.977-1.162-3.57-1.162v43.002h4.988v-32.003C434.466,233.49,435.232,231.166,432.992,228.926z"/>
		<path fill="#929292" d="M698.853,194.202c0,4.535,0,9.042,0,13.578c0,5.812,0.936,10.318-1.389,13.267
			c-0.652-1.049-0.68-0.142-1.02-2.296l-0.086-19.049C696.218,193.266,695.283,194.938,698.853,194.202z M698.91,187.767
			c-1.105,1.332,1.105,1.445-2.521,0.992C701.632,182.409,698.144,187.285,698.91,187.767z M701.46,189.779l0.285,2.778
			c0-0.113-0.199,0.482-0.285,0.708c-1.359-1.049-1.502,2.211-0.99-3.487l-1.221-3.968l-3.797-0.057v5.017v31.011h4.025v-28.006
			h3.996C703.474,186.718,703.871,191.65,701.46,189.779z"/>
		<path fill="#FEFEFE" d="M698.853,194.202c-3.57,0.737-2.635-0.936-2.494,5.499l0.086,19.049c0.34,2.154,0.367,1.248,1.02,2.296
			c2.324-2.948,1.389-7.455,1.389-13.267C698.853,203.244,698.853,198.737,698.853,194.202z"/>
		<path fill="#848484" d="M708.349,334.771c-3.373-2.126-16.213-0.992-20.381-0.992l0.029-6.122l28.459,0.425
			c-3.061-2.522-9.979-1.304-14.004-1.304c-4.988,0-9.977,0-14.994,0v7.993H708.349z"/>
		<path fill="#4D4D4D" d="M566.673,284.769c2.154-1.587,1.758,2.495,1.758-3.005h17.008v-11.99h-10.006v-41.556l-0.736,42.35
			l10.232,0.057v10.12l-17.49,0.142L566.673,284.769z"/>
		<path fill="#929292" d="M447.421,269.32c2.068,1.927-4.082,1.446,10.006,1.446v10.006h-13.012v-10.998
			c-6.973,0-2.125-0.34-3.996,1.842l2.807-0.482c-0.057,3.884-0.652,6.662,0.906,10.205l13.719-0.142
			c1.305-3.288,1.277-7.54,0.115-11.055L447.421,269.32z"/>
		<path fill="#E6E6E6" d="M184.167,280.771c1.842,1.758,1.587,1.814,3.345,0l-0.028-10.261c-4.563,0.539-3.146-1.871-3.401,4.139
			C183.997,276.321,184.167,278.929,184.167,280.771z"/>
		<path fill="#5E5E5E" d="M446.939,222.038l0.057,6.066c-4.195-0.51-2.75,0.936-2.777-5.329L446.939,222.038z M448.185,229.776
			c1.9-1.928,7.881-1.021,11.227-1.021l2.238-0.992h-13.266c0.027-0.227,0.113-3.033,0.086-3.033
			c-0.652-3.033,0.084-1.247-1.531-2.693c-1.162-1.417,3.316-1.275-3.516-1.275v8.022L448.185,229.776z"/>
		<path fill="#4F4F4F" d="M256.507,288.766c-3.77-2.126-10.715-0.34-14.229-0.822c-5.641-0.766-1.644,1.049-3.317-2.154
			c3.231-1.587,6.35-0.822,10.545-1.049c0.766-4.989,0.34-0.425-1.105-2.438c-2.126,1.984,2.892,1.077-3.94,1.587
			c-1.389,0.113-4.451-0.113-6.066-0.113v4.989H256.507z"/>
		<path fill="#474747" d="M364.677,284.769c2.126-1.616,1.729,2.523,1.729-3.005h17.008c0-6.009,0.936-8.419-1.502-10.998
			l0.907,10.006l-17.32,0.113L364.677,284.769z"/>
		<path fill="#FCFCFC" d="M309.515,280.658l3.005,0.057c-0.057-13.663,0.907-8.844-2.126-10.035
			C309.005,273.345,309.571,276.888,309.515,280.658z"/>
		<path fill="#535353" d="M309.515,280.658c0.057-3.77-0.51-7.313,0.879-9.978c3.033,1.191,2.069-3.628,2.126,10.035
			L309.515,280.658z M309.515,280.658c1.105,0.879-0.936,1.105,3.884,1.105v-11.99h-4.989l0.057,8.929
			C309.005,281.027,308.579,279.439,309.515,280.658z"/>
		<path fill="#A7A7A7" d="M173.367,259.767v10.999h3.997l0.17-13.068c-0.68-6.18,0.482-1.843-2.154-3.912
			c0.567,3.289,1.105,4.451,1.304,7.994c0.028,0.511,0.085,3.686,0.057,4.082c-0.482,6.605,0.397,1.758-1.361,3.884
			C172.148,266.173,175.493,264.756,173.367,259.767z"/>
		<path fill="#8B8B8B" d="M259.398,280.828l1.389-10.063c-8.391-3.317-10.148,3.175-9.411-3.997
			c-2.381,1.842-1.984-2.977-1.984,3.997h10.006V280.828z"/>
		<path fill="#5E5E5E" d="M276.888,284.769c1.842-1.616,1.502,2.523,1.502-3.005h13.011v3.005l3.997-0.709l-2.013,0.369
			c-0.17-0.255-0.425-0.992-0.51-0.793c-0.878,1.644-0.454-2.296-2.495-3.005l-12.699,0.198L276.888,284.769z"/>
		<path fill="#A0A0A0" d="M532.431,209.735c1.729-3.062,0.566-1.417,0.822-5.017c0.426-5.528-1.105-2.693,2.467-3.572
			c0,4.309-1.135,5.953,1.729,8.617c-0.963-3.118-1.02-5.697-1.02-10.006h-3.998V209.735z"/>
		<path fill="#505050" d="M184.167,280.771c0-1.842-0.17-4.45-0.085-6.123c0.255-6.009-1.162-3.6,3.401-4.139l0.028,10.261
			c1.587-2.891,0.879-7.653,0.879-10.998h-5.018C183.373,274.28,182.75,277.909,184.167,280.771z"/>
		<polygon fill="#FDFDFD" points="322.129,287.49 322.583,284.769 315.779,284.967 314.929,287.745 		"/>
		<path fill="#7C7C7C" d="M320.4,308.778l-7.03,1.417l-0.057-5.414l2.721-2.013h-3.628v8.021c0.539,0,3.94,0.17,4.082,0.143
			C322.668,310.195,318.274,311.471,320.4,308.778z"/>
		<path fill="#9B9B9B" d="M412.412,288.766c4.082-0.567,2.467,0.481,3.997-2.977c-1.956-1.758-0.425-1.559-3.997-1.701
			C410.003,285.761,411.902,287.575,412.412,288.766z"/>
		<path fill="#454545" d="M497.82,283.465h1.617c1.189-2.438-1.617-1.333,3.91-1.814c0.908-0.085,3.912,0.113,5.074,0.113
			l2.014,1.871l0.197-2.835h-11.195C497.962,281.82,498.585,279.184,497.82,283.465z"/>
		<path fill="#FCFCFC" d="M446.939,222.038l-2.721,0.737c0.027,6.265-1.418,4.819,2.777,5.329L446.939,222.038z"/>
		<path fill="#4D4D4D" d="M331.398,289.559l0.737-1.417l-5.896-0.34l0.936-7.03c-2.013,1.786-1.247-0.312-1.843,2.948
			c-0.057,0.312,0.057,4.365,0.057,5.046C328.904,288.766,328.961,288.34,331.398,289.559z"/>
		<path fill="#828282" d="M425.423,283.861c-0.51,0-1.361,1.19-1.615-0.567c-0.369-2.976-0.736-0.822,1.615-1.814V283.861z
			 M425.423,283.861c2.438-1.729,1.984,2.41,1.984-3.09h-4.988v3.997C429.505,284.769,424.744,284.938,425.423,283.861z"/>
		<path fill="#696969" d="M313.767,257.783l-0.736-6.888l5.357,0.454c-2.041-2.069,1.021-0.68-2.069-1.474
			c-0.822-0.198-2.977-0.113-3.912-0.113C312.406,261.156,312.123,255.883,313.767,257.783z"/>
		<path fill="#8E8E8E" d="M693.468,266.769c2.438,1.616,1.984-2.495,1.984,3.005l-1.984-0.737c-1.248,2.92,0.027,1.871,2.465,1.219
			c1.332-7.994-0.197-6.293-0.48-6.746L693.468,266.769z"/>
		<path fill="#474747" d="M280.403,288.085c0.539-0.851,0.963,1.19,0.963-3.288c2.183,0.255,0.851-0.68,2.438,0.68
			c2.693,2.296-1.559-2.239,0.936,1.163l0.652,1.53v-4.394h-4.989V288.085z"/>
		<path fill="#5C5C5C" d="M322.129,287.49l-7.2,0.255l0.851-2.778c-1.474,1.417-1.389-2.806-1.389,3.799
			c1.021,0,3.288,0.17,4.11,0.113C325.304,288.34,320.315,289.275,322.129,287.49z"/>
		<path fill="#464646" d="M322.129,287.49c1.304-1.275,1.275,2.806,1.275-3.713c-1.077,0-3.203-0.142-4.109-0.085
			c-6.719,0.482-1.899-0.312-3.516,1.275l6.804-0.198L322.129,287.49z"/>
		<path fill="#454545" d="M162.369,283.266c0-2.41,1.417-1.502,4.252-1.502c-1.077-0.567,0.907-0.198-2.325-0.879
			c-0.51-0.113-3.288-0.198-3.657-0.198C160.951,285.505,160.356,281.735,162.369,283.266z"/>
		<path fill="#575757" d="M461.423,222.265l3.629-0.907l1.02-3.6l-4.053,3.94C461.906,221.839,461.623,222.066,461.423,222.265z"/>
		<path fill="#555555" d="M333.213,283.776c0.992,0.737-1.418,1.275,3.203,0.794l1.53-3.799c-1.871,1.616-1.53-2.494-1.53,3.005
			H333.213z"/>
		<path fill="#474747" d="M339.307,289.786c1.418-0.765,1.191-0.51,3.09-1.02v2.239l1.162-2.977
			C339.165,288.057,341.008,287.178,339.307,289.786z"/>
		<path fill="#616161" d="M471.175,283.776c-2.127-0.737-2.438-0.028-0.596-0.992l-1.645-1.616l-0.084,3.175
			C473.386,285.761,469.617,284.825,471.175,283.776z"/>
		<path fill="#5C5C5C" d="M412.412,288.766h3.997v-4.989l-3.997,0.312c3.572,0.142,2.041-0.057,3.997,1.701
			C414.879,289.247,416.494,288.198,412.412,288.766z"/>
		<path fill="#DFDFDF" d="M701.46,189.779h-0.99c-0.512,5.698-0.369,2.438,0.99,3.487c0.086-0.227,0.285-0.822,0.285-0.708
			L701.46,189.779z"/>
		<path fill="#FEFEFE" d="M696.388,188.759c3.627,0.454,1.416,0.34,2.521-0.992C698.144,187.285,701.632,182.409,696.388,188.759z"
			/>
		<path fill="#FBFBFB" d="M425.423,283.861v-2.381c-2.352,0.992-1.984-1.162-1.615,1.814
			C424.062,285.052,424.914,283.861,425.423,283.861z"/>
		<path fill="#636363" d="M703.474,270.68l-2.014-1.786v2.891C705.486,271.786,701.916,271.984,703.474,270.68z"/>
		<path fill="#555555" d="M526.451,286.781c1.389-0.851,1.02-0.425,2.607-0.992c0-2.268,0.539-1.871-1.615-1.219L526.451,286.781z"
			/>
		<path fill="#5A5A5A" d="M154.148,286.781c1.814,1.644-2.296,1.417,2.381,1.332l-1.163-3.486
			C155.367,288.283,155.707,285.987,154.148,286.781z"/>
		<path fill="#696969" d="M136.375,299.282c0.765-1.899-1.333-1.503,1.672-1.503l-3.543-1.502L136.375,299.282z"/>
		<polygon fill="#494949" points="512.787,295.767 510.236,295.767 511.171,297.865 		"/>
		<path fill="#737373" d="M537.449,282.586l0.596,0.907l1.076,1.304C540.339,279.156,539.802,284.117,537.449,282.586z"/>
	</g>
</g>
</svg>
