<?xml version="1.0" standalone="no"?>
<!DOCTYPE svg PUBLIC "-//W3C//DTD SVG 1.1//EN" "http://www.w3.org/Graphics/SVG/1.1/DTD/svg11.dtd" >
<svg>
<metadata>
Created by FontForge 20090914 at Tue Apr  5 17:16:42 2016
 By www-data
Generated by Fontographer 3.5
</metadata>
<defs>
<font id="IrisNormal" horiz-adv-x="2511" >
  <font-face 
    font-family="Iris"
    font-weight="400"
    font-stretch="normal"
    units-per-em="4096"
    panose-1="2 2 114 0 0 0 0 0 0 0"
    ascent="3276"
    descent="-820"
    x-height="1913"
    cap-height="2736"
    bbox="-41 -864 4145 3351"
    underline-thickness="12"
    underline-position="-18"
    unicode-range="U+0020-U+2022"
  />
<missing-glyph horiz-adv-x="3072" 
d="M512 0v2560h2048v-2560h-2048zM2494 66v2428h-1916v-2428h1916z" />
    <glyph glyph-name=".notdef" horiz-adv-x="3072" 
d="M512 0v2560h2048v-2560h-2048zM2494 66v2428h-1916v-2428h1916z" />
    <glyph glyph-name="space" unicode=" " horiz-adv-x="1249" 
 />
    <glyph glyph-name="exclam" unicode="!" horiz-adv-x="983" 
d="M655 2732l-41 -1978h-262l-33 1978h336zM635 0h-299v373h299v-373z" />
    <glyph glyph-name="quotedbl" unicode="&#x22;" horiz-adv-x="1348" 
d="M1147 2732l-49 -1094h-242l-49 1094h340zM541 2732l-54 -1094h-237l-49 1094h340z" />
    <glyph glyph-name="numbersign" unicode="#" horiz-adv-x="2478" 
d="M2220 1741l-25 -168h-520l-65 -459h520l-21 -164h-524l-115 -815h-167l114 815h-483l-115 -815h-172l115 815h-508l25 164h507l66 459h-512l25 168h507l107 749h172l-107 -749h484l102 749h172l-106 -749h524zM1503 1573h-483l-62 -459h480z" />
    <glyph glyph-name="dollar" unicode="$" 
d="M2400 770c0 -216 -33.999 -378.335 -101.999 -487.002c-76.667 -114.667 -177.667 -187 -303 -217c-128 -37.333 -305.667 -58 -533 -62c-13.333 0 -27 -1.33301 -41 -4h-45v-307h-229v307c-210 0 -364.333 5.33301 -463 16c-105.333 8.66699 -203.666 36 -294.999 82
c-84.667 48.667 -151.667 125.334 -201 230.001c-47.333 98.667 -73 242 -77 430v94h303c0 -140.667 8 -250 24 -328c21.333 -80 52.666 -138.667 93.999 -176c45.333 -36 107 -60.667 185 -74c78 -12 188.667 -20 332 -24h98v1007c-221.333 0 -400.333 13.667 -537 41
c-137.333 24.667 -252 89 -344 193c-87.333 103.333 -131 257.666 -131 462.999c0 215.333 35.667 379 107 491c69.333 116 170.333 192.667 303 230c134.667 38 306.667 57 516 57h86v254h229v-254c249.333 0 433.666 -15 552.999 -45c130.667 -30 231.667 -101 303 -213
c71.333 -103.333 107 -272.666 107 -507.999h-299c0 147.333 -9.66699 251 -29 311c-16 67.333 -57 115.333 -123 144c-55.333 30 -155 45 -299 45h-213v-946c203.333 0 352.333 -7 447 -21c116 -12 218.333 -42 307 -90c83.333 -43.333 150.333 -117 201 -221
c46 -105.333 69 -244.666 69 -417.999zM1147 1520v949.998h-135c-152 0 -260 -7 -324 -21c-76.667 -16 -136.667 -55.333 -180 -118c-44 -60.667 -66 -160.334 -66 -299c0 -103.333 11 -193.666 33 -270.999c27.333 -72 63 -123.667 107 -155
c48 -35.333 105.333 -58.666 172 -69.999c48 -6 135.333 -11.333 262 -16h131zM2097 732.996c0 162 -21.6699 278.001 -65.0029 348.001c-43.333 71.333 -107.666 118 -192.999 140c-90 17.333 -221 28 -393 32h-70v-1003c38.667 0 74.334 -1.33301 107.001 -4
c140.667 0 255.334 12.333 344.001 37c84.667 23.333 151.667 69.666 201 138.999c46 71.333 69 175 69 311z" />
    <glyph glyph-name="percent" unicode="%" horiz-adv-x="3219" 
d="M3174 508c0 -134.667 -15 -239.666 -45 -314.999c-26.667 -67.333 -82.667 -118 -168 -152c-84.667 -30 -208.667 -45 -372 -45c-162.667 0 -288.334 15 -377 45c-88.667 36 -146 88 -172 156c-32.667 68 -49 171.667 -49 311v356c0 140 16.333 246.667 49 320
c28.667 70 86 119 172 147c78 30 203.667 45 377 45s297.333 -15 372 -45c79.333 -27.333 135.333 -76.333 168 -147c30 -76.667 45 -183.334 45 -320.001v-356zM2662 2732l-1851 -2732h-188l1843 2732h196zM1294 1872c0 -143.333 -14.999 -248.667 -44.999 -316
c-26.667 -66.667 -82.667 -117 -168 -151c-84.667 -30 -208.667 -45 -372 -45c-162.667 0 -288.334 15 -377.001 45c-88.667 36 -146 88 -172 156c-32.667 68 -49 171.667 -49 311v356c0 140 16.333 246.667 49 320c28 68.667 85.333 117.667 172 147
c78 30 203.667 45 377 45s297.333 -15 372 -45c79.333 -28 135.333 -77 168 -147c30 -67.333 45 -174 45 -320v-356zM2998 459l0.000976562 450c0 98.667 -15 168.334 -45 209.001c-32.667 48.667 -76.334 78.667 -131 90c-46 11.333 -123.667 17 -233 17
c-112 0 -191.333 -7 -238 -21c-54 -8 -97.667 -36.667 -131 -86c-32.667 -44.667 -49 -114.334 -49 -209.001v-471c0 -92.667 16.333 -159.334 49 -200.001c33.333 -41.333 75.666 -66 127 -74c50 -11.333 130.667 -17 242 -17c104 0 183 5.66699 237 17
c51.333 11.333 93.666 40 126.999 86c30 46.667 45 116.334 45 209.001zM1118 1823l0.00292969 450c0 98.667 -15 168.334 -45 209c-32.667 48.667 -76.334 78.667 -131.001 90c-46 11.333 -123.667 17 -233 17c-112 0 -191.333 -7 -238 -21
c-58 -8 -101.667 -36.667 -131 -86c-32.667 -44.667 -49 -114.334 -49 -209v-471c0 -88.667 16.333 -155.334 49 -200.001c33.333 -41.333 75.666 -66 126.999 -74c50 -11.333 130.667 -17 242 -17c104 0 183 5.66699 237 17c51.333 11.333 93.666 40 126.999 86
c30 46.667 45 116.334 45 209.001z" />
    <glyph glyph-name="ampersand" unicode="&#x26;" horiz-adv-x="2867" 
d="M2863 213l-172.003 -213.003l-401 332c-42 -84.667 -94 -151.667 -156 -201c-72 -49.333 -143 -84.666 -213 -105.999c-72 -22.667 -149.667 -36.334 -233 -41.001c-117.333 -6 -214.333 -9 -291 -9c-238 0 -414.333 7 -529 21c-127.333 12 -240.666 44.667 -339.999 98
c-95.333 58.667 -167.666 147.334 -216.999 266.001c-52 120.667 -78 290 -78 508c0 184 24.667 323.333 74 418c50.667 100.667 113.667 169 189 205c70.667 34 169 60 295 78c-102 88.667 -167.667 162.334 -197 221.001c-32.667 60.667 -49 156.334 -49 287.001
c0 179.333 32.667 314.333 98 405c68 92.667 158 152.667 270 180c108.667 27.333 256.334 41 443.001 41c198 0 349.333 -16.333 454 -49c110 -28 194.667 -90.667 254 -188c57.333 -92.667 86 -234.667 86 -426c0 -76.667 -1.33301 -126 -4 -148h-299
c0 5.33301 -0.666992 19.333 -2 42s-2 41.667 -2 57c0 152 -15 255.667 -45 311c-22.667 58 -67.667 96.333 -135 115c-73.333 13.333 -189.333 20 -348 20c-110 0 -192 -5.33301 -246 -16c-68 -14.667 -120 -43.334 -156 -86c-40.667 -40.667 -61 -110.334 -61 -209
c0 -100 16.333 -180.667 49 -242c33.333 -58 93.333 -122 180 -192l1024 -856c6 62.667 9 126.667 9 192v94c-3.33301 24.667 -5 52 -5 82h304c0 -43.333 1.33301 -83 4 -119v-118c0 -96.667 -11 -217 -33 -361zM2048 519.997l-1065 881.001
c-140.667 -37.333 -236.334 -67.333 -287.001 -90c-52 -22 -90 -65.667 -114 -131c-27.333 -62 -41 -164.667 -41 -308c0 -128.667 6.66699 -236.334 20 -323.001c18 -82.667 45.333 -144 82 -184c40.667 -45.333 99.334 -78.333 176.001 -99
c70.667 -14.667 177.334 -24 320.001 -28h266c122 0 217.667 5.33301 287 16c80.667 8 154.334 32.667 221.001 74c70 41.333 115 105.333 135 192z" />
    <glyph glyph-name="quotesingle" unicode="'" horiz-adv-x="750" 
d="M549 2732l-53 -1094h-246l-49 1094h348z" />
    <glyph glyph-name="parenleft" unicode="(" horiz-adv-x="1135" 
d="M938 -434h-41.001c-13.333 -2.66699 -28.333 -4 -45 -4c-143.333 0 -255.333 23 -336 69c-78.667 39.333 -140 101 -184 185c-40 80 -66 168.667 -78 266c-10.667 81.333 -20.334 207 -29.001 377v1278c0 197.333 5.66699 346 17 446
c12.667 118.667 41.334 217 86.001 295c42 92.667 111.667 161 209 205c98.667 49.333 232.334 74 401.001 74v-258c-100 0 -183.333 -15 -250 -45c-56 -28.667 -94.333 -71 -115 -127c-20 -54 -32 -121 -36 -201c0 -40 -0.833008 -86 -2.5 -138s-2.5 -96.333 -2.5 -133
v-1511c4.66699 -112 11.667 -207.667 21 -287c12.667 -68.667 42.667 -124.667 90 -168c50 -46 129.333 -69 238 -69l57 4v-258z" />
    <glyph glyph-name="parenright" unicode=")" horiz-adv-x="1135" 
d="M938 459c-4 -198.667 -19.001 -359.999 -45.001 -483.999c-31.333 -130.667 -88.666 -230.334 -171.999 -299.001c-88.667 -76 -225.334 -114 -410.001 -114c-16 0 -29.667 1.33301 -41 4h-45v258l58 -4c108 0 186.833 22.833 236.5 68.5s78.5 101.834 86.5 168.501
c12.667 65.333 21 161 25 287v1511c0 26.667 -0.666992 68.667 -2 126s-2 101.666 -2 132.999c-3.33301 80 -14.333 151 -33 213c-20 54.667 -59.667 97 -119 127c-61.333 30 -144.666 45 -249.999 45v258c168 0 302 -24.667 402 -74
c94.667 -43.333 165.667 -110.333 213 -201c42 -88.667 69.333 -188.334 82 -299c10.667 -98 16 -246.667 16 -446v-1278z" />
    <glyph glyph-name="asterisk" unicode="*" 
d="M1987 2142l-562 -200l336 -480l-159 -119l-340 496l-365 -496l-160 119l348 480l-557 212l70 193l561 -205v590h201v-590l557 209z" />
    <glyph glyph-name="plus" unicode="+" horiz-adv-x="2048" 
d="M1954 1311h-844v-791h-176v791h-840v168h840v790h176v-790h844v-168z" />
    <glyph glyph-name="comma" unicode="," horiz-adv-x="827" 
d="M582 -29c0 -128 -19.332 -220.666 -57.999 -277.999c-37.333 -62.667 -112.333 -94 -225 -94h-41c-10.667 2.66699 -24.334 4 -41.001 4v151c68 4 114.333 20.333 139 49c27.333 23.333 41 72.666 41 147.999c0 24.667 -1.33301 41 -4 49h-135v373h324v-402z" />
    <glyph glyph-name="hyphen" unicode="-" horiz-adv-x="2048" 
d="M1954 1311h-1860v172h1860v-172z" />
    <glyph glyph-name="period" unicode="." horiz-adv-x="815" 
d="M569 0h-323v373h323v-373z" />
    <glyph glyph-name="slash" unicode="/" horiz-adv-x="2646" 
d="M2363 2732l-2113 -3133h-221l2105 3133h229z" />
    <glyph glyph-name="zero" unicode="0" 
d="M2413 905c0 -216.667 -34.333 -391.334 -103 -524.001c-62.667 -134.667 -155.334 -235.667 -278 -303c-118 -65.333 -256 -98 -414 -98h-713c-162 0 -304 32.667 -426 98c-119.333 61.333 -212 162.333 -278 303c-68.667 132.667 -103 307.334 -103 524.001v938
c0 214 33 388.667 99 524c66.667 139.333 160.667 239 282 299c114 63.333 253.333 95 418 95h721c244 0 438 -73.667 582 -221c142 -150.667 213 -385.667 213 -705v-930zM2105 905l0.00195312 921.999c0 137.333 -10.667 252 -32 344
c-20.667 83.333 -57.667 150.333 -111 201c-50.667 46.667 -119 78 -205 94c-100 18.667 -216 28 -348 28h-303c-192 0 -341 -19 -447 -57c-96.667 -40.667 -163.334 -107.667 -200.001 -201c-31.333 -89.333 -49 -227 -53 -413v-918c0 -184 24.333 -323.333 73 -418
c49.333 -95.333 123 -159.333 221 -192s232 -49 402 -49h311c162 0 291.667 16.333 389 49s172.666 95.334 225.999 188.001c51.333 104 77 244.667 77 422z" />
    <glyph glyph-name="one" unicode="1" 
d="M1610 0h-287v2499l-700 -770l-193 180l754 823h426v-2732z" />
    <glyph glyph-name="two" unicode="2" 
d="M2187 0h-1966v508c0 220.667 38.333 383 115 487c74.667 104 173 172.333 295 205c104.667 28 287.667 55.333 549 82c175.333 18.667 305 33.667 389 45c49.333 7.33301 104 29.333 164 66c55.333 36 94.666 92 117.999 168c24.667 76 37 185 37 327
s-9.33301 251.333 -28 328c-20.667 77.333 -53.667 134.666 -99 172c-54.667 41.333 -118.667 67.333 -192 78c-109.333 10.667 -222.666 16 -339.999 16c-218.667 0 -374.334 -12.333 -467.001 -37c-99.333 -28.667 -165 -80.334 -197 -155
c-32.667 -73.333 -49 -199 -49 -377v-115h-295c0 214.667 13.667 380 41 496c28.667 118 78 209.333 148 274c64 65.333 163.667 113.333 299 144c130.667 24 305.334 36 524.001 36c240 0 427 -20.333 561 -61c132.667 -40 232.334 -123.333 299.001 -250
c62.667 -126.667 94 -311 94 -553c0 -178.667 -17.667 -324.667 -53 -438c-28 -102 -77 -182.667 -147 -242c-70.667 -56.667 -155.334 -94.667 -254.001 -114c-108.667 -26.667 -263 -51.334 -463 -74.001c-190.667 -21.333 -317.667 -37.666 -381 -48.999
c-61.333 -8.66699 -124.333 -29.334 -189 -62.001c-55.333 -27.333 -100.333 -75 -135 -143c-32.667 -69.333 -49 -163.666 -49 -282.999v-209h1671v-270z" />
    <glyph glyph-name="three" unicode="3" 
d="M2241 791c0 -187.333 -16.667 -335 -50 -443c-31.333 -102.667 -85.666 -183.334 -162.999 -242.001c-77.333 -51.333 -177 -86.666 -299 -105.999c-128 -16.667 -298.667 -25 -512 -25c-150.667 0 -292.667 7 -426 21c-113.333 12 -214.666 43.333 -303.999 94
c-87.333 47.333 -155.333 123.666 -204 228.999c-49.333 101.333 -74 236.666 -74 405.999c0 84.667 1.33301 139.334 4 164.001h299v-160c0 -116 11 -206 33 -270c20.667 -65.333 56 -113.333 106 -144c53.333 -30.667 119 -49.667 197 -57
c63.333 -6 184.666 -11.333 363.999 -16c225.333 0 388 10.667 488 32c90.667 21.333 152 68 184 140c32.667 72 49 196 49 372c0 144 -17.833 249.333 -53.5 316s-91.5 110.334 -167.5 131.001c-71.333 22 -183.333 33 -336 33h-377v266h349
c126.667 0 220.667 5.33301 282 16c70.667 13.333 122.667 36.666 156 69.999c36 32 60.667 79.667 74 143c13.333 51.333 20 141.666 20 270.999c0 119.333 -9.66699 209.333 -29 270c-18 55.333 -52 99 -102 131c-48 24.667 -109.333 41 -184 49
c-98.667 5.33301 -216.334 8 -353.001 8c-146 0 -271.333 -6.66699 -376 -20c-89.333 -16 -155 -40.667 -197 -74c-35.333 -25.333 -60 -62 -74 -110c-8 -44.667 -12 -110.334 -12 -197v-197h-291c0 248.667 24.667 434.334 74 557
c49.333 116.667 139.333 197.334 270 242.001c128 44 328.667 66 602 66c194 0 352.333 -8.5 475 -25.5s218.334 -48.167 287.001 -93.5c76 -44 130.667 -113.667 164 -209c35.333 -86 53 -207.667 53 -365c0 -168.667 -15 -299.667 -45 -393
c-26.667 -85.333 -73 -148 -139 -188c-54.667 -33.333 -143.334 -60.666 -266.001 -81.999c137.333 -17.333 241 -47.333 311 -90c66 -38.667 116.667 -101.667 152 -189c27.333 -88.667 41 -199 41 -331z" />
    <glyph glyph-name="four" unicode="4" 
d="M2351 631h-409v-631h-291v623h-1540v368l1372 1741h459v-1843h409v-258zM1651 889v1642l-1286 -1642h1286z" />
    <glyph glyph-name="five" unicode="5" 
d="M2253 999c0 -216 -11.001 -390.671 -33.001 -524.004c-24.667 -129.333 -71 -230.333 -139 -303c-67.333 -76 -163 -128 -287 -156c-136 -30 -310.667 -45 -524 -45c-182 0 -335 8.33301 -459 25c-112.667 12 -212.334 44.667 -299.001 98
c-81.333 50 -145.666 132 -192.999 246c-39.333 96 -61 243.333 -65 442h303c0 -123.333 8.33301 -218.666 25 -285.999c16.667 -69.333 48 -121.333 94 -156c42 -38 111.667 -65.333 209 -82c104.667 -13.333 233 -20 385 -20c172.667 0 309 10.667 409 32
c90 24.667 157 79.334 201 164.001c46.667 78 70 209 70 393c0 172.667 -4.33301 298.334 -13 377.001c-8 84.667 -31 158.334 -69 221.001c-38 59.333 -99.667 103 -185 131c-75.333 30.667 -195.333 46 -360 46c-200.667 0 -344 -7 -430 -21
c-96.667 -16 -165 -42 -205 -78c-35.333 -32 -64 -83.667 -86 -155h-291v1368h1839v-267h-1548v-807c74 98.667 169.667 160.334 287 185.001c116 27.333 259.333 41 430 41c224 0 404.333 -24.667 541 -74c134.667 -52.667 234.334 -141.334 299.001 -266.001
c62.667 -130.667 94 -307 94 -529z" />
    <glyph glyph-name="six" unicode="6" 
d="M2241 2109c0 -18.667 -1.66699 -33.667 -5 -45v-36h-290c2.66699 5.33301 4 16 4 32v33c0 120.667 -18 206.667 -54 258c-28.667 51.333 -91.334 88.333 -188.001 111c-94 16 -241.333 24 -442 24c-134 0 -263.667 -5.33301 -389 -16c-95.333 -16 -169.333 -42 -222 -78
c-52 -36 -90 -89.333 -114 -160c-22 -76.667 -33 -175 -33 -295v-532c29.333 65.333 66 115.666 110 150.999c52 38.667 124.667 67.334 218 86.001c94 19.333 237.333 29 430 29s340 -9.66699 442 -29c118.667 -20.667 213 -56 283 -106
c79.333 -58.667 135.333 -140.667 168 -246c38 -98 57 -242.667 57 -434c0 -187.333 -16.333 -337.333 -49 -450c-36 -116.667 -90.667 -205.667 -164 -267c-70 -61.333 -164.333 -105 -283 -131c-121.333 -24.667 -271.333 -37 -450 -37c-167.333 0 -330 9.66699 -488 29
c-127.333 26 -232.333 68.333 -315 127c-87.333 62 -151.666 155 -192.999 279c-42 110 -65 269.667 -69 479v1003c0 184.667 16.333 329.334 49 434c28.667 113.333 82 201 160 263c81.333 63.333 186.333 107 315 131c138.667 24.667 317.667 37 537 37
c216 0 396 -11 540 -33c134.667 -26 240 -84.667 316 -176c79.333 -92 119 -237 119 -435zM1917 819c0 178 -13.665 303.668 -40.998 377.001c-24.667 80 -82 134.667 -172 164c-93.333 30 -239.333 45 -438 45c-180 0 -314 -5.33301 -402 -16
c-98.667 -13.333 -172.334 -35.333 -221.001 -66c-52.667 -35.333 -88 -80.333 -106 -135c-14.667 -40.667 -24.334 -122.667 -29.001 -246c0 -170 9.66699 -298.333 29 -385c20 -90 55.333 -158.333 106 -205s123 -78 217 -94c65.333 -8.66699 202 -15.334 410 -20.001
c193.333 0 339.333 13.667 438 41c87.333 28.667 143.333 81.667 168 159c27.333 70 41 197 41 381z" />
    <glyph glyph-name="seven" unicode="7" 
d="M2187 2343l-1323 -2343h-364l1433 2462h-1736v270h1990v-389z" />
    <glyph glyph-name="eight" unicode="8" 
d="M2253 786c0 -172.667 -13.832 -309.002 -41.499 -409.002s-78.167 -180.667 -151.5 -242c-72.667 -56.667 -175 -97.667 -307 -123c-134.667 -24.667 -309.334 -37 -524.001 -37c-201.333 0 -364 8.33301 -488 25c-121.333 12.667 -221 45.334 -299 98.001
c-76.667 54 -135.334 136 -176.001 246c-38 114 -57 265.667 -57 455c0 142 12.333 251 37 327c24 82 70.333 145 139 189c61.333 42 159.666 77.333 294.999 106c-124.667 25.333 -217.667 62.333 -279 111c-64 47.333 -106.333 107.333 -127 180
c-17.333 66.667 -28 170.334 -32 311.001c0 164.667 16.333 296 49 394c34.667 98.667 86.334 171 155.001 217c74.667 49.333 171.667 82 291 98c124 16.667 288 25 492 25c204.667 0 368.334 -8.33301 491.001 -25c122.667 -12 219.667 -43.333 291 -94
c69.333 -46 121.333 -118.333 156 -217c32.667 -93.333 49 -223 49 -389c0 -138.667 -9.66699 -244 -29 -316c-20 -74.667 -62.333 -136 -127 -184c-60.667 -44.667 -154.667 -81.667 -282 -111c130.667 -23.333 231.667 -60 303 -110c68 -46.667 114.333 -111 139 -193
c22 -82 33 -192.667 33 -332zM1905 2023c0 151.333 -13.665 255.334 -40.998 312.001c-28.667 60 -87.334 102.333 -176.001 127c-106 18.667 -259 28 -459 28c-174.667 0 -300.334 -5.33301 -377.001 -16c-84 -8 -146.667 -28.333 -188 -61
c-38 -26.667 -65.333 -70.667 -82 -132c-14 -61.333 -21 -147.333 -21 -258c0 -103.333 8.33301 -185 25 -245c11.333 -56 41.333 -104 90 -144c46.667 -32.667 112 -57 196 -73c92.667 -14 211.667 -21 357 -21c211.333 0 361.333 13.667 450 41
c94 24.667 155.667 69.667 185 135c27.333 75.333 41 177.666 41 306.999zM1946 761.999c0 150.667 -16.6699 261.333 -50.0029 332c-28.667 70 -92.667 117.667 -192 143c-92.667 27.333 -251 41 -475 41c-229.333 0 -383.666 -11 -462.999 -33
c-95.333 -24 -161 -70.333 -197 -139c-35.333 -70.667 -53 -188 -53 -352c0 -160.667 17.667 -274 53 -340c30.667 -65.333 96.334 -110.333 197.001 -135c76 -18 230.333 -29 463 -33c136.667 0 262.334 5.33301 377.001 16c93.333 12.667 163 36 209 70
c46.667 31.333 80.667 80.333 102 147c19.333 64 29 158.333 29 283z" />
    <glyph glyph-name="nine" unicode="9" 
d="M2241 836c0 -175.333 -15.3359 -321.668 -46.0029 -439.001c-32 -110.667 -86.333 -196.667 -163 -258c-75.333 -62 -180.666 -105.667 -315.999 -131c-134.667 -24.667 -313.334 -37 -536.001 -37c-218 0 -397 11 -537 33c-132.667 25.333 -237.667 82.666 -315 171.999
c-79.333 95.333 -119 241.333 -119 438v82h291v-65c4 -95.333 13.333 -165 28 -209c19.333 -49.333 52.333 -89 99 -119c60 -29.333 126.667 -45.666 200 -48.999c76.667 -10.667 194.334 -16 353.001 -16c154.667 0 284.334 6.66699 389.001 20
c94 12 167.667 36.667 221 74c51.333 36 89.666 89.333 114.999 160c21.333 78 32 176 32 294v533c-46.667 -97.333 -117.667 -165.666 -213 -204.999c-97.333 -40.667 -278.666 -61 -543.999 -61c-188 0 -335.667 9.33301 -443 28
c-118.667 22.667 -212.667 59.667 -282 111c-76.667 54.667 -132.667 135.334 -168 242.001c-36 115.333 -54 258.666 -54 429.999c0 184.667 16.667 334.667 50 450c35.333 117.333 88.333 207.666 159 271c70.667 62 166.334 105.667 287.001 131
c118 24.667 267 37 447 37c174 0 337.667 -9.66699 491 -29c125.333 -24.667 230.333 -67 315 -127c88.667 -64 153 -155.667 193 -275c44 -115.333 66 -276.333 66 -483v-1003zM1937 1782c0 175.333 -9.33398 305.001 -28.001 389.001c-17.333 88 -53 155 -107 201
c-50 46 -121 77.333 -213 94c-104.667 13.333 -242.334 20 -413.001 20c-208.667 0 -353.667 -13.667 -435 -41c-84.667 -27.333 -142 -79 -172 -155c-27.333 -76 -41 -204.333 -41 -385c0 -175.333 13.667 -301 41 -377c28.667 -76.667 87.334 -131.334 176.001 -164.001
c88.667 -30 233.667 -45 435 -45c180 0 313.667 5.33301 401 16c98.667 13.333 172.334 35.333 221.001 66c51.333 32 87 77 107 135c18.667 53.333 28 135.333 28 246z" />
    <glyph glyph-name="colon" unicode=":" horiz-adv-x="815" 
d="M569 1540h-323v373h323v-373zM569 0h-323v373h323v-373z" />
    <glyph glyph-name="semicolon" unicode=";" horiz-adv-x="745" 
d="M479 1540h-323v373h323v-373zM500 -29c0 -128 -19.332 -220.666 -57.999 -277.999c-36.667 -62.667 -111.667 -94 -225 -94h-41c-10.667 2.66699 -24.334 4 -41.001 4v151c68 4 114.333 20.333 139 49c27.333 23.333 41 72.666 41 147.999c0 24.667 -1.33301 41 -4 49
h-135v373h324v-402z" />
    <glyph glyph-name="less" unicode="&#x3c;" horiz-adv-x="2048" 
d="M1909 397l-1774 836v278l1774 836v-319l-1434 -656l1434 -659v-316z" />
    <glyph glyph-name="equal" unicode="=" horiz-adv-x="2048" 
d="M1954 1602h-1860v167h1860v-167zM1954 1024h-1860v168h1860v-168z" />
    <glyph glyph-name="greater" unicode="&#x3e;" horiz-adv-x="2048" 
d="M1913 1233l-1774 -836v316l1434 659l-1434 660v315l1774 -840v-274z" />
    <glyph glyph-name="question" unicode="?" horiz-adv-x="2130" 
d="M1929 2015c0 -174 -17.6699 -311.668 -53.0029 -413.001c-38 -104.667 -84.333 -182.667 -139 -234c-54 -45.333 -125 -85 -213 -119c-21.333 -8 -63.666 -22.833 -126.999 -44.5s-103 -35.5 -119 -41.5c-120 -41.333 -180 -143.666 -180 -306.999v-70h-299
c0 143.333 9.33301 251.333 28 324c20.667 74 60.334 134 119.001 180c57.333 48.667 149 98 275 148c116.667 46 190.334 77.333 221.001 94c49.333 24 89 55.333 119 94c32.667 38 53 83 61 135c13.333 60 20 133.667 20 221c0 166 -16.333 283.667 -49 353
c-30.667 65.333 -83.667 109 -159 131c-74 16 -201 24 -381 24c-164.667 0 -283.667 -13.667 -357 -41c-74.667 -24.667 -123.667 -67 -147 -127c-24.667 -56 -37 -143.333 -37 -262v-184h-287c0 172.667 11 317.334 33 434c20.667 108.667 60.334 196 119.001 262
c54.667 63.333 135 110 241 140c104.667 27.333 246.667 41 426 41c160.667 0 294.667 -8.33301 402 -25c99.333 -15.333 186.666 -48 261.999 -98c72 -48.667 126.667 -122.667 164 -222c38 -100.667 57 -231.667 57 -393zM1102 -0.000976562h-324v373h324v-373z" />
    <glyph glyph-name="at" unicode="@" horiz-adv-x="2576" 
d="M2417 1413c0 -250 -13.6699 -436.997 -41.0029 -560.997c-34 -126.667 -75 -208.667 -123 -246c-50 -38 -117 -57 -201 -57c-79.333 0 -151.666 17.667 -216.999 53c-59.333 36 -97.666 92 -114.999 168c-64.667 -155.333 -228.334 -233 -491.001 -233
c-151.333 0 -264.666 30 -339.999 90c-72 52.667 -121.333 131.667 -148 237c-24 98.667 -36 227 -36 385c0 163.333 13.333 291.666 40 384.999c24.667 94 78 169.333 160 226c86 51.333 203.333 77 352 77c216 0 358 -62.667 426 -188v180h197v-934
c4.66699 -98 14.334 -170.333 29.001 -217c16 -48.667 59.667 -73 131 -73c47.333 0 85.333 15 114 45c30 25.333 53.333 88 70 188c16.667 96 25 250.333 25 463c0 228 -9.66699 389 -29 483c-15.333 102.667 -55 182 -119 238c-62 50 -154.667 82.667 -278 98
c-143.333 14 -336 21 -578 21c-230 0 -400.667 -9.66699 -512 -29c-114 -20.667 -198.667 -63 -254 -127c-57.333 -66.667 -94 -158.334 -110 -275.001c-16.667 -112 -25 -293.333 -25 -544c0 -256 9.66699 -446 29 -570c19.333 -127.333 60.333 -228.333 123 -303
c64 -72.667 152.667 -120.334 266 -143.001c113.333 -24.667 281.333 -37 504 -37c161.333 0 304.666 2.66699 429.999 8c88 4 161.667 16.333 221 37c40.667 8 76 38 106 90l140 -98c-46.667 -84.667 -116.334 -139.334 -209.001 -164.001
c-70.667 -17.333 -150 -29.666 -238 -36.999c-120 -5.33301 -249.667 -8 -389 -8c-239.333 0 -427.666 11 -564.999 33c-132 15.333 -244 63 -336 143c-88.667 80.667 -153 202.334 -193 365.001c-40.667 170.667 -61 400 -61 688c0 260 16.333 464.667 49 614
c32.667 147.333 87.334 259.333 164.001 335.999c73.333 76.667 177 130 311 160c134.667 24.667 317.667 37 549 37c274.667 0 483.667 -9.66699 627 -29c148 -25.333 261.333 -69 340 -131c76.667 -65.333 131.334 -162.333 164 -291c27.333 -144.667 41 -329 41 -553z
M1679 1180l0.000976562 176c0 149.333 -27.333 257 -82 323c-54 63.333 -153.667 95 -299 95c-104.667 0 -186.334 -12.333 -245.001 -37c-52 -30.667 -87.667 -80 -107 -148c-14.667 -62 -24 -175.333 -28 -340c0 -145.333 9.33301 -261.333 28 -348
c17.333 -76.667 48.666 -127 93.999 -151c42.667 -27.333 112.334 -41 209.001 -41c123.333 0 217.666 16.333 282.999 49c56.667 26 96.334 73.667 119.001 143c18.667 58 28 151 28 279z" />
    <glyph glyph-name="A" unicode="A" horiz-adv-x="2626" 
d="M2548 0h-324l-213 561h-1380l-209 -561h-328l996 2732h438zM1921 827l-606 1680l-602 -1680h1208z" />
    <glyph glyph-name="B" unicode="B" horiz-adv-x="2523" 
d="M2347 786c0 -172.667 -20.333 -315.999 -61 -429.999c-40.667 -112.667 -113.334 -201.334 -218 -266.001c-107.333 -60 -246.333 -90 -417 -90h-1389v2732h1311c170 0 303.667 -20.333 401 -61c100 -40 175.333 -109.667 226 -209c46 -101.333 69 -236.666 69 -406
c0 -113.333 -8 -209 -24 -287c-14 -80 -47 -145.333 -99 -196c-44.667 -56.667 -118.334 -103 -221.001 -139c122.667 -34 211.334 -76.333 266.001 -127c62 -54 103 -122.333 123 -205c22 -82 33 -187.333 33 -316zM1962 2032c0 113.333 -12.334 200.665 -37.001 261.999
c-23.333 58.667 -65.666 102.334 -126.999 131.001c-62.667 24.667 -148.667 37 -258 37h-975v-922h865c142 0 249.667 13.667 323 41c74 28.667 127.333 78 160 148c32.667 68 49 169 49 303zM2040 770c0 150 -15 256.667 -45 320c-28 66 -77.333 113.667 -148 143
c-65.333 27.333 -170.333 41 -315 41h-967v-1004h840c180 0 309.667 9.66699 389 29c86 16 147.333 59.667 184 131c41.333 74.667 62 188 62 340z" />
    <glyph glyph-name="C" unicode="C" horiz-adv-x="2421" 
d="M2327 913c0 -212.667 -12.332 -377.664 -36.999 -494.997c-25.333 -120 -73.333 -211.667 -144 -275c-74.667 -66 -178.334 -111 -311.001 -135c-142.667 -24.667 -339.334 -37 -590.001 -37c-269.333 0 -467.333 15 -594 45c-134 28 -237.833 87 -311.5 177
s-122.5 223.667 -146.5 401c-20.667 172.667 -33 426.667 -37 762c0 333.333 12.333 588.666 37 765.999c24 174.667 73 307 147 397c72 92.667 174.333 152.667 307 180c122.667 30 322 45 598 45c249.333 0 437.666 -13.667 564.999 -41c135.333 -28 235 -74.333 299 -139
c68 -66.667 112 -151.334 132 -254.001c23.333 -100 39.666 -250 49 -450h-295c-18 184.667 -31.667 302 -41 352c-7.33301 54 -33.333 105.667 -78 155c-40.667 40.667 -109 69.667 -205 87c-104.667 13.333 -246.667 20 -426 20c-207.333 0 -361.666 -12.333 -462.999 -37
c-99.333 -24 -171.666 -73 -216.999 -147c-43.333 -62 -72 -161.667 -86 -299c-10.667 -169.333 -16 -381 -16 -635c0 -309.333 5.33301 -522.333 16 -639c13.333 -133.333 42 -233 86 -299c42.667 -70 115 -118 217 -144c98.667 -24 253 -36 463 -36
c186 0 336.333 6.66699 451 20c98 12 170.333 39.333 217 82c50 41.333 82.667 104 98 188c14 95.333 21 223.666 21 384.999h295z" />
    <glyph glyph-name="D" unicode="D" horiz-adv-x="2671" 
d="M2519 1364c0 -231.333 -9.66699 -418.332 -29 -560.999c-14.667 -144 -52.667 -282 -114 -414c-64 -122.667 -158.333 -218.334 -283 -287.001c-132.667 -68 -298 -102 -496 -102h-1339v2732h1262c224 0 404 -32.667 540 -98c136 -68 237 -162.333 303 -283
c70 -130 112.333 -268 127 -414c19.333 -139.333 29 -330.333 29 -573zM2212 1364c0 295.333 -23.333 519.334 -70 672.001c-45.333 155.333 -123 265.666 -233 330.999c-109.333 63.333 -262.333 95 -459 95h-889v-2192h893c196.667 0 349.667 31.667 459 95
c106.667 59.333 183 168.333 229 327c46.667 152.667 70 376.667 70 672z" />
    <glyph glyph-name="E" unicode="E" horiz-adv-x="2167" 
d="M2011 2462h-1458v-930h1389v-266h-1389v-996h1450v-270h-1753v2732h1761v-270z" />
    <glyph glyph-name="F" unicode="F" horiz-adv-x="1987" 
d="M1921 2462h-1364v-955h1331v-266h-1331v-1241h-303v2732h1667v-270z" />
    <glyph glyph-name="G" unicode="G" horiz-adv-x="2535" 
d="M2417 1081c0 -239.333 -12.3311 -430.332 -36.998 -572.999c-30 -144.667 -82 -254 -156 -328c-72.667 -76.667 -180.334 -131.334 -323.001 -164.001c-154 -30 -350.667 -45 -590 -45c-257.333 0 -455.333 12.333 -594 37c-138.667 30 -246.667 87.333 -324 172
c-76 83.333 -130.667 217.333 -164 402c-30 192.667 -45 450.667 -45 774c0 337.333 16.333 598 49 782c28.667 183.333 84.667 318.666 168 406c78.667 86.667 184 142.667 316 168c134.667 24 332.667 36 594 36c244 0 437.667 -12 581 -36
c134.667 -19.333 244 -57.666 328 -115c72.667 -45.333 124.667 -115 156 -209c27.333 -84 41 -201.333 41 -352v-107h-295c0 141.333 -9.66699 243.666 -29 307c-16.667 73.333 -52 126.666 -106 160c-57.333 39.333 -134 62.666 -230 69.999
c-130.667 10.667 -280.667 16 -450 16c-228.667 0 -390 -11 -484 -33c-106 -24 -181 -70.333 -225 -139c-47.333 -67.333 -77.333 -168.333 -90 -303c-6 -100 -11.333 -317 -16 -651c0 -256.667 5.33301 -472.334 16 -647.001c12 -129.333 42 -227.666 90 -294.999
c43.333 -70.667 118.333 -118.667 225 -144c91.333 -17.333 252.666 -28 483.999 -32c180.667 0 328 10.667 442 32c110 24.667 190.667 60.334 242 107.001c54.667 47.333 90 111.333 106 192c16.667 76.667 25 186 25 328v274h-873v267h1168v-357z" />
    <glyph glyph-name="H" unicode="H" horiz-adv-x="2732" 
d="M2466 0h-303v1257h-1598v-1257h-303v2736h303v-1212h1598v1212h303v-2736z" />
    <glyph glyph-name="I" unicode="I" horiz-adv-x="815" 
d="M565 4h-307v2732h307v-2732z" />
    <glyph glyph-name="J" unicode="J" horiz-adv-x="2056" 
d="M1794 750c0 -187.333 -23.332 -330.999 -69.999 -430.999c-41.333 -110 -124.333 -194.333 -249 -253c-121.333 -57.333 -295 -86 -521 -86c-228.667 0 -404.667 25.667 -528 77c-116.667 48 -200 128.667 -250 242c-46.667 115.333 -70 265.666 -70 450.999v245h300
v-200c0 -113.333 6.66699 -209 20 -287c15.333 -70 42.666 -124.667 81.999 -164c36 -36 89.333 -60.667 160 -74c50.667 -8.66699 146 -15.334 286 -20.001c141.333 0 250.666 16.333 327.999 49c72.667 32.667 127.334 87.334 164.001 164.001
c30 80.667 45 192.667 45 336v1929h303v-1978z" />
    <glyph glyph-name="K" unicode="K" horiz-adv-x="2548" 
d="M2507 0h-418l-1253 1270h-267v-1270h-303v2736h303v-1196h271l1114 1192h405l-1249 -1323z" />
    <glyph glyph-name="L" unicode="L" horiz-adv-x="2040" 
d="M1966 0h-1687v2732h307v-2458h1380v-274z" />
    <glyph glyph-name="M" unicode="M" horiz-adv-x="3514" 
d="M3224 0h-304v2511l-1032 -2511h-262l-1040 2486v-2486h-303v2736h508l962 -2343l967 2343h504v-2736z" />
    <glyph glyph-name="N" unicode="N" horiz-adv-x="2851" 
d="M2597 2732l-4 -2732h-479l-1536 2470v-2470h-304v2732h484l1536 -2494v2494h303z" />
    <glyph glyph-name="O" unicode="O" horiz-adv-x="2802" 
d="M2548 1364c0 -337.333 -13.6689 -589.999 -41.002 -757.999c-30 -182 -82 -315.667 -156 -401c-78.667 -90.667 -189.334 -152.334 -332 -185.001c-153.333 -30 -360.666 -45 -621.999 -45c-256.667 0 -464.334 15 -623.001 45c-144.667 33.333 -254 95 -328 185
c-75.333 92 -127 225.667 -155 401c-27.333 166 -41 418.667 -41 758c4.66699 369.333 18.334 622 41.001 758c28.667 180 80.334 313.667 155.001 401c76 87.333 186.667 147.333 332 180c148.667 30 355 45 619 45c266.667 0 474 -15 622 -45
c142.667 -31.333 253.334 -92.666 332 -184c74.667 -86 126.667 -218.333 156 -397c27.333 -172 41 -424.667 41 -758zM2241 1360c0 268.667 -7.00195 481.668 -21.002 639.001c-15.333 133.333 -49.333 237 -102 311c-57.333 72.667 -136.666 119 -237.999 139
c-93.333 22 -254.333 33 -483 33c-229.333 0 -389 -11 -479 -33c-105.333 -20 -184.666 -65 -237.999 -135c-48 -62.667 -80.667 -166.334 -98 -311.001c-16.667 -132.667 -25 -345.667 -25 -639c4 -292.667 12.333 -504.334 25 -635.001
c16.667 -142.667 50.667 -247.667 102 -315c51.333 -72 129.333 -118.667 234 -140c113.333 -21.333 273 -32 479 -32c234.667 4 395.667 14.667 483 32c106 20.667 185.333 67.334 238 140.001c52.667 74 86.667 176.333 102 307c14 162 21 375 21 639z" />
    <glyph glyph-name="P" unicode="P" horiz-adv-x="2408" 
d="M2286 1946c0 -178 -13.666 -323 -40.999 -435c-29.333 -112 -77.333 -199.333 -144 -262c-62.667 -62.667 -155.334 -109 -278.001 -139c-126 -27.333 -276.333 -41 -451 -41h-815v-1069h-303v2732h1302c178.667 0 323.667 -28.667 435 -86
c102.667 -55.333 179 -141.333 229 -258c44 -116.667 66 -264 66 -442zM1978 1888c0 128 -9.33301 239.998 -28 335.998c-21.333 80 -65 138.667 -131 176c-62.667 41.333 -162.334 62 -299.001 62h-963v-1127h729c172.667 0 310.667 11 414 33
c92.667 20.667 162.334 71.334 209.001 152.001c46 78.667 69 201.334 69 368.001z" />
    <glyph glyph-name="Q" unicode="Q" horiz-adv-x="2712" 
d="M2650 332l-127.002 -209.001l-205 139c-65.333 -82 -148.666 -144.667 -250 -188c-88 -42 -191.667 -69.333 -311 -82c-108.667 -11.333 -258.667 -17 -450 -17c-258 0 -465.667 15 -623 45c-143.333 33.333 -254 95 -332 185c-75.333 93.333 -127 227 -155 401
c-23.333 159.333 -37 412 -41 758c0 312.667 13.667 565.334 41 758.001c28.667 178 80.334 310.333 155.001 397c78.667 90.667 189.334 152 332.001 184c152 30 359.667 45 623 45c265.333 0 474 -15 626 -45c144 -32 256 -92 336 -180
c73.333 -84.667 126.666 -218.334 160 -401c27.333 -166 41 -418.667 41 -758c0 -478.667 -16.333 -771 -49 -877zM2163 1364c0 281.333 -8.33301 494.334 -25 639.001c-16 140 -50 243.667 -102 311c-54 70 -134.667 115 -242 135c-90 22 -252.333 33 -487 33
c-226 0 -386 -11 -480 -33c-104.667 -20 -183.667 -65 -237 -135c-49.333 -70 -82 -173.667 -98 -311c-16.667 -132.667 -25 -345.667 -25 -639c0 -290.667 8.33301 -502.334 25 -635.001c16 -138 50 -243 102 -315c47.333 -68 125 -114.667 233 -140
c91.333 -17.333 251.333 -28 480 -32c227.333 0 398 10.667 512 32c105.333 20.667 188.333 70 249 148l-851 553l143 213l786 -520c11.333 42.667 17 274.667 17 696z" />
    <glyph glyph-name="R" unicode="R" horiz-adv-x="2552" 
d="M2351 1933c0 -152 -9.66602 -269.332 -28.999 -351.999c-16 -84.667 -58.333 -161 -127 -229c-59.333 -60.667 -164.333 -105.667 -315 -135c289.333 -20.667 434 -195.667 434 -525v-692h-307v623c0 123.333 -17.667 216 -53 278
c-36.667 69.333 -92.667 118.666 -168 147.999c-76 27.333 -173 41 -291 41h-934v-1090h-303v2728h1294c209.333 0 370.666 -23.333 483.999 -70c111.333 -45.333 191.666 -125.666 241 -241c49.333 -109.333 74 -270.666 74 -484zM2040 1864
c0 156.667 -9.66602 272.665 -28.999 347.999c-20 79.333 -65 139.333 -135 180c-68.667 44 -175.334 66 -320.001 66h-995v-1106h889c152 0 266.667 13.667 344 41c88.667 30 150 80.333 184 151c41.333 78.667 62 185.334 62 320.001z" />
    <glyph glyph-name="S" unicode="S" horiz-adv-x="2294" 
d="M2183 786c0 -178.667 -14.9961 -323.333 -44.9961 -434c-28.667 -101.333 -82 -180.333 -160 -237c-71.333 -52.667 -169.666 -89.667 -294.999 -111c-122.667 -19.333 -296 -29 -520 -29c-162.667 0 -315.334 7 -458.001 21c-121.333 16.667 -224 48 -308 94
c-90 51.333 -156.667 126.333 -200 225c-46.667 102.667 -70 235.334 -70 398.001v131h299c0 -189.333 16.333 -324.666 49 -405.999c31.333 -78.667 95.666 -131.667 192.999 -159c96.667 -20.667 261.667 -33 495 -37c152.667 0 286.667 9.33301 402 28
c102 20.667 174.333 50.667 217 90c40.667 36.667 68 86 82 148c10.667 50.667 16 134 16 250c0 104.667 -8.33301 185 -25 241c-21.333 62 -55.333 108.667 -102 140c-48.667 34.667 -118.334 57.667 -209.001 69c-80 15.333 -204.333 25 -373 29
c-234.667 12 -427 39.333 -577 82c-142 39.333 -252.667 113 -332 221c-76.667 105.333 -115 258.333 -115 459c0 216 33 377 99 483c63.333 104.667 165.666 175.667 306.999 213c133.333 32.667 336.666 49 609.999 49c175.333 0 319.833 -8.16699 433.5 -24.5
s210.834 -49.166 291.501 -98.5c77.333 -48.667 136 -121 176 -217c41.333 -98.667 62 -228.334 62 -389l4 -41h-299c0 140.667 -15 247.334 -45 320c-30 66.667 -91.333 114.334 -184 143c-86 27.333 -232.333 41 -439 41c-204 0 -354 -13.667 -450 -41
c-102 -28.667 -171.667 -73.667 -209 -135c-38.667 -68.667 -58 -164.334 -58 -287.001c0 -107.333 12.333 -190.833 37 -250.5s67 -105.834 127 -138.501c68.667 -32 150.667 -53.667 246 -65c98 -12.667 251 -25 459 -37c194 -7.33301 357.667 -33.333 491 -78
c125.333 -46 219.666 -119.667 282.999 -221c62.667 -110 94 -256.333 94 -439z" />
    <glyph glyph-name="T" unicode="T" horiz-adv-x="2191" 
d="M2126 2458h-881v-2458h-307v2458h-893v274h2081v-274z" />
    <glyph glyph-name="U" unicode="U" horiz-adv-x="2683" 
d="M2421 799c0 -201.333 -22 -355.664 -66 -462.997c-49.333 -116 -117.666 -199.333 -205 -250c-82 -54 -188.333 -89.333 -319 -106c-132.667 -14 -296.667 -21 -492 -21c-182.667 0 -342.334 7 -479.001 21c-124.667 16.667 -229.667 52 -315 106
c-87.333 51.333 -155.666 134.666 -204.999 249.999c-46.667 119.333 -70 273.666 -70 462.999v1917h303v-1917c0 -162.667 19.333 -287 58 -373c38 -79.333 109 -131.333 213 -156c116 -27.333 282.333 -41 499 -41c232.667 0 400.667 13.667 504 41
c104 24.667 175 76.667 213 156c38.667 73.333 58 197.666 58 372.999v1917h303v-1917z" />
    <glyph glyph-name="V" unicode="V" horiz-adv-x="2343" 
d="M2363 2732l-966 -2732h-443l-974 2732h327l873 -2486l852 2486h331z" />
    <glyph glyph-name="W" unicode="W" horiz-adv-x="4198" 
d="M4141 2732l-860 -2732h-467l-717 2458l-733 -2458h-459l-839 2732h315l749 -2494l738 2494h454l734 -2494l766 2494h319z" />
    <glyph glyph-name="X" unicode="X" horiz-adv-x="2499" 
d="M2482 0h-368l-848 1253l-848 -1253h-369l975 1413l-897 1319h365l774 -1167l774 1167h364l-897 -1319z" />
    <glyph glyph-name="Y" unicode="Y" horiz-adv-x="2454" 
d="M2417 2732l-1033 -1589v-1143h-307v1143l-1003 1589h340l827 -1307l827 1307h349z" />
    <glyph glyph-name="Z" unicode="Z" horiz-adv-x="2322" 
d="M2228 0h-2130v270l1712 2192h-1658v270h2039v-291l-1720 -2171h1757v-270z" />
    <glyph glyph-name="bracketleft" unicode="[" horiz-adv-x="1135" 
d="M922 -410h-697v3142h697v-233h-394v-2675h394v-234z" />
    <glyph glyph-name="backslash" unicode="\" horiz-adv-x="2646" 
d="M2621 -401h-221l-2113 3133h229z" />
    <glyph glyph-name="bracketright" unicode="]" horiz-adv-x="1135" 
d="M909 -410h-696v234h393v2670h-393v238h696v-3142z" />
    <glyph glyph-name="asciicircum" unicode="^" horiz-adv-x="2048" 
d="M1921 1532h-303l-594 987l-594 -987h-299l713 1204h364z" />
    <glyph glyph-name="underscore" unicode="_" horiz-adv-x="2048" 
d="M2048 -504h-2048v209h2048v-209z" />
    <glyph glyph-name="grave" unicode="`" horiz-adv-x="2048" 
d="M1368 2294l-94 -148l-590 361l143 196z" />
    <glyph glyph-name="a" unicode="a" horiz-adv-x="2077" 
d="M1835 0l-274.002 -0.00195312l12 201c-50 -66 -103.333 -116.667 -160 -152c-43.333 -26.667 -104.666 -47 -183.999 -61c-76 -8.66699 -175.667 -13 -299 -13c-179.333 0 -318.666 15 -417.999 45c-104.667 28.667 -188 86.334 -250 173.001
c-57.333 90.667 -86 219 -86 385c0 160.667 30 283.334 90 368.001c68 84 152.667 140 254 168c104.667 27.333 241.334 41 410.001 41c145.333 0 261.333 -6.66699 348 -20c78 -17.333 131.333 -36.666 160 -57.999c30 -25.333 61.333 -65 94 -119v230
c0 162 -13.667 278 -41 348c-24 71.333 -73.333 119 -148 143c-76.667 22 -196.667 33 -360 33c-126.667 0 -215.334 -6.66699 -266.001 -20c-62.667 -17.333 -107.834 -46 -135.501 -86s-44.167 -101.667 -49.5 -185l5 -57h-295c0 132.667 19 235 57 307
c38.667 76.667 89.334 132.667 152.001 168c58.667 30 135 52 229 66c76.667 10.667 183 16 319 16c196 0 353 -15 471 -45c116.667 -32 207 -96.333 271 -193c62.667 -100.667 94 -245.334 94 -434.001v-1249zM1548 560.998c0 120 -17.667 203.333 -53 250
c-32 51.333 -92 85.333 -180 102c-88 14 -223.333 21 -406 21c-158 0 -271.333 -22 -340 -66c-68 -42.667 -102 -128.667 -102 -258c0 -163.333 34 -271 102 -323c65.333 -57.333 180 -86 344 -86c165.333 0 284.333 5.33301 357 16c79.333 11.333 146 44 200 98
c52 48 78 130 78 246z" />
    <glyph glyph-name="b" unicode="b" horiz-adv-x="2073" 
d="M1888 946c0 -233.333 -17.668 -415.002 -53.001 -545.002c-37.333 -141.333 -109.666 -247.666 -216.999 -318.999c-110.667 -74 -276 -111 -496 -111c-113.333 0 -206 8.33301 -278 25c-65.333 10.667 -125.333 36.667 -180 78c-50 34 -100.667 90 -152 168l12 -242
h-282v2732h290v-1040c43.333 58 90 105.667 140 143c47.333 35.333 108.666 61.333 183.999 78c78 16 177.667 24 299 24c162 0 293 -23 393 -69c98.667 -48.667 172.334 -115.667 221.001 -201c48.667 -83.333 81.667 -184.333 99 -303
c13.333 -123.333 20 -262.666 20 -417.999zM1593 941.998c0 158.667 -4.00195 279 -12.002 361c-8 83.333 -28.333 157 -61 221c-39.333 61.333 -92.666 105 -159.999 131c-67.333 30 -168.333 45 -303 45c-158 0 -272.667 -26 -344 -78
c-73.333 -52.667 -122.666 -130.334 -147.999 -233.001c-22 -118 -33 -267 -33 -447c0 -163.333 4.33301 -291.666 13 -384.999c6.66699 -70.667 27 -139 61 -205c38 -54.667 91.333 -91.334 160 -110.001c77.333 -22 178.333 -33 303 -33c162 0 282.333 26 361 78
c72.667 52.667 117.667 126.334 135 221.001c18.667 88 28 232.667 28 434z" />
    <glyph glyph-name="c" unicode="c" horiz-adv-x="2007" 
d="M1835 692c-8 -146 -28.3301 -267.335 -60.9971 -364.002c-30.667 -88 -80 -162 -148 -222c-64 -51.333 -143 -86.666 -237 -105.999c-108.667 -22 -234.334 -33 -377.001 -33c-176.667 0 -314.667 13.667 -414 41c-102.667 29.333 -184.667 78.666 -246 147.999
c-56.667 68.667 -97.667 167 -123 295c-24 126.667 -36 294.334 -36 503.001s12 376.667 36 504c24.667 126.667 65.667 225 123 295c66 74.667 148 124 246 148c99.333 27.333 236 41 410 41c173.333 0 318 -16.667 434 -50c110 -32 197.333 -92 262 -180
c64 -84.667 98 -204.667 102 -360c0 -11.333 -1.33301 -21 -4 -29v-33h-278c0 104.667 -13.667 189.334 -41 254.001c-22 51.333 -70 92.333 -144 123c-68 24.667 -178.333 37 -331 37c-128 0 -222.333 -9.66699 -283 -29
c-70.667 -21.333 -121.334 -56.666 -152.001 -105.999c-33.333 -45.333 -56.333 -117.666 -69 -216.999c-11.333 -134.667 -17 -264.334 -17 -389.001c0 -149.333 7 -279.333 21 -390c7.33301 -90.667 29 -165.667 65 -225c33.333 -53.333 85.333 -90 156 -110
c69.333 -22 163.666 -33 282.999 -33c158 0 270 13.667 336 41c72 24 122.333 70.333 151 139c25.333 57.333 44.333 159.666 57 306.999h279z" />
    <glyph glyph-name="d" unicode="d" horiz-adv-x="2077" 
d="M1806 0l-282.002 0.00292969l12 242c-51.333 -78 -102 -134 -152 -168c-54.667 -41.333 -114.667 -67.333 -180 -78c-72 -16.667 -164.667 -25 -278 -25c-219.333 0 -384.666 37 -495.999 111c-107.333 71.333 -179.666 177.666 -216.999 318.999
c-30.667 114 -48.334 295.667 -53.001 545c0 167.333 8 306.666 24 417.999c13.333 115.333 45 216.333 95 303c48.667 85.333 122.334 152.333 221.001 201c100 46 231 69 393 69c184.667 0 317 -19 397 -57c86 -36.667 161.333 -99.334 226 -188.001v1040h290v-2732z
M1516 942.003c0 200 -11.001 349 -33.001 447c-25.333 102.667 -74.666 180.334 -147.999 233.001c-71.333 52 -186 78 -344 78c-132 0 -231.667 -15 -299 -45c-73.333 -28.667 -126.666 -73.667 -159.999 -135c-36.667 -70.667 -58.334 -143 -65.001 -217
c-8 -86 -12 -206.333 -12 -361c0 -201.333 9.33301 -346 28 -434c17.333 -94.667 62.333 -168.334 135 -221.001c78.667 -52 199 -78 361 -78c124.667 0 225.667 11 303 33c68.667 18.667 122 55.334 160 110.001c32.667 54 53 122.333 61 205
c8.66699 93.333 13 221.666 13 384.999z" />
    <glyph glyph-name="e" unicode="e" horiz-adv-x="2056" 
d="M1868 586c0 -182 -29.9971 -317.335 -89.9971 -406.002c-62 -85.333 -148 -142.666 -258 -171.999c-118 -24.667 -278 -37 -480 -37c-157.333 0 -295 15 -413 45c-110 35.333 -193.333 87.333 -250 156c-65.333 82 -109 181.667 -131 299
c-27.333 138.667 -41 302.667 -41 492c0 208.667 13.667 371 41 487c23.333 122.667 67 222.334 131 299.001c64 73.333 147.333 124 250 152c95.333 30 231.666 45 408.999 45c176 0 314 -15 414 -45c97.333 -24 180.666 -70.667 249.999 -140
c60.667 -69.333 103 -160.666 127 -273.999c27.333 -108.667 41 -254.667 41 -438v-144h-1376c4 -200.667 20.333 -349.334 49 -446.001c28 -94 78.333 -161 151 -201c80 -38 196 -57 348 -57c158.667 0 275 8 349 24c77.333 14 127.666 42.667 150.999 86
c27.333 42.667 41 113.667 41 213v62h287zM1581 1126c0 115.333 -6.66699 213.666 -20 294.999c-17.333 76.667 -44.666 135.334 -81.999 176.001c-32.667 40 -87.334 71.667 -164.001 95c-66 16 -159 24 -279 24c-152 0 -266.667 -16.333 -344 -49
c-72.667 -32.667 -123 -90 -151 -172c-26 -72.667 -41 -195.667 -45 -369h1085z" />
    <glyph glyph-name="f" unicode="f" horiz-adv-x="1102" 
d="M1114 1679h-504v-1679h-291v1679h-290v234h290v282c0 215.333 49.333 364.333 148 447c94 82 249.667 123 467 123c32.667 0 62.667 -1.33301 90 -4c15.333 0 33 -0.666992 53 -2s32.333 -2 37 -2v-238c-60 5.33301 -129.667 8 -209 8c-108 0 -184.333 -24.333 -229 -73
c-44 -48.667 -66 -126.667 -66 -234v-307h504v-234z" />
    <glyph glyph-name="g" unicode="g" horiz-adv-x="2085" 
d="M1851 -123c0 -203.333 -25.667 -355.001 -77 -455.001c-48 -102 -131.333 -174.333 -250 -217c-118 -40.667 -287.333 -61 -508 -61c-198.667 4 -342 20.333 -430 49c-105.333 30 -184.666 90 -237.999 180c-54.667 92.667 -82 226.667 -82 402h266
c4.66699 -110.667 22.667 -196.667 54 -258c27.333 -52 71 -89 131 -111c60.667 -16 149.334 -24 266.001 -24c143.333 0 260.666 9.33301 351.999 28c76.667 19.333 138.334 63 185.001 131c38 69.333 57 173.333 57 312v380c-52.667 -106 -133.334 -177 -242.001 -213
c-108 -32.667 -237.667 -49 -389 -49c-198.667 0 -351.667 35.667 -459 107c-108.667 73.333 -183.667 175.666 -225 306.999c-38 134.667 -57 300 -57 496c0 173.333 6.66699 323.333 20 450c18 125.333 49.333 229 94 311c48 90.667 126 163.334 234 218.001
c101.333 48.667 240.666 73 417.999 73c84.667 0 168 -6.66699 250 -20c82 -19.333 151.667 -46.666 209 -81.999c60 -40 113 -96 159 -168l-12 246h274v-2032zM1561 962.999c0 182.667 -10.999 329.999 -32.999 441.999c-25.333 99.333 -76 173 -152 221
c-74 46.667 -191.333 70 -352 70c-127.333 0 -227 -13.667 -299 -41c-75.333 -31.333 -126 -72.333 -152 -123c-32.667 -58.667 -53 -129.667 -61 -213c-8 -82 -12 -200.667 -12 -356c4 -212 13.333 -362.333 28 -451c20 -98.667 68 -175 144 -229
c70 -52 191.333 -78 364 -78c153.333 0 268 26 344 78c73.333 52.667 122.666 130.334 147.999 233.001c22 118 33 267 33 447z" />
    <glyph glyph-name="h" unicode="h" horiz-adv-x="2097" 
d="M1855 0h-290v1294c0 117.333 -13.667 206.333 -41 267c-32.667 60.667 -80.667 103 -144 127c-69.333 21.333 -159.333 32 -270 32c-158 0 -279.667 -20.333 -365 -61c-82 -41.333 -139.333 -107 -172 -197c-30 -92 -45 -214.667 -45 -368v-1094h-290v2736h290v-1040
c59.333 108 137.333 176.333 234 205c96 32.667 220.333 49 373 49c183.333 0 325.333 -22 426 -66c106 -40.667 181 -111.667 225 -213c46 -104 69 -247.333 69 -430v-1241z" />
    <glyph glyph-name="i" unicode="i" horiz-adv-x="782" 
d="M537 2417h-291v315h291v-315zM537 0h-291v1913h291v-1913z" />
    <glyph glyph-name="j" unicode="j" horiz-adv-x="762" 
d="M520 2417h-291v315h291v-315zM520 -176c0 -176 -30 -314 -90 -414c-62.667 -100.667 -174.667 -151 -336 -151c-36 0 -81 5.33301 -135 16v205c16.667 0 27.667 -1.33301 33 -4c102.667 0 168 28.667 196 86c27.333 54 41 141.333 41 262v2089h291v-2089z" />
    <glyph glyph-name="k" unicode="k" horiz-adv-x="1909" 
d="M1896 0h-376l-811 922h-115v-922h-291v2732h291v-1589h115l688 770h352l-815 -881z" />
    <glyph glyph-name="l" unicode="l" horiz-adv-x="782" 
d="M537 0h-291v2732h291v-2732z" />
    <glyph glyph-name="m" unicode="m" horiz-adv-x="3346" 
d="M3092 0l-289.998 -0.000976562v1286c0 162.667 -28.667 274.667 -86 336c-62.667 57.333 -176 86 -340 86c-374 0 -561 -148.667 -561 -446v-1262h-291v1262c-4 118.667 -19 211.334 -45 278.001c-19.333 57.333 -60.333 101 -123 131
c-61.333 24.667 -154.333 37 -279 37c-144.667 0 -253.667 -22 -327 -66c-81.333 -41.333 -136 -105.333 -164 -192c-32.667 -85.333 -49 -202.666 -49 -351.999v-1098h-291v1913h274v-287c111.333 213.333 321.666 320 630.999 320c134.667 0 261.667 -23.333 381 -70
c109.333 -48.667 184.333 -132 225 -250c123.333 213.333 340.333 320 650.999 320c172 0 306 -22 402 -66c101.333 -46.667 173.666 -119 217 -217c43.333 -94.667 65 -228.334 65 -401.001v-1262z" />
    <glyph glyph-name="n" unicode="n" horiz-adv-x="2109" 
d="M1864 0l-291 0.000976562v1241c0 131.333 -12.333 229.666 -37 294.999c-24.667 68.667 -69.667 115 -135 139c-62 27.333 -161.667 41 -299 41c-192.667 0 -334.667 -43.667 -426 -131c-96 -88 -144 -226 -144 -414v-1167h-290v1909h270v-246
c69.333 110 158 185 266 225c108 41.333 236.333 62 385 62c176 0 314 -22 414 -66c104 -42 176.333 -111.667 217 -209c46.667 -93.333 70 -231 70 -413v-1266z" />
    <glyph glyph-name="o" unicode="o" horiz-adv-x="2089" 
d="M1888 958c0 -220.667 -13.667 -392.665 -41 -515.998c-28 -128.667 -74.333 -227 -139 -295c-62 -66 -146.667 -113.667 -254 -143c-104.667 -24.667 -242.667 -37 -414 -37c-226.667 0 -400 24.667 -520 74c-114 49.333 -196 143.666 -246 282.999
c-48.667 134 -73 344 -73 630c0 285.333 24.333 497 73 635c50 139.333 132 233.666 246 282.999c116 49.333 289.333 74 520 74c227.333 0 401 -24.667 521 -74c116.667 -48.667 199.667 -143 249 -283c52 -134 78 -344.333 78 -631zM1593 958.002
c0 202.667 -6.66797 343.331 -20.001 421.998c-11.333 89.333 -34.666 160.333 -69.999 213c-38 50.667 -91.333 82.334 -160 95.001c-54 13.333 -155 20 -303 20c-143.333 0 -244.333 -6.66699 -303 -20c-62 -12.667 -112.333 -44.334 -151 -95.001
c-38 -50 -62.667 -122.333 -74 -217c-6 -72 -11.333 -212.667 -16 -422c0 -174.667 8 -311 24 -409c16.667 -101.333 45.334 -176.666 86.001 -225.999c38 -46 90 -77.333 156 -94c72 -13.333 164.667 -20 278 -20c154 0 268.667 15 344 45
c79.333 30.667 132.666 99 159.999 205c32.667 100.667 49 268.334 49 503.001z" />
    <glyph glyph-name="p" unicode="p" horiz-adv-x="2093" 
d="M1896 963c0 -152 -6.66602 -291.333 -19.999 -418c-15.333 -112 -48 -211.833 -98 -299.5s-124 -155.834 -222 -204.501c-101.333 -46.667 -232.333 -70 -393 -70c-144 0 -268 16.333 -372 49c-101.333 32.667 -184.666 98.334 -249.999 197.001v-1040h-291v2732h282
l-12 -242c69.333 101.333 152.666 171 249.999 209c97.333 40.667 217.333 61 360 61c221.333 0 386.666 -36.667 495.999 -110c106.667 -71.333 179 -176.666 217 -315.999c35.333 -144.667 53 -327.334 53 -548.001zM1602 967c0 191.333 -8.33398 335.999 -25.001 433.999
c-20 94.667 -66.333 168.167 -139 220.5s-193 78.5 -361 78.5c-168.667 0 -290 -23.333 -364 -70c-74.667 -45.333 -122.667 -116.333 -144 -213c-18.667 -114 -28 -264 -28 -450c0 -196.667 12.333 -345.667 37 -447c20 -101.333 67.667 -179 143 -233
c82.667 -52 197.334 -78 344.001 -78c170.667 0 293.667 26 369 78c72 52 118.333 127 139 225c19.333 98.667 29 250.334 29 455.001z" />
    <glyph glyph-name="q" unicode="q" horiz-adv-x="2093" 
d="M1843 -823h-291.001v1040c-60.667 -97.333 -143.667 -163 -249 -197c-105.333 -32.667 -229.666 -49 -372.999 -49c-160.667 0 -291.667 23.333 -393 70c-96 47.333 -170 115.666 -222 204.999c-51.333 90 -82.666 189.667 -93.999 299c-16 114 -24 253.333 -24 418
c0 220.667 17.667 403.334 53 548.001c33.333 136 105.666 241.333 216.999 316c110 73.333 275.333 110 496 110c142.667 0 262.667 -20.333 360 -61c96 -36 179.333 -105.667 250 -209l-12 242h282v-2732zM1552 967c0 185.333 -9.33496 335.333 -28.002 450
c-21.333 96.667 -69.333 167.667 -144 213c-73.333 46.667 -194.666 70 -363.999 70c-168 0 -288.333 -26 -361 -78c-71.333 -52 -117.666 -125.667 -138.999 -221c-16 -94 -24 -238.667 -24 -434c4 -211.333 13.333 -363 28 -455c20.667 -96 68.667 -171 144 -225
c70 -52 191.333 -78 364 -78c148 0 261.333 26 340 78c76 51.333 126.667 129 152 233c21.333 110 32 259 32 447z" />
    <glyph glyph-name="r" unicode="r" horiz-adv-x="1610" 
d="M1593 1393c0 -57.333 -1.33496 -95.667 -4.00195 -115h-278c2.66699 19.333 4 67 4 143c0 116 -26 194 -78 234c-51.333 43.333 -137.333 65 -258 65c-298 0 -447 -148.667 -447 -446v-1270h-290v1909h282l-12 -221c104.667 177.333 279.334 266 524.001 266
c192.667 0 333.334 -46.333 422.001 -139c90 -90 135 -232 135 -426z" />
    <glyph glyph-name="s" unicode="s" horiz-adv-x="1954" 
d="M1790 561c0 -166.667 -23.3389 -290.995 -70.0059 -372.995c-49.333 -82.667 -129.666 -140 -240.999 -172c-113.333 -32.667 -274.666 -49 -483.999 -49c-161.333 0 -292.333 8.33301 -393 25c-100 16 -182 46 -246 90c-62.667 46 -107.667 110 -135 192
c-27.333 80 -41 190.667 -41 332h275c0 -113.333 16.333 -200.666 49 -261.999c28.667 -58 80.334 -97.667 155.001 -119s181.334 -32 320.001 -32c152 0 262.667 9.33301 332 28c74 17.333 124.333 51.666 151 102.999c27.333 46 41 121 41 225c0 112 -34 188.333 -102 229
c-66.667 45.333 -195 70 -385 74c-169.333 4 -312.666 20.333 -429.999 49c-119.333 25.333 -217.666 74.666 -294.999 147.999c-74 72.667 -111 180.334 -111 323.001c0 156.667 23.333 274 70 352c40.667 82 115.667 139.333 225 172c112 33.333 266.333 50 463 50
c178.667 0 320.667 -11 426 -33c116.667 -20.667 211 -64.334 283 -131.001c70.667 -72 106 -170.333 106 -295c0 -4.66699 -0.666992 -14.334 -2 -29.001s-2 -28.334 -2 -41.001h-291c0 110 -31.333 188 -94 234c-62 46 -195.667 69 -401 69c-146 0 -254 -8 -324 -24
c-68 -12.667 -114.333 -40 -139 -82c-22 -38.667 -33 -100 -33 -184c0 -68 6.66699 -122.667 20 -164c18 -42.667 42.667 -72.667 74 -90c44 -20 93.333 -33.667 148 -41c30.667 -4.66699 134.334 -14.334 311.001 -29.001c173.333 -10.667 320.666 -28.334 441.999 -53.001
c100.667 -25.333 180 -74.666 238 -147.999c60 -72.667 90 -187.334 90 -344.001z" />
    <glyph glyph-name="t" unicode="t" horiz-adv-x="1417" 
d="M1376 676c0 -196.667 -12.333 -341.334 -37 -434.001c-24 -95.333 -74.333 -165 -151 -209c-78.667 -41.333 -197.667 -62 -357 -62c-139.333 0 -251 16.333 -335 49c-81.333 34.667 -137.333 89.334 -168 164.001c-36 76 -54 184 -54 324v1175h-249v226h249v463h291
v-463h738v-226h-738v-1175c0 -73.333 7 -132 21 -176c10.667 -40.667 36.667 -72 78 -94c46.667 -19.333 104 -29 172 -29c80.667 0 138 9.66699 172 29c40 18 65.667 48 77 90c14 34 21 94 21 180v168h270z" />
    <glyph glyph-name="u" unicode="u" horiz-adv-x="2077" 
d="M1831 0l-265.999 -0.00292969v254c-70 -108.667 -157.333 -185 -262 -229c-112.667 -36 -244 -54 -394 -54c-148.667 0 -274.334 23.333 -377.001 70c-93.333 46.667 -165.666 120.334 -216.999 221.001c-42 90.667 -65 216.334 -69 377.001v1274h291v-1274
c0 -117.333 12 -204.666 36 -261.999c26 -64 68.333 -107.667 127 -131c61.333 -24.667 151.666 -37 270.999 -37c144 0 260 17.667 348 53c82.667 37.333 140 97.333 172 180c32.667 81.333 49 196 49 344v1127h291v-1913z" />
    <glyph glyph-name="v" unicode="v" horiz-adv-x="1737" 
d="M1712 1913l-639 -1913h-401l-639 1913h311l524 -1696l533 1696h311z" />
    <glyph glyph-name="w" unicode="w" horiz-adv-x="2781" 
d="M2757 1913l-537 -1913h-414l-413 1708l-414 -1708h-422l-520 1913h295l438 -1720l422 1720h410l417 -1720l439 1720h299z" />
    <glyph glyph-name="x" unicode="x" horiz-adv-x="1737" 
d="M1716 0h-348l-496 770l-495 -770h-348l684 995l-611 918h336l434 -701l435 701h335l-610 -918z" />
    <glyph glyph-name="y" unicode="y" horiz-adv-x="1651" 
d="M1634 1913l-540.001 -2024c-58 -230 -133.333 -412.667 -226 -548c-90.667 -136.667 -232.667 -205 -426 -205c-35.333 0 -80.333 6.66699 -135 20v234c44.667 -8.66699 80.334 -13 107.001 -13c69.333 0 126.5 20.5 171.5 61.5s81.833 92.833 110.5 155.5
c32.667 74 56 145 70 213c8.66699 39.333 16.5 73.166 23.5 101.499l21.5 91.5h-102l-693 1913h291l598 -1704l434 1704h295z" />
    <glyph glyph-name="z" unicode="z" horiz-adv-x="1651" 
d="M1561 0h-1475v266l1139 1422h-1045v225h1381v-266l-1143 -1409h1143v-238z" />
    <glyph glyph-name="braceleft" unicode="{" horiz-adv-x="2048" 
d="M1499 -766c-145.333 0 -251.67 7 -319.003 21c-84 12 -155 39 -213 81c-58.667 44.667 -101 105 -127 181c-27.333 89.333 -41 198.333 -41 327v656c0 104.667 -16.333 190.667 -49 258c-33.333 61.333 -96.333 106.333 -189 135v242c158.667 44.667 238 170 238 376v717
c0 148 24.333 262.667 73 344c56.667 86 129.334 142 218.001 168c93.333 30 210.666 45 351.999 45c30 0 49 -1.33301 57 -4v-278c-93.333 -4 -169.666 -16.333 -228.999 -37c-54 -25.333 -95 -63.666 -123 -115c-24.667 -52 -37 -128.333 -37 -229v-656
c0 -121.333 -15 -215.333 -45 -282c-28 -67.333 -88 -126 -180 -176c84.667 -49.333 143.334 -112.5 176.001 -189.5s49 -172.5 49 -286.5v-634c0 -102.667 12.333 -182 37 -238c20 -56 59.667 -97 119 -123c54.667 -24.667 132.334 -37 233.001 -37v-266z" />
    <glyph glyph-name="bar" unicode="|" horiz-adv-x="2048" 
d="M1184 -680h-312v3412h312v-3412z" />
    <glyph glyph-name="braceright" unicode="}" horiz-adv-x="2048" 
d="M1491 885c-88 -24.667 -150.666 -68.332 -187.999 -130.999c-33.333 -62.667 -50 -144.667 -50 -246v-717c0 -212.667 -51.667 -358.667 -155 -438c-104.667 -79.333 -267.334 -119 -488.001 -119c-27.333 0 -46.333 1.33301 -57 4v279c143.333 4 243 32.667 299 86
c60 52 90 150.333 90 295v655c0 125.333 15 219.666 45 282.999c30 72 88.667 130.667 176 176c-84 48 -142.667 109.333 -176 184c-30 80.667 -45 177.667 -45 291v635c0 102 -12.333 181 -37 237c-25.333 56.667 -65 96.334 -119 119c-49.333 23.333 -127 37 -233 41v266
c178 0 316 -12.333 414 -37c91.333 -19.333 162.333 -75.333 213 -168c48.667 -85.333 73 -220.333 73 -405v-655c0 -108 16.667 -192.667 50 -254c31.333 -64 94 -110.667 188 -140v-241z" />
    <glyph glyph-name="asciitilde" unicode="~" horiz-adv-x="2048" 
d="M2003 1536c-63.333 -132 -142.669 -241.499 -238.002 -328.499s-204.333 -130.5 -327 -130.5c-60.667 0 -125 11 -193 33c-50 19.333 -123.667 55 -221 107c-68.667 36 -142.334 72.667 -221.001 110c-62 24.667 -125 41 -189 49
c-95.333 0 -171.666 -27.333 -228.999 -82c-63.333 -54.667 -120.666 -129.667 -171.999 -225l-172 135c138.667 306 324.334 459 557.001 459c74.667 0 143 -13.667 205 -41c72 -27.333 149.667 -64.333 233 -111c88.667 -48.667 165.334 -85.334 230.001 -110.001
c60 -24.667 125.333 -37 196 -37c79.333 0 147.666 28.667 204.999 86c55.333 51.333 110 125 164 221z" />
    <glyph glyph-name="nonbreakingspace" unicode="&#xa0;" horiz-adv-x="2048" 
 />
    <glyph glyph-name="exclamdown" unicode="&#xa1;" horiz-adv-x="983" 
d="M635 2359h-299v373h299v-373zM655 0h-336l33 1978h262z" />
    <glyph glyph-name="cent" unicode="&#xa2;" 
d="M2040 995c0 -172 -21.998 -309.667 -65.998 -413c-46.667 -107.333 -120.334 -184 -221.001 -230c-101.333 -48.667 -242 -73 -422 -73v-291h-233v291c-204.667 4 -363 47.667 -475 131c-105.333 80.667 -172.333 188.334 -201 323.001c-32.667 130 -49 307.667 -49 533
c0 187.333 17.667 358 53 512c37.333 140.667 109.666 252.667 216.999 336c107.333 81.333 259 122 455 122v267h233v-267c236.667 -4 407.334 -54.333 512.001 -151c106.667 -94 160 -258 160 -492h-279c-4 109.333 -14.667 192.666 -32 249.999
c-16.667 57.333 -52.334 98.333 -107.001 123c-55.333 26 -140 41 -254 45v-1503c122 4 215 23 279 57c57.333 31.333 98.333 79.333 123 144c18.667 60.667 28 156 28 286h279zM1098 512v1503c-126 -8 -221.667 -38 -287 -90c-57.333 -49.333 -94.333 -120.333 -111 -213
c-11.333 -67.333 -19.333 -214.666 -24 -441.999c0 -221.333 11 -384 33 -488c25.333 -104 63.333 -169.333 114 -196c54 -33.333 145.667 -58 275 -74z" />
    <glyph glyph-name="sterling" unicode="&#xa3;" horiz-adv-x="1307" 
d="M1135 -29c0 -121.333 -19.333 -214 -58 -278c-37.333 -62.667 -112.333 -94 -225 -94h-41c-10.667 2.66699 -24.334 4 -41.001 4v151c66.667 4 114.334 20.333 143.001 49c24.667 24.667 37 74 37 148c0 24.667 -1.33301 41 -4 49h-135v373h324v-402zM561 -29
c0 -122.667 -19 -215.333 -57 -278c-37.333 -62.667 -112.333 -94 -225 -94h-41c-11.333 2.66699 -25 4 -41 4v151c65.333 4 113 20.333 143 49c24.667 24.667 37 74 37 148c0 24.667 -1.33301 41 -4 49h-135v373h323v-402z" />
    <glyph glyph-name="currency" unicode="&#xa4;" horiz-adv-x="2060" 
d="M2060 2732l-1855 -2732h-205l1843 2732h217z" />
    <glyph glyph-name="yen" unicode="&#xa5;" 
d="M2372 2732l-533 -868h373v-254h-529l-249 -406h778v-254h-815v-950h-307v950h-791v254h754l-242 406h-512v254h360l-520 868h357l757 -1278l754 1278h365z" />
    <glyph glyph-name="brokenbar" unicode="&#xa6;" 
d="M2220 3027l-41 -234c-54.667 6 -124.334 9 -209 9c-122.667 0 -206 -22 -250 -66c-46.667 -46.667 -79.334 -127.334 -98.001 -242.001l-78 -446h504l-41 -233h-504l-319 -1799c-30 -160.667 -65.667 -276.667 -107 -348
c-40.667 -77.333 -104.667 -134.666 -192 -171.999c-81.333 -32.667 -203 -49 -365 -49c-91.333 0 -167.666 5.33301 -228.999 16l41 234c83.333 -10.667 153 -16 209 -16c118.667 0 202 21.667 250 65c44 44 76.667 126 98 246l323 1823h-372l41 233h372l74 422
c30 150.667 68.333 265.334 115 344c41.333 75.333 105.333 132.666 192 172c85.333 32.667 201.333 49 348 49c90.667 0 170 -2.66699 238 -8z" />
    <glyph glyph-name="section" unicode="&#xa7;" 
d="M2204 -78c0 -151.333 -14.999 -267.338 -44.999 -348.005c-24 -85.333 -73.333 -156.333 -148 -213c-77.333 -54.667 -170 -91.667 -278 -111c-122.667 -21.333 -277 -32 -463 -32c-170 0 -319 6.66699 -447 20c-104.667 12 -197.334 43.333 -278.001 94
c-75.333 55.333 -132.666 132 -171.999 230c-36 106.667 -54 244.334 -54 413.001h279v-114c0 -112 19 -195.333 57 -250c39.333 -52 105 -86.333 197 -103c86 -16 225.333 -24 418 -24c176.667 0 306.334 11 389.001 33c94.667 24 163 65 205 123
c40.667 52.667 61 130.334 61 233.001c-4 123.333 -15 204 -33 242c-14.667 48.667 -47.334 85.334 -98.001 110.001c-51.333 28.667 -130.666 56 -237.999 82l-839 221c-123.333 35.333 -210.666 75 -261.999 119c-55.333 42.667 -93.666 101.334 -114.999 176.001
c-22 77.333 -33 175.666 -33 294.999c0 140 22 248 66 324c43.333 74.667 125 126.334 245 155.001c-79.333 52.667 -135 122.334 -167 209.001c-27.333 89.333 -41 190.333 -41 303c0 144 15 260.333 45 349c27.333 84.667 75 148.667 143 192c61.333 45.333 146 74 254 86
c100 16.667 239.333 25 418 25c237.333 0 412 -13.667 524 -41c117.333 -24.667 204.666 -89 261.999 -193c57.333 -100.667 86 -264.334 86 -491h-270c0 120.667 -7 206.667 -21 258c-16 60.667 -44.667 105.667 -86 135c-34.667 27.333 -92 47.666 -172 61
c-63.333 11.333 -171 17 -323 17c-145.333 0 -252 -5.66699 -320 -17c-74.667 -8 -132 -24.333 -172 -49c-34 -28.667 -58.333 -64 -73 -106c-11.333 -39.333 -17 -103.666 -17 -192.999c0 -86 5.66699 -148.667 17 -188c13.333 -50 32.333 -85.667 57 -107
c20 -20 46 -37.667 78 -53c3.33301 -0.666992 75.666 -22.334 216.999 -65.001l610 -185c148 -40.667 257.333 -77.334 328 -110.001c69.333 -39.333 119.666 -92.666 150.999 -159.999c36 -72 54 -178.667 54 -320c0 -122 -19.333 -221.667 -58 -299
c-42.667 -80.667 -112.334 -142 -209.001 -184c114 -48.667 187.667 -115.667 221 -201c33.333 -82.667 50 -198.667 50 -348zM1942 982.995c0 90.667 -27.333 155 -82 193c-62 38.667 -146.667 74 -254 106l-590 172c-76.667 30 -143.667 45 -201 45
c-158 0 -237 -118.667 -237 -356c0 -86 8 -151.667 24 -197c21.333 -45.333 51.333 -79.333 90 -102c44 -22.667 105.667 -46 185 -70l618 -172c96.667 -24.667 161 -37 193 -37c169.333 0 254 139.333 254 418z" />
    <glyph glyph-name="dieresis" unicode="&#xa8;" horiz-adv-x="2048" 
d="M1548 2105h-323v271h323v-271zM819 2105h-319v271h319v-271z" />
    <glyph glyph-name="copyright" unicode="&#xa9;" horiz-adv-x="3207" 
d="M3015 1364c0 -256 -64.3311 -491.001 -192.998 -705.001c-122.667 -216 -293.334 -388 -512.001 -516c-214.667 -128 -449.334 -192 -704.001 -192c-258 0 -493 64 -705 192c-216 122.667 -388 293.334 -516 512.001s-192 455 -192 709c0 252.667 64 489 192 709
c126.667 216.667 298.667 388.667 516 516c210 125.333 445 188 705 188c188 0 368 -37 540 -111c176 -74.667 327.667 -175.667 455 -303c126 -126 227 -277.333 303 -454c74 -172 111 -353.667 111 -545zM2843 1364c0 223.333 -54.668 431 -164.001 623
c-112.667 194.667 -263 348.667 -451 462c-190 112 -397.333 168 -622 168c-220.667 0 -428.334 -56 -623.001 -168c-191.333 -116 -341.666 -268.667 -450.999 -458c-111.333 -195.333 -167 -404.333 -167 -627c0 -166.667 31.333 -326.334 94 -479.001
c64.667 -151.333 154.667 -286.666 270 -405.999c118.667 -118.667 252.334 -210 401.001 -274c152 -66 310.667 -99 476 -99c223.333 0 429.333 57.667 618 173c187.333 110.667 339 264.667 455 462c109.333 192 164 399.667 164 623zM2359 1212
c-7.33301 -124.667 -45.334 -243.331 -114.001 -355.998c-62.667 -96.667 -151.667 -177.334 -267 -242.001c-109.333 -54.667 -230.666 -82 -363.999 -82c-154 0 -290.667 37 -410 111c-124 77.333 -215.333 177 -274 299c-66 126.667 -99 266 -99 418
c0 152.667 33 294.667 99 426c60.667 130.667 150.667 233 270 307c120.667 76.667 260 115 418 115c116.667 0 227.334 -22 332.001 -66c106.667 -47.333 194 -112.666 262 -195.999c68.667 -86 109.667 -187.333 123 -304h-168c-30.667 130 -96.334 225.667 -197.001 287
c-102 66 -220.667 99 -356 99c-119.333 0 -223 -30.333 -311 -91c-88 -62.667 -152.333 -144.334 -193 -245.001c-46.667 -106.667 -70 -217.334 -70 -332.001c0 -118 23.333 -226 70 -324c41.333 -98 107 -175.667 197 -233c88.667 -60 191 -90 307 -90
c156 0 287 45 393 135c102.667 86 164 207.333 184 364h168z" />
    <glyph glyph-name="ordfeminine" unicode="&#xaa;" 
d="M1769 1573l-192.001 -0.00195312l8 94c-56 -51.333 -110.667 -82.666 -164 -93.999c-62 -14 -137 -21 -225 -21c-106.667 0 -194 9.66699 -262 29c-68 15.333 -122.667 52.333 -164 111c-38 54.667 -57 132.334 -57 233.001c0 142 41 237.667 123 287
c78.667 46 197.334 69 356.001 69c94 0 166.333 -5.33301 217 -16c56.667 -8.66699 107.334 -33.334 152.001 -74v103c0 94 -8.33301 162.333 -25 205c-15.333 39.333 -45.333 65 -90 77c-48.667 14 -121 21 -217 21c-92.667 0 -159.667 -9.66699 -201 -29
c-46.667 -16.667 -70 -61.667 -70 -135c0 -22 1.66699 -37 5 -45h-205c0 13.333 -1.33301 27 -4 41c0 96 21.667 165.667 65 209c48 48 104 78 168 90c88 10.667 172.667 16 254 16c126.667 0 225 -8 295 -24c71.333 -16.667 128.666 -55 171.999 -115
c40.667 -56.667 61 -148 61 -274v-758zM1909 1151h-1307v160h1307v-160zM1569 1917c0 92.667 -25.999 151.333 -77.999 176c-48.667 24.667 -129.334 37 -242.001 37h-53c-90 0 -151.333 -5.33301 -184 -16c-39.333 -14 -64 -33.333 -74 -58
c-6 -16 -11.333 -52.667 -16 -110c0 -71.333 10.667 -124.666 32 -159.999c20.667 -32.667 50.667 -53.334 90 -62.001c36.667 -8 98.334 -12 185.001 -12c105.333 0 188.666 12.333 249.999 37c60 26 90 82 90 168z" />
    <glyph glyph-name="guillemotleft" unicode="&#xab;" horiz-adv-x="1831" 
d="M1626 131l-201 -131l-548 1053l491 1040l209 -127l-430 -913zM954 131l-200 -131l-549 1053l491 1040l209 -127l-430 -913z" />
    <glyph glyph-name="logicalnot" unicode="&#xac;" horiz-adv-x="2048" 
d="M1909 0h-307v856h-1467v279h1774v-1135z" />
    <glyph glyph-name="registered" unicode="&#xae;" horiz-adv-x="3207" 
d="M3015 1364c0 -256 -64.3311 -491.001 -192.998 -705.001c-122.667 -216 -293.334 -388 -512.001 -516c-214.667 -128 -449.334 -192 -704.001 -192c-258 0 -493 64 -705 192c-216 122.667 -388 293.334 -516 512.001s-192 455 -192 709c0 252.667 64 489 192 709
c126.667 216.667 298.667 388.667 516 516c210 125.333 445 188 705 188c188 0 368 -37 540 -111c176 -74.667 327.667 -175.667 455 -303c126 -126 227 -277.333 303 -454c74 -172 111 -353.667 111 -545zM2843 1364c0 223.333 -54.668 431 -164.001 623
c-112.667 194.667 -263 348.667 -451 462c-190 112 -397.333 168 -622 168c-220.667 0 -428.334 -56 -623.001 -168c-191.333 -116 -341.666 -268.667 -450.999 -458c-111.333 -195.333 -167 -404.333 -167 -627c0 -166.667 31.333 -326.334 94 -479.001
c64.667 -151.333 154.667 -286.666 270 -405.999c118.667 -118.667 252.334 -210 401.001 -274c152 -66 310.667 -99 476 -99c223.333 0 429.333 57.667 618 173c187.333 110.667 339 264.667 455 462c109.333 192 164 399.667 164 623zM2281 1724
c0 -90.667 -3.99902 -163 -11.999 -217c-8 -51.333 -32.667 -97.666 -74 -138.999c-42 -38 -107.333 -65.333 -196 -82c174.667 -12 262 -118.333 262 -319v-422h-184v381c0 106 -24.667 179.667 -74 221c-47.333 43.333 -128 65 -242 65h-565v-667h-188v1663h790
c173.333 0 297.666 -35.667 372.999 -107c73.333 -72.667 110 -198.334 110 -377.001zM2097 1679c0 138 -17.667 232.333 -53 283c-31.333 54.667 -112 82 -242 82h-606v-676h541c133.333 0 226 22 278 66c54.667 42 82 123.667 82 245z" />
    <glyph glyph-name="degree" unicode="&#xb0;" horiz-adv-x="2048" 
d="M1602 2134c0 -106.667 -26 -202.333 -78 -287c-53.333 -88.667 -124.333 -159.667 -213 -213c-88 -52 -183.667 -78 -287 -78c-100.667 0 -195 26 -283 78c-87.333 50 -158.333 118.333 -213 205c-54.667 92.667 -82 187 -82 283c0 108.667 24.667 208.334 74 299
c52 88.667 121.667 161 209 217c84.667 52 183 78 295 78c106 0 203 -26 291 -78c87.333 -53.333 157 -125.666 209 -217c52 -88 78 -183.667 78 -287zM1450 2134c0 80 -19 152.334 -57 217.001c-37.333 66.667 -89.333 118.667 -156 156
c-65.333 40.667 -136.333 61 -213 61s-147.667 -20.333 -213 -61c-64.667 -36 -116.667 -89.333 -156 -160c-38 -68 -57 -140.333 -57 -217c0 -114.667 42.333 -214.334 127 -299.001c80.667 -80.667 179 -123 295 -127c117.333 0 218.333 42.333 303 127
s127 185.667 127 303z" />
    <glyph glyph-name="plusminus" unicode="&#xb1;" horiz-adv-x="2048" 
d="M1954 1360h-844v-778h-176v778h-840v172h840v786h176v-786h844v-172zM1954 229h-1860v172h1860v-172z" />
    <glyph glyph-name="twosuperior" unicode="&#xb2;" 
d="M2040 1741h-631v-2478h-299v2478h-635v237h635v754h299v-754h631v-237z" />
    <glyph glyph-name="threesuperior" unicode="&#xb3;" 
d="M2040 164h-631v-901h-299v901h-635v237h635v1233h-635v238h635v860h299v-860h631v-238h-631v-1233h631v-237z" />
    <glyph glyph-name="mu" unicode="&#xb5;" horiz-adv-x="2191" 
d="M1933 0l-294.999 0.000976562v381c-51.333 -132.667 -125 -236.334 -221 -311.001c-100 -79.333 -214.667 -119 -344 -119c-223.333 0 -398 99.667 -524 299v-930h-295v2638h295v-1106c0 -113.333 8 -209 24 -287c16.667 -77.333 53.667 -147 111 -209
c107.333 -114.667 239.666 -172 396.999 -172c117.333 0 218.333 34.333 303 103c86 72 149 160.667 189 266c43.333 106.667 65 218.667 65 336v1069h295v-1958z" />
    <glyph glyph-name="paragraph" unicode="&#xb6;" 
d="M2281 -766h-273.998v3240h-324v-3240h-274v1835h-434c-211.333 0 -382 16.333 -512 49c-128 34.667 -222.333 84 -283 148c-58 58 -100.333 137 -127 237c-18.667 109.333 -28 235 -28 377c0 175.333 10.667 317.333 32 426c24 104 66.333 188.667 127 254
c63.333 58.667 157.666 102.334 282.999 131c121.333 24.667 290.666 37 507.999 37h1306v-3494zM1409 1327v1147h-618c-142.667 0 -244 -15 -304 -45c-66.667 -30 -111.667 -83.333 -135 -160c-24.667 -80 -37 -201.333 -37 -364c0 -148.667 18 -267.667 54 -357
c37.333 -82.667 101.333 -140 192 -172c89.333 -32.667 219 -49 389 -49h459z" />
    <glyph glyph-name="periodcentered" unicode="&#xb7;" 
d="M1417 811h-323v373h323v-373z" />
    <glyph glyph-name="cedilla" unicode="&#xb8;" horiz-adv-x="827" 
d="M582 -29c0 -128 -19.332 -220.666 -57.999 -277.999c-37.333 -62.667 -112.333 -94 -225 -94h-41c-10.667 2.66699 -24.334 4 -41.001 4v151c68 4 114.333 20.333 139 49c27.333 23.333 41 72.666 41 147.999c0 24.667 -1.33301 41 -4 49h-135v373h324v-402z" />
    <glyph glyph-name="onesuperior" unicode="&#xb9;" horiz-adv-x="4387" 
d="M3994 2081c0 -150.667 -11 -260 -33 -328c-21.333 -74.667 -67.666 -132 -139 -172c-72 -38 -185.333 -57 -340 -57c-137.333 0 -246.666 16.333 -328 49c-83.333 33.333 -143.333 86.666 -180 159.999c-38.667 80.667 -58 188.334 -58 323.001v103
c0 158.667 13.667 276 41 352c27.333 76.667 80.666 134 160 172c73.333 32.667 186.666 49 340 49c150.667 0 262.667 -16.333 336 -49c78 -37.333 131.333 -96 160 -176c27.333 -76 41 -196.333 41 -361v-65zM4108 1122h-1306v160h1306v-160zM2593 0h-500l-1536 2470
v-2470h-299v2732h500l1536 -2494v2494h299v-2732zM3789 2056v152c0 128.667 -15 221.334 -45 278c-31.333 54.667 -108 82 -230 82h-90c-119.333 0 -195.666 -15 -229 -45c-49.333 -41.333 -74 -143.666 -74 -306.999v-57v-115c0 -160.667 23.333 -264.334 70 -311.001
c34 -30 91.333 -45 172 -45c96.667 0 171.667 4 225 12c52 8 94.333 24.333 127 49c26 22.667 45 58 57 106c11.333 40 17 107 17 201z" />
    <glyph glyph-name="ordmasculine" unicode="&#xba;" 
d="M1794 2109c0 -154 -11.001 -263 -33.001 -327c-20 -74.667 -66.333 -132 -139 -172c-77.333 -38.667 -190.666 -58 -339.999 -58c-136 0 -245.333 16.667 -328 50c-76 26 -136 80.333 -180 163c-38 76 -57 182.667 -57 320v102c0 154.667 15 272.334 45 353
c22.667 76 74.667 133.333 156 172c74.667 32.667 187.667 49 339 49c148 0 261.333 -16.333 340 -49c75.333 -38 127.333 -97 156 -177c27.333 -72.667 41 -192.667 41 -360v-66zM1909 1151h-1307v160h1307v-160zM1589 2085v150.998c0 133.333 -16.333 226.333 -49 279
c-30 54.667 -105 82 -225 82h-90c-114 0 -190.667 -15 -230 -45c-44.667 -37.333 -69 -139.666 -73 -306.999v-58v-114c0 -162 23 -266 69 -312c35.333 -30 92.666 -45 171.999 -45c129.333 0 222.333 8.33301 279 25c58.667 16.667 98.334 49.334 119.001 98.001
c18.667 46 28 128 28 246z" />
    <glyph glyph-name="guillemotright" unicode="&#xbb;" horiz-adv-x="1831" 
d="M1626 1053l-553 -1053l-196 131l475 922l-430 913l213 127zM954 1053l-553 -1053l-196 131l475 922l-430 913l213 127z" />
    <glyph glyph-name="onehalf" unicode="&#xbd;" horiz-adv-x="2048" 
d="M1794 745l-119 -118l-651 647l-651 -651l-123 122l651 652l-647 647l119 123l647 -651l651 651l123 -123l-651 -651z" />
    <glyph glyph-name="threequarters" unicode="&#xbe;" horiz-adv-x="2445" 
d="M2200 0h-324v373h324v-373zM1384 0h-323v373h323v-373zM569 0h-323v373h323v-373z" />
    <glyph glyph-name="questiondown" unicode="&#xbf;" horiz-adv-x="2126" 
d="M1352 1540h-324v373h324v-373zM1909 37c0 -189.333 -9.66211 -332.67 -28.9951 -430.003c-15.333 -104.667 -52.333 -192 -111 -262c-56.667 -65.333 -138.334 -114.666 -245.001 -147.999c-114.667 -30 -259.334 -45 -434.001 -45
c-160.667 0 -293.334 8.33301 -398.001 25c-106 20.667 -194.667 54.667 -266 102c-72 48 -126.833 123 -164.5 225s-56.5 233.333 -56.5 394c0 202 24.667 365.667 74 491c53.333 124 158.333 214 315 270c19.333 7.33301 44.833 16 76.5 26s62.167 20.667 91.5 32
c52.667 21.333 97.667 43 135 65c40 24.667 72.667 56.334 98 95.001c24.667 40.667 37 91 37 151v49c2.66699 14 4 29 4 45h299c0 -140.667 -9.33301 -245.667 -28 -315c-16.667 -72.667 -55 -135.667 -115 -189c-67.333 -53.333 -160.333 -101 -279 -143
c-140 -54 -230 -95 -270 -123c-50.667 -28.667 -89 -75 -115 -139c-24 -60.667 -36 -155 -36 -283c0 -118.667 8 -212.667 24 -282c15.333 -66 42.666 -116.667 81.999 -152c39.333 -32 92.666 -53.667 159.999 -65c62.667 -8.66699 159.667 -13 291 -13
c130 0 237.667 8.33301 323 25c80 16.667 141.333 56.334 184 119.001c44 58.667 66 155.667 66 291v184h287z" />
    <glyph glyph-name="Agrave" unicode="&#xc0;" horiz-adv-x="2626" 
d="M2548 0h-324l-213 561h-1380l-209 -561h-328l996 2732h438zM1921 827l-606 1680l-602 -1680h1208z" />
    <glyph glyph-name="Agrave" unicode="&#x410;" horiz-adv-x="2626" 
d="M2548 0h-324l-213 561h-1380l-209 -561h-328l996 2732h438zM1921 827l-606 1680l-602 -1680h1208z" />
    <glyph glyph-name="Aacute" unicode="&#xc1;" horiz-adv-x="2523" 
d="M2298 786c0 -171.333 -23.333 -318.668 -70 -442.001c-44.667 -114 -121 -200 -229 -258c-111.333 -57.333 -256 -86 -434 -86h-1303v2732h1852v-270h-1549v-803h815c205.333 0 363.666 -13.667 474.999 -41c116.667 -28.667 208.334 -73.667 275.001 -135
c62.667 -64 106.334 -150 131 -258c24.667 -109.333 37 -255.666 37 -438.999zM1987 843.998c0 126 -12.333 226.999 -37 302.999c-30 77.333 -71 132 -123 164c-50 34.667 -118.333 56.334 -205 65.001c-71.333 11.333 -182 17 -332 17h-725v-1123h971
c130 0 228.333 20.667 295 62c64 40.667 106.333 100.667 127 180c19.333 75.333 29 186 29 332z" />
    <glyph glyph-name="Aacute" unicode="&#x411;" horiz-adv-x="2523" 
d="M2298 786c0 -171.333 -23.333 -318.668 -70 -442.001c-44.667 -114 -121 -200 -229 -258c-111.333 -57.333 -256 -86 -434 -86h-1303v2732h1852v-270h-1549v-803h815c205.333 0 363.666 -13.667 474.999 -41c116.667 -28.667 208.334 -73.667 275.001 -135
c62.667 -64 106.334 -150 131 -258c24.667 -109.333 37 -255.666 37 -438.999zM1987 843.998c0 126 -12.333 226.999 -37 302.999c-30 77.333 -71 132 -123 164c-50 34.667 -118.333 56.334 -205 65.001c-71.333 11.333 -182 17 -332 17h-725v-1123h971
c130 0 228.333 20.667 295 62c64 40.667 106.333 100.667 127 180c19.333 75.333 29 186 29 332z" />
    <glyph glyph-name="Acircumflex" unicode="&#xc2;" horiz-adv-x="2523" 
d="M2347 786c0 -172.667 -20.333 -315.999 -61 -429.999c-40.667 -112.667 -113.334 -201.334 -218 -266.001c-107.333 -60 -246.333 -90 -417 -90h-1389v2732h1311c170 0 303.667 -20.333 401 -61c100 -40 175.333 -109.667 226 -209c46 -101.333 69 -236.666 69 -406
c0 -113.333 -8 -209 -24 -287c-14 -80 -47 -145.333 -99 -196c-44.667 -56.667 -118.334 -103 -221.001 -139c122.667 -34 211.334 -76.333 266.001 -127c62 -54 103 -122.333 123 -205c22 -82 33 -187.333 33 -316zM1962 2032c0 113.333 -12.334 200.665 -37.001 261.999
c-23.333 58.667 -65.666 102.334 -126.999 131.001c-62.667 24.667 -148.667 37 -258 37h-975v-922h865c142 0 249.667 13.667 323 41c74 28.667 127.333 78 160 148c32.667 68 49 169 49 303zM2040 770c0 150 -15 256.667 -45 320c-28 66 -77.333 113.667 -148 143
c-65.333 27.333 -170.333 41 -315 41h-967v-1004h840c180 0 309.667 9.66699 389 29c86 16 147.333 59.667 184 131c41.333 74.667 62 188 62 340z" />
    <glyph glyph-name="Acircumflex" unicode="&#x412;" horiz-adv-x="2523" 
d="M2347 786c0 -172.667 -20.333 -315.999 -61 -429.999c-40.667 -112.667 -113.334 -201.334 -218 -266.001c-107.333 -60 -246.333 -90 -417 -90h-1389v2732h1311c170 0 303.667 -20.333 401 -61c100 -40 175.333 -109.667 226 -209c46 -101.333 69 -236.666 69 -406
c0 -113.333 -8 -209 -24 -287c-14 -80 -47 -145.333 -99 -196c-44.667 -56.667 -118.334 -103 -221.001 -139c122.667 -34 211.334 -76.333 266.001 -127c62 -54 103 -122.333 123 -205c22 -82 33 -187.333 33 -316zM1962 2032c0 113.333 -12.334 200.665 -37.001 261.999
c-23.333 58.667 -65.666 102.334 -126.999 131.001c-62.667 24.667 -148.667 37 -258 37h-975v-922h865c142 0 249.667 13.667 323 41c74 28.667 127.333 78 160 148c32.667 68 49 169 49 303zM2040 770c0 150 -15 256.667 -45 320c-28 66 -77.333 113.667 -148 143
c-65.333 27.333 -170.333 41 -315 41h-967v-1004h840c180 0 309.667 9.66699 389 29c86 16 147.333 59.667 184 131c41.333 74.667 62 188 62 340z" />
    <glyph glyph-name="Atilde" unicode="&#xc3;" horiz-adv-x="1987" 
d="M1950 2458h-1385v-2458h-307v2732h1692v-274z" />
    <glyph glyph-name="Atilde" unicode="&#x413;" horiz-adv-x="1987" 
d="M1950 2458h-1385v-2458h-307v2732h1692v-274z" />
    <glyph glyph-name="Adieresis" unicode="&#xc4;" horiz-adv-x="2757" 
d="M2662 -442h-274.001v290c0 101.333 -38.333 152 -115 152h-1732c-41.333 -4 -68.666 -17.667 -81.999 -41c-14 -20.667 -21 -57.667 -21 -111v-290h-274v708h155c76 52 132 161.333 168 328c36 159.333 54 353.333 54 582v1560h1925v-2470h196v-708zM2163 266v2200h-1319
v-1385c0 -453.333 -65.667 -725 -197 -815h1516z" />
    <glyph glyph-name="Adieresis" unicode="&#x414;" horiz-adv-x="2757" 
d="M2662 -442h-274.001v290c0 101.333 -38.333 152 -115 152h-1732c-41.333 -4 -68.666 -17.667 -81.999 -41c-14 -20.667 -21 -57.667 -21 -111v-290h-274v708h155c76 52 132 161.333 168 328c36 159.333 54 353.333 54 582v1560h1925v-2470h196v-708zM2163 266v2200h-1319
v-1385c0 -453.333 -65.667 -725 -197 -815h1516z" />
    <glyph glyph-name="Aring" unicode="&#xc5;" horiz-adv-x="2167" 
d="M2011 2462h-1458v-930h1389v-266h-1389v-996h1450v-270h-1753v2732h1761v-270z" />
    <glyph glyph-name="Aring" unicode="&#x415;" horiz-adv-x="2167" 
d="M2011 2462h-1458v-930h1389v-266h-1389v-996h1450v-270h-1753v2732h1761v-270z" />
    <glyph glyph-name="AE" unicode="&#xc6;" horiz-adv-x="3965" 
d="M3903 0h-413l-1249 1270h-99v-1270h-307v1270h-98l-1250 -1270h-413l1396 1409l-1249 1323h402l1114 -1192h98v1192h307v-1192h99l1114 1192h401l-1249 -1323z" />
    <glyph glyph-name="AE" unicode="&#x416;" horiz-adv-x="3965" 
d="M3903 0h-413l-1249 1270h-99v-1270h-307v1270h-98l-1250 -1270h-413l1396 1409l-1249 1323h402l1114 -1192h98v1192h307v-1192h99l1114 1192h401l-1249 -1323z" />
    <glyph glyph-name="Ccedilla" unicode="&#xc7;" horiz-adv-x="2486" 
d="M2335 725c0 -228.667 -31.333 -396.67 -94 -504.003c-60 -103.333 -161.333 -171.666 -304 -204.999c-153.333 -30 -373 -45 -659 -45c-299.333 0 -523.333 22 -672 66c-150.667 44.667 -254.334 119.667 -311.001 225c-53.333 108 -82 262.333 -86 463
c0 84.667 1.33301 139.334 4 164.001h291v-160c0 -113.333 8 -200.666 24 -261.999c22.667 -66 58.334 -113.667 107.001 -143c53.333 -36 127 -58 221 -66c74 -8.66699 214.667 -15.334 422 -20.001c226.667 0 389 8 487 24c101.333 21.333 169.666 65 204.999 131
c38.667 68.667 58 179.334 58 332.001c0 145.333 -18 256 -54 332c-37.333 78 -96 131.333 -176 160c-73.333 30 -184 45 -332 45h-798v266h778c152 0 266.667 11 344 33c70 22.667 119 69 147 139c27.333 75.333 41 186 41 332s-16.5 249.667 -49.5 311
s-94.167 102.333 -183.5 123c-94 16 -249.667 24 -467 24c-169.333 0 -299.166 -4 -389.499 -12s-158.5 -25.667 -204.5 -53c-51.333 -24 -85.333 -63.667 -102 -119c-19.333 -45.333 -29 -117.666 -29 -217v-98c-2.66699 -27.333 -4 -60.333 -4 -99h-291
c0 188.667 12.333 337.667 37 447c24 106.667 69 191.334 135 254.001c72.667 60 173.667 102.333 303 127c134.667 24.667 316.334 37 545.001 37c280 0 486 -13.667 618 -41c139.333 -28.667 239 -91.667 299 -189c60.667 -96 91 -249 91 -459
c0 -150 -12.333 -271.333 -37 -364c-25.333 -88 -70.333 -156.333 -135 -205c-70 -48 -164.333 -79.333 -283 -94c191.333 -24.667 323.666 -90.334 396.999 -197.001c71.333 -98 107 -259 107 -483z" />
    <glyph glyph-name="Ccedilla" unicode="&#x417;" horiz-adv-x="2486" 
d="M2335 725c0 -228.667 -31.333 -396.67 -94 -504.003c-60 -103.333 -161.333 -171.666 -304 -204.999c-153.333 -30 -373 -45 -659 -45c-299.333 0 -523.333 22 -672 66c-150.667 44.667 -254.334 119.667 -311.001 225c-53.333 108 -82 262.333 -86 463
c0 84.667 1.33301 139.334 4 164.001h291v-160c0 -113.333 8 -200.666 24 -261.999c22.667 -66 58.334 -113.667 107.001 -143c53.333 -36 127 -58 221 -66c74 -8.66699 214.667 -15.334 422 -20.001c226.667 0 389 8 487 24c101.333 21.333 169.666 65 204.999 131
c38.667 68.667 58 179.334 58 332.001c0 145.333 -18 256 -54 332c-37.333 78 -96 131.333 -176 160c-73.333 30 -184 45 -332 45h-798v266h778c152 0 266.667 11 344 33c70 22.667 119 69 147 139c27.333 75.333 41 186 41 332s-16.5 249.667 -49.5 311
s-94.167 102.333 -183.5 123c-94 16 -249.667 24 -467 24c-169.333 0 -299.166 -4 -389.499 -12s-158.5 -25.667 -204.5 -53c-51.333 -24 -85.333 -63.667 -102 -119c-19.333 -45.333 -29 -117.666 -29 -217v-98c-2.66699 -27.333 -4 -60.333 -4 -99h-291
c0 188.667 12.333 337.667 37 447c24 106.667 69 191.334 135 254.001c72.667 60 173.667 102.333 303 127c134.667 24.667 316.334 37 545.001 37c280 0 486 -13.667 618 -41c139.333 -28.667 239 -91.667 299 -189c60.667 -96 91 -249 91 -459
c0 -150 -12.333 -271.333 -37 -364c-25.333 -88 -70.333 -156.333 -135 -205c-70 -48 -164.333 -79.333 -283 -94c191.333 -24.667 323.666 -90.334 396.999 -197.001c71.333 -98 107 -259 107 -483z" />
    <glyph glyph-name="Egrave" unicode="&#xc8;" horiz-adv-x="2859" 
d="M2593 0h-303v2466l-1536 -2466h-504v2728h303v-2495l1536 2495h504v-2728z" />
    <glyph glyph-name="Egrave" unicode="&#x418;" horiz-adv-x="2859" 
d="M2593 0h-303v2466l-1536 -2466h-504v2728h303v-2495l1536 2495h504v-2728z" />
    <glyph glyph-name="Eacute" unicode="&#xc9;" horiz-adv-x="2851" 
d="M1978 3351c-16 -104 -51.333 -197.167 -106 -279.5s-127 -149.166 -217 -200.5c-81.333 -44.667 -177 -69 -287 -73c-157.333 0 -291 53 -401 159c-110.667 106.667 -181.667 238 -213 394h196c21.333 -99.333 70.666 -181.333 147.999 -246c78 -66 168 -99 270 -99
c99.333 0 188 33 266 99c80.667 63.333 131.334 145.333 152.001 246h192zM2585 0h-304v2470l-1536 -2470h-503v2732h303v-2494l1536 2494h504v-2732z" />
    <glyph glyph-name="Eacute" unicode="&#x419;" horiz-adv-x="2851" 
d="M1978 3351c-16 -104 -51.333 -197.167 -106 -279.5s-127 -149.166 -217 -200.5c-81.333 -44.667 -177 -69 -287 -73c-157.333 0 -291 53 -401 159c-110.667 106.667 -181.667 238 -213 394h196c21.333 -99.333 70.666 -181.333 147.999 -246c78 -66 168 -99 270 -99
c99.333 0 188 33 266 99c80.667 63.333 131.334 145.333 152.001 246h192zM2585 0h-304v2470l-1536 -2470h-503v2732h303v-2494l1536 2494h504v-2732z" />
    <glyph glyph-name="Ecircumflex" unicode="&#xca;" horiz-adv-x="2548" 
d="M2507 0h-418l-1253 1270h-267v-1270h-303v2736h303v-1196h271l1114 1192h405l-1249 -1323z" />
    <glyph glyph-name="Ecircumflex" unicode="&#x41a;" horiz-adv-x="2548" 
d="M2507 0h-418l-1253 1270h-267v-1270h-303v2736h303v-1196h271l1114 1192h405l-1249 -1323z" />
    <glyph glyph-name="Edieresis" unicode="&#xcb;" horiz-adv-x="2814" 
d="M2548 0l-303 -0.00195312v2466h-1319v-1692c0 -210.667 -23.333 -369 -70 -475c-41.333 -107.333 -122 -183.666 -242 -228.999c-118 -46.667 -288.667 -70 -512 -70v266c136 0 240 13.667 312 41c69.333 25.333 122.333 77.333 159 156
c33.333 78.667 50 197.334 50 356.001v1917h1925v-2736z" />
    <glyph glyph-name="Edieresis" unicode="&#x41b;" horiz-adv-x="2814" 
d="M2548 0l-303 -0.00195312v2466h-1319v-1692c0 -210.667 -23.333 -369 -70 -475c-41.333 -107.333 -122 -183.666 -242 -228.999c-118 -46.667 -288.667 -70 -512 -70v266c136 0 240 13.667 312 41c69.333 25.333 122.333 77.333 159 156
c33.333 78.667 50 197.334 50 356.001v1917h1925v-2736z" />
    <glyph glyph-name="Igrave" unicode="&#xcc;" horiz-adv-x="3514" 
d="M3248 0h-303v2511l-1032 -2511h-311l-1041 2486v-2486h-303v2736h533l962 -2343l967 2343h528v-2736z" />
    <glyph glyph-name="Igrave" unicode="&#x41c;" horiz-adv-x="3514" 
d="M3248 0h-303v2511l-1032 -2511h-311l-1041 2486v-2486h-303v2736h533l962 -2343l967 2343h528v-2736z" />
    <glyph glyph-name="Iacute" unicode="&#xcd;" horiz-adv-x="2732" 
d="M2466 0h-303v1253h-1598v-1253h-303v2736h303v-1212h1598v1212h303v-2736z" />
    <glyph glyph-name="Iacute" unicode="&#x41d;" horiz-adv-x="2732" 
d="M2466 0h-303v1253h-1598v-1253h-303v2736h303v-1212h1598v1212h303v-2736z" />
    <glyph glyph-name="Icircumflex" unicode="&#xce;" horiz-adv-x="2810" 
d="M2556 1360c0 -343.333 -13.667 -596 -41 -758c-29.333 -178.667 -81.333 -311 -156 -397c-74 -89.333 -184.333 -151 -331 -185c-158.667 -30 -366.334 -45 -623.001 -45s-464.334 15 -623.001 45c-143.333 33.333 -253.666 95 -330.999 185
c-74.667 90 -126.667 223.667 -156 401c-27.333 166 -41 418.667 -41 758c4.66699 369.333 18.334 622 41.001 758c28.667 172.667 80.667 305 156 397c73.333 90 183.666 151.333 330.999 184c153.333 30 361 45 623 45c266.667 0 474.334 -15 623.001 -45
c142 -32 252.333 -93.333 331 -184c74.667 -86 126.667 -218.333 156 -397c27.333 -166 41 -420 41 -762zM2249 1360c0 293.333 -8.33594 506.332 -25.0029 638.999c-11.333 131.333 -44 235 -98 311c-57.333 72.667 -136.666 119 -237.999 139
c-93.333 22 -254.333 33 -483 33c-229.333 0 -389 -11 -479 -33c-105.333 -20 -184.666 -65 -237.999 -135c-53.333 -69.333 -86 -173 -98 -311c-16.667 -132.667 -25 -345.667 -25 -639c4 -280 12.333 -491.667 25 -635c16 -140.667 48.667 -245.667 98 -315
c56 -72.667 135.333 -119.334 238 -140.001c108.667 -21.333 268.334 -32 479.001 -32c235.333 4.66699 396.333 15.334 483 32.001c106.667 20.667 186 67.334 238 140.001c54 76 86.667 178.333 98 307c16.667 136 25 349 25 639z" />
    <glyph glyph-name="Icircumflex" unicode="&#x41e;" horiz-adv-x="2810" 
d="M2556 1360c0 -343.333 -13.667 -596 -41 -758c-29.333 -178.667 -81.333 -311 -156 -397c-74 -89.333 -184.333 -151 -331 -185c-158.667 -30 -366.334 -45 -623.001 -45s-464.334 15 -623.001 45c-143.333 33.333 -253.666 95 -330.999 185
c-74.667 90 -126.667 223.667 -156 401c-27.333 166 -41 418.667 -41 758c4.66699 369.333 18.334 622 41.001 758c28.667 172.667 80.667 305 156 397c73.333 90 183.666 151.333 330.999 184c153.333 30 361 45 623 45c266.667 0 474.334 -15 623.001 -45
c142 -32 252.333 -93.333 331 -184c74.667 -86 126.667 -218.333 156 -397c27.333 -166 41 -420 41 -762zM2249 1360c0 293.333 -8.33594 506.332 -25.0029 638.999c-11.333 131.333 -44 235 -98 311c-57.333 72.667 -136.666 119 -237.999 139
c-93.333 22 -254.333 33 -483 33c-229.333 0 -389 -11 -479 -33c-105.333 -20 -184.666 -65 -237.999 -135c-53.333 -69.333 -86 -173 -98 -311c-16.667 -132.667 -25 -345.667 -25 -639c4 -280 12.333 -491.667 25 -635c16 -140.667 48.667 -245.667 98 -315
c56 -72.667 135.333 -119.334 238 -140.001c108.667 -21.333 268.334 -32 479.001 -32c235.333 4.66699 396.333 15.334 483 32.001c106.667 20.667 186 67.334 238 140.001c54 76 86.667 178.333 98 307c16.667 136 25 349 25 639z" />
    <glyph glyph-name="Idieresis" unicode="&#xcf;" horiz-adv-x="2732" 
d="M2466 0h-303v2466h-1598v-2466h-303v2736h2204v-2736z" />
    <glyph glyph-name="Idieresis" unicode="&#x41f;" horiz-adv-x="2732" 
d="M2466 0h-303v2466h-1598v-2466h-303v2736h2204v-2736z" />
    <glyph glyph-name="Eth" unicode="&#xd0;" horiz-adv-x="2429" 
d="M2286 1946c0 -181.333 -13.667 -326.333 -41 -435c-29.333 -112 -77.333 -199.333 -144 -262c-68 -64 -160.667 -110.333 -278 -139c-126 -27.333 -277.667 -41 -455 -41h-815v-1069h-299v2732h1302c178.667 0 323.667 -28.667 435 -86
c102.667 -55.333 179 -141.333 229 -258c44 -116.667 66 -264 66 -442zM1978 1888c0 128 -9.33301 239.998 -28 335.998c-21.333 80 -65 138.667 -131 176c-62.667 41.333 -162.334 62 -299.001 62h-963l-4 -1127h733c172.667 0 310.667 11 414 33
c92.667 20.667 162.334 71.334 209.001 152.001c46 78.667 69 201.334 69 368.001z" />
    <glyph glyph-name="Eth" unicode="&#x420;" horiz-adv-x="2429" 
d="M2286 1946c0 -181.333 -13.667 -326.333 -41 -435c-29.333 -112 -77.333 -199.333 -144 -262c-68 -64 -160.667 -110.333 -278 -139c-126 -27.333 -277.667 -41 -455 -41h-815v-1069h-299v2732h1302c178.667 0 323.667 -28.667 435 -86
c102.667 -55.333 179 -141.333 229 -258c44 -116.667 66 -264 66 -442zM1978 1888c0 128 -9.33301 239.998 -28 335.998c-21.333 80 -65 138.667 -131 176c-62.667 41.333 -162.334 62 -299.001 62h-963l-4 -1127h733c172.667 0 310.667 11 414 33
c92.667 20.667 162.334 71.334 209.001 152.001c46 78.667 69 201.334 69 368.001z" />
    <glyph glyph-name="Ntilde" unicode="&#xd1;" horiz-adv-x="2421" 
d="M2327 913c0 -212.667 -12.332 -377.664 -36.999 -494.997c-25.333 -120 -73.333 -211.667 -144 -275c-74.667 -66 -178.334 -111 -311.001 -135c-142.667 -24.667 -339.334 -37 -590.001 -37c-269.333 0 -467.333 15 -594 45c-134 28 -237.833 87 -311.5 177
s-122.5 223.667 -146.5 401c-20.667 172.667 -33 426.667 -37 762c0 333.333 12.333 588.666 37 765.999c24 174.667 73 307 147 397c72 92.667 174.333 152.667 307 180c122.667 30 322 45 598 45c249.333 0 437.666 -13.667 564.999 -41c135.333 -28 235 -74.333 299 -139
c68 -66.667 112 -151.334 132 -254.001c23.333 -100 39.666 -250 49 -450h-295c-18 184.667 -31.667 302 -41 352c-7.33301 54 -33.333 105.667 -78 155c-40.667 40.667 -109 69.667 -205 87c-104.667 13.333 -246.667 20 -426 20c-207.333 0 -361.666 -12.333 -462.999 -37
c-99.333 -24 -171.666 -73 -216.999 -147c-43.333 -62 -72 -161.667 -86 -299c-10.667 -169.333 -16 -381 -16 -635c0 -309.333 5.33301 -522.333 16 -639c13.333 -133.333 42 -233 86 -299c42.667 -70 115 -118 217 -144c98.667 -24 253 -36 463 -36
c186 0 336.333 6.66699 451 20c98 12 170.333 39.333 217 82c50 41.333 82.667 104 98 188c14 95.333 21 223.666 21 384.999h295z" />
    <glyph glyph-name="Ntilde" unicode="&#x421;" horiz-adv-x="2421" 
d="M2327 913c0 -212.667 -12.332 -377.664 -36.999 -494.997c-25.333 -120 -73.333 -211.667 -144 -275c-74.667 -66 -178.334 -111 -311.001 -135c-142.667 -24.667 -339.334 -37 -590.001 -37c-269.333 0 -467.333 15 -594 45c-134 28 -237.833 87 -311.5 177
s-122.5 223.667 -146.5 401c-20.667 172.667 -33 426.667 -37 762c0 333.333 12.333 588.666 37 765.999c24 174.667 73 307 147 397c72 92.667 174.333 152.667 307 180c122.667 30 322 45 598 45c249.333 0 437.666 -13.667 564.999 -41c135.333 -28 235 -74.333 299 -139
c68 -66.667 112 -151.334 132 -254.001c23.333 -100 39.666 -250 49 -450h-295c-18 184.667 -31.667 302 -41 352c-7.33301 54 -33.333 105.667 -78 155c-40.667 40.667 -109 69.667 -205 87c-104.667 13.333 -246.667 20 -426 20c-207.333 0 -361.666 -12.333 -462.999 -37
c-99.333 -24 -171.666 -73 -216.999 -147c-43.333 -62 -72 -161.667 -86 -299c-10.667 -169.333 -16 -381 -16 -635c0 -309.333 5.33301 -522.333 16 -639c13.333 -133.333 42 -233 86 -299c42.667 -70 115 -118 217 -144c98.667 -24 253 -36 463 -36
c186 0 336.333 6.66699 451 20c98 12 170.333 39.333 217 82c50 41.333 82.667 104 98 188c14 95.333 21 223.666 21 384.999h295z" />
    <glyph glyph-name="Ograve" unicode="&#xd2;" horiz-adv-x="2191" 
d="M2126 2458h-881v-2458h-307v2458h-893v274h2081v-274z" />
    <glyph glyph-name="Ograve" unicode="&#x422;" horiz-adv-x="2191" 
d="M2126 2458h-881v-2458h-307v2458h-893v274h2081v-274z" />
    <glyph glyph-name="Oacute" unicode="&#xd3;" horiz-adv-x="2400" 
d="M2335 2736l-967.001 -2310c-119.333 -284 -290 -426 -512 -426h-283v266h181c93.333 0 161.333 19.333 204 58c38.667 26.667 78.334 92 119.001 196l-1011 2216h331l840 -1896l774 1896h324z" />
    <glyph glyph-name="Oacute" unicode="&#x423;" horiz-adv-x="2400" 
d="M2335 2736l-967.001 -2310c-119.333 -284 -290 -426 -512 -426h-283v266h181c93.333 0 161.333 19.333 204 58c38.667 26.667 78.334 92 119.001 196l-1011 2216h331l840 -1896l774 1896h324z" />
    <glyph glyph-name="Ocircumflex" unicode="&#xd4;" horiz-adv-x="3178" 
d="M3002 1212c0 -166.667 -37.999 -310.001 -113.999 -430.001c-81.333 -123.333 -188 -214.666 -320 -273.999c-132.667 -62.667 -280 -94 -442 -94h-389v-414h-303v414h-390c-170 4 -318.667 35.333 -446 94c-134 66.667 -239 158 -315 274
c-76.667 120.667 -115 264 -115 430v377c4 143.333 28.667 262.333 74 357c45.333 102.667 110.666 188.667 195.999 258c94 70.667 191 121 291 151c110 32.667 230.333 49 361 49h344v328h303v-328h344c134 0 255.333 -16.333 364 -49
c111.333 -37.333 207 -87.666 287 -151c84.667 -68.667 151.667 -154.667 201 -258c46 -100.667 69 -219.667 69 -357v-377zM2699 1217l0.000976562 367.999c0 192.667 -58.667 333.334 -176 422.001c-114.667 90 -270.334 135 -467.001 135h-319v-1478h282
c198 0 360.667 45 488 135c128 88 192 227.333 192 418zM1434 663.998l-0.00195312 1478h-320c-196 0 -351.667 -45 -467 -135c-117.333 -88.667 -176 -229.334 -176 -422.001v-368c0 -126.667 31.333 -232 94 -316c62.667 -82.667 143.334 -142.667 242.001 -180
c108.667 -38 223.334 -57 344.001 -57h283z" />
    <glyph glyph-name="Ocircumflex" unicode="&#x424;" horiz-adv-x="3178" 
d="M3002 1212c0 -166.667 -37.999 -310.001 -113.999 -430.001c-81.333 -123.333 -188 -214.666 -320 -273.999c-132.667 -62.667 -280 -94 -442 -94h-389v-414h-303v414h-390c-170 4 -318.667 35.333 -446 94c-134 66.667 -239 158 -315 274
c-76.667 120.667 -115 264 -115 430v377c4 143.333 28.667 262.333 74 357c45.333 102.667 110.666 188.667 195.999 258c94 70.667 191 121 291 151c110 32.667 230.333 49 361 49h344v328h303v-328h344c134 0 255.333 -16.333 364 -49
c111.333 -37.333 207 -87.666 287 -151c84.667 -68.667 151.667 -154.667 201 -258c46 -100.667 69 -219.667 69 -357v-377zM2699 1217l0.000976562 367.999c0 192.667 -58.667 333.334 -176 422.001c-114.667 90 -270.334 135 -467.001 135h-319v-1478h282
c198 0 360.667 45 488 135c128 88 192 227.333 192 418zM1434 663.998l-0.00195312 1478h-320c-196 0 -351.667 -45 -467 -135c-117.333 -88.667 -176 -229.334 -176 -422.001v-368c0 -126.667 31.333 -232 94 -316c62.667 -82.667 143.334 -142.667 242.001 -180
c108.667 -38 223.334 -57 344.001 -57h283z" />
    <glyph glyph-name="Otilde" unicode="&#xd5;" horiz-adv-x="2499" 
d="M2482 0h-368l-848 1253l-848 -1253h-369l975 1413l-897 1319h365l774 -1167l774 1167h364l-897 -1319z" />
    <glyph glyph-name="Otilde" unicode="&#x425;" horiz-adv-x="2499" 
d="M2482 0h-368l-848 1253l-848 -1253h-369l975 1413l-897 1319h365l774 -1167l774 1167h364l-897 -1319z" />
    <glyph glyph-name="Odieresis" unicode="&#xd6;" horiz-adv-x="2748" 
d="M2666 -446h-278v290c0 104 -38.333 156 -115 156h-2011v2736h303v-2466h1598v2466h303v-2466h200v-716z" />
    <glyph glyph-name="Odieresis" unicode="&#x426;" horiz-adv-x="2748" 
d="M2666 -446h-278v290c0 104 -38.333 156 -115 156h-2011v2736h303v-2466h1598v2466h303v-2466h200v-716z" />
    <glyph glyph-name="multiply" unicode="&#xd7;" horiz-adv-x="2560" 
d="M2200 0l-304 -0.000976562v1077c-154 -48.667 -392.667 -73 -716 -73c-206 4 -364.333 17.333 -475 40c-116.667 29.333 -207 76 -271 140c-64.667 60.667 -109.667 146.667 -135 258c-24.667 104.667 -37 249.334 -37 434.001v856h303v-913
c0 -165.333 23.333 -288.333 70 -369c48 -80 117.667 -130.667 209 -152c100 -21.333 237.667 -32 413 -32c259.333 0 472.333 23 639 69v1397h304v-2732z" />
    <glyph glyph-name="multiply" unicode="&#x427;" horiz-adv-x="2560" 
d="M2200 0l-304 -0.000976562v1077c-154 -48.667 -392.667 -73 -716 -73c-206 4 -364.333 17.333 -475 40c-116.667 29.333 -207 76 -271 140c-64.667 60.667 -109.667 146.667 -135 258c-24.667 104.667 -37 249.334 -37 434.001v856h303v-913
c0 -165.333 23.333 -288.333 70 -369c48 -80 117.667 -130.667 209 -152c100 -21.333 237.667 -32 413 -32c259.333 0 472.333 23 639 69v1397h304v-2732z" />
    <glyph glyph-name="Oslash" unicode="&#xd8;" horiz-adv-x="4223" 
d="M3953 0h-3691v2736h303v-2466h1393v2466h303v-2466h1389v2466h303v-2736z" />
    <glyph glyph-name="Oslash" unicode="&#x428;" horiz-adv-x="4223" 
d="M3953 0h-3691v2736h303v-2466h1393v2466h303v-2466h1389v2466h303v-2736z" />
    <glyph glyph-name="Ugrave" unicode="&#xd9;" horiz-adv-x="4280" 
d="M4145 -446h-274v290c0 104 -38.333 156 -115 156h-3498v2736h303v-2466h1393v2466h303v-2466h1388v2466h304v-2466h196v-716z" />
    <glyph glyph-name="Ugrave" unicode="&#x429;" horiz-adv-x="4280" 
d="M4145 -446h-274v290c0 104 -38.333 156 -115 156h-3498v2736h303v-2466h1393v2466h303v-2466h1388v2466h304v-2466h196v-716z" />
    <glyph glyph-name="Uacute" unicode="&#xda;" horiz-adv-x="2626" 
d="M2441 786c0 -173.333 -21.666 -320.668 -64.999 -442.001c-50 -113.333 -126.667 -199.333 -230 -258c-106.667 -57.333 -251.334 -86 -434.001 -86h-1302v2466h-340v266h643v-1073h815c204.667 0 363 -13.667 475 -41c114 -24 204 -69 270 -135
c64 -64 107.667 -150 131 -258c24.667 -109.333 37 -255.666 37 -438.999zM2134 843.998c0 132 -13.668 232.998 -41.001 302.998c-26 76.667 -65.667 131.334 -119 164.001c-49.333 34.667 -116 56.334 -200 65.001c-71.333 11.333 -180.666 17 -327.999 17h-733v-1123h962
c134 0 233.667 20.667 299 62c68 42 111.667 100.667 131 176s29 187.333 29 336z" />
    <glyph glyph-name="Uacute" unicode="&#x42a;" horiz-adv-x="2626" 
d="M2441 786c0 -173.333 -21.666 -320.668 -64.999 -442.001c-50 -113.333 -126.667 -199.333 -230 -258c-106.667 -57.333 -251.334 -86 -434.001 -86h-1302v2466h-340v266h643v-1073h815c204.667 0 363 -13.667 475 -41c114 -24 204 -69 270 -135
c64 -64 107.667 -150 131 -258c24.667 -109.333 37 -255.666 37 -438.999zM2134 843.998c0 132 -13.668 232.998 -41.001 302.998c-26 76.667 -65.667 131.334 -119 164.001c-49.333 34.667 -116 56.334 -200 65.001c-71.333 11.333 -180.666 17 -327.999 17h-733v-1123h962
c134 0 233.667 20.667 299 62c68 42 111.667 100.667 131 176s29 187.333 29 336z" />
    <glyph glyph-name="Ucircumflex" unicode="&#xdb;" horiz-adv-x="3256" 
d="M2986 0h-303v2732h303v-2732zM2302 786c0 -185.333 -23.332 -332.668 -69.999 -442.001c-45.333 -112.667 -120.333 -198.667 -225 -258c-106.667 -57.333 -251.334 -86 -434.001 -86h-1303v2732h303v-1073h816c204.667 0 363 -13.667 475 -41c108 -24 198 -69 270 -135
c62.667 -58.667 106.334 -144.667 131 -258c24.667 -109.333 37 -255.666 37 -438.999zM1995 843.998c0 165.333 -23.332 288 -69.999 368c-44 79.333 -112.333 130 -205 152c-90.667 19.333 -229.667 29 -417 29h-730v-1123h963c136.667 0 237.667 20.5 303 61.5
s107.666 101.167 126.999 180.5c19.333 72 29 182.667 29 332z" />
    <glyph glyph-name="Ucircumflex" unicode="&#x42b;" horiz-adv-x="3256" 
d="M2986 0h-303v2732h303v-2732zM2302 786c0 -185.333 -23.332 -332.668 -69.999 -442.001c-45.333 -112.667 -120.333 -198.667 -225 -258c-106.667 -57.333 -251.334 -86 -434.001 -86h-1303v2732h303v-1073h816c204.667 0 363 -13.667 475 -41c108 -24 198 -69 270 -135
c62.667 -58.667 106.334 -144.667 131 -258c24.667 -109.333 37 -255.666 37 -438.999zM1995 843.998c0 165.333 -23.332 288 -69.999 368c-44 79.333 -112.333 130 -205 152c-90.667 19.333 -229.667 29 -417 29h-730v-1123h963c136.667 0 237.667 20.5 303 61.5
s107.666 101.167 126.999 180.5c19.333 72 29 182.667 29 332z" />
    <glyph glyph-name="Udieresis" unicode="&#xdc;" horiz-adv-x="2499" 
d="M2318 786c0 -173.333 -23 -320.668 -69 -442.001c-44.667 -114 -121.334 -200 -230 -258c-110.667 -57.333 -255.334 -86 -434.001 -86h-1302v2732h303v-1073h815c204.667 0 363 -13.667 475 -41c118.667 -28.667 208.667 -73.667 270.001 -135c66 -62 111 -148 135 -258
c24.667 -109.333 37 -255.666 37 -438.999zM2007 843.998c0 165.333 -23.3311 287.999 -69.998 367.999c-50.667 80.667 -120 131.334 -208 152.001c-92 19.333 -230 29 -414 29h-729v-1123h970c135.333 0 233.666 20.667 294.999 62
c65.333 40.667 107.666 100.667 126.999 180c19.333 72 29 182.667 29 332z" />
    <glyph glyph-name="Udieresis" unicode="&#x42c;" horiz-adv-x="2499" 
d="M2318 786c0 -173.333 -23 -320.668 -69 -442.001c-44.667 -114 -121.334 -200 -230 -258c-110.667 -57.333 -255.334 -86 -434.001 -86h-1302v2732h303v-1073h815c204.667 0 363 -13.667 475 -41c118.667 -28.667 208.667 -73.667 270.001 -135c66 -62 111 -148 135 -258
c24.667 -109.333 37 -255.666 37 -438.999zM2007 843.998c0 165.333 -23.3311 287.999 -69.998 367.999c-50.667 80.667 -120 131.334 -208 152.001c-92 19.333 -230 29 -414 29h-729v-1123h970c135.333 0 233.666 20.667 294.999 62
c65.333 40.667 107.666 100.667 126.999 180c19.333 72 29 182.667 29 332z" />
    <glyph glyph-name="Yacute" unicode="&#xdd;" horiz-adv-x="2486" 
d="M2331 1356c0 -327.333 -12.334 -581.333 -37.001 -762c-25.333 -176 -73.333 -309.667 -144 -401c-71.333 -88.667 -175 -147.667 -311 -177c-126.667 -30 -324.667 -45 -594 -45c-250.667 0 -446 12.333 -586 37c-134.667 24 -239.667 69 -315 135
c-70 62.667 -117.667 154.334 -143 275.001c-24.667 112.667 -37 277.667 -37 495h295c0 -174.667 8 -303 24 -385c12.667 -84 44.334 -146.667 95.001 -188c46 -42.667 119.667 -70 221 -82c108.667 -13.333 257.334 -20 446.001 -20c197.333 4 343.333 12 438 24
c97.333 21.333 168.333 62.333 213 123c50.667 57.333 85 154.333 103 291c16 134.667 24 331.334 24 590.001h-1392v266h1392c0 227.333 -8 400.666 -24 519.999c-22.667 128 -57 218 -103 270c-49.333 62 -123 103 -221 123c-90 19.333 -233.333 29 -430 29
c-176 0 -316.667 -6.66699 -422 -20c-96 -17.333 -164.333 -46.333 -205 -87c-44 -49.333 -69.667 -98.333 -77 -147c-14.667 -64.667 -29.667 -184.667 -45 -360h-295c12 201.333 28.333 351.333 49 450c19.333 102 63 186.667 131 254c63.333 64.667 163 111 299 139
c127.333 27.333 315.666 41 564.999 41c276 0 475.333 -15 598 -45c134 -28 236.333 -88 307 -180c70.667 -85.333 118.667 -216.333 144 -393c24.667 -180.667 37 -437.334 37 -770.001z" />
    <glyph glyph-name="Yacute" unicode="&#x42d;" horiz-adv-x="2486" 
d="M2331 1356c0 -327.333 -12.334 -581.333 -37.001 -762c-25.333 -176 -73.333 -309.667 -144 -401c-71.333 -88.667 -175 -147.667 -311 -177c-126.667 -30 -324.667 -45 -594 -45c-250.667 0 -446 12.333 -586 37c-134.667 24 -239.667 69 -315 135
c-70 62.667 -117.667 154.334 -143 275.001c-24.667 112.667 -37 277.667 -37 495h295c0 -174.667 8 -303 24 -385c12.667 -84 44.334 -146.667 95.001 -188c46 -42.667 119.667 -70 221 -82c108.667 -13.333 257.334 -20 446.001 -20c197.333 4 343.333 12 438 24
c97.333 21.333 168.333 62.333 213 123c50.667 57.333 85 154.333 103 291c16 134.667 24 331.334 24 590.001h-1392v266h1392c0 227.333 -8 400.666 -24 519.999c-22.667 128 -57 218 -103 270c-49.333 62 -123 103 -221 123c-90 19.333 -233.333 29 -430 29
c-176 0 -316.667 -6.66699 -422 -20c-96 -17.333 -164.333 -46.333 -205 -87c-44 -49.333 -69.667 -98.333 -77 -147c-14.667 -64.667 -29.667 -184.667 -45 -360h-295c12 201.333 28.333 351.333 49 450c19.333 102 63 186.667 131 254c63.333 64.667 163 111 299 139
c127.333 27.333 315.666 41 564.999 41c276 0 475.333 -15 598 -45c134 -28 236.333 -88 307 -180c70.667 -85.333 118.667 -216.333 144 -393c24.667 -180.667 37 -437.334 37 -770.001z" />
    <glyph glyph-name="Thorn" unicode="&#xde;" horiz-adv-x="3461" 
d="M3256 926c0 -214 -21.667 -382.002 -65 -504.002c-40 -123.333 -104.333 -219 -193 -287c-81.333 -61.333 -187.666 -105 -319 -131c-140 -22 -302.667 -33 -488 -33c-184.667 0 -347 11 -487 33c-123.333 20.667 -231.333 64.334 -324 131.001
c-82.667 63.333 -146.667 159 -192 287c-44 124 -66 292 -66 504v340h-577v-1270h-303v2736h303v-1200h577v295c0 210.667 22 375.667 66 495.001c40.667 122.667 104.667 217 192 283c83.333 59.333 190 101.666 320 127c153.333 19.333 317 29 491 29
c211.333 0 375.333 -9.66699 492 -29c116.667 -18.667 221.667 -61 315 -127c88 -62.667 152.333 -157 193 -283c43.333 -113.333 65 -278.333 65 -495v-901zM2949 925.998v900.997c0 176.667 -15 307.667 -45 393.001c-24.667 89.333 -68.334 155 -131 197
c-50 36 -121 60.333 -213 73c-78.667 8.66699 -201.667 13 -369 13c-168 0 -289.333 -5.66699 -364 -17c-90.667 -8.66699 -163 -34.667 -217 -78c-62 -36 -107 -101.333 -135 -196c-26 -83.333 -41 -211.666 -45 -384.999v-901c0 -133.333 10.667 -248 32 -344
c26 -90 65.667 -159.667 119 -209c54.667 -51.333 131 -89.666 229 -114.999c108.667 -22 235.667 -33 381 -33c204.667 0 360.334 20.667 467 62c108.667 44 185.334 115 230 213c40.667 97.333 61 239.333 61 426z" />
    <glyph glyph-name="Thorn" unicode="&#x42e;" horiz-adv-x="3461" 
d="M3256 926c0 -214 -21.667 -382.002 -65 -504.002c-40 -123.333 -104.333 -219 -193 -287c-81.333 -61.333 -187.666 -105 -319 -131c-140 -22 -302.667 -33 -488 -33c-184.667 0 -347 11 -487 33c-123.333 20.667 -231.333 64.334 -324 131.001
c-82.667 63.333 -146.667 159 -192 287c-44 124 -66 292 -66 504v340h-577v-1270h-303v2736h303v-1200h577v295c0 210.667 22 375.667 66 495.001c40.667 122.667 104.667 217 192 283c83.333 59.333 190 101.666 320 127c153.333 19.333 317 29 491 29
c211.333 0 375.333 -9.66699 492 -29c116.667 -18.667 221.667 -61 315 -127c88 -62.667 152.333 -157 193 -283c43.333 -113.333 65 -278.333 65 -495v-901zM2949 925.998v900.997c0 176.667 -15 307.667 -45 393.001c-24.667 89.333 -68.334 155 -131 197
c-50 36 -121 60.333 -213 73c-78.667 8.66699 -201.667 13 -369 13c-168 0 -289.333 -5.66699 -364 -17c-90.667 -8.66699 -163 -34.667 -217 -78c-62 -36 -107 -101.333 -135 -196c-26 -83.333 -41 -211.666 -45 -384.999v-901c0 -133.333 10.667 -248 32 -344
c26 -90 65.667 -159.667 119 -209c54.667 -51.333 131 -89.666 229 -114.999c108.667 -22 235.667 -33 381 -33c204.667 0 360.334 20.667 467 62c108.667 44 185.334 115 230 213c40.667 97.333 61 239.333 61 426z" />
    <glyph glyph-name="germandbls" unicode="&#xdf;" horiz-adv-x="2548" 
d="M2273 0h-302.998v1090h-934c-124.667 0 -223 -13.667 -295 -41c-72.667 -28.667 -127 -78 -163 -148c-36 -63.333 -54 -156 -54 -278v-623h-307v692c0 329.333 144.667 504.333 434 525c-132.667 27.333 -233.667 73.666 -303 138.999
c-63.333 56 -108.333 133.667 -135 233c-22 98.667 -33 213.334 -33 344.001c0 150 15 279.667 45 389c33.333 109.333 80 191.333 140 246c57.333 54.667 137.666 95.667 240.999 123c101.333 24.667 225.666 37 372.999 37h1294v-2728zM1970 1352l0.000976562 1106h-995
c-144.667 0 -251.334 -22 -320.001 -66c-68.667 -40.667 -113.667 -100.667 -135 -180c-18.667 -95.333 -28 -211.333 -28 -348c0 -136 20.333 -242.667 61 -320c40 -72.667 101.333 -123 184 -151c81.333 -27.333 196 -41 344 -41h889z" />
    <glyph glyph-name="germandbls" unicode="&#x42f;" horiz-adv-x="2548" 
d="M2273 0h-302.998v1090h-934c-124.667 0 -223 -13.667 -295 -41c-72.667 -28.667 -127 -78 -163 -148c-36 -63.333 -54 -156 -54 -278v-623h-307v692c0 329.333 144.667 504.333 434 525c-132.667 27.333 -233.667 73.666 -303 138.999
c-63.333 56 -108.333 133.667 -135 233c-22 98.667 -33 213.334 -33 344.001c0 150 15 279.667 45 389c33.333 109.333 80 191.333 140 246c57.333 54.667 137.666 95.667 240.999 123c101.333 24.667 225.666 37 372.999 37h1294v-2728zM1970 1352l0.000976562 1106h-995
c-144.667 0 -251.334 -22 -320.001 -66c-68.667 -40.667 -113.667 -100.667 -135 -180c-18.667 -95.333 -28 -211.333 -28 -348c0 -136 20.333 -242.667 61 -320c40 -72.667 101.333 -123 184 -151c81.333 -27.333 196 -41 344 -41h889z" />
    <glyph glyph-name="agrave" unicode="&#xe0;" horiz-adv-x="2077" 
d="M1835 0l-274.004 -0.00292969l12 201c-50 -66 -103.333 -116.667 -160 -152c-43.333 -26.667 -104.666 -47 -183.999 -61c-76 -8.66699 -175.667 -13 -299 -13c-179.333 0 -318.666 15 -417.999 45c-104.667 28.667 -188 86.334 -250 173.001
c-57.333 90.667 -86 219 -86 385c0 160.667 30 283.334 90 368.001c68 84 152.667 140 254 168c104.667 27.333 241.334 41 410.001 41c145.333 0 261.333 -6.66699 348 -20c78 -17.333 131.333 -36.666 160 -57.999c30 -25.333 61.333 -65 94 -119v230
c0 162 -13.667 278 -41 348c-24 71.333 -73.333 119 -148 143c-76.667 22 -196.667 33 -360 33c-184.667 0 -307.667 -24.667 -369 -74c-54.667 -37.333 -82 -109.666 -82 -216.999c0 -30 1.66699 -49 5 -57h-295c0 132.667 19 235 57 307
c38.667 76.667 89.334 132.667 152.001 168c58.667 30 135 52 229 66c76.667 10.667 183 16 319 16c196 0 353 -15 471 -45c116.667 -32 207 -96.333 271 -193c62.667 -100.667 94 -245.334 94 -434.001v-1249zM1548 560.997c0 120 -17.667 203.333 -53 250
c-32 51.333 -92 85.333 -180 102c-88 14 -223.333 21 -406 21c-158 0 -271.333 -22 -340 -66c-68 -42.667 -102 -128.667 -102 -258c0 -163.333 34 -271 102 -323c65.333 -57.333 180 -86 344 -86c165.333 0 284.333 5.33301 357 16c79.333 11.333 146 44 200 98
c52 48 78 130 78 246z" />
    <glyph glyph-name="agrave" unicode="&#x430;" horiz-adv-x="2077" 
d="M1835 0l-274.004 -0.00292969l12 201c-50 -66 -103.333 -116.667 -160 -152c-43.333 -26.667 -104.666 -47 -183.999 -61c-76 -8.66699 -175.667 -13 -299 -13c-179.333 0 -318.666 15 -417.999 45c-104.667 28.667 -188 86.334 -250 173.001
c-57.333 90.667 -86 219 -86 385c0 160.667 30 283.334 90 368.001c68 84 152.667 140 254 168c104.667 27.333 241.334 41 410.001 41c145.333 0 261.333 -6.66699 348 -20c78 -17.333 131.333 -36.666 160 -57.999c30 -25.333 61.333 -65 94 -119v230
c0 162 -13.667 278 -41 348c-24 71.333 -73.333 119 -148 143c-76.667 22 -196.667 33 -360 33c-184.667 0 -307.667 -24.667 -369 -74c-54.667 -37.333 -82 -109.666 -82 -216.999c0 -30 1.66699 -49 5 -57h-295c0 132.667 19 235 57 307
c38.667 76.667 89.334 132.667 152.001 168c58.667 30 135 52 229 66c76.667 10.667 183 16 319 16c196 0 353 -15 471 -45c116.667 -32 207 -96.333 271 -193c62.667 -100.667 94 -245.334 94 -434.001v-1249zM1548 560.997c0 120 -17.667 203.333 -53 250
c-32 51.333 -92 85.333 -180 102c-88 14 -223.333 21 -406 21c-158 0 -271.333 -22 -340 -66c-68 -42.667 -102 -128.667 -102 -258c0 -163.333 34 -271 102 -323c65.333 -57.333 180 -86 344 -86c165.333 0 284.333 5.33301 357 16c79.333 11.333 146 44 200 98
c52 48 78 130 78 246z" />
    <glyph glyph-name="aacute" unicode="&#xe1;" horiz-adv-x="2101" 
d="M1892 950c0 -288 -17.668 -492.667 -53.001 -614c-32.667 -129.333 -107.667 -223.666 -225 -282.999c-122.667 -54.667 -314 -82 -574 -82c-196 0 -350 16.333 -462 49c-111.333 33.333 -193.333 86.666 -246 159.999c-51.333 72 -85.666 166.333 -102.999 283
c-16 114.667 -24 277 -24 487v869c0 159.333 21.667 293 65 401c51.333 106.667 129.333 183 234 229c102 52 249.333 78 442 78c170 0 289 5.66699 357 17c87.333 12.667 143 31.667 167 57c33.333 33.333 50 77 50 131h295c0 -116 -20.667 -204.667 -62 -266
c-41.333 -62.667 -116.333 -106.334 -225 -131.001c-104.667 -27.333 -267.334 -41 -488.001 -41c-169.333 0 -286.666 -11 -351.999 -33c-69.333 -18.667 -118.333 -63.667 -147 -135c-27.333 -66 -41 -180.667 -41 -344c49.333 64.667 116 109.667 200 135
c72 22 186.667 33 344 33c243.333 0 425 -28.667 545 -86c122 -63.333 202.667 -161.666 242 -294.999c40.667 -138 61 -344.333 61 -619zM1597 950c0 234 -10.666 403.331 -31.999 507.998c-26 100.667 -74 167.667 -144 201c-70 35.333 -192.667 53 -368 53
c-184 0 -311 -17.667 -381 -53c-75.333 -38 -123.333 -106.333 -144 -205c-18.667 -109.333 -28 -278.666 -28 -507.999c0 -150 5.33301 -285 16 -405c12.667 -94 36 -163.667 70 -209c30.667 -47.333 83.667 -81.666 159 -102.999c65.333 -18.667 166.666 -28 303.999 -28
c120 0 221 9.33301 303 28c72.667 22 125.667 57.667 159 107c34.667 51.333 58 122.333 70 213c10.667 80 16 213.667 16 401z" />
    <glyph glyph-name="aacute" unicode="&#x431;" horiz-adv-x="2101" 
d="M1892 950c0 -288 -17.668 -492.667 -53.001 -614c-32.667 -129.333 -107.667 -223.666 -225 -282.999c-122.667 -54.667 -314 -82 -574 -82c-196 0 -350 16.333 -462 49c-111.333 33.333 -193.333 86.666 -246 159.999c-51.333 72 -85.666 166.333 -102.999 283
c-16 114.667 -24 277 -24 487v869c0 159.333 21.667 293 65 401c51.333 106.667 129.333 183 234 229c102 52 249.333 78 442 78c170 0 289 5.66699 357 17c87.333 12.667 143 31.667 167 57c33.333 33.333 50 77 50 131h295c0 -116 -20.667 -204.667 -62 -266
c-41.333 -62.667 -116.333 -106.334 -225 -131.001c-104.667 -27.333 -267.334 -41 -488.001 -41c-169.333 0 -286.666 -11 -351.999 -33c-69.333 -18.667 -118.333 -63.667 -147 -135c-27.333 -66 -41 -180.667 -41 -344c49.333 64.667 116 109.667 200 135
c72 22 186.667 33 344 33c243.333 0 425 -28.667 545 -86c122 -63.333 202.667 -161.666 242 -294.999c40.667 -138 61 -344.333 61 -619zM1597 950c0 234 -10.666 403.331 -31.999 507.998c-26 100.667 -74 167.667 -144 201c-70 35.333 -192.667 53 -368 53
c-184 0 -311 -17.667 -381 -53c-75.333 -38 -123.333 -106.333 -144 -205c-18.667 -109.333 -28 -278.666 -28 -507.999c0 -150 5.33301 -285 16 -405c12.667 -94 36 -163.667 70 -209c30.667 -47.333 83.667 -81.666 159 -102.999c65.333 -18.667 166.666 -28 303.999 -28
c120 0 221 9.33301 303 28c72.667 22 125.667 57.667 159 107c34.667 51.333 58 122.333 70 213c10.667 80 16 213.667 16 401z" />
    <glyph glyph-name="acircumflex" unicode="&#xe2;" horiz-adv-x="2044" 
d="M1835 569c0 -175.333 -31.333 -305.001 -94 -389.001c-65.333 -81.333 -150 -131.666 -254 -150.999c-98.667 -19.333 -247.667 -29 -447 -29h-794v1913h876c254 0 431.5 -38.333 532.5 -115s151.5 -203.667 151.5 -381c0 -108 -20.333 -200.667 -61 -278
c-38.667 -73.333 -98.667 -125.333 -180 -156c78.667 -25.333 142.667 -77.333 192 -156c52 -80.667 78 -166.667 78 -258zM1516 1397c0 115.333 -25.999 193 -77.999 233c-50.667 38.667 -157.334 58 -320.001 58h-586v-574h590c106.667 0 188.667 7 246 21
c56 16 94.333 41.667 115 77c22 37.333 33 99 33 185zM1544 552.999c0 108.667 -17.667 186.333 -53 233c-40.667 49.333 -91.334 78 -152.001 86c-56.667 11.333 -159 17 -307 17h-500v-664h508c160.667 0 274 7 340 21c66.667 11.333 110.334 40 131.001 86
c22 36 33 109.667 33 221z" />
    <glyph glyph-name="acircumflex" unicode="&#x432;" horiz-adv-x="2044" 
d="M1835 569c0 -175.333 -31.333 -305.001 -94 -389.001c-65.333 -81.333 -150 -131.666 -254 -150.999c-98.667 -19.333 -247.667 -29 -447 -29h-794v1913h876c254 0 431.5 -38.333 532.5 -115s151.5 -203.667 151.5 -381c0 -108 -20.333 -200.667 -61 -278
c-38.667 -73.333 -98.667 -125.333 -180 -156c78.667 -25.333 142.667 -77.333 192 -156c52 -80.667 78 -166.667 78 -258zM1516 1397c0 115.333 -25.999 193 -77.999 233c-50.667 38.667 -157.334 58 -320.001 58h-586v-574h590c106.667 0 188.667 7 246 21
c56 16 94.333 41.667 115 77c22 37.333 33 99 33 185zM1544 552.999c0 108.667 -17.667 186.333 -53 233c-40.667 49.333 -91.334 78 -152.001 86c-56.667 11.333 -159 17 -307 17h-500v-664h508c160.667 0 274 7 340 21c66.667 11.333 110.334 40 131.001 86
c22 36 33 109.667 33 221z" />
    <glyph glyph-name="atilde" unicode="&#xe3;" horiz-adv-x="1589" 
d="M1532 1679h-1000v-1675h-290v1909h1290v-234z" />
    <glyph glyph-name="atilde" unicode="&#x433;" horiz-adv-x="1589" 
d="M1532 1679h-1000v-1675h-290v1909h1290v-234z" />
    <glyph glyph-name="adieresis" unicode="&#xe4;" horiz-adv-x="2146" 
d="M2068 -324h-240.998v168c0 48.667 -11 88.334 -33 119.001c-20 24.667 -61 37 -123 37h-1192c-61.333 0 -102.333 -12.333 -123 -37c-16.667 -20.667 -27.334 -60.334 -32.001 -119.001v-168h-242v557h192c37.333 19.333 66 83.666 86 192.999
c27.333 120.667 46.666 296.667 57.999 528c13.333 268.667 20 588.334 20 959.001h1434v-1680h196v-557zM1581 233v1446h-876c0 -250.667 -7 -500.334 -21 -749.001c-6.66699 -178.667 -23 -342.667 -49 -492c-26 -118 -52 -186.333 -78 -205h1024z" />
    <glyph glyph-name="adieresis" unicode="&#x434;" horiz-adv-x="2146" 
d="M2068 -324h-240.998v168c0 48.667 -11 88.334 -33 119.001c-20 24.667 -61 37 -123 37h-1192c-61.333 0 -102.333 -12.333 -123 -37c-16.667 -20.667 -27.334 -60.334 -32.001 -119.001v-168h-242v557h192c37.333 19.333 66 83.666 86 192.999
c27.333 120.667 46.666 296.667 57.999 528c13.333 268.667 20 588.334 20 959.001h1434v-1680h196v-557zM1581 233v1446h-876c0 -250.667 -7 -500.334 -21 -749.001c-6.66699 -178.667 -23 -342.667 -49 -492c-26 -118 -52 -186.333 -78 -205h1024z" />
    <glyph glyph-name="aring" unicode="&#xe5;" horiz-adv-x="2056" 
d="M1868 586c0 -182 -29.9971 -317.335 -89.9971 -406.002c-62 -85.333 -148 -142.666 -258 -171.999c-118 -24.667 -278 -37 -480 -37c-157.333 0 -295 15 -413 45c-110 35.333 -193.333 87.333 -250 156c-65.333 82 -109 181.667 -131 299
c-27.333 138.667 -41 302.667 -41 492c0 208.667 13.667 371 41 487c23.333 122.667 67 222.334 131 299.001c64 73.333 147.333 124 250 152c95.333 30 231.666 45 408.999 45c176 0 314 -15 414 -45c97.333 -24 180.666 -70.667 249.999 -140
c60.667 -69.333 103 -160.666 127 -273.999c27.333 -108.667 41 -254.667 41 -438v-144h-1376c4 -200.667 20.333 -349.334 49 -446.001c28 -94 78.333 -161 151 -201c80 -38 196 -57 348 -57c158.667 0 275 8 349 24c77.333 14 127.666 42.667 150.999 86
c27.333 42.667 41 113.667 41 213v62h287zM1581 1126c0 115.333 -6.66699 213.666 -20 294.999c-17.333 76.667 -44.666 135.334 -81.999 176.001c-32.667 40 -87.334 71.667 -164.001 95c-66 16 -159 24 -279 24c-152 0 -266.667 -16.333 -344 -49
c-72.667 -32.667 -123 -90 -151 -172c-26 -72.667 -41 -195.667 -45 -369h1085z" />
    <glyph glyph-name="aring" unicode="&#x435;" horiz-adv-x="2056" 
d="M1868 586c0 -182 -29.9971 -317.335 -89.9971 -406.002c-62 -85.333 -148 -142.666 -258 -171.999c-118 -24.667 -278 -37 -480 -37c-157.333 0 -295 15 -413 45c-110 35.333 -193.333 87.333 -250 156c-65.333 82 -109 181.667 -131 299
c-27.333 138.667 -41 302.667 -41 492c0 208.667 13.667 371 41 487c23.333 122.667 67 222.334 131 299.001c64 73.333 147.333 124 250 152c95.333 30 231.666 45 408.999 45c176 0 314 -15 414 -45c97.333 -24 180.666 -70.667 249.999 -140
c60.667 -69.333 103 -160.666 127 -273.999c27.333 -108.667 41 -254.667 41 -438v-144h-1376c4 -200.667 20.333 -349.334 49 -446.001c28 -94 78.333 -161 151 -201c80 -38 196 -57 348 -57c158.667 0 275 8 349 24c77.333 14 127.666 42.667 150.999 86
c27.333 42.667 41 113.667 41 213v62h287zM1581 1126c0 115.333 -6.66699 213.666 -20 294.999c-17.333 76.667 -44.666 135.334 -81.999 176.001c-32.667 40 -87.334 71.667 -164.001 95c-66 16 -159 24 -279 24c-152 0 -266.667 -16.333 -344 -49
c-72.667 -32.667 -123 -90 -151 -172c-26 -72.667 -41 -195.667 -45 -369h1085z" />
    <glyph glyph-name="ae" unicode="&#xe6;" horiz-adv-x="2802" 
d="M2773 0h-377l-811 922h-41v-922h-287v922h-45l-811 -922h-376l962 1032l-815 881h352l688 -770h45v770h287v-770h41l688 770h353l-816 -881z" />
    <glyph glyph-name="ae" unicode="&#x436;" horiz-adv-x="2802" 
d="M2773 0h-377l-811 922h-41v-922h-287v922h-45l-811 -922h-376l962 1032l-815 881h352l688 -770h45v770h287v-770h41l688 770h353l-816 -881z" />
    <glyph glyph-name="ccedilla" unicode="&#xe7;" horiz-adv-x="1987" 
d="M1790 565c0 -164 -22 -288.003 -66 -372.003c-47.333 -86.667 -123.666 -145.667 -228.999 -177c-113.333 -32.667 -271.666 -49 -474.999 -49c-218.667 0 -388 20.667 -508 62c-122.667 42 -206 107.333 -250 196c-46 92 -69 216.333 -69 373h278
c0 -113.333 12.333 -198 37 -254c22.667 -50.667 70.334 -89 143.001 -115c78.667 -21.333 190.667 -32 336 -32c161.333 0 274.666 9.33301 339.999 28c75.333 22.667 121.666 55.667 138.999 99c24.667 48.667 37 126.334 37 233.001c0 216 -94 324 -282 324h-578v225h578
c82 0 142 9.66699 180 29c36.667 18 64 50.667 82 98c13.333 50 20 112.667 20 188c0 90.667 -9.33301 155 -28 193c-22 38 -64.333 65.333 -127 82c-70 16 -179.333 24 -328 24c-120.667 0 -217.667 -6.66699 -291 -20c-66.667 -11.333 -117 -38.666 -151 -81.999
c-33.333 -41.333 -50 -105.666 -50 -192.999h-274c4 148 31.333 257.333 82 328c54 74 136 126 246 156c103.333 27.333 249.333 41 438 41c217.333 0 382.666 -16.333 495.999 -49c112 -33.333 184.333 -86.666 217 -159.999c38 -68.667 57 -178 57 -328
c0 -118.667 -26 -218.334 -78 -299.001c-49.333 -82 -128.333 -131 -237 -147c210 -40.667 315 -174.667 315 -402z" />
    <glyph glyph-name="ccedilla" unicode="&#x437;" horiz-adv-x="1987" 
d="M1790 565c0 -164 -22 -288.003 -66 -372.003c-47.333 -86.667 -123.666 -145.667 -228.999 -177c-113.333 -32.667 -271.666 -49 -474.999 -49c-218.667 0 -388 20.667 -508 62c-122.667 42 -206 107.333 -250 196c-46 92 -69 216.333 -69 373h278
c0 -113.333 12.333 -198 37 -254c22.667 -50.667 70.334 -89 143.001 -115c78.667 -21.333 190.667 -32 336 -32c161.333 0 274.666 9.33301 339.999 28c75.333 22.667 121.666 55.667 138.999 99c24.667 48.667 37 126.334 37 233.001c0 216 -94 324 -282 324h-578v225h578
c82 0 142 9.66699 180 29c36.667 18 64 50.667 82 98c13.333 50 20 112.667 20 188c0 90.667 -9.33301 155 -28 193c-22 38 -64.333 65.333 -127 82c-70 16 -179.333 24 -328 24c-120.667 0 -217.667 -6.66699 -291 -20c-66.667 -11.333 -117 -38.666 -151 -81.999
c-33.333 -41.333 -50 -105.666 -50 -192.999h-274c4 148 31.333 257.333 82 328c54 74 136 126 246 156c103.333 27.333 249.333 41 438 41c217.333 0 382.666 -16.333 495.999 -49c112 -33.333 184.333 -86.666 217 -159.999c38 -68.667 57 -178 57 -328
c0 -118.667 -26 -218.334 -78 -299.001c-49.333 -82 -128.333 -131 -237 -147c210 -40.667 315 -174.667 315 -402z" />
    <glyph glyph-name="egrave" unicode="&#xe8;" horiz-adv-x="2105" 
d="M1855 0h-286v1556l-971 -1556h-74h-286v1909h286v-1561l975 1561h356v-1909z" />
    <glyph glyph-name="egrave" unicode="&#x438;" horiz-adv-x="2105" 
d="M1855 0h-286v1556l-971 -1556h-74h-286v1909h286v-1561l975 1561h356v-1909z" />
    <glyph glyph-name="eacute" unicode="&#xe9;" horiz-adv-x="2101" 
d="M1442 2347c0 -70.667 -35.667 -141.667 -107 -213c-74 -70.667 -175 -106 -303 -106c-130 4 -228.333 39.333 -295 106c-73.333 74.667 -110 145.667 -110 213h188c0 -42.667 23.333 -81 70 -115c56 -27.333 105 -41 147 -41c48 0 100 13.667 156 41
c43.333 28 65 66.333 65 115h189zM1855 0h-286v1556l-971 -1556h-74h-286v1909h286v-1561l975 1561h356v-1909z" />
    <glyph glyph-name="eacute" unicode="&#x439;" horiz-adv-x="2101" 
d="M1442 2347c0 -70.667 -35.667 -141.667 -107 -213c-74 -70.667 -175 -106 -303 -106c-130 4 -228.333 39.333 -295 106c-73.333 74.667 -110 145.667 -110 213h188c0 -42.667 23.333 -81 70 -115c56 -27.333 105 -41 147 -41c48 0 100 13.667 156 41
c43.333 28 65 66.333 65 115h189zM1855 0h-286v1556l-971 -1556h-74h-286v1909h286v-1561l975 1561h356v-1909z" />
    <glyph glyph-name="ecircumflex" unicode="&#xea;" horiz-adv-x="1880" 
d="M1835 0h-377l-811 922h-115v-922h-290v1913h290v-770h115l688 770h353l-816 -881z" />
    <glyph glyph-name="ecircumflex" unicode="&#x43a;" horiz-adv-x="1880" 
d="M1835 0h-377l-811 922h-115v-922h-290v1913h290v-770h115l688 770h353l-816 -881z" />
    <glyph glyph-name="edieresis" unicode="&#xeb;" horiz-adv-x="2019" 
d="M1765 0h-290.001v1679h-865v-1065c0 -94 -4 -175.667 -12 -245c-11.333 -68.667 -31.666 -133 -60.999 -193c-26 -50.667 -68.333 -94.334 -127 -131.001c-57.333 -32.667 -129.666 -49 -216.999 -49c-60 0 -106.667 2.66699 -140 8v201
c93.333 0 161.666 21.667 204.999 65c40.667 48.667 61 144.334 61 287.001v1356h1446v-1913z" />
    <glyph glyph-name="edieresis" unicode="&#x43b;" horiz-adv-x="2019" 
d="M1765 0h-290.001v1679h-865v-1065c0 -94 -4 -175.667 -12 -245c-11.333 -68.667 -31.666 -133 -60.999 -193c-26 -50.667 -68.333 -94.334 -127 -131.001c-57.333 -32.667 -129.666 -49 -216.999 -49c-60 0 -106.667 2.66699 -140 8v201
c93.333 0 161.666 21.667 204.999 65c40.667 48.667 61 144.334 61 287.001v1356h1446v-1913z" />
    <glyph glyph-name="igrave" unicode="&#xec;" horiz-adv-x="2785" 
d="M2535 0h-286v1659l-680 -1659h-369l-668 1659v-1659h-286v1913h446l692 -1712l693 1712h458v-1913z" />
    <glyph glyph-name="igrave" unicode="&#x43c;" horiz-adv-x="2785" 
d="M2535 0h-286v1659l-680 -1659h-369l-668 1659v-1659h-286v1913h446l692 -1712l693 1712h458v-1913z" />
    <glyph glyph-name="iacute" unicode="&#xed;" horiz-adv-x="2077" 
d="M1827 0h-291v905h-1004v-905h-290v1913h290v-774h1004v774h291v-1913z" />
    <glyph glyph-name="iacute" unicode="&#x43d;" horiz-adv-x="2077" 
d="M1827 0h-291v905h-1004v-905h-290v1913h290v-774h1004v774h291v-1913z" />
    <glyph glyph-name="icircumflex" unicode="&#xee;" horiz-adv-x="2089" 
d="M1888 958c0 -220.667 -13.667 -392.665 -41 -515.998c-28 -128.667 -74.333 -227 -139 -295c-62 -66 -146.667 -113.667 -254 -143c-104.667 -24.667 -242.667 -37 -414 -37c-226.667 0 -400 24.667 -520 74c-114 49.333 -196 143.666 -246 282.999
c-48.667 134 -73 344 -73 630c0 285.333 24.333 497 73 635c50 139.333 132 233.666 246 282.999c116 49.333 289.333 74 520 74c227.333 0 401 -24.667 521 -74c116.667 -48.667 199.667 -143 249 -283c52 -134 78 -344.333 78 -631zM1593 958.002
c0 202.667 -6.66797 343.331 -20.001 421.998c-11.333 89.333 -34.666 160.333 -69.999 213c-38 50.667 -91.333 82.334 -160 95.001c-54 13.333 -155 20 -303 20c-143.333 0 -244.333 -6.66699 -303 -20c-62 -12.667 -112.333 -44.334 -151 -95.001
c-38 -50 -62.667 -122.333 -74 -217c-6 -72 -11.333 -212.667 -16 -422c0 -174.667 8 -311 24 -409c16.667 -101.333 45.334 -176.666 86.001 -225.999c38 -46 90 -77.333 156 -94c72 -13.333 164.667 -20 278 -20c154 0 268.667 15 344 45
c79.333 30.667 132.666 99 159.999 205c32.667 100.667 49 268.334 49 503.001z" />
    <glyph glyph-name="icircumflex" unicode="&#x43e;" horiz-adv-x="2089" 
d="M1888 958c0 -220.667 -13.667 -392.665 -41 -515.998c-28 -128.667 -74.333 -227 -139 -295c-62 -66 -146.667 -113.667 -254 -143c-104.667 -24.667 -242.667 -37 -414 -37c-226.667 0 -400 24.667 -520 74c-114 49.333 -196 143.666 -246 282.999
c-48.667 134 -73 344 -73 630c0 285.333 24.333 497 73 635c50 139.333 132 233.666 246 282.999c116 49.333 289.333 74 520 74c227.333 0 401 -24.667 521 -74c116.667 -48.667 199.667 -143 249 -283c52 -134 78 -344.333 78 -631zM1593 958.002
c0 202.667 -6.66797 343.331 -20.001 421.998c-11.333 89.333 -34.666 160.333 -69.999 213c-38 50.667 -91.333 82.334 -160 95.001c-54 13.333 -155 20 -303 20c-143.333 0 -244.333 -6.66699 -303 -20c-62 -12.667 -112.333 -44.334 -151 -95.001
c-38 -50 -62.667 -122.333 -74 -217c-6 -72 -11.333 -212.667 -16 -422c0 -174.667 8 -311 24 -409c16.667 -101.333 45.334 -176.666 86.001 -225.999c38 -46 90 -77.333 156 -94c72 -13.333 164.667 -20 278 -20c154 0 268.667 15 344 45
c79.333 30.667 132.666 99 159.999 205c32.667 100.667 49 268.334 49 503.001z" />
    <glyph glyph-name="idieresis" unicode="&#xef;" horiz-adv-x="2064" 
d="M1819 0h-291v1679h-1000v-1675h-290v1909h1581v-1913z" />
    <glyph glyph-name="idieresis" unicode="&#x43f;" horiz-adv-x="2064" 
d="M1819 0h-291v1679h-1000v-1675h-290v1909h1581v-1913z" />
    <glyph glyph-name="eth" unicode="&#xf0;" horiz-adv-x="2081" 
d="M1892 963c0 -152 -6.66699 -291.335 -20 -418.002c-16.667 -114 -49.334 -213.667 -98.001 -299c-52 -89.333 -126 -157.666 -222 -204.999c-101.333 -46.667 -232.333 -70 -393 -70c-143.333 0 -267.666 16.333 -372.999 49
c-100.667 32.667 -183.667 98.334 -249 197.001v-1040h-291v2732h282l-12 -242c70 102 154.667 171.667 254 209c97.333 40.667 216 61 356 61c220.667 0 386 -36.667 496 -110c106.667 -71.333 179 -176.666 217 -315.999c35.333 -128.667 53 -311.334 53 -548.001z
M1597 966.998c0 201.333 -9.33496 346 -28.002 434c-17.333 94.667 -62.333 168.167 -135 220.5s-193 78.5 -361 78.5c-169.333 0 -290.666 -23.333 -363.999 -70c-74.667 -45.333 -122.667 -116.333 -144 -213c-18.667 -114 -28 -264 -28 -450
c0 -194.667 12 -343.667 36 -447c20.667 -101.333 68.667 -179 144 -233c82.667 -52 197.334 -78 344.001 -78c172.667 0 294 26 364 78c74.667 50.667 122.667 125.667 144 225c18.667 95.333 28 247 28 455z" />
    <glyph glyph-name="eth" unicode="&#x440;" horiz-adv-x="2081" 
d="M1892 963c0 -152 -6.66699 -291.335 -20 -418.002c-16.667 -114 -49.334 -213.667 -98.001 -299c-52 -89.333 -126 -157.666 -222 -204.999c-101.333 -46.667 -232.333 -70 -393 -70c-143.333 0 -267.666 16.333 -372.999 49
c-100.667 32.667 -183.667 98.334 -249 197.001v-1040h-291v2732h282l-12 -242c70 102 154.667 171.667 254 209c97.333 40.667 216 61 356 61c220.667 0 386 -36.667 496 -110c106.667 -71.333 179 -176.666 217 -315.999c35.333 -128.667 53 -311.334 53 -548.001z
M1597 966.998c0 201.333 -9.33496 346 -28.002 434c-17.333 94.667 -62.333 168.167 -135 220.5s-193 78.5 -361 78.5c-169.333 0 -290.666 -23.333 -363.999 -70c-74.667 -45.333 -122.667 -116.333 -144 -213c-18.667 -114 -28 -264 -28 -450
c0 -194.667 12 -343.667 36 -447c20.667 -101.333 68.667 -179 144 -233c82.667 -52 197.334 -78 344.001 -78c172.667 0 294 26 364 78c74.667 50.667 122.667 125.667 144 225c18.667 95.333 28 247 28 455z" />
    <glyph glyph-name="ntilde" unicode="&#xf1;" horiz-adv-x="2007" 
d="M1835 692c-8 -146 -28.3301 -267.335 -60.9971 -364.002c-30.667 -88 -80 -162 -148 -222c-64 -51.333 -143 -86.666 -237 -105.999c-108.667 -22 -234.334 -33 -377.001 -33c-176.667 0 -314.667 13.667 -414 41c-102.667 29.333 -184.667 78.666 -246 147.999
c-56.667 68.667 -97.667 167 -123 295c-24 126.667 -36 294.334 -36 503.001s12 376.667 36 504c24.667 126.667 65.667 225 123 295c66 74.667 148 124 246 148c99.333 27.333 236 41 410 41c173.333 0 318 -16.667 434 -50c110 -32 197.333 -92 262 -180
c64 -84.667 98 -204.667 102 -360c0 -11.333 -1.33301 -21 -4 -29v-33h-278c0 104.667 -13.667 189.334 -41 254.001c-22 51.333 -70 92.333 -144 123c-68 24.667 -178.333 37 -331 37c-128 0 -222.333 -9.66699 -283 -29
c-70.667 -21.333 -121.334 -56.666 -152.001 -105.999c-33.333 -45.333 -56.333 -117.666 -69 -216.999c-11.333 -134.667 -17 -264.334 -17 -389.001c0 -149.333 7 -279.333 21 -390c7.33301 -90.667 29 -165.667 65 -225c33.333 -53.333 85.333 -90 156 -110
c69.333 -22 163.666 -33 282.999 -33c158 0 270 13.667 336 41c72 24 122.333 70.333 151 139c25.333 57.333 44.333 159.666 57 306.999h279z" />
    <glyph glyph-name="ntilde" unicode="&#x441;" horiz-adv-x="2007" 
d="M1835 692c-8 -146 -28.3301 -267.335 -60.9971 -364.002c-30.667 -88 -80 -162 -148 -222c-64 -51.333 -143 -86.666 -237 -105.999c-108.667 -22 -234.334 -33 -377.001 -33c-176.667 0 -314.667 13.667 -414 41c-102.667 29.333 -184.667 78.666 -246 147.999
c-56.667 68.667 -97.667 167 -123 295c-24 126.667 -36 294.334 -36 503.001s12 376.667 36 504c24.667 126.667 65.667 225 123 295c66 74.667 148 124 246 148c99.333 27.333 236 41 410 41c173.333 0 318 -16.667 434 -50c110 -32 197.333 -92 262 -180
c64 -84.667 98 -204.667 102 -360c0 -11.333 -1.33301 -21 -4 -29v-33h-278c0 104.667 -13.667 189.334 -41 254.001c-22 51.333 -70 92.333 -144 123c-68 24.667 -178.333 37 -331 37c-128 0 -222.333 -9.66699 -283 -29
c-70.667 -21.333 -121.334 -56.666 -152.001 -105.999c-33.333 -45.333 -56.333 -117.666 -69 -216.999c-11.333 -134.667 -17 -264.334 -17 -389.001c0 -149.333 7 -279.333 21 -390c7.33301 -90.667 29 -165.667 65 -225c33.333 -53.333 85.333 -90 156 -110
c69.333 -22 163.666 -33 282.999 -33c158 0 270 13.667 336 41c72 24 122.333 70.333 151 139c25.333 57.333 44.333 159.666 57 306.999h279z" />
    <glyph glyph-name="ograve" unicode="&#xf2;" horiz-adv-x="1741" 
d="M1659 1675h-660v-1675h-290v1675h-660v234h1610v-234z" />
    <glyph glyph-name="ograve" unicode="&#x442;" horiz-adv-x="1741" 
d="M1659 1675h-660v-1675h-290v1675h-660v234h1610v-234z" />
    <glyph glyph-name="oacute" unicode="&#xf3;" horiz-adv-x="1712" 
d="M1655 1913l-540.999 -2024c-56.667 -227.333 -131.667 -410 -225 -548c-90.667 -136.667 -232.667 -205 -426 -205c-35.333 0 -80.333 6.66699 -135 20v234c44.667 -8.66699 80 -13 106 -13c69.333 0 126.666 20.667 171.999 62c44 40 81 91.667 111 155
c32 76 55 147 69 213l23 97.5l22 95.5h-102l-692 1913h291l598 -1704l434 1704h295z" />
    <glyph glyph-name="oacute" unicode="&#x443;" horiz-adv-x="1712" 
d="M1655 1913l-540.999 -2024c-56.667 -227.333 -131.667 -410 -225 -548c-90.667 -136.667 -232.667 -205 -426 -205c-35.333 0 -80.333 6.66699 -135 20v234c44.667 -8.66699 80 -13 106 -13c69.333 0 126.666 20.667 171.999 62c44 40 81 91.667 111 155
c32 76 55 147 69 213l23 97.5l22 95.5h-102l-692 1913h291l598 -1704l434 1704h295z" />
    <glyph glyph-name="ocircumflex" unicode="&#xf4;" horiz-adv-x="3015" 
d="M2818 958c0 -229.333 -12.335 -410.667 -37.002 -544c-26.667 -133.333 -85.334 -241.333 -176 -324c-91.333 -79.333 -230.666 -119 -417.999 -119c-116.667 0 -225.667 27.333 -327 82c-99.333 58 -169 137.333 -209 238v-1122h-291v1122
c-40 -100 -109.667 -179.333 -209 -238c-101.333 -54.667 -213.333 -82 -336 -82c-137.333 0 -250.666 23.333 -339.999 70c-79.333 43.333 -142 109 -188 197c-40.667 94.667 -66.667 191.334 -78 290.001c-10.667 148 -16 291.333 -16 430
c0 241.333 13.333 424.333 40 549c24.667 129.333 83.667 232 177 308c94.667 73.333 236.667 110 426 110c243.333 0 418 -95.667 524 -287v1102h291v-1102c101.333 191.333 281.333 287 540 287c185.333 0 323.333 -36.667 414 -110
c90.667 -70.667 148 -173.334 172 -308.001c27.333 -123.333 41 -306.333 41 -549zM2523 1020c0 172 -6.66699 305.666 -20 400.999c-13.333 86 -49 151.667 -107 197c-58 46.667 -153.667 70 -287 70c-163.333 0 -280.666 -52 -351.999 -156
c-70.667 -114 -106 -287.333 -106 -520c0 -168 5.33301 -293.667 16 -377c11.333 -93.333 32 -174 62 -242c34 -65.333 80.333 -111.666 139 -138.999c63.333 -30 143.666 -45 240.999 -45c116.667 0 207 27.333 271 82c56 52 94 134 114 246
c19.333 104.667 29 265.667 29 483zM1360 1008c0 243.333 -35.667 416.667 -107 520c-69.333 106.667 -188 160 -356 160c-124.667 0 -219 -23.333 -283 -70c-59.333 -50.667 -94.666 -117.667 -105.999 -201c-14 -100 -21 -233.667 -21 -401
c0 -207.333 8.33301 -368.666 25 -483.999c21.333 -112.667 59.666 -194.334 114.999 -245.001c60.667 -52 150.667 -78 270 -78c125.333 0 225 26 299 78c62 50 105.667 133.333 131 250c22 115.333 33 272.333 33 471z" />
    <glyph glyph-name="ocircumflex" unicode="&#x444;" horiz-adv-x="3015" 
d="M2818 958c0 -229.333 -12.335 -410.667 -37.002 -544c-26.667 -133.333 -85.334 -241.333 -176 -324c-91.333 -79.333 -230.666 -119 -417.999 -119c-116.667 0 -225.667 27.333 -327 82c-99.333 58 -169 137.333 -209 238v-1122h-291v1122
c-40 -100 -109.667 -179.333 -209 -238c-101.333 -54.667 -213.333 -82 -336 -82c-137.333 0 -250.666 23.333 -339.999 70c-79.333 43.333 -142 109 -188 197c-40.667 94.667 -66.667 191.334 -78 290.001c-10.667 148 -16 291.333 -16 430
c0 241.333 13.333 424.333 40 549c24.667 129.333 83.667 232 177 308c94.667 73.333 236.667 110 426 110c243.333 0 418 -95.667 524 -287v1102h291v-1102c101.333 191.333 281.333 287 540 287c185.333 0 323.333 -36.667 414 -110
c90.667 -70.667 148 -173.334 172 -308.001c27.333 -123.333 41 -306.333 41 -549zM2523 1020c0 172 -6.66699 305.666 -20 400.999c-13.333 86 -49 151.667 -107 197c-58 46.667 -153.667 70 -287 70c-163.333 0 -280.666 -52 -351.999 -156
c-70.667 -114 -106 -287.333 -106 -520c0 -168 5.33301 -293.667 16 -377c11.333 -93.333 32 -174 62 -242c34 -65.333 80.333 -111.666 139 -138.999c63.333 -30 143.666 -45 240.999 -45c116.667 0 207 27.333 271 82c56 52 94 134 114 246
c19.333 104.667 29 265.667 29 483zM1360 1008c0 243.333 -35.667 416.667 -107 520c-69.333 106.667 -188 160 -356 160c-124.667 0 -219 -23.333 -283 -70c-59.333 -50.667 -94.666 -117.667 -105.999 -201c-14 -100 -21 -233.667 -21 -401
c0 -207.333 8.33301 -368.666 25 -483.999c21.333 -112.667 59.666 -194.334 114.999 -245.001c60.667 -52 150.667 -78 270 -78c125.333 0 225 26 299 78c62 50 105.667 133.333 131 250c22 115.333 33 272.333 33 471z" />
    <glyph glyph-name="otilde" unicode="&#xf5;" horiz-adv-x="1737" 
d="M1716 0h-348l-496 770l-495 -770h-348l684 995l-611 918h336l434 -701l435 701h335l-610 -918z" />
    <glyph glyph-name="otilde" unicode="&#x445;" horiz-adv-x="1737" 
d="M1716 0h-348l-496 770l-495 -770h-348l684 995l-611 918h336l434 -701l435 701h335l-610 -918z" />
    <glyph glyph-name="odieresis" unicode="&#xf6;" horiz-adv-x="2126" 
d="M2023 -324l-245 -0.000976562v168c0 52.667 -11 92.334 -33 119.001c-20.667 24.667 -61.667 37 -123 37h-1376v1913h291v-1680h999v1680h291v-1680h196v-557z" />
    <glyph glyph-name="odieresis" unicode="&#x446;" horiz-adv-x="2126" 
d="M2023 -324l-245 -0.000976562v168c0 52.667 -11 92.334 -33 119.001c-20.667 24.667 -61.667 37 -123 37h-1376v1913h291v-1680h999v1680h291v-1680h196v-557z" />
    <glyph glyph-name="divide" unicode="&#xf7;" horiz-adv-x="2077" 
d="M1733 0l-290.998 -0.000976562v836c-117.333 -63.333 -333 -95 -647 -95c-118.667 0 -215.667 9.66699 -291 29c-70 10.667 -131.667 49 -185 115c-42 56.667 -65 150.667 -69 282v746h291v-656c0 -77.333 6.66699 -138.666 20 -183.999
c16.667 -35.333 42.667 -61.333 78 -78c45.333 -13.333 106.666 -20 183.999 -20c176 0 303 4 381 12c75.333 8 154.666 28.667 237.999 62v864h291v-1913z" />
    <glyph glyph-name="divide" unicode="&#x447;" horiz-adv-x="2077" 
d="M1733 0l-290.998 -0.000976562v836c-117.333 -63.333 -333 -95 -647 -95c-118.667 0 -215.667 9.66699 -291 29c-70 10.667 -131.667 49 -185 115c-42 56.667 -65 150.667 -69 282v746h291v-656c0 -77.333 6.66699 -138.666 20 -183.999
c16.667 -35.333 42.667 -61.333 78 -78c45.333 -13.333 106.666 -20 183.999 -20c176 0 303 4 381 12c75.333 8 154.666 28.667 237.999 62v864h291v-1913z" />
    <glyph glyph-name="oslash" unicode="&#xf8;" horiz-adv-x="3338" 
d="M3088 0h-2846v1909h290v-1676h988v1676h290v-1676h988v1676h290v-1909z" />
    <glyph glyph-name="oslash" unicode="&#x448;" horiz-adv-x="3338" 
d="M3088 0h-2846v1909h290v-1676h988v1676h290v-1676h988v1676h290v-1909z" />
    <glyph glyph-name="ugrave" unicode="&#xf9;" horiz-adv-x="3404" 
d="M3289 -324l-242 -0.000976562v168c0 48.667 -10.667 88.334 -32 119.001c-20.667 24.667 -61.667 37 -123 37h-2646v1909h291v-1676h987v1676h291v-1676h987v1676h290v-1676h197v-557z" />
    <glyph glyph-name="ugrave" unicode="&#x449;" horiz-adv-x="3404" 
d="M3289 -324l-242 -0.000976562v168c0 48.667 -10.667 88.334 -32 119.001c-20.667 24.667 -61.667 37 -123 37h-2646v1909h291v-1676h987v1676h291v-1676h987v1676h290v-1676h197v-557z" />
    <glyph glyph-name="uacute" unicode="&#xfa;" horiz-adv-x="2163" 
d="M1966 582c0 -159.333 -20.333 -279.666 -61 -360.999c-38.667 -76.667 -116.667 -134 -234 -172c-114 -32.667 -283.333 -49 -508 -49h-798v1679h-308v234h308h290v-688h508c220 0 388 -20.667 504 -62c118 -44.667 197.333 -111.334 238 -200.001
c40.667 -94 61 -221 61 -381zM1671 582c0 103.333 -12.333 181.002 -37 233.002c-26 61.333 -75 103.666 -147 126.999c-63.333 30 -171.333 45 -324 45h-508v-749h508c136.667 0 246 9.33301 328 28c69.333 19.333 117 53.666 143 102.999c24.667 52 37 123 37 213z" />
    <glyph glyph-name="uacute" unicode="&#x44a;" horiz-adv-x="2163" 
d="M1966 582c0 -159.333 -20.333 -279.666 -61 -360.999c-38.667 -76.667 -116.667 -134 -234 -172c-114 -32.667 -283.333 -49 -508 -49h-798v1679h-308v234h308h290v-688h508c220 0 388 -20.667 504 -62c118 -44.667 197.333 -111.334 238 -200.001
c40.667 -94 61 -221 61 -381zM1671 582c0 103.333 -12.333 181.002 -37 233.002c-26 61.333 -75 103.666 -147 126.999c-63.333 30 -171.333 45 -324 45h-508v-749h508c136.667 0 246 9.33301 328 28c69.333 19.333 117 53.666 143 102.999c24.667 52 37 123 37 213z" />
    <glyph glyph-name="ucircumflex" unicode="&#xfb;" horiz-adv-x="2806" 
d="M2576 0h-290v1913h290v-1913zM1843 582c0 -159.333 -20.333 -279.666 -61 -360.999c-42.667 -78 -120.667 -135.333 -234 -172c-112.667 -32.667 -282 -49 -508 -49h-798v1913h290v-688h508c225.333 0 393.333 -20.667 504 -62
c114.667 -44.667 194 -111.334 238 -200.001c40.667 -94 61 -221 61 -381zM1548 582c0 103.333 -12.333 181.001 -37 233.001c-30.667 62.667 -79.667 105 -147 127c-67.333 30 -175.333 45 -324 45h-508v-749h508c136.667 0 246 9.33301 328 28
c69.333 19.333 117 53.666 143 102.999c24.667 52 37 123 37 213z" />
    <glyph glyph-name="ucircumflex" unicode="&#x44b;" horiz-adv-x="2806" 
d="M2576 0h-290v1913h290v-1913zM1843 582c0 -159.333 -20.333 -279.666 -61 -360.999c-42.667 -78 -120.667 -135.333 -234 -172c-112.667 -32.667 -282 -49 -508 -49h-798v1913h290v-688h508c225.333 0 393.333 -20.667 504 -62
c114.667 -44.667 194 -111.334 238 -200.001c40.667 -94 61 -221 61 -381zM1548 582c0 103.333 -12.333 181.001 -37 233.001c-30.667 62.667 -79.667 105 -147 127c-67.333 30 -175.333 45 -324 45h-508v-749h508c136.667 0 246 9.33301 328 28
c69.333 19.333 117 53.666 143 102.999c24.667 52 37 123 37 213z" />
    <glyph glyph-name="udieresis" unicode="&#xfc;" horiz-adv-x="2036" 
d="M1835 582c0 -159.333 -20.333 -279.666 -61 -360.999c-42.667 -78 -120.667 -135.333 -234 -172c-114 -32.667 -283.333 -49 -508 -49h-799v1913h291v-688h508c224 0 392 -20.667 504 -62c114.667 -44.667 194 -111.334 238 -200.001c40.667 -94 61 -221 61 -381z
M1540 582c0 103.333 -12.334 181 -37.001 233c-30.667 62.667 -79.667 105 -147 127c-67.333 30 -175.333 45 -324 45h-508v-749h508c134.667 0 245.334 9.33301 332.001 28c66.667 20 113 54.333 139 103c24.667 52 37 123 37 213z" />
    <glyph glyph-name="udieresis" unicode="&#x44c;" horiz-adv-x="2036" 
d="M1835 582c0 -159.333 -20.333 -279.666 -61 -360.999c-42.667 -78 -120.667 -135.333 -234 -172c-114 -32.667 -283.333 -49 -508 -49h-799v1913h291v-688h508c224 0 392 -20.667 504 -62c114.667 -44.667 194 -111.334 238 -200.001c40.667 -94 61 -221 61 -381z
M1540 582c0 103.333 -12.334 181 -37.001 233c-30.667 62.667 -79.667 105 -147 127c-67.333 30 -175.333 45 -324 45h-508v-749h508c134.667 0 245.334 9.33301 332.001 28c66.667 20 113 54.333 139 103c24.667 52 37 123 37 213z" />
    <glyph glyph-name="yacute" unicode="&#xfd;" horiz-adv-x="2044" 
d="M1851 967c0 -208.667 -11.9971 -376.667 -35.9971 -504c-25.333 -132 -67.666 -231.667 -126.999 -299c-56 -71.333 -136.667 -122 -242 -152c-104.667 -27.333 -244 -41 -418 -41c-137.333 0 -260.333 11 -369 33c-100.667 26 -182.334 64.333 -245.001 115
c-61.333 49.333 -109.333 123 -144 221c-32.667 92 -53 213.667 -61 365h278c0 -140 13.667 -249.333 41 -328c30.667 -74 82.667 -120.333 156 -139c73.333 -24.667 189.333 -37 348 -37c157.333 0 274.666 21.667 351.999 65c75.333 45.333 123.333 115 144 209
c18.667 109.333 28 254 28 434h-942v226h942c0 159.333 -12 278 -36 356c-25.333 79.333 -73.333 136.666 -144 171.999c-70 35.333 -183.333 53 -340 53c-144.667 0 -249.667 -9.33301 -315 -28c-74.667 -26.667 -125.334 -66.334 -152.001 -119.001
c-32.667 -59.333 -49 -148 -49 -266h-278v32c-2.66699 8.66699 -4 18.334 -4 29.001c8 155.333 42 275.333 102 360c63.333 88 152 148.333 266 181c117.333 32.667 260.666 49 429.999 49c180 0 318 -13.667 414 -41c104 -29.333 184.667 -78.666 242 -147.999
c60.667 -68.667 101.667 -167 123 -295c24 -122 36 -289.667 36 -503z" />
    <glyph glyph-name="yacute" unicode="&#x44d;" horiz-adv-x="2044" 
d="M1851 967c0 -208.667 -11.9971 -376.667 -35.9971 -504c-25.333 -132 -67.666 -231.667 -126.999 -299c-56 -71.333 -136.667 -122 -242 -152c-104.667 -27.333 -244 -41 -418 -41c-137.333 0 -260.333 11 -369 33c-100.667 26 -182.334 64.333 -245.001 115
c-61.333 49.333 -109.333 123 -144 221c-32.667 92 -53 213.667 -61 365h278c0 -140 13.667 -249.333 41 -328c30.667 -74 82.667 -120.333 156 -139c73.333 -24.667 189.333 -37 348 -37c157.333 0 274.666 21.667 351.999 65c75.333 45.333 123.333 115 144 209
c18.667 109.333 28 254 28 434h-942v226h942c0 159.333 -12 278 -36 356c-25.333 79.333 -73.333 136.666 -144 171.999c-70 35.333 -183.333 53 -340 53c-144.667 0 -249.667 -9.33301 -315 -28c-74.667 -26.667 -125.334 -66.334 -152.001 -119.001
c-32.667 -59.333 -49 -148 -49 -266h-278v32c-2.66699 8.66699 -4 18.334 -4 29.001c8 155.333 42 275.333 102 360c63.333 88 152 148.333 266 181c117.333 32.667 260.666 49 429.999 49c180 0 318 -13.667 414 -41c104 -29.333 184.667 -78.666 242 -147.999
c60.667 -68.667 101.667 -167 123 -295c24 -122 36 -289.667 36 -503z" />
    <glyph glyph-name="thorn" unicode="&#xfe;" horiz-adv-x="2937" 
d="M2740 958c0 -220 -15.001 -387.669 -45.001 -503.002c-29.333 -130 -77 -229.667 -143 -299c-65.333 -69.333 -150 -118.666 -254 -147.999c-100.667 -27.333 -236 -41 -406 -41c-162.667 0 -296.334 12.333 -401.001 37c-105.333 28.667 -190 76.334 -254 143.001
c-65.333 70.667 -111.666 163.667 -138.999 279c-30 123.333 -45 280.333 -45 471h-500v-897h-291v1913h291v-783h500c0 214 25.667 380.667 77 500c54 119.333 140.333 201.333 259 246c122.667 46.667 290.334 70 503.001 70c170 0 305.333 -13.667 406 -41
c108.667 -30.667 193.334 -80 254 -148c66.667 -70.667 114.334 -169 143 -295c30 -115.333 45 -283.333 45 -504zM2445 957.998c0 241.333 -13.666 412.001 -40.999 512.001c-22.667 97.333 -70.334 163 -143 197c-70 27.333 -193 41 -369 41
c-140.667 0 -240.334 -6.66699 -299.001 -20c-60.667 -12 -111 -42.333 -151 -91c-36.667 -48 -62.667 -120.333 -78 -217c-10.667 -125.333 -16 -267.333 -16 -426c0 -169.333 6.66699 -308.333 20 -417c12 -94.667 36.667 -167.334 74 -218.001
c38.667 -47.333 90.334 -77.333 155.001 -90c66 -16 164.333 -24 295 -24c124.667 0 223 6.66699 295 20c70.667 18 122.667 49.333 156 94c37.333 46 64.666 118.667 81.999 218c13.333 108.667 20 249 20 421z" />
    <glyph glyph-name="thorn" unicode="&#x44e;" horiz-adv-x="2937" 
d="M2740 958c0 -220 -15.001 -387.669 -45.001 -503.002c-29.333 -130 -77 -229.667 -143 -299c-65.333 -69.333 -150 -118.666 -254 -147.999c-100.667 -27.333 -236 -41 -406 -41c-162.667 0 -296.334 12.333 -401.001 37c-105.333 28.667 -190 76.334 -254 143.001
c-65.333 70.667 -111.666 163.667 -138.999 279c-30 123.333 -45 280.333 -45 471h-500v-897h-291v1913h291v-783h500c0 214 25.667 380.667 77 500c54 119.333 140.333 201.333 259 246c122.667 46.667 290.334 70 503.001 70c170 0 305.333 -13.667 406 -41
c108.667 -30.667 193.334 -80 254 -148c66.667 -70.667 114.334 -169 143 -295c30 -115.333 45 -283.333 45 -504zM2445 957.998c0 241.333 -13.666 412.001 -40.999 512.001c-22.667 97.333 -70.334 163 -143 197c-70 27.333 -193 41 -369 41
c-140.667 0 -240.334 -6.66699 -299.001 -20c-60.667 -12 -111 -42.333 -151 -91c-36.667 -48 -62.667 -120.333 -78 -217c-10.667 -125.333 -16 -267.333 -16 -426c0 -169.333 6.66699 -308.333 20 -417c12 -94.667 36.667 -167.334 74 -218.001
c38.667 -47.333 90.334 -77.333 155.001 -90c66 -16 164.333 -24 295 -24c124.667 0 223 6.66699 295 20c70.667 18 122.667 49.333 156 94c37.333 46 64.666 118.667 81.999 218c13.333 108.667 20 249 20 421z" />
    <glyph glyph-name="ydieresis" unicode="&#xff;" horiz-adv-x="2015" 
d="M1774 4l-291.001 -0.000976562v713h-729c-73.333 0 -130.666 -20.667 -171.999 -62c-44 -40 -66 -97.333 -66 -172v-483h-291l-4 483c0 87.333 30 168 90 242c59.333 71.333 121 111 185 119c-102.667 48.667 -178 107.334 -226 176.001c-46 71.333 -69 172.333 -69 303
c0 144 23 259.833 69 347.5s125.333 149.167 238 184.5c114.667 38.667 273 58 475 58h791v-1909zM1483 949.999l-0.000976562 729.002h-471c-140 0 -249.333 -10.667 -328 -32c-74 -24.667 -124.667 -60.334 -152 -107.001c-24 -48.667 -36 -119.667 -36 -213
c0 -86.667 13.667 -159 41 -217c30.667 -54.667 82.334 -94.334 155.001 -119.001c76 -27.333 181.333 -41 316 -41h475z" />
    <glyph glyph-name="ydieresis" unicode="&#x44f;" horiz-adv-x="2015" 
d="M1774 4l-291.001 -0.000976562v713h-729c-73.333 0 -130.666 -20.667 -171.999 -62c-44 -40 -66 -97.333 -66 -172v-483h-291l-4 483c0 87.333 30 168 90 242c59.333 71.333 121 111 185 119c-102.667 48.667 -178 107.334 -226 176.001c-46 71.333 -69 172.333 -69 303
c0 144 23 259.833 69 347.5s125.333 149.167 238 184.5c114.667 38.667 273 58 475 58h791v-1909zM1483 949.999l-0.000976562 729.002h-471c-140 0 -249.333 -10.667 -328 -32c-74 -24.667 -124.667 -60.334 -152 -107.001c-24 -48.667 -36 -119.667 -36 -213
c0 -86.667 13.667 -159 41 -217c30.667 -54.667 82.334 -94.334 155.001 -119.001c76 -27.333 181.333 -41 316 -41h475z" />
    <glyph glyph-name="emdash" unicode="&#x2013;" 
d="M2347 864h-2183v266h2183v-266z" />
    <glyph glyph-name="endash" unicode="&#x2014;" horiz-adv-x="2855" 
d="M2855 864h-2855v266h2855v-266z" />
    <glyph glyph-name="quoteleft" unicode="&#x2018;" horiz-adv-x="733" 
d="M537 2626c-69.333 -5.33301 -116.001 -22 -140.001 -50c-27.333 -23.333 -41 -71 -41 -143v-25c2.66699 -8 4 -17.333 4 -28h136v-369h-324v402c0 123.333 19 217.333 57 282c38 60 113.333 90 226 90h41c10.667 -2.66699 24.334 -4 41.001 -4v-155z" />
    <glyph glyph-name="quoteright" unicode="&#x2019;" horiz-adv-x="713" 
d="M537 2384c0 -121.333 -19.333 -214.333 -58 -279c-38 -62.667 -113 -94 -225 -94c-14 0 -27.667 1.33301 -41 4h-41v156c67.333 4 115 20.333 143 49c24.667 28.667 37 76.334 37 143c0 11.333 -1.33301 19.666 -4 25v29h-135v368h324v-401z" />
    <glyph glyph-name="quotedblleft" unicode="&#x201c;" horiz-adv-x="1278" 
d="M1114 2626c-69.333 -4.66699 -115.667 -21.334 -139 -50c-27.333 -22.667 -41 -70.334 -41 -143c0 -8 1.33301 -16.333 4 -25v-28h135v-369h-323v402c0 125.333 19 219.333 57 282c42.667 60 117.667 90 225 90h41c11.333 -2.66699 25 -4 41 -4v-155zM536.999 2626
c-69.333 -5.33301 -116.001 -22 -140.001 -50c-27.333 -23.333 -41 -71 -41 -143v-25c2.66699 -8 4 -17.333 4 -28h136v-369h-324v402c0 123.333 19 217.333 57 282c38 60 113.333 90 226 90h41c10.667 -2.66699 24.334 -4 41.001 -4v-155z" />
    <glyph glyph-name="quotedblright" unicode="&#x201d;" horiz-adv-x="1278" 
d="M1114 2384c0 -128.667 -19.002 -221.667 -57.002 -279c-38 -62.667 -113.333 -94 -226 -94c-13.333 0 -26.666 1.33301 -39.999 4h-41v156c66.667 4 114.334 20.333 143.001 49c24.667 28.667 37 76.334 37 143v25c0 16.667 -1.33301 26.334 -4 29h-135v368h323v-401z
M536.998 2384c0 -121.333 -19.333 -214.333 -58 -279c-38 -62.667 -113 -94 -225 -94c-14 0 -27.667 1.33301 -41 4h-41v156c67.333 4 115 20.333 143 49c24.667 28.667 37 76.334 37 143c0 11.333 -1.33301 19.666 -4 25v29h-135v368h324v-401z" />
    <glyph glyph-name="bullet" unicode="&#x2022;" horiz-adv-x="2458" 
d="M1606 1171c0 -110 -39.667 -202.668 -119 -278.001c-80.667 -76.667 -175 -115 -283 -115c-108.667 0 -201.334 38.333 -278.001 115c-76.667 80.667 -115 173.334 -115 278.001c0 105.333 38.333 198.333 115 279c76.667 76.667 169.334 115 278.001 115
c112 0 206.333 -38.333 283 -115c79.333 -79.333 119 -172.333 119 -279z" />
    <glyph glyph-name=".null" horiz-adv-x="0" 
 />
    <glyph glyph-name="nonmarkingreturn" horiz-adv-x="0" 
 />
    <glyph glyph-name="c279" horiz-adv-x="2048" 
d="M1184 2150c0 -44.667 -16.333 -81.334 -49 -110c-28.667 -32.667 -65.667 -49 -111 -49s-82.333 16.333 -111 49c-32.667 28.667 -49 65.334 -49 110c0 40 16.333 77 49 111c28.667 32.667 65.667 49 111 49c46.667 0 85 -15 115 -45c30 -35.333 45 -73.666 45 -115z
M1954 1311h-1860v168h1860v-168zM1184 639c0 -42.667 -16.3311 -81 -48.998 -115c-31.333 -30 -68.333 -45 -111 -45c-40 0 -77 16.333 -111 49c-32.667 34 -49 71 -49 111c0 37.333 15 75.666 45 114.999c31.333 30 69.666 45 114.999 45c41.333 0 79.666 -15 114.999 -45
c30 -35.333 45 -73.666 45 -114.999z" />
    <glyph glyph-name="Ynotequal" horiz-adv-x="2048" 
d="M1516 2126h-1008v233h1008v-233z" />
    <glyph glyph-name="Yyen" horiz-adv-x="2048" 
d="M1368 2507l-586 -361l-98 148l541 409z" />
  </font>
</defs>
</svg>
