<?xml version="1.0" encoding="utf-8"?>
<!-- Generator: Adobe Illustrator 19.2.1, SVG Export Plug-In . SVG Version: 6.00 Build 0)  -->
<svg version="1.1" id="Layer_1" xmlns="http://www.w3.org/2000/svg" xmlns:xlink="http://www.w3.org/1999/xlink" x="0px" y="0px"
	 viewBox="0 0 293.7 158.3" style="enable-background:new 0 0 293.7 158.3;" xml:space="preserve">
<style type="text/css">
	.st0{fill:#669DD5;}
	.st1{fill:#7AC4E9;}
</style>
<g>
	<g>
		<path d="M129.3,38.8c0.1,0,0.4,0.8,0.9,2.5l9.7,26.9l0,0h-2.1c-0.1,0-0.6-1.5-1.7-4.6l-2.1-5.7h-9.4h0c0.4-1.1,0.6-1.7,0.7-1.7h8
			l-2.3-6.9c-1.1-3-2-5.7-2.8-8.1c-0.1,0-0.2,0.4-0.5,1.3c-2.9,8.5-5.9,17-9,25.7h-2.1l-0.1-0.1l10.6-29.3H129.3z"/>
		<path d="M146,39.2v29H144v-29H146z"/>
		<path d="M173.1,67.2c-0.8,0.4-1.9,0.7-3.1,1c-1.5,0.3-3,0.5-4.7,0.5c-3.8,0-7-1.2-9.5-3.5c-1.3-1.3-2.3-2.8-3.1-4.6
			c-0.8-1.9-1.2-4.2-1.2-6.6c0-4.4,1.3-8,3.9-10.8c2.7-2.9,6.3-4.3,10.8-4.3c1.6,0,3.1,0.2,4.4,0.5c0.5,0.1,0.9,0.2,1.4,0.4
			c0.3,0.1,0.6,0.2,0.9,0.4l-0.6,1.7c-1.7-0.8-3.7-1.2-6-1.2c-3.9,0-7,1.2-9.2,3.6c-2.2,2.4-3.4,5.7-3.4,9.8c0,4,1.1,7.1,3.2,9.4
			c2.2,2.4,5.2,3.5,9,3.5c2.5,0,4.7-0.4,6.5-1.3L173.1,67.2z"/>
	</g>
</g>
<g>
	<path d="M108.5-595l-3.6,10.1h-2.1l10.5-29h2l10.4,29h-2.1L120-595H108.5z M119.3-596.7l-3.5-9.7c-0.3-0.9-0.6-1.8-0.9-2.7
		l-0.6-2.4h-0.1c-0.2,0.8-0.4,1.6-0.7,2.5l-0.8,2.6l-3.6,9.8H119.3z"/>
	<path d="M154.9-601.9c-0.1-1.3-0.1-2.5-0.2-3.5c-0.1-2.6-0.2-4.6-0.2-6h-0.1l-1.7,4.9c-0.7,2-1.4,3.9-2.2,5.9l-6.1,15.7H143
		l-6.9-18.6l-1-2.9c-0.7-1.9-1.2-3.6-1.6-5.1h-0.1l-0.2,6.1c-0.1,2.5-0.3,4.9-0.4,7.1l-0.9,13.3h-2l2.1-29h2.4l6.2,16.7
		c1.3,3.5,2.4,6.6,3.2,9.4h0.1c0.3-1.2,0.8-2.6,1.3-4.2l1.9-5.2l6.5-16.7h2.5l1.9,29h-2L154.9-601.9z"/>
	<path d="M184.1-585.9c-0.8,0.4-1.9,0.7-3.1,1c-1.5,0.3-3,0.5-4.7,0.5c-3.8,0-7-1.2-9.5-3.5c-1.3-1.3-2.3-2.8-3.1-4.6
		c-0.8-1.9-1.2-4.2-1.2-6.6c0-4.4,1.3-8,3.9-10.8c2.7-2.9,6.3-4.3,10.8-4.3c1.6,0,3.1,0.2,4.4,0.5c0.5,0.1,0.9,0.2,1.4,0.4
		c0.3,0.1,0.6,0.2,0.9,0.4l-0.6,1.7c-1.7-0.8-3.7-1.2-6-1.2c-3.9,0-7,1.2-9.2,3.6c-2.2,2.4-3.4,5.7-3.4,9.8c0,4,1.1,7.1,3.2,9.4
		c2.2,2.4,5.2,3.5,9,3.5c2.5,0,4.7-0.4,6.5-1.3L184.1-585.9z"/>
</g>
<g>
	<g>
		<path d="M40.4,110.6c0,0,0.2,0.4,0.5,1.3l5.2,14.4l0,0H45c0,0-0.3-0.8-0.9-2.5l-1.1-3h-5h0c0.2-0.6,0.3-0.9,0.4-0.9h4.3l-1.2-3.7
			c-0.6-1.6-1.1-3-1.5-4.3c0,0-0.1,0.2-0.3,0.7c-1.6,4.5-3.2,9.1-4.8,13.7h-1.1l0,0l5.7-15.7H40.4z"/>
		<path d="M51.8,114.9H52c1.6,0,2.8,0.7,3.6,2c0,0.1,0.1,0.1,0.1,0.2h0c0-1.3,0.1-1.9,0.1-1.9h1l0,0h0c-0.1,0.7-0.1,1.6-0.1,2.6v6.8
			c0,2.4-0.4,4.1-1.3,5c-0.5,0.5-0.9,0.8-1.4,1c-0.8,0.4-1.7,0.6-2.7,0.6c-1.4,0-2.6-0.3-3.6-1v0c0.2-0.6,0.4-0.9,0.4-0.9
			c1,0.6,2,0.9,3.2,0.9h0.1l0.1,0l0.1,0h0.1c1.3,0,2.3-0.5,3-1.4c0.3-0.4,0.5-1,0.7-1.7c0.1-0.5,0.1-1.1,0.1-2v-5.4
			c0-0.9-0.1-1.6-0.4-1.9c-0.7-1.3-1.8-2-3.2-2c-1.5,0-2.6,0.7-3.4,2.2c-0.4,0.8-0.6,1.7-0.6,2.8c0,1.6,0.5,2.9,1.6,3.8
			c0.7,0.5,1.5,0.8,2.4,0.8c0.9,0,1.8-0.4,2.5-1.1h0v1.1c-0.8,0.6-1.7,0.9-2.9,0.9c-1.4,0-2.5-0.5-3.5-1.6c-0.9-1.1-1.3-2.3-1.3-3.8
			v-0.2c0-1.8,0.6-3.3,1.8-4.5C49.6,115.3,50.7,114.9,51.8,114.9z"/>
		<path d="M64.3,114.9h0.2c1.9,0,3.1,0.9,3.9,2.8c0.3,0.8,0.4,1.5,0.4,2.3c0,0.4,0,0.6-0.1,0.6h-7.1l0,0v-0.1c0-0.5,0.1-0.8,0.1-0.8
			h5.9v0c0-1.2-0.3-2.2-1-3c-0.6-0.6-1.3-0.9-2.3-0.9c-1.5,0-2.7,0.8-3.4,2.5c-0.3,0.8-0.4,1.5-0.4,2.3v0.3c0,1.5,0.5,2.7,1.5,3.7
			c0.8,0.6,1.6,0.9,2.7,0.9h0.2c1.1,0,2.1-0.2,2.9-0.6c0,0,0.1,0.3,0.3,0.9c-0.9,0.5-2.1,0.7-3.5,0.7c-1.8,0-3.2-0.7-4.2-2.1
			c-0.7-1-1-2.1-1-3.4v-0.3c0-1.8,0.5-3.3,1.6-4.4C61.9,115.4,63,114.9,64.3,114.9z"/>
		<path d="M71.2,117.9c0-1,0-1.9-0.1-2.6h1l0.1,2h0c0.7-1.5,2-2.2,3.8-2.2c0.4,0,0.7,0,1.1,0.1c0.5,0.1,0.9,0.4,1.3,0.6
			c0.5,0.4,0.8,0.8,1.1,1.4c0.3,0.7,0.5,1.5,0.5,2.5v6.6h-1.1v-6.5c0-1.1-0.2-2-0.7-2.7c-0.5-0.8-1.3-1.1-2.4-1.1
			c-1.7,0-2.8,0.9-3.3,2.6c-0.1,0.3-0.1,0.7-0.1,1v6.9h-1.1V117.9z"/>
		<path d="M91.2,125.8c-0.1,0-0.1,0.1-0.2,0.1c-0.1,0-0.2,0.1-0.3,0.1c-0.2,0.1-0.5,0.2-0.7,0.2c-0.7,0.2-1.3,0.3-2,0.3
			c-1.6,0-2.9-0.5-3.8-1.6c-1-1-1.4-2.4-1.4-4c0-1.7,0.5-3.2,1.6-4.3c1.1-1.1,2.4-1.6,4.1-1.6c0.6,0,1.2,0.1,1.8,0.2
			c0.5,0.1,0.9,0.3,1.1,0.5l-0.4,0.9c-0.3-0.2-0.7-0.3-1-0.4c-0.5-0.1-1-0.2-1.6-0.2c-1.4,0-2.5,0.5-3.4,1.4c-0.8,0.9-1.1,2-1.1,3.4
			c0,1.4,0.4,2.6,1.2,3.5c0.8,0.9,1.9,1.3,3.2,1.3c0.6,0,1.1-0.1,1.7-0.2c0.2,0,0.4-0.1,0.6-0.2l0.3-0.1l0.2-0.1L91.2,125.8z"/>
		<path d="M93.4,115.3l2.9,7.2c0.3,0.8,0.6,1.6,0.8,2.4h0l0.4-1.1c0.2-0.5,0.3-0.9,0.5-1.3l2.7-7.2h1.2l-3.3,8.2
			c-0.4,0.9-0.7,1.7-0.9,2.3c-0.3,0.7-0.6,1.3-0.9,1.9c-0.6,1.1-1.2,2-1.9,2.6c-0.4,0.3-0.8,0.6-1.2,0.8c-0.2,0.1-0.3,0.2-0.5,0.2
			c-0.1,0-0.2,0.1-0.3,0.1l-0.3-0.9c0.7-0.3,1.3-0.7,1.9-1.2c0.3-0.3,0.6-0.7,0.9-1.1c0.4-0.5,0.7-1.1,0.9-1.7
			c0.1-0.2,0.1-0.4,0.1-0.5c0-0.1,0-0.3-0.1-0.5l-4.1-10.2H93.4z"/>
		<path d="M109.1,126.3v-10.1h-1.6v-0.9h1.6v-0.6c0-1.8,0.4-3.2,1.2-4c0.7-0.6,1.5-1,2.5-1c0.7,0,1.2,0.1,1.7,0.4l-0.3,0.8
			c-0.2-0.1-0.4-0.2-0.6-0.2c-0.2-0.1-0.5-0.1-0.8-0.1c-1,0-1.6,0.4-2,1.2c-0.3,0.6-0.5,1.6-0.5,2.8v0.6h2.9v0.9h-2.9v10.1H109.1z"
			/>
		<path d="M122.8,125.1c-1,1-2.2,1.5-3.7,1.5c-1.5,0-2.8-0.5-3.7-1.6c-1-1.1-1.4-2.4-1.4-4.1c0-1.7,0.5-3.2,1.5-4.2
			c0.8-0.9,1.9-1.5,3.2-1.6v0.9c-1,0.2-1.9,0.7-2.5,1.6c-0.7,0.9-1,2-1,3.3c0,1.2,0.3,2.3,0.9,3.2c0.7,1.1,1.8,1.6,3.1,1.6
			s2.4-0.5,3.1-1.5c0.7-0.9,1-2,1-3.3c0-1.3-0.3-2.4-1-3.3c-0.7-0.9-1.5-1.4-2.5-1.5v-0.9c1.3,0.1,2.5,0.7,3.3,1.7
			c0.9,1.1,1.3,2.4,1.3,4C124.4,122.6,123.8,124,122.8,125.1z"/>
		<path d="M127.5,118.6c0-1.2,0-2.3-0.1-3.3h1l0,2.2h0.1c0.6-1.7,1.6-2.5,3.1-2.5c0.1,0,0.2,0,0.2,0c0.1,0,0.2,0,0.2,0v1
			c-0.1,0-0.2,0-0.3,0h-0.3c-1.6,0-2.5,1-2.9,3.1c-0.1,0.3-0.1,0.6-0.1,1.1v6.1h-1.1V118.6z"/>
		<path d="M140.5,110.8v15.5h-1.1v-15.5H140.5z"/>
		<path d="M144.2,117.9c0-1,0-1.9-0.1-2.6h1l0.1,2h0c0.7-1.5,2-2.2,3.8-2.2c0.4,0,0.7,0,1.1,0.1c0.5,0.1,0.9,0.4,1.3,0.6
			c0.5,0.4,0.8,0.8,1.1,1.4c0.3,0.7,0.5,1.5,0.5,2.5v6.6h-1.1v-6.5c0-1.1-0.2-2-0.7-2.7c-0.5-0.8-1.3-1.1-2.4-1.1
			c-1.7,0-2.8,0.9-3.3,2.6c-0.1,0.3-0.1,0.7-0.1,1v6.9h-1.1V117.9z"/>
		<path d="M158.1,112.8v2.4h3.2v0.9h-3.2v7.2c0,1.5,0.5,2.3,1.6,2.3c0.5,0,0.9-0.1,1.3-0.2l0.1,0.8c-0.4,0.2-1,0.3-1.5,0.3
			c-0.8,0-1.5-0.3-1.9-0.8c-0.5-0.5-0.7-1.4-0.7-2.6v-7h-1.9v-0.9h1.9v-2L158.1,112.8z"/>
		<path d="M167.7,114.9h0.2c1.9,0,3.1,0.9,3.9,2.8c0.3,0.8,0.4,1.5,0.4,2.3c0,0.4,0,0.6-0.1,0.6H165l0,0v-0.1c0-0.5,0.1-0.8,0.1-0.8
			h5.9v0c0-1.2-0.3-2.2-1-3c-0.6-0.6-1.3-0.9-2.3-0.9c-1.5,0-2.7,0.8-3.4,2.5c-0.3,0.8-0.4,1.5-0.4,2.3v0.3c0,1.5,0.5,2.7,1.5,3.7
			c0.8,0.6,1.6,0.9,2.7,0.9h0.2c1.2,0,2.1-0.2,2.9-0.6c0,0,0.1,0.3,0.3,0.9c-0.9,0.5-2.1,0.7-3.5,0.7c-1.8,0-3.2-0.7-4.2-2.1
			c-0.7-1-1-2.1-1-3.4v-0.3c0-1.8,0.5-3.3,1.6-4.4C165.3,115.4,166.4,114.9,167.7,114.9z"/>
		<path d="M174.6,118.6c0-1.2,0-2.3-0.1-3.3h1l0,2.2h0.1c0.6-1.7,1.6-2.5,3.1-2.5c0.1,0,0.2,0,0.2,0c0.1,0,0.2,0,0.2,0v1
			c-0.1,0-0.2,0-0.3,0h-0.3c-1.6,0-2.5,1-2.9,3.1c-0.1,0.3-0.1,0.6-0.1,1.1v6.1h-1.1V118.6z"/>
		<path d="M181.4,117.9c0-1,0-1.9-0.1-2.6h1l0.1,2h0c0.7-1.5,2-2.2,3.8-2.2c0.4,0,0.7,0,1.1,0.1c0.5,0.1,0.9,0.4,1.3,0.6
			c0.5,0.4,0.8,0.8,1.1,1.4c0.3,0.7,0.5,1.5,0.5,2.5v6.6h-1.1v-6.5c0-1.1-0.2-2-0.7-2.7c-0.5-0.8-1.3-1.1-2.4-1.1
			c-1.7,0-2.8,0.9-3.3,2.6c-0.1,0.3-0.1,0.7-0.1,1v6.9h-1.1V117.9z"/>
		<path d="M196.7,114.9h0.2c1.7,0,2.8,0.7,3.4,2.2c0.2,0.7,0.4,1.4,0.4,2.2v4.4c0,1.1,0.1,2,0.2,2.6l0,0h-1c0,0-0.1-0.2-0.1-0.6
			l-0.1-1h-0.1c-0.4,0.6-0.9,1-1.3,1.2c-0.6,0.4-1.4,0.6-2.3,0.6c-1.5,0-2.6-0.7-3.1-2.1c-0.1-0.4-0.1-0.7-0.1-0.9v-0.2
			c0-1.4,0.7-2.5,2.2-3.2c0.9-0.4,1.4-0.5,1.7-0.5c0.7-0.1,1.3-0.2,1.8-0.2h0v0.9l0,0c-1.1,0-2.2,0.2-3.2,0.7
			c-0.9,0.5-1.3,1.3-1.3,2.1v0.2c0,0.9,0.4,1.6,1.2,2c0.3,0.2,0.7,0.2,1,0.2c1.3,0,2.3-0.5,3-1.6c0.3-0.4,0.4-0.9,0.4-1.4v-3.4
			c0-1.8-0.6-2.9-1.7-3.3c-0.4-0.1-0.7-0.2-1.2-0.2h-0.1c-1.1,0-2,0.3-2.8,0.8c0,0-0.2-0.3-0.4-0.8
			C194.5,115.2,195.6,114.9,196.7,114.9z"/>
		<path d="M205.4,112.8v2.4h3.2v0.9h-3.2v7.2c0,1.5,0.5,2.3,1.6,2.3c0.5,0,0.9-0.1,1.3-0.2l0.1,0.8c-0.4,0.2-1,0.3-1.5,0.3
			c-0.8,0-1.5-0.3-1.9-0.8c-0.5-0.5-0.7-1.4-0.7-2.6v-7h-1.9v-0.9h1.9v-2L205.4,112.8z"/>
		<path d="M211.5,113c-0.6,0-0.9-0.3-0.9-0.9c0-0.6,0.3-1,0.9-1c0.6,0,0.9,0.3,0.9,1C212.4,112.7,212.1,113,211.5,113L211.5,113z
			 M211,126.3v-11h1.1v11H211z"/>
		<path d="M223.5,125.1c-1,1-2.2,1.5-3.7,1.5c-1.5,0-2.8-0.5-3.7-1.6c-1-1.1-1.4-2.4-1.4-4.1c0-1.7,0.5-3.2,1.5-4.2
			c0.8-0.9,1.9-1.5,3.2-1.6v0.9c-1,0.2-1.9,0.7-2.5,1.6c-0.7,0.9-1,2-1,3.3c0,1.2,0.3,2.3,0.9,3.2c0.7,1.1,1.8,1.6,3.1,1.6
			s2.4-0.5,3.1-1.5c0.7-0.9,1-2,1-3.3c0-1.3-0.3-2.4-1-3.3c-0.7-0.9-1.5-1.4-2.5-1.5v-0.9c1.3,0.1,2.5,0.7,3.3,1.7
			c0.9,1.1,1.3,2.4,1.3,4C225.1,122.6,224.6,124,223.5,125.1z"/>
		<path d="M228.3,117.9c0-1,0-1.9-0.1-2.6h1l0.1,2h0c0.7-1.5,2-2.2,3.8-2.2c0.4,0,0.7,0,1.1,0.1c0.5,0.1,0.9,0.4,1.3,0.6
			c0.5,0.4,0.8,0.8,1.1,1.4c0.3,0.7,0.5,1.5,0.5,2.5v6.6h-1.1v-6.5c0-1.1-0.2-2-0.7-2.7c-0.5-0.8-1.3-1.1-2.4-1.1
			c-1.7,0-2.8,0.9-3.3,2.6c-0.1,0.3-0.1,0.7-0.1,1v6.9h-1.1V117.9z"/>
		<path d="M243.6,114.9h0.2c1.7,0,2.8,0.7,3.4,2.2c0.2,0.7,0.4,1.4,0.4,2.2v4.4c0,1.1,0.1,2,0.2,2.6l0,0h-1c0,0-0.1-0.2-0.1-0.6
			l-0.1-1h-0.1c-0.4,0.6-0.9,1-1.3,1.2c-0.6,0.4-1.4,0.6-2.3,0.6c-1.5,0-2.6-0.7-3.1-2.1c-0.1-0.4-0.1-0.7-0.1-0.9v-0.2
			c0-1.4,0.7-2.5,2.2-3.2c0.9-0.4,1.4-0.5,1.7-0.5c0.7-0.1,1.3-0.2,1.8-0.2h0v0.9l0,0c-1.1,0-2.2,0.2-3.2,0.7
			c-0.9,0.5-1.3,1.3-1.3,2.1v0.2c0,0.9,0.4,1.6,1.2,2c0.3,0.2,0.7,0.2,1,0.2c1.3,0,2.3-0.5,3-1.6c0.3-0.4,0.4-0.9,0.4-1.4v-3.4
			c0-1.8-0.6-2.9-1.7-3.3c-0.4-0.1-0.7-0.2-1.2-0.2h-0.1c-1.1,0-2,0.3-2.8,0.8c0,0-0.2-0.3-0.4-0.8
			C241.4,115.2,242.5,114.9,243.6,114.9z"/>
		<path d="M250.7,109.9h1.1v16.4h-1.1V109.9z"/>
		<path d="M100.7,153.3c-0.4,0.2-1,0.4-1.7,0.5c-0.8,0.2-1.6,0.3-2.5,0.3c-2.1,0-3.7-0.6-5.1-1.9c-0.7-0.7-1.3-1.5-1.6-2.5
			c-0.4-1-0.6-2.2-0.6-3.5c0-2.3,0.7-4.3,2.1-5.8c1.4-1.5,3.4-2.3,5.8-2.3c0.9,0,1.7,0.1,2.4,0.3c0.3,0.1,0.5,0.1,0.7,0.2
			c0.2,0.1,0.3,0.1,0.5,0.2l-0.3,0.9c-0.9-0.4-2-0.7-3.2-0.7c-2.1,0-3.7,0.6-4.9,1.9c-1.2,1.3-1.8,3-1.8,5.3c0,2.1,0.6,3.8,1.7,5
			c1.2,1.3,2.8,1.9,4.8,1.9c1.3,0,2.5-0.2,3.5-0.7L100.7,153.3z"/>
		<path d="M111.1,152.7c-1,1-2.2,1.5-3.7,1.5c-1.5,0-2.8-0.5-3.7-1.6c-1-1.1-1.4-2.4-1.4-4.1c0-1.7,0.5-3.2,1.5-4.2
			c0.8-0.9,1.9-1.5,3.2-1.6v0.9c-1,0.2-1.9,0.7-2.5,1.6c-0.7,0.9-1,2-1,3.3c0,1.2,0.3,2.3,0.9,3.2c0.7,1.1,1.8,1.6,3.1,1.6
			c1.3,0,2.4-0.5,3.1-1.5c0.7-0.9,1-2,1-3.3c0-1.3-0.3-2.4-1-3.3c-0.7-0.9-1.5-1.4-2.5-1.5v-0.9c1.3,0.1,2.5,0.7,3.3,1.7
			c0.9,1.1,1.3,2.4,1.3,4C112.7,150.2,112.2,151.6,111.1,152.7z"/>
		<path d="M123.6,152.7c-1,1-2.2,1.5-3.7,1.5c-1.5,0-2.8-0.5-3.7-1.6c-1-1.1-1.4-2.4-1.4-4.1c0-1.7,0.5-3.2,1.5-4.2
			c0.8-0.9,1.9-1.5,3.2-1.6v0.9c-1,0.2-1.9,0.7-2.5,1.6c-0.7,0.9-1,2-1,3.3c0,1.2,0.3,2.3,0.9,3.2c0.7,1.1,1.8,1.6,3.1,1.6
			s2.4-0.5,3.1-1.5c0.7-0.9,1-2,1-3.3c0-1.3-0.3-2.4-1-3.3c-0.7-0.9-1.5-1.4-2.5-1.5v-0.9c1.3,0.1,2.5,0.7,3.3,1.7
			c0.9,1.1,1.3,2.4,1.3,4C125.2,150.2,124.7,151.6,123.6,152.7z"/>
		<path d="M134,142.3h0.3c1.5,0,2.7,0.7,3.7,2c0.7,1,1,2.2,1,3.6v0.1c0,2.6-1,4.4-2.9,5.5c-0.7,0.3-1.4,0.5-2.2,0.5
			c-1,0-1.9-0.3-2.7-0.9V152h0c0.8,0.7,1.7,1.1,2.7,1.1c1.6,0,2.8-0.8,3.5-2.4c0.3-0.8,0.5-1.7,0.5-2.7c0-1.4-0.4-2.6-1.2-3.6
			c-0.7-0.8-1.6-1.2-2.7-1.2h-0.1c-1.1,0-2.1,0.5-3,1.5c-0.4,0.5-0.7,1.2-0.8,2c0,0.1,0,0.2,0,0.4v11.1l0,0h-1l0,0v-11.8
			c0-1.6,0-2.9-0.1-3.9h0h1l0,0l0.1,2.1h0c0.5-1,1.3-1.7,2.5-2.1C133,142.3,133.5,142.3,134,142.3z"/>
		<path d="M145.4,142.5h0.2c1.9,0,3.1,0.9,3.9,2.8c0.3,0.8,0.4,1.5,0.4,2.3c0,0.4,0,0.6-0.1,0.6h-7.1l0,0v-0.1
			c0-0.5,0.1-0.8,0.1-0.8h5.9v0c0-1.2-0.3-2.2-1-3c-0.6-0.6-1.3-0.9-2.3-0.9c-1.5,0-2.7,0.8-3.4,2.5c-0.3,0.8-0.4,1.5-0.4,2.3v0.3
			c0,1.5,0.5,2.7,1.5,3.7c0.8,0.6,1.6,0.9,2.7,0.9h0.2c1.1,0,2.1-0.2,2.9-0.6c0,0,0.1,0.3,0.3,0.9c-0.9,0.5-2.1,0.7-3.5,0.7
			c-1.8,0-3.2-0.7-4.2-2.1c-0.7-1-1-2.1-1-3.4v-0.3c0-1.8,0.5-3.3,1.6-4.4C143,143,144.1,142.5,145.4,142.5z"/>
		<path d="M152.3,146.2c0-1.2,0-2.3-0.1-3.3h1l0,2.2h0.1c0.6-1.7,1.6-2.5,3.1-2.5c0.1,0,0.2,0,0.2,0c0.1,0,0.2,0,0.2,0v1
			c-0.1,0-0.2,0-0.3,0h-0.3c-1.6,0-2.5,1-2.9,3.1c-0.1,0.3-0.1,0.6-0.1,1.1v6.1h-1.1V146.2z"/>
		<path d="M162.1,142.5h0.2c1.7,0,2.8,0.7,3.4,2.2c0.2,0.7,0.4,1.4,0.4,2.2v4.4c0,1.1,0.1,2,0.2,2.6l0,0h-1c0,0-0.1-0.2-0.1-0.6
			l-0.1-1h-0.1c-0.4,0.6-0.9,1-1.3,1.2c-0.6,0.4-1.4,0.6-2.3,0.6c-1.5,0-2.6-0.7-3.1-2.1c-0.1-0.4-0.1-0.7-0.1-0.9V151
			c0-1.4,0.7-2.5,2.2-3.2c0.9-0.4,1.4-0.5,1.7-0.5c0.7-0.1,1.3-0.2,1.8-0.2h0v0.9l0,0c-1.1,0-2.2,0.2-3.2,0.7
			c-0.9,0.5-1.3,1.3-1.3,2.1v0.2c0,0.9,0.4,1.6,1.2,2c0.3,0.2,0.7,0.2,1,0.2c1.3,0,2.3-0.5,3-1.6c0.3-0.4,0.4-0.9,0.4-1.4v-3.4
			c0-1.8-0.6-2.9-1.7-3.3c-0.4-0.1-0.7-0.2-1.2-0.2H162c-1.1,0-2,0.3-2.8,0.8c0,0-0.2-0.3-0.4-0.8
			C159.9,142.8,160.9,142.5,162.1,142.5z"/>
		<path d="M170.7,140.4v2.4h3.2v0.9h-3.2v7.2c0,1.5,0.5,2.3,1.6,2.3c0.5,0,0.9-0.1,1.3-0.2l0.1,0.8c-0.4,0.2-1,0.3-1.5,0.3
			c-0.8,0-1.5-0.3-1.9-0.8c-0.5-0.5-0.7-1.4-0.7-2.6v-7h-1.9v-0.9h1.9v-2L170.7,140.4z"/>
		<path d="M176.8,140.6c-0.6,0-0.9-0.3-0.9-0.9c0-0.6,0.3-1,0.9-1c0.6,0,0.9,0.3,0.9,1C177.7,140.3,177.4,140.6,176.8,140.6
			L176.8,140.6z M176.3,153.9v-11h1.1v11H176.3z"/>
		<path d="M188.9,152.7c-1,1-2.2,1.5-3.7,1.5c-1.5,0-2.8-0.5-3.7-1.6c-1-1.1-1.4-2.4-1.4-4.1c0-1.7,0.5-3.2,1.5-4.2
			c0.8-0.9,1.9-1.5,3.2-1.6v0.9c-1,0.2-1.9,0.7-2.5,1.6c-0.7,0.9-1,2-1,3.3c0,1.2,0.3,2.3,0.9,3.2c0.7,1.1,1.8,1.6,3.1,1.6
			s2.4-0.5,3.1-1.5c0.7-0.9,1-2,1-3.3c0-1.3-0.3-2.4-1-3.3c-0.7-0.9-1.5-1.4-2.5-1.5v-0.9c1.3,0.1,2.5,0.7,3.3,1.7
			c0.9,1.1,1.3,2.4,1.3,4C190.5,150.2,189.9,151.6,188.9,152.7z"/>
		<path d="M193.7,145.5c0-1,0-1.9-0.1-2.6h1l0.1,2h0c0.7-1.5,2-2.2,3.8-2.2c0.4,0,0.7,0,1.1,0.1c0.5,0.1,0.9,0.4,1.3,0.6
			c0.5,0.4,0.8,0.8,1.1,1.4c0.3,0.7,0.5,1.5,0.5,2.5v6.6h-1.1v-6.5c0-1.1-0.2-2-0.7-2.7c-0.5-0.8-1.3-1.2-2.4-1.2
			c-1.7,0-2.8,0.9-3.3,2.6c-0.1,0.3-0.1,0.7-0.1,1v6.9h-1.1V145.5z"/>
	</g>
</g>
<g>
	<g>
		<path d="M13.7-534.6l-1.9,5.4h-1.1l5.6-15.5h1.1l5.6,15.5h-1.1l-2-5.4H13.7z M19.5-535.5l-1.9-5.2c-0.2-0.5-0.3-1-0.5-1.4
			l-0.3-1.3h0c-0.1,0.4-0.2,0.9-0.4,1.3l-0.4,1.4l-1.9,5.2H19.5z"/>
		<path d="M31.4-540.2v0.9h-5.1v10.1h-1.1v-11H31.4z"/>
		<path d="M33.3-534.8c0,1.7,0.4,2.9,1.2,3.8c0.8,0.8,1.7,1.1,3,1.1c0.7,0,1.4-0.1,1.9-0.2c0.2,0,0.4-0.1,0.6-0.2l0.5-0.2l0.3,0.9
			c-0.1,0.1-0.3,0.1-0.4,0.2c-0.2,0.1-0.5,0.2-0.7,0.2c-0.7,0.2-1.5,0.3-2.3,0.3c-1.6,0-2.8-0.5-3.8-1.6c-0.9-1-1.4-2.3-1.4-4
			c0-1.8,0.5-3.3,1.4-4.4c0.9-1.1,2.1-1.6,3.5-1.6c0.8,0,1.6,0.2,2.2,0.6c0.5,0.3,1,0.8,1.3,1.4c0.3,0.5,0.5,1,0.6,1.6
			c0.1,0.5,0.2,1,0.2,1.4c0,0.3,0,0.5,0,0.7H33.3z M40.4-535.6c0-1-0.2-1.8-0.6-2.5c-0.6-0.9-1.4-1.4-2.6-1.4c-1.1,0-2,0.4-2.7,1.3
			c-0.6,0.7-0.9,1.6-1,2.6H40.4z"/>
		<path d="M45.3-540.2v4.7h6.3v-4.7h1.1v11h-1.1v-5.4h-6.3v5.4h-1.1v-11H45.3z"/>
		<path d="M63-540.2v0.9h-3.6v10.1h-1.1v-10.1h-3.6v-0.9H63z"/>
		<path d="M72.7-529.6c-0.1,0-0.1,0.1-0.2,0.1c-0.1,0-0.2,0.1-0.3,0.1c-0.2,0.1-0.5,0.2-0.7,0.2c-0.7,0.2-1.3,0.3-2,0.3
			c-1.6,0-2.9-0.5-3.8-1.6c-1-1-1.4-2.4-1.4-4c0-1.7,0.5-3.2,1.6-4.3c1.1-1.1,2.4-1.6,4.1-1.6c0.6,0,1.2,0.1,1.8,0.2
			c0.5,0.1,0.9,0.3,1.1,0.5l-0.4,0.9c-0.3-0.2-0.7-0.3-1-0.4c-0.5-0.1-1-0.2-1.6-0.2c-1.4,0-2.5,0.5-3.4,1.4c-0.8,0.9-1.1,2-1.1,3.4
			c0,1.4,0.4,2.6,1.2,3.5c0.8,0.9,1.9,1.3,3.2,1.3c0.6,0,1.1-0.1,1.7-0.2c0.2,0,0.4-0.1,0.6-0.2l0.3-0.1l0.2-0.1L72.7-529.6z"/>
		<path d="M82.4-540.2v0.9h-3.6v10.1h-1.1v-10.1h-3.6v-0.9H82.4z"/>
		<path d="M84.4-540.1c0.9-0.2,1.9-0.2,2.9-0.2c0.5,0,1,0,1.5,0.1c0.6,0.1,1.1,0.2,1.5,0.4c1.1,0.4,1.6,1.2,1.6,2.3
			c0,1.3-0.8,2.2-2.3,2.6v0c0.8,0.1,1.5,0.4,2,0.8c0.6,0.5,0.8,1.2,0.8,2c0,1.2-0.6,2.1-1.9,2.6c-0.5,0.2-1.1,0.3-1.8,0.4
			c-0.5,0.1-1.1,0.1-1.7,0.1c-0.5,0-1,0-1.5,0c-0.4,0-0.8,0-1.1-0.1V-540.1z M85.4-530c0.6,0.1,1.2,0.1,1.9,0.1c0.4,0,0.9,0,1.2-0.1
			c0.5-0.1,0.9-0.2,1.3-0.3c1-0.4,1.4-1,1.4-1.8c0-0.9-0.4-1.5-1.3-1.9c-0.4-0.1-0.8-0.2-1.3-0.3c-0.4,0-0.9-0.1-1.5-0.1h-1.8V-530z
			 M85.5-535.3h1.9c0.9,0,1.7-0.2,2.3-0.5c0.8-0.4,1.1-0.9,1.1-1.6c0-1.3-1.2-1.9-3.6-1.9c-0.4,0-0.7,0-1,0l-0.8,0.1V-535.3z"/>
		<path d="M99.4-528.9c-1.5,0-2.7-0.5-3.6-1.5c-1-1.1-1.5-2.4-1.5-4.1c0-1.8,0.5-3.3,1.6-4.3c1-1,2.2-1.5,3.6-1.5
			c1.5,0,2.8,0.5,3.7,1.6c1,1.1,1.4,2.4,1.4,4.1c0,1-0.2,1.9-0.5,2.6c-0.3,0.7-0.7,1.3-1.2,1.8C102-529.4,100.8-528.9,99.4-528.9
			L99.4-528.9z M99.5-529.8c1.2,0,2.1-0.5,2.9-1.4c0.8-0.9,1.2-2.1,1.2-3.5c0-1.2-0.3-2.3-0.9-3.2c-0.8-1.1-1.8-1.6-3.1-1.6
			c-1.3,0-2.4,0.5-3.1,1.5c-0.7,0.9-1,2-1,3.3c0,1.4,0.4,2.5,1.1,3.5C97.4-530.3,98.4-529.8,99.5-529.8L99.5-529.8z"/>
		<path d="M125.5-538.3c0-0.7-0.1-1.3-0.1-1.9c-0.1-1.4-0.1-2.5-0.1-3.2h0l-0.9,2.6c-0.4,1.1-0.8,2.1-1.2,3.2l-3.3,8.4h-0.8l-3.7-10
			l-0.5-1.5c-0.4-1-0.6-1.9-0.9-2.7h0l-0.1,3.3c-0.1,1.3-0.1,2.6-0.2,3.8l-0.5,7.1h-1.1l1.1-15.5h1.3l3.3,8.9c0.7,1.9,1.3,3.5,1.7,5
			h0.1c0.2-0.6,0.4-1.4,0.7-2.3l1-2.8l3.5-8.9h1.3l1,15.5h-1.1L125.5-538.3z"/>
		<path d="M130.6-534.8c0,1.7,0.4,2.9,1.2,3.8c0.8,0.8,1.7,1.1,3,1.1c0.7,0,1.4-0.1,1.9-0.2c0.2,0,0.4-0.1,0.6-0.2l0.5-0.2l0.3,0.9
			c-0.1,0.1-0.3,0.1-0.4,0.2c-0.2,0.1-0.5,0.2-0.7,0.2c-0.7,0.2-1.5,0.3-2.3,0.3c-1.6,0-2.8-0.5-3.8-1.6c-0.9-1-1.4-2.3-1.4-4
			c0-1.8,0.5-3.3,1.4-4.4c0.9-1.1,2.1-1.6,3.5-1.6c0.8,0,1.6,0.2,2.2,0.6c0.5,0.3,1,0.8,1.3,1.4c0.3,0.5,0.5,1,0.6,1.6
			c0.1,0.5,0.2,1,0.2,1.4c0,0.3,0,0.5,0,0.7H130.6z M137.7-535.6c0-1-0.2-1.8-0.6-2.5c-0.6-0.9-1.4-1.4-2.6-1.4
			c-1.1,0-2,0.4-2.7,1.3c-0.6,0.7-0.9,1.6-1,2.6H137.7z"/>
		<path d="M141.6-540.2l4.4,5h0.4v-5h1.1v5h0.4l4.4-5h1.4l-4.7,5.2c1.8,0.1,3.1,1.1,3.8,3l0.6,1.5c0.2,0.6,0.4,1.1,0.6,1.4h-1.1
			c-0.2-0.3-0.4-0.7-0.6-1.2l-0.5-1.3c-0.4-1-0.9-1.7-1.6-2.1c-0.6-0.3-1.3-0.5-2.3-0.5h-0.4v5.2h-1.1v-5.2H146
			c-1,0-1.8,0.2-2.3,0.5c-0.6,0.4-1.1,1.1-1.5,2.2l-0.5,1.3c-0.2,0.5-0.4,0.9-0.6,1.2H140c0.2-0.3,0.4-0.8,0.6-1.4l0.5-1.5
			c0.8-1.9,2-2.9,3.8-3l-4.7-5.2H141.6z"/>
		<path d="M164.2-540.2v10.1h1.1l-0.1,4.4h-0.9l-0.1-3.5h-8.1l-0.1,3.5h-0.9l-0.1-4.4h0.9c0.5-0.7,0.9-1.5,1.1-2.2
			c0.5-1.4,0.7-3.1,0.7-4.9v-3H164.2z M158.7-537.1c0,1.8-0.2,3.4-0.7,4.9c-0.1,0.4-0.3,0.8-0.5,1.1l-0.3,0.5c0,0.1-0.1,0.2-0.1,0.2
			l-0.1,0.3h6v-9.2h-4.4V-537.1z"/>
		<path d="M167.6-540.2l2.9,7.2c0.3,0.8,0.6,1.6,0.8,2.4h0l0.4-1.1c0.2-0.5,0.3-0.9,0.5-1.3l2.7-7.2h1.2l-3.3,8.2
			c-0.4,0.9-0.7,1.7-0.9,2.3c-0.3,0.7-0.6,1.3-0.9,1.9c-0.6,1.1-1.2,2-1.9,2.6c-0.4,0.3-0.8,0.6-1.2,0.8c-0.2,0.1-0.3,0.2-0.5,0.2
			c-0.1,0-0.2,0.1-0.3,0.1l-0.3-0.9c0.7-0.3,1.3-0.7,1.9-1.2c0.3-0.3,0.6-0.7,0.9-1.1c0.4-0.5,0.7-1.1,0.9-1.7
			c0.1-0.2,0.1-0.4,0.1-0.5c0-0.1,0-0.3-0.1-0.5l-4.1-10.2H167.6z"/>
		<path d="M179.2-540.2v4.7h6.3v-4.7h1.1v11h-1.1v-5.4h-6.3v5.4h-1.1v-11H179.2z"/>
		<path d="M197.1-531.8c0,0.5,0,0.9,0,1.3c0,0.5,0.1,0.9,0.1,1.3h-1l-0.2-1.6h0c-0.3,0.5-0.8,0.9-1.3,1.2c-0.7,0.4-1.4,0.6-2.2,0.6
			c-1,0-1.9-0.3-2.5-1c-0.5-0.6-0.8-1.3-0.8-2.1c0-2.7,2.2-4.1,6.7-4v-0.3c0-0.4,0-0.7-0.1-1c-0.1-0.4-0.2-0.8-0.4-1.1
			c-0.4-0.8-1.2-1.2-2.4-1.2c-1.1,0-2,0.3-2.8,0.8l-0.3-0.8c1-0.6,2-0.9,3.2-0.9c1.4,0,2.5,0.5,3.1,1.4c0.3,0.4,0.5,0.9,0.6,1.4
			c0.1,0.4,0.1,0.9,0.1,1.5V-531.8z M196-535c-0.7,0-1.3,0-1.9,0.1c-0.7,0.1-1.3,0.2-1.8,0.4c-1.3,0.5-1.9,1.3-1.9,2.5
			c0,0.8,0.2,1.3,0.7,1.7c0.4,0.4,0.9,0.6,1.5,0.6c0.9,0,1.6-0.2,2.2-0.7c0.5-0.4,0.9-0.9,1.1-1.5c0.1-0.2,0.1-0.4,0.1-0.7V-535z"/>
		<path d="M200.7-536.7c0-1.4,0-2.6-0.1-3.5h1.1l0.1,2.1h0c0.9-1.6,2.2-2.3,4.1-2.3c1.4,0,2.6,0.5,3.4,1.6c0.9,1,1.3,2.4,1.3,4
			c0,1.9-0.5,3.4-1.5,4.5c-0.9,1-2.1,1.5-3.5,1.5c-1.7,0-3-0.7-3.7-2h0v6.3h-1.1V-536.7z M201.8-533.5c0,0.3,0,0.6,0.1,0.9
			c0.5,1.9,1.7,2.8,3.6,2.8c1.2,0,2.2-0.5,2.9-1.4c0.7-0.9,1-2.1,1-3.6c0-1.3-0.3-2.4-1-3.3c-0.7-1-1.7-1.4-2.9-1.4
			c-1.9,0-3.1,1-3.7,2.9l-0.1,0.5c0,0.2,0,0.4,0,0.5V-533.5z"/>
		<path d="M217.5-528.9c-1.5,0-2.7-0.5-3.6-1.5c-1-1.1-1.5-2.4-1.5-4.1c0-1.8,0.5-3.3,1.6-4.3c1-1,2.2-1.5,3.6-1.5
			c1.5,0,2.8,0.5,3.7,1.6c1,1.1,1.4,2.4,1.4,4.1c0,1-0.2,1.9-0.5,2.6c-0.3,0.7-0.7,1.3-1.2,1.8C220.1-529.4,218.9-528.9,217.5-528.9
			L217.5-528.9z M217.6-529.8c1.2,0,2.1-0.5,2.9-1.4c0.8-0.9,1.2-2.1,1.2-3.5c0-1.2-0.3-2.3-0.9-3.2c-0.8-1.1-1.8-1.6-3.1-1.6
			c-1.3,0-2.4,0.5-3.1,1.5c-0.7,0.9-1,2-1,3.3c0,1.4,0.4,2.5,1.2,3.5C215.5-530.3,216.4-529.8,217.6-529.8L217.6-529.8z"/>
		<path d="M233.1-540.2v10.1h1.1l-0.1,4.4h-0.9l-0.1-3.5H225l-0.1,3.5H224l-0.1-4.4h0.9c0.5-0.7,0.9-1.5,1.1-2.2
			c0.5-1.4,0.7-3.1,0.7-4.9v-3H233.1z M227.6-537.1c0,1.8-0.2,3.4-0.7,4.9c-0.1,0.4-0.3,0.8-0.5,1.1l-0.3,0.5c0,0.1-0.1,0.2-0.1,0.2
			l-0.1,0.3h6v-9.2h-4.4V-537.1z"/>
		<path d="M238-540.2v4.7h6.3v-4.7h1.1v11h-1.1v-5.4H238v5.4h-1.1v-11H238z"/>
		<path d="M253.2-528.9c-1.5,0-2.7-0.5-3.6-1.5c-1-1.1-1.5-2.4-1.5-4.1c0-1.8,0.5-3.3,1.6-4.3c1-1,2.2-1.5,3.6-1.5
			c1.5,0,2.8,0.5,3.7,1.6c1,1.1,1.4,2.4,1.4,4.1c0,1-0.2,1.9-0.5,2.6c-0.3,0.7-0.7,1.3-1.2,1.8C255.8-529.4,254.6-528.9,253.2-528.9
			L253.2-528.9z M253.3-529.8c1.2,0,2.1-0.5,2.9-1.4c0.8-0.9,1.2-2.1,1.2-3.5c0-1.2-0.3-2.3-0.9-3.2c-0.8-1.1-1.8-1.6-3.1-1.6
			c-1.3,0-2.4,0.5-3.1,1.5c-0.7,0.9-1,2-1,3.3c0,1.4,0.4,2.5,1.2,3.5C251.2-530.3,252.1-529.8,253.3-529.8L253.3-529.8z"/>
		<path d="M267.4-540.2v0.9h-5.1v10.1h-1.1v-11H267.4z"/>
		<path d="M273.8-528.9c-1.5,0-2.7-0.5-3.6-1.5c-1-1.1-1.5-2.4-1.5-4.1c0-1.8,0.5-3.3,1.6-4.3c1-1,2.2-1.5,3.6-1.5
			c1.5,0,2.8,0.5,3.7,1.6c1,1.1,1.4,2.4,1.4,4.1c0,1-0.2,1.9-0.5,2.6c-0.3,0.7-0.7,1.3-1.2,1.8C276.4-529.4,275.2-528.9,273.8-528.9
			L273.8-528.9z M273.9-529.8c1.2,0,2.1-0.5,2.9-1.4c0.8-0.9,1.2-2.1,1.2-3.5c0-1.2-0.3-2.3-0.9-3.2c-0.8-1.1-1.8-1.6-3.1-1.6
			c-1.3,0-2.4,0.5-3.1,1.5c-0.7,0.9-1,2-1,3.3c0,1.4,0.4,2.5,1.2,3.5C271.8-530.3,272.7-529.8,273.9-529.8L273.9-529.8z"/>
		<path d="M80-502.1c-0.4,0.2-1,0.4-1.7,0.5c-0.8,0.2-1.6,0.3-2.5,0.3c-2.1,0-3.7-0.6-5.1-1.9c-0.7-0.7-1.3-1.5-1.6-2.5
			c-0.4-1-0.6-2.2-0.6-3.5c0-2.3,0.7-4.3,2.1-5.8c1.4-1.5,3.4-2.3,5.8-2.3c0.9,0,1.7,0.1,2.4,0.3c0.3,0.1,0.5,0.1,0.7,0.2
			c0.2,0.1,0.3,0.1,0.5,0.2l-0.3,0.9c-0.9-0.4-2-0.7-3.2-0.7c-2.1,0-3.7,0.6-4.9,1.9c-1.2,1.3-1.8,3-1.8,5.3c0,2.1,0.6,3.8,1.7,5
			c1.2,1.3,2.8,1.9,4.8,1.9c1.3,0,2.5-0.2,3.5-0.7L80-502.1z"/>
		<path d="M86.7-501.3c-1.5,0-2.7-0.5-3.6-1.5c-1-1.1-1.5-2.4-1.5-4.1c0-1.8,0.5-3.3,1.6-4.3c1-1,2.2-1.5,3.6-1.5
			c1.5,0,2.8,0.5,3.7,1.6c1,1.1,1.4,2.4,1.4,4.1c0,1-0.2,1.9-0.5,2.6c-0.3,0.7-0.7,1.3-1.2,1.8C89.3-501.8,88.1-501.3,86.7-501.3
			L86.7-501.3z M86.8-502.2c1.2,0,2.1-0.5,2.9-1.4c0.8-0.9,1.2-2.1,1.2-3.5c0-1.2-0.3-2.3-0.9-3.2c-0.8-1.1-1.8-1.6-3.1-1.6
			c-1.3,0-2.4,0.5-3.1,1.5c-0.7,0.9-1,2-1,3.3c0,1.4,0.4,2.5,1.1,3.5C84.7-502.7,85.6-502.2,86.8-502.2L86.8-502.2z"/>
		<path d="M101.5-512.6v0.9h-3.6v10.1h-1.1v-10.1h-3.6v-0.9H101.5z"/>
		<path d="M103.5-509.1c0-1.4,0-2.6-0.1-3.5h1.1l0.1,2.1h0c0.9-1.6,2.2-2.3,4.1-2.3c1.4,0,2.6,0.5,3.4,1.6c0.9,1,1.3,2.4,1.3,4
			c0,1.9-0.5,3.4-1.5,4.5c-0.9,1-2.1,1.5-3.5,1.5c-1.7,0-3-0.7-3.7-2h0v6.3h-1.1V-509.1z M104.7-505.9c0,0.3,0,0.6,0.1,0.9
			c0.5,1.9,1.7,2.8,3.6,2.8c1.2,0,2.2-0.5,2.9-1.4c0.7-0.9,1-2.1,1-3.6c0-1.3-0.3-2.4-1-3.3c-0.7-1-1.7-1.4-2.9-1.4
			c-1.9,0-3.1,1-3.7,2.9l-0.1,0.5c0,0.2,0,0.4,0,0.5V-505.9z"/>
		<path d="M115.8-512.6l2.9,7.2c0.3,0.8,0.6,1.6,0.8,2.4h0l0.4-1.1c0.2-0.5,0.3-0.9,0.5-1.3l2.7-7.2h1.2l-3.3,8.2
			c-0.4,0.9-0.7,1.7-0.9,2.3c-0.3,0.7-0.6,1.3-0.9,1.9c-0.6,1.1-1.2,2-1.9,2.6c-0.4,0.3-0.8,0.6-1.2,0.8c-0.2,0.1-0.3,0.2-0.5,0.2
			c-0.1,0-0.2,0.1-0.3,0.1l-0.3-0.9c0.7-0.3,1.3-0.7,1.9-1.2c0.3-0.3,0.6-0.7,0.9-1.1c0.4-0.5,0.7-1.1,0.9-1.7
			c0.1-0.2,0.1-0.4,0.1-0.5c0-0.1,0-0.3-0.1-0.5l-4.1-10.2H115.8z"/>
		<path d="M133.5-512.6v10.1h1.1l-0.1,4.4h-0.9l-0.1-3.5h-8.1l-0.1,3.5h-0.9l-0.1-4.4h0.9c0.5-0.7,0.9-1.5,1.1-2.2
			c0.5-1.4,0.7-3.1,0.7-4.9v-3H133.5z M128-509.5c0,1.8-0.2,3.4-0.7,4.9c-0.1,0.4-0.3,0.8-0.5,1.1l-0.3,0.5c0,0.1-0.1,0.2-0.1,0.2
			l-0.1,0.3h6v-9.2H128V-509.5z"/>
		<path d="M138.4-512.6v4.7h6.3v-4.7h1.1v11h-1.1v-5.4h-6.3v5.4h-1.1v-11H138.4z"/>
		<path d="M150.4-512.6v7.7c0,0.7,0,1.4-0.1,2.1l0,0l1-1.7c0.3-0.5,0.7-1.1,1.1-1.8l4.3-6.3h1.2v11h-1.1v-5.5c0-1.7,0-3.1,0.1-4.3h0
			c-0.8,1.3-1.5,2.6-2.3,3.7l-1,1.4l-3.2,4.7h-1.2v-11H150.4z"/>
		<path d="M162.2-512.6v3.9c0,0.8,0.2,1.5,0.6,1.9c0.4,0.5,1.2,0.8,2.1,0.8c1.1,0,2.1-0.3,2.9-0.9v-5.6h1.1v11.2h-1.1v-4.7h0
			c-0.9,0.6-2,0.9-3.1,0.9c-1.1,0-1.9-0.3-2.5-0.8c-0.7-0.6-1.1-1.4-1.1-2.6v-4.1H162.2z"/>
		<path d="M172.7-507.2c0,1.7,0.4,2.9,1.2,3.8c0.8,0.8,1.7,1.1,3,1.1c0.7,0,1.4-0.1,1.9-0.2c0.2,0,0.4-0.1,0.6-0.2l0.5-0.2l0.3,0.9
			c-0.1,0.1-0.3,0.1-0.4,0.2c-0.2,0.1-0.5,0.2-0.7,0.2c-0.7,0.2-1.5,0.3-2.3,0.3c-1.6,0-2.8-0.5-3.8-1.6c-0.9-1-1.4-2.3-1.4-4
			c0-1.8,0.5-3.3,1.4-4.4c0.9-1.1,2.1-1.6,3.5-1.6c0.8,0,1.6,0.2,2.2,0.6c0.5,0.3,1,0.8,1.3,1.4c0.3,0.5,0.5,1,0.6,1.6
			c0.1,0.5,0.2,1,0.2,1.4c0,0.3,0,0.5,0,0.7H172.7z M179.7-508c0-1-0.2-1.8-0.6-2.5c-0.6-0.9-1.4-1.4-2.6-1.4c-1.1,0-2,0.4-2.7,1.3
			c-0.6,0.7-0.9,1.6-1,2.6H179.7z"/>
		<path d="M191.3-502c-0.1,0-0.1,0.1-0.2,0.1c-0.1,0-0.2,0.1-0.3,0.1c-0.2,0.1-0.5,0.2-0.7,0.2c-0.7,0.2-1.3,0.3-2,0.3
			c-1.6,0-2.9-0.5-3.8-1.6c-1-1-1.4-2.4-1.4-4c0-1.7,0.5-3.2,1.6-4.3c1.1-1.1,2.4-1.6,4.1-1.6c0.6,0,1.2,0.1,1.8,0.2
			c0.5,0.1,0.9,0.3,1.1,0.5l-0.4,0.9c-0.3-0.2-0.7-0.3-1-0.4c-0.5-0.1-1-0.2-1.6-0.2c-1.4,0-2.5,0.5-3.4,1.4c-0.8,0.9-1.1,2-1.1,3.4
			c0,1.4,0.4,2.6,1.2,3.5c0.8,0.9,1.9,1.3,3.2,1.3c0.6,0,1.1-0.1,1.7-0.2c0.2,0,0.4-0.1,0.6-0.2l0.3-0.1l0.2-0.1L191.3-502z"/>
		<path d="M201-512.6v0.9h-3.6v10.1h-1.1v-10.1h-3.6v-0.9H201z"/>
		<path d="M203-512.5c0.9-0.2,1.9-0.2,2.9-0.2c0.5,0,1,0,1.5,0.1c0.6,0.1,1.1,0.2,1.5,0.4c1.1,0.4,1.6,1.2,1.6,2.3
			c0,1.3-0.8,2.2-2.3,2.6v0c0.8,0.1,1.5,0.4,2,0.8c0.6,0.5,0.8,1.2,0.8,2c0,1.2-0.6,2.1-1.9,2.6c-0.5,0.2-1.1,0.3-1.8,0.4
			c-0.5,0.1-1.1,0.1-1.7,0.1c-0.5,0-1,0-1.5,0c-0.4,0-0.8,0-1.1-0.1V-512.5z M204-502.4c0.6,0.1,1.2,0.1,1.9,0.1
			c0.4,0,0.9,0,1.2-0.1c0.5-0.1,0.9-0.2,1.3-0.3c1-0.4,1.4-1,1.4-1.8c0-0.9-0.4-1.5-1.3-1.9c-0.4-0.1-0.8-0.2-1.3-0.3
			c-0.4,0-0.9-0.1-1.5-0.1H204V-502.4z M204-507.7h1.9c0.9,0,1.7-0.2,2.3-0.5c0.8-0.4,1.2-0.9,1.2-1.6c0-1.3-1.2-1.9-3.6-1.9
			c-0.4,0-0.7,0-1,0l-0.8,0.1V-507.7z"/>
		<path d="M220.7-504.2c0,0.5,0,0.9,0,1.3c0,0.5,0.1,0.9,0.1,1.3h-1l-0.2-1.6h0c-0.3,0.5-0.8,0.9-1.3,1.2c-0.7,0.4-1.4,0.6-2.2,0.6
			c-1,0-1.9-0.3-2.5-1c-0.5-0.6-0.8-1.3-0.8-2.1c0-2.7,2.2-4.1,6.7-4v-0.3c0-0.4,0-0.7-0.1-1c-0.1-0.4-0.2-0.8-0.4-1.1
			c-0.4-0.8-1.2-1.2-2.4-1.2c-1.1,0-2,0.3-2.8,0.8l-0.3-0.8c1-0.6,2-0.9,3.2-0.9c1.4,0,2.5,0.5,3.1,1.4c0.3,0.4,0.5,0.9,0.6,1.4
			c0.1,0.4,0.1,0.9,0.1,1.5V-504.2z M219.6-507.4c-0.7,0-1.3,0-1.9,0.1c-0.7,0.1-1.3,0.2-1.8,0.4c-1.3,0.5-1.9,1.3-1.9,2.5
			c0,0.8,0.2,1.3,0.7,1.7c0.4,0.4,0.9,0.6,1.5,0.6c0.9,0,1.6-0.2,2.2-0.7c0.5-0.4,0.9-0.9,1.1-1.5c0.1-0.2,0.1-0.4,0.1-0.7V-507.4z"
			/>
	</g>
</g>
<path class="st0" d="M146.6,9.5c-5.6,0-10.8,4.8-15.4,14.3c-0.5,1-1,2-1.4,3.1h2.2c0.3-0.8,0.7-1.5,1-2.2
	c4.2-8.6,8.9-13.2,13.6-13.2h0L146.6,9.5L146.6,9.5z"/>
<path class="st1" d="M146.6,9.5v2c5.1,0,10.2,5.3,14.7,15.4h2.2C158.6,15.5,152.7,9.5,146.6,9.5z"/>
<g>
	<rect x="84.9" y="26.4" width="121.2" height="1"/>
</g>
<g>
	<rect x="60.4" y="49.3" width="31.3" height="1"/>
</g>
<g>
	<rect x="199.9" y="49.3" width="29.7" height="1"/>
</g>
<g>
	<rect x="52.1" y="86.6" width="189.5" height="1"/>
</g>
<path class="st1" d="M80.7,80.2l1.9,0.5c9.5-40.8,34.4-68.3,62.1-69.1v-2C116.1,10.3,90.5,38.5,80.7,80.2z"/>
<path class="st0" d="M146.6,9.5c-0.4,0-0.8,0-1.2,0v2c0.4,0,0.8,0,1.2,0c28.2,0,53.7,27.8,63.4,69.2l1.9-0.5
	C202,37.9,175.8,9.5,146.6,9.5z"/>
<path class="st1" d="M155.2,13.8c1,0,2,0,3,0.1c0.1,0,0.1,0,0.2,0c8.1,0,15.6,1.4,22.8,3.9c28.5,8.9,50.7,32.1,58.2,61.1h28.3
	C251.3,32.5,209.1,0,168,0c-36.3,0-54.5,19.5-60.9,28.3C121,19.1,137.5,13.8,155.2,13.8z"/>
<path class="st0" d="M137.9,13.8c-1,0-2,0-3,0.1c-0.1,0-0.1,0-0.2,0c-8.1,0-15.6,1.4-22.8,3.9c-28.5,8.9-50.7,32.1-58.2,61.1H25.4
	C41.8,32.5,84,0,125.1,0c36.3,0,54.5,19.5,60.9,28.3C172.2,19.1,155.6,13.8,137.9,13.8z"/>
<g>
	<rect y="78.2" width="293.7" height="3"/>
</g>
<path class="st0" d="M144.6-643.6c-5.6,0-10.8,4.8-15.4,14.3c-0.5,1-1,2-1.4,3.1h2.2c0.3-0.8,0.7-1.5,1-2.2
	c4.2-8.6,8.9-13.2,13.6-13.2l0,0V-643.6L144.6-643.6z"/>
<path class="st1" d="M144.6-643.6v2c5.1,0,10.2,5.3,14.7,15.4h2.2C156.5-637.6,150.7-643.6,144.6-643.6z"/>
<g>
	<rect x="82.8" y="-626.7" width="121.2" height="1"/>
</g>
<g>
	<rect x="58.3" y="-603.7" width="31.3" height="1"/>
</g>
<g>
	<rect x="196.6" y="-603.7" width="31.9" height="1"/>
</g>
<g>
	<rect x="50" y="-566.5" width="189.5" height="1"/>
</g>
<path class="st1" d="M78.6-572.9l1.9,0.5c9.5-40.8,34.4-68.3,62.1-69.1v-2C114-642.8,88.4-614.6,78.6-572.9z"/>
<path class="st0" d="M144.6-643.6c-0.4,0-0.8,0-1.2,0v2c0.4,0,0.8,0,1.2,0c28.2,0,53.7,27.8,63.4,69.2l1.9-0.5
	C200-615.2,173.7-643.6,144.6-643.6z"/>
<path class="st1" d="M153.2-639.2c1,0,2,0,3,0.1c0.1,0,0.1,0,0.2,0c8.1,0,15.6,1.4,22.8,3.9c28.5,8.9,50.7,32.1,58.2,61.1h28.3
	C249.2-620.5,207-653,166-653c-36.3,0-54.5,19.5-60.9,28.3C118.9-633.9,135.4-639.2,153.2-639.2z"/>
<path class="st0" d="M135.8-639.2c-1,0-2,0-3,0.1c-0.1,0-0.1,0-0.2,0c-8.1,0-15.6,1.4-22.8,3.9c-28.5,8.9-50.7,32.1-58.2,61.1H23.3
	C39.7-620.5,82-653,123-653c36.3,0,54.5,19.5,60.9,28.3C170.1-633.9,153.6-639.2,135.8-639.2z"/>
<g>
	<rect x="-2.1" y="-574.9" width="293.7" height="3"/>
</g>
</svg>
