<?xml version="1.0" encoding="utf-8"?>
<!-- Generator: Adobe Illustrator 19.2.1, SVG Export Plug-In . SVG Version: 6.00 Build 0)  -->
<svg version="1.1" id="Layer_1" xmlns="http://www.w3.org/2000/svg" xmlns:xlink="http://www.w3.org/1999/xlink" x="0px" y="0px"
	 viewBox="0 0 293.7 156.1" style="enable-background:new 0 0 293.7 156.1;" xml:space="preserve">
<style type="text/css">
	.st0{fill:#669DD5;}
	.st1{fill:#7AC4E9;}
</style>
<g>
	<g>
		<path d="M131.4,691.8c0.1,0,0.4,0.8,0.9,2.5l9.7,26.9l0,0h-2.1c-0.1,0-0.6-1.5-1.7-4.6l-2.1-5.7h-9.4h0c0.4-1.1,0.6-1.7,0.7-1.7h8
			l-2.3-6.9c-1.1-3-2-5.7-2.8-8.1c-0.1,0-0.2,0.4-0.5,1.3c-2.9,8.5-5.9,17-9,25.7h-2.1l-0.1-0.1l10.6-29.3H131.4z"/>
		<path d="M148.1,692.3v29H146v-29H148.1z"/>
		<path d="M175.2,720.2c-0.8,0.4-1.9,0.7-3.1,1c-1.5,0.3-3,0.5-4.7,0.5c-3.8,0-7-1.2-9.5-3.5c-1.3-1.3-2.3-2.8-3.1-4.6
			c-0.8-1.9-1.2-4.2-1.2-6.6c0-4.4,1.3-8,3.9-10.8c2.7-2.9,6.3-4.3,10.8-4.3c1.6,0,3.1,0.2,4.4,0.5c0.5,0.1,0.9,0.2,1.4,0.4
			c0.3,0.1,0.6,0.2,0.9,0.4l-0.6,1.7c-1.7-0.8-3.7-1.2-6-1.2c-3.9,0-7,1.2-9.2,3.6c-2.2,2.4-3.4,5.7-3.4,9.8c0,4,1.1,7.1,3.2,9.4
			c2.2,2.4,5.2,3.5,9,3.5c2.5,0,4.7-0.4,6.5-1.3L175.2,720.2z"/>
	</g>
</g>
<g>
	<path d="M110.6,58.1L107,68.2h-2.1l10.5-29h2l10.4,29h-2.1l-3.7-10.1H110.6z M121.4,56.3l-3.5-9.7c-0.3-0.9-0.6-1.8-0.9-2.7
		l-0.6-2.4h-0.1c-0.2,0.8-0.4,1.6-0.7,2.5l-0.8,2.6l-3.6,9.8H121.4z"/>
	<path d="M156.9,51.1c-0.1-1.3-0.1-2.5-0.2-3.5c-0.1-2.6-0.2-4.6-0.2-6h-0.1l-1.7,4.9c-0.7,2-1.4,3.9-2.2,5.9l-6.1,15.7H145
		l-6.9-18.6l-1-2.9c-0.7-1.9-1.2-3.6-1.6-5.1h-0.1l-0.2,6.1c-0.1,2.5-0.3,4.9-0.4,7.1l-0.9,13.3h-2l2.1-29h2.4l6.2,16.7
		c1.3,3.5,2.4,6.6,3.2,9.4h0.1c0.3-1.2,0.8-2.6,1.3-4.2l1.9-5.2l6.5-16.7h2.5l1.9,29h-2L156.9,51.1z"/>
	<path d="M186.2,67.2c-0.8,0.4-1.9,0.7-3.1,1c-1.5,0.3-3,0.5-4.7,0.5c-3.8,0-7-1.2-9.5-3.5c-1.3-1.3-2.3-2.8-3.1-4.6
		c-0.8-1.9-1.2-4.2-1.2-6.6c0-4.4,1.3-8,3.9-10.8c2.7-2.9,6.3-4.3,10.8-4.3c1.6,0,3.1,0.2,4.4,0.5c0.5,0.1,0.9,0.2,1.4,0.4
		c0.3,0.1,0.6,0.2,0.9,0.4l-0.6,1.7c-1.7-0.8-3.7-1.2-6-1.2c-3.9,0-7,1.2-9.2,3.6c-2.2,2.4-3.4,5.7-3.4,9.8c0,4,1.1,7.1,3.2,9.4
		c2.2,2.4,5.2,3.5,9,3.5c2.5,0,4.7-0.4,6.5-1.3L186.2,67.2z"/>
</g>
<g>
	<g>
		<path d="M42.5,763.6c0,0,0.2,0.4,0.5,1.3l5.2,14.4l0,0h-1.1c0,0-0.3-0.8-0.9-2.5l-1.1-3h-5h0c0.2-0.6,0.3-0.9,0.4-0.9h4.3
			l-1.2-3.7c-0.6-1.6-1.1-3-1.5-4.3c0,0-0.1,0.2-0.3,0.7c-1.6,4.5-3.2,9.1-4.8,13.7h-1.1l0,0l5.7-15.7H42.5z"/>
		<path d="M53.9,767.9h0.2c1.6,0,2.8,0.7,3.6,2c0,0.1,0.1,0.1,0.1,0.2h0c0-1.3,0.1-1.9,0.1-1.9h1l0,0h0c-0.1,0.7-0.1,1.6-0.1,2.6
			v6.8c0,2.4-0.4,4.1-1.3,5c-0.5,0.5-0.9,0.8-1.4,1c-0.8,0.4-1.7,0.6-2.7,0.6c-1.4,0-2.6-0.3-3.6-1v0c0.2-0.6,0.4-0.9,0.4-0.9
			c1,0.6,2,0.9,3.2,0.9h0.1l0.1,0l0.1,0h0.1c1.3,0,2.3-0.5,3-1.4c0.3-0.4,0.5-1,0.7-1.7c0.1-0.5,0.1-1.1,0.1-2v-5.4
			c0-0.9-0.1-1.6-0.4-1.9c-0.7-1.3-1.8-2-3.2-2c-1.5,0-2.6,0.7-3.4,2.2c-0.4,0.8-0.6,1.7-0.6,2.8c0,1.6,0.5,2.9,1.6,3.8
			c0.7,0.5,1.5,0.8,2.4,0.8c0.9,0,1.8-0.4,2.5-1.1h0v1.1c-0.8,0.6-1.7,0.9-2.9,0.9c-1.4,0-2.5-0.5-3.5-1.6c-0.9-1.1-1.3-2.3-1.3-3.8
			v-0.2c0-1.8,0.6-3.3,1.8-4.5C51.7,768.3,52.7,767.9,53.9,767.9z"/>
		<path d="M66.4,767.9h0.2c1.9,0,3.1,0.9,3.9,2.8c0.3,0.8,0.4,1.5,0.4,2.3c0,0.4,0,0.6-0.1,0.6h-7.1l0,0v-0.1c0-0.5,0.1-0.8,0.1-0.8
			h5.9v0c0-1.2-0.3-2.2-1-3c-0.6-0.6-1.3-0.9-2.3-0.9c-1.5,0-2.7,0.8-3.4,2.5c-0.3,0.8-0.4,1.5-0.4,2.3v0.3c0,1.5,0.5,2.7,1.5,3.7
			c0.8,0.6,1.6,0.9,2.7,0.9h0.2c1.1,0,2.1-0.2,2.9-0.6c0,0,0.1,0.3,0.3,0.9c-0.9,0.5-2.1,0.7-3.5,0.7c-1.8,0-3.2-0.7-4.2-2.1
			c-0.7-1-1-2.1-1-3.4v-0.3c0-1.8,0.5-3.3,1.6-4.4C63.9,768.4,65.1,767.9,66.4,767.9z"/>
		<path d="M73.3,770.9c0-1,0-1.9-0.1-2.6h1l0.1,2h0c0.7-1.5,2-2.2,3.8-2.2c0.4,0,0.7,0,1.1,0.1c0.5,0.1,0.9,0.4,1.3,0.6
			c0.5,0.4,0.8,0.8,1.1,1.4c0.3,0.7,0.5,1.5,0.5,2.5v6.6h-1.1v-6.5c0-1.1-0.2-2-0.7-2.7c-0.5-0.8-1.3-1.1-2.4-1.1
			c-1.7,0-2.8,0.9-3.3,2.6c-0.1,0.3-0.1,0.7-0.1,1v6.9h-1.1V770.9z"/>
		<path d="M93.3,778.9c-0.1,0-0.1,0.1-0.2,0.1c-0.1,0-0.2,0.1-0.3,0.1c-0.2,0.1-0.5,0.2-0.7,0.2c-0.7,0.2-1.3,0.3-2,0.3
			c-1.6,0-2.9-0.5-3.8-1.6c-1-1-1.4-2.4-1.4-4c0-1.7,0.5-3.2,1.6-4.3c1.1-1.1,2.4-1.6,4.1-1.6c0.6,0,1.2,0.1,1.8,0.2
			c0.5,0.1,0.9,0.3,1.1,0.5l-0.4,0.9c-0.3-0.2-0.7-0.3-1-0.4c-0.5-0.1-1-0.2-1.6-0.2c-1.4,0-2.5,0.5-3.4,1.4c-0.8,0.9-1.1,2-1.1,3.4
			c0,1.4,0.4,2.6,1.2,3.5c0.8,0.9,1.9,1.3,3.2,1.3c0.6,0,1.1-0.1,1.7-0.2c0.2,0,0.4-0.1,0.6-0.2l0.3-0.1L93,778L93.3,778.9z"/>
		<path d="M95.5,768.3l2.9,7.2c0.3,0.8,0.6,1.6,0.8,2.4h0l0.4-1.1c0.2-0.5,0.3-0.9,0.5-1.3l2.7-7.2h1.2l-3.3,8.2
			c-0.4,0.9-0.7,1.7-0.9,2.3c-0.3,0.7-0.6,1.3-0.9,1.9c-0.6,1.1-1.2,2-1.9,2.6c-0.4,0.3-0.8,0.6-1.2,0.8c-0.2,0.1-0.3,0.2-0.5,0.2
			c-0.1,0-0.2,0.1-0.3,0.1l-0.3-0.9c0.7-0.3,1.3-0.7,1.9-1.2c0.3-0.3,0.6-0.7,0.9-1.1c0.4-0.5,0.7-1.1,0.9-1.7
			c0.1-0.2,0.1-0.4,0.1-0.5s0-0.3-0.1-0.5l-4.1-10.2H95.5z"/>
		<path d="M111.1,779.3v-10.1h-1.6v-0.9h1.6v-0.6c0-1.8,0.4-3.2,1.2-4c0.7-0.6,1.5-1,2.5-1c0.7,0,1.2,0.1,1.7,0.4l-0.3,0.8
			c-0.2-0.1-0.4-0.2-0.6-0.2c-0.2-0.1-0.5-0.1-0.8-0.1c-1,0-1.6,0.4-2,1.2c-0.3,0.6-0.5,1.6-0.5,2.8v0.6h2.9v0.9h-2.9v10.1H111.1z"
			/>
		<path d="M124.8,778.1c-1,1-2.2,1.5-3.7,1.5c-1.5,0-2.8-0.5-3.7-1.6c-1-1.1-1.4-2.4-1.4-4.1c0-1.7,0.5-3.2,1.5-4.2
			c0.8-0.9,1.9-1.5,3.2-1.6v0.9c-1,0.2-1.9,0.7-2.5,1.6c-0.7,0.9-1,2-1,3.3c0,1.2,0.3,2.3,0.9,3.2c0.7,1.1,1.8,1.6,3.1,1.6
			s2.4-0.5,3.1-1.5c0.7-0.9,1-2,1-3.3c0-1.3-0.3-2.4-1-3.3c-0.7-0.9-1.5-1.4-2.5-1.5v-0.9c1.3,0.1,2.5,0.7,3.3,1.7
			c0.9,1.1,1.3,2.4,1.3,4C126.4,775.6,125.9,777,124.8,778.1z"/>
		<path d="M129.6,771.6c0-1.2,0-2.3-0.1-3.3h1l0,2.2h0.1c0.6-1.7,1.6-2.5,3.1-2.5c0.1,0,0.2,0,0.2,0c0.1,0,0.2,0,0.2,0v1
			c-0.1,0-0.2,0-0.3,0h-0.3c-1.6,0-2.5,1-2.9,3.1c-0.1,0.3-0.1,0.6-0.1,1.1v6.1h-1.1V771.6z"/>
		<path d="M142.6,763.8v15.5h-1.1v-15.5H142.6z"/>
		<path d="M146.3,770.9c0-1,0-1.9-0.1-2.6h1l0.1,2h0c0.7-1.5,2-2.2,3.8-2.2c0.4,0,0.7,0,1.1,0.1c0.5,0.1,0.9,0.4,1.3,0.6
			c0.5,0.4,0.8,0.8,1.1,1.4c0.3,0.7,0.5,1.5,0.5,2.5v6.6h-1.1v-6.5c0-1.1-0.2-2-0.7-2.7c-0.5-0.8-1.3-1.1-2.4-1.1
			c-1.7,0-2.8,0.9-3.3,2.6c-0.1,0.3-0.1,0.7-0.1,1v6.9h-1.1V770.9z"/>
		<path d="M160.1,765.9v2.4h3.2v0.9h-3.2v7.2c0,1.5,0.5,2.3,1.6,2.3c0.5,0,0.9-0.1,1.3-0.2l0.1,0.8c-0.4,0.2-1,0.3-1.5,0.3
			c-0.8,0-1.5-0.3-1.9-0.8c-0.5-0.5-0.7-1.4-0.7-2.6v-7h-1.9v-0.9h1.9v-2L160.1,765.9z"/>
		<path d="M169.8,767.9h0.2c1.9,0,3.1,0.9,3.9,2.8c0.3,0.8,0.4,1.5,0.4,2.3c0,0.4,0,0.6-0.1,0.6h-7.1l0,0v-0.1
			c0-0.5,0.1-0.8,0.1-0.8h5.9v0c0-1.2-0.3-2.2-1-3c-0.6-0.6-1.3-0.9-2.3-0.9c-1.5,0-2.7,0.8-3.4,2.5c-0.3,0.8-0.4,1.5-0.4,2.3v0.3
			c0,1.5,0.5,2.7,1.5,3.7c0.8,0.6,1.6,0.9,2.7,0.9h0.2c1.2,0,2.1-0.2,2.9-0.6c0,0,0.1,0.3,0.3,0.9c-0.9,0.5-2.1,0.7-3.5,0.7
			c-1.8,0-3.2-0.7-4.2-2.1c-0.7-1-1-2.1-1-3.4v-0.3c0-1.8,0.5-3.3,1.6-4.4C167.4,768.4,168.5,767.9,169.8,767.9z"/>
		<path d="M176.7,771.6c0-1.2,0-2.3-0.1-3.3h1l0,2.2h0.1c0.6-1.7,1.6-2.5,3.1-2.5c0.1,0,0.2,0,0.2,0c0.1,0,0.2,0,0.2,0v1
			c-0.1,0-0.2,0-0.3,0h-0.3c-1.6,0-2.5,1-2.9,3.1c-0.1,0.3-0.1,0.6-0.1,1.1v6.1h-1.1V771.6z"/>
		<path d="M183.5,770.9c0-1,0-1.9-0.1-2.6h1l0.1,2h0c0.7-1.5,2-2.2,3.8-2.2c0.4,0,0.7,0,1.1,0.1c0.5,0.1,0.9,0.4,1.3,0.6
			c0.5,0.4,0.8,0.8,1.1,1.4c0.3,0.7,0.5,1.5,0.5,2.5v6.6h-1.1v-6.5c0-1.1-0.2-2-0.7-2.7c-0.5-0.8-1.3-1.1-2.4-1.1
			c-1.7,0-2.8,0.9-3.3,2.6c-0.1,0.3-0.1,0.7-0.1,1v6.9h-1.1V770.9z"/>
		<path d="M198.8,767.9h0.2c1.7,0,2.8,0.7,3.4,2.2c0.2,0.7,0.4,1.4,0.4,2.2v4.4c0,1.1,0.1,2,0.2,2.6l0,0h-1c0,0-0.1-0.2-0.1-0.6
			l-0.1-1h-0.1c-0.4,0.6-0.9,1-1.3,1.2c-0.6,0.4-1.4,0.6-2.3,0.6c-1.5,0-2.6-0.7-3.1-2.1c-0.1-0.4-0.1-0.7-0.1-0.9v-0.2
			c0-1.4,0.7-2.5,2.2-3.2c0.9-0.4,1.4-0.5,1.7-0.5c0.7-0.1,1.3-0.2,1.8-0.2h0v0.9l0,0c-1.1,0-2.2,0.2-3.2,0.7
			c-0.9,0.5-1.3,1.3-1.3,2.1v0.2c0,0.9,0.4,1.6,1.2,2c0.3,0.2,0.7,0.2,1,0.2c1.3,0,2.3-0.5,3-1.6c0.3-0.4,0.4-0.9,0.4-1.4v-3.4
			c0-1.8-0.6-2.9-1.7-3.3c-0.4-0.1-0.7-0.2-1.2-0.2h-0.1c-1.1,0-2,0.3-2.8,0.8c0,0-0.2-0.3-0.4-0.8
			C196.6,768.2,197.7,767.9,198.8,767.9z"/>
		<path d="M207.5,765.9v2.4h3.2v0.9h-3.2v7.2c0,1.5,0.5,2.3,1.6,2.3c0.5,0,0.9-0.1,1.3-0.2l0.1,0.8c-0.4,0.2-1,0.3-1.5,0.3
			c-0.8,0-1.5-0.3-1.9-0.8c-0.5-0.5-0.7-1.4-0.7-2.6v-7h-1.9v-0.9h1.9v-2L207.5,765.9z"/>
		<path d="M213.6,766.1c-0.6,0-0.9-0.3-0.9-0.9c0-0.6,0.3-1,0.9-1c0.6,0,0.9,0.3,0.9,1C214.5,765.8,214.2,766.1,213.6,766.1
			L213.6,766.1z M213,779.3v-11h1.1v11H213z"/>
		<path d="M225.6,778.1c-1,1-2.2,1.5-3.7,1.5c-1.5,0-2.8-0.5-3.7-1.6c-1-1.1-1.4-2.4-1.4-4.1c0-1.7,0.5-3.2,1.5-4.2
			c0.8-0.9,1.9-1.5,3.2-1.6v0.9c-1,0.2-1.9,0.7-2.5,1.6c-0.7,0.9-1,2-1,3.3c0,1.2,0.3,2.3,0.9,3.2c0.7,1.1,1.8,1.6,3.1,1.6
			s2.4-0.5,3.1-1.5c0.7-0.9,1-2,1-3.3c0-1.3-0.3-2.4-1-3.3c-0.7-0.9-1.5-1.4-2.5-1.5v-0.9c1.3,0.1,2.5,0.7,3.3,1.7
			c0.9,1.1,1.3,2.4,1.3,4C227.2,775.6,226.7,777,225.6,778.1z"/>
		<path d="M230.4,770.9c0-1,0-1.9-0.1-2.6h1l0.1,2h0c0.7-1.5,2-2.2,3.8-2.2c0.4,0,0.7,0,1.1,0.1c0.5,0.1,0.9,0.4,1.3,0.6
			c0.5,0.4,0.8,0.8,1.1,1.4c0.3,0.7,0.5,1.5,0.5,2.5v6.6H238v-6.5c0-1.1-0.2-2-0.7-2.7c-0.5-0.8-1.3-1.1-2.4-1.1
			c-1.7,0-2.8,0.9-3.3,2.6c-0.1,0.3-0.1,0.7-0.1,1v6.9h-1.1V770.9z"/>
		<path d="M245.7,767.9h0.2c1.7,0,2.8,0.7,3.4,2.2c0.2,0.7,0.4,1.4,0.4,2.2v4.4c0,1.1,0.1,2,0.2,2.6l0,0h-1c0,0-0.1-0.2-0.1-0.6
			l-0.1-1h-0.1c-0.4,0.6-0.9,1-1.3,1.2c-0.6,0.4-1.4,0.6-2.3,0.6c-1.5,0-2.6-0.7-3.1-2.1c-0.1-0.4-0.1-0.7-0.1-0.9v-0.2
			c0-1.4,0.7-2.5,2.2-3.2c0.9-0.4,1.4-0.5,1.7-0.5c0.7-0.1,1.3-0.2,1.8-0.2h0v0.9l0,0c-1.1,0-2.2,0.2-3.2,0.7
			c-0.9,0.5-1.3,1.3-1.3,2.1v0.2c0,0.9,0.4,1.6,1.2,2c0.3,0.2,0.7,0.2,1,0.2c1.3,0,2.3-0.5,3-1.6c0.3-0.4,0.4-0.9,0.4-1.4v-3.4
			c0-1.8-0.6-2.9-1.7-3.3c-0.4-0.1-0.7-0.2-1.2-0.2h-0.1c-1.1,0-2,0.3-2.8,0.8c0,0-0.2-0.3-0.4-0.8
			C243.5,768.2,244.5,767.9,245.7,767.9z"/>
		<path d="M252.8,763h1.1v16.4h-1.1V763z"/>
		<path d="M102.8,806.4c-0.4,0.2-1,0.4-1.7,0.5c-0.8,0.2-1.6,0.3-2.5,0.3c-2.1,0-3.7-0.6-5.1-1.9c-0.7-0.7-1.3-1.5-1.6-2.5
			c-0.4-1-0.6-2.2-0.6-3.5c0-2.3,0.7-4.3,2.1-5.8c1.4-1.5,3.4-2.3,5.8-2.3c0.9,0,1.7,0.1,2.4,0.3c0.3,0.1,0.5,0.1,0.7,0.2
			c0.2,0.1,0.3,0.1,0.5,0.2l-0.3,0.9c-0.9-0.4-2-0.7-3.2-0.7c-2.1,0-3.7,0.6-4.9,1.9c-1.2,1.3-1.8,3-1.8,5.3c0,2.1,0.6,3.8,1.7,5
			c1.2,1.3,2.8,1.9,4.8,1.9c1.3,0,2.5-0.2,3.5-0.7L102.8,806.4z"/>
		<path d="M113.2,805.7c-1,1-2.2,1.5-3.7,1.5c-1.5,0-2.8-0.5-3.7-1.6c-1-1.1-1.4-2.4-1.4-4.1c0-1.7,0.5-3.2,1.5-4.2
			c0.8-0.9,1.9-1.5,3.2-1.6v0.9c-1,0.2-1.9,0.7-2.5,1.6c-0.7,0.9-1,2-1,3.3c0,1.2,0.3,2.3,0.9,3.2c0.7,1.1,1.8,1.6,3.1,1.6
			c1.3,0,2.4-0.5,3.1-1.5c0.7-0.9,1-2,1-3.3c0-1.3-0.3-2.4-1-3.3c-0.7-0.9-1.5-1.4-2.5-1.5v-0.9c1.3,0.1,2.5,0.7,3.3,1.7
			c0.9,1.1,1.3,2.4,1.3,4C114.8,803.2,114.2,804.6,113.2,805.7z"/>
		<path d="M125.7,805.7c-1,1-2.2,1.5-3.7,1.5c-1.5,0-2.8-0.5-3.7-1.6c-1-1.1-1.4-2.4-1.4-4.1c0-1.7,0.5-3.2,1.5-4.2
			c0.8-0.9,1.9-1.5,3.2-1.6v0.9c-1,0.2-1.9,0.7-2.5,1.6c-0.7,0.9-1,2-1,3.3c0,1.2,0.3,2.3,0.9,3.2c0.7,1.1,1.8,1.6,3.1,1.6
			s2.4-0.5,3.1-1.5c0.7-0.9,1-2,1-3.3c0-1.3-0.3-2.4-1-3.3c-0.7-0.9-1.5-1.4-2.5-1.5v-0.9c1.3,0.1,2.5,0.7,3.3,1.7
			c0.9,1.1,1.3,2.4,1.3,4C127.3,803.2,126.8,804.6,125.7,805.7z"/>
		<path d="M136.1,795.3h0.3c1.5,0,2.7,0.7,3.7,2c0.7,1,1,2.2,1,3.6v0.1c0,2.6-1,4.4-2.9,5.5c-0.7,0.3-1.4,0.5-2.2,0.5
			c-1,0-1.9-0.3-2.7-0.9V805h0c0.8,0.7,1.7,1.1,2.7,1.1c1.6,0,2.8-0.8,3.5-2.4c0.3-0.8,0.5-1.7,0.5-2.7c0-1.4-0.4-2.6-1.2-3.6
			c-0.7-0.8-1.6-1.2-2.7-1.2h-0.1c-1.1,0-2.1,0.5-3,1.5c-0.4,0.5-0.7,1.2-0.8,2c0,0.1,0,0.2,0,0.4v11.1l0,0h-1l0,0v-11.8
			c0-1.6,0-2.9-0.1-3.9h0h1l0,0l0.1,2.1h0c0.5-1,1.3-1.7,2.5-2.1C135.1,795.4,135.6,795.3,136.1,795.3z"/>
		<path d="M147.4,795.5h0.2c1.9,0,3.1,0.9,3.9,2.8c0.3,0.8,0.4,1.5,0.4,2.3c0,0.4,0,0.6-0.1,0.6h-7.1l0,0v-0.1
			c0-0.5,0.1-0.8,0.1-0.8h5.9v0c0-1.2-0.3-2.2-1-3c-0.6-0.6-1.3-0.9-2.3-0.9c-1.5,0-2.7,0.8-3.4,2.5c-0.3,0.8-0.4,1.5-0.4,2.3v0.3
			c0,1.5,0.5,2.7,1.5,3.7c0.8,0.6,1.6,0.9,2.7,0.9h0.2c1.1,0,2.1-0.2,2.9-0.6c0,0,0.1,0.3,0.3,0.9c-0.9,0.5-2.1,0.7-3.5,0.7
			c-1.8,0-3.2-0.7-4.2-2.1c-0.7-1-1-2.1-1-3.4v-0.3c0-1.8,0.5-3.3,1.6-4.4C145,796,146.2,795.5,147.4,795.5z"/>
		<path d="M154.4,799.2c0-1.2,0-2.3-0.1-3.3h1l0,2.2h0.1c0.6-1.7,1.6-2.5,3.1-2.5c0.1,0,0.2,0,0.2,0c0.1,0,0.2,0,0.2,0v1
			c-0.1,0-0.2,0-0.3,0h-0.3c-1.6,0-2.5,1-2.9,3.1c-0.1,0.3-0.1,0.6-0.1,1.1v6.1h-1.1V799.2z"/>
		<path d="M164.2,795.5h0.2c1.7,0,2.8,0.7,3.4,2.2c0.2,0.7,0.4,1.4,0.4,2.2v4.4c0,1.1,0.1,2,0.2,2.6l0,0h-1c0,0-0.1-0.2-0.1-0.6
			l-0.1-1H167c-0.4,0.6-0.9,1-1.3,1.2c-0.6,0.4-1.4,0.6-2.3,0.6c-1.5,0-2.6-0.7-3.1-2.1c-0.1-0.4-0.1-0.7-0.1-0.9V804
			c0-1.4,0.7-2.5,2.2-3.2c0.9-0.4,1.4-0.5,1.7-0.5c0.7-0.1,1.3-0.2,1.8-0.2h0v0.9l0,0c-1.1,0-2.2,0.2-3.2,0.7
			c-0.9,0.5-1.3,1.3-1.3,2.1v0.2c0,0.9,0.4,1.6,1.2,2c0.3,0.2,0.7,0.2,1,0.2c1.3,0,2.3-0.5,3-1.6c0.3-0.4,0.4-0.9,0.4-1.4v-3.4
			c0-1.8-0.6-2.9-1.7-3.3c-0.4-0.1-0.7-0.2-1.2-0.2h-0.1c-1.1,0-2,0.3-2.8,0.8c0,0-0.2-0.3-0.4-0.8
			C161.9,795.8,163,795.5,164.2,795.5z"/>
		<path d="M172.8,793.5v2.4h3.2v0.9h-3.2v7.2c0,1.5,0.5,2.3,1.6,2.3c0.5,0,0.9-0.1,1.3-0.2l0.1,0.8c-0.4,0.2-1,0.3-1.5,0.3
			c-0.8,0-1.5-0.3-1.9-0.8c-0.5-0.5-0.7-1.4-0.7-2.6v-7h-1.9v-0.9h1.9v-2L172.8,793.5z"/>
		<path d="M178.9,793.7c-0.6,0-0.9-0.3-0.9-0.9c0-0.6,0.3-1,0.9-1c0.6,0,0.9,0.3,0.9,1C179.8,793.4,179.5,793.7,178.9,793.7
			L178.9,793.7z M178.4,806.9v-11h1.1v11H178.4z"/>
		<path d="M191,805.7c-1,1-2.2,1.5-3.7,1.5c-1.5,0-2.8-0.5-3.7-1.6c-1-1.1-1.4-2.4-1.4-4.1c0-1.7,0.5-3.2,1.5-4.2
			c0.8-0.9,1.9-1.5,3.2-1.6v0.9c-1,0.2-1.9,0.7-2.5,1.6c-0.7,0.9-1,2-1,3.3c0,1.2,0.3,2.3,0.9,3.2c0.7,1.1,1.8,1.6,3.1,1.6
			c1.3,0,2.4-0.5,3.1-1.5c0.7-0.9,1-2,1-3.3c0-1.3-0.3-2.4-1-3.3c-0.7-0.9-1.5-1.4-2.5-1.5v-0.9c1.3,0.1,2.5,0.7,3.3,1.7
			c0.9,1.1,1.3,2.4,1.3,4C192.5,803.2,192,804.6,191,805.7z"/>
		<path d="M195.7,798.5c0-1,0-1.9-0.1-2.6h1l0.1,2h0c0.7-1.5,2-2.2,3.8-2.2c0.4,0,0.7,0,1.1,0.1c0.5,0.1,0.9,0.4,1.3,0.6
			c0.5,0.4,0.8,0.8,1.1,1.4c0.3,0.7,0.5,1.5,0.5,2.5v6.6h-1.1v-6.5c0-1.1-0.2-2-0.7-2.7c-0.5-0.8-1.3-1.2-2.4-1.2
			c-1.7,0-2.8,0.9-3.3,2.6c-0.1,0.3-0.1,0.7-0.1,1v6.9h-1.1V798.5z"/>
	</g>
</g>
<g>
	<g>
		<path d="M15.8,118.5l-1.9,5.4h-1.1l5.6-15.5h1.1l5.6,15.5h-1.1l-2-5.4H15.8z M21.6,117.6l-1.9-5.2c-0.2-0.5-0.3-1-0.5-1.4
			l-0.3-1.3h0c-0.1,0.4-0.2,0.9-0.4,1.3l-0.4,1.4l-1.9,5.2H21.6z"/>
		<path d="M33.5,112.9v0.9h-5.1v10.1h-1.1v-11H33.5z"/>
		<path d="M35.4,118.3c0,1.7,0.4,2.9,1.2,3.8c0.8,0.8,1.7,1.1,3,1.1c0.7,0,1.4-0.1,1.9-0.2c0.2,0,0.4-0.1,0.6-0.2l0.5-0.2l0.3,0.9
			c-0.1,0.1-0.3,0.1-0.4,0.2c-0.2,0.1-0.5,0.2-0.7,0.2c-0.7,0.2-1.5,0.3-2.3,0.3c-1.6,0-2.8-0.5-3.8-1.6c-0.9-1-1.4-2.3-1.4-4
			c0-1.8,0.5-3.3,1.4-4.4c0.9-1.1,2.1-1.6,3.5-1.6c0.8,0,1.6,0.2,2.2,0.6c0.5,0.3,1,0.8,1.3,1.4c0.3,0.5,0.5,1,0.6,1.6
			c0.1,0.5,0.2,1,0.2,1.4c0,0.3,0,0.5,0,0.7H35.4z M42.4,117.4c0-1-0.2-1.8-0.6-2.5c-0.6-0.9-1.4-1.4-2.6-1.4c-1.1,0-2,0.4-2.7,1.3
			c-0.6,0.7-0.9,1.6-1,2.6H42.4z"/>
		<path d="M47.4,112.9v4.7h6.3v-4.7h1.1v11h-1.1v-5.4h-6.3v5.4h-1.1v-11H47.4z"/>
		<path d="M65.1,112.9v0.9h-3.6v10.1h-1.1v-10.1h-3.6v-0.9H65.1z"/>
		<path d="M74.8,123.4c-0.1,0-0.1,0.1-0.2,0.1c-0.1,0-0.2,0.1-0.3,0.1c-0.2,0.1-0.5,0.2-0.7,0.2c-0.7,0.2-1.3,0.3-2,0.3
			c-1.6,0-2.9-0.5-3.8-1.6c-1-1-1.4-2.4-1.4-4c0-1.7,0.5-3.2,1.6-4.3c1.1-1.1,2.4-1.6,4.1-1.6c0.6,0,1.2,0.1,1.8,0.2
			c0.5,0.1,0.9,0.3,1.1,0.5l-0.4,0.9c-0.3-0.2-0.7-0.3-1-0.4c-0.5-0.1-1-0.2-1.6-0.2c-1.4,0-2.5,0.5-3.4,1.4c-0.8,0.9-1.1,2-1.1,3.4
			c0,1.4,0.4,2.6,1.2,3.5c0.8,0.9,1.9,1.3,3.2,1.3c0.6,0,1.1-0.1,1.7-0.2c0.2,0,0.4-0.1,0.6-0.2l0.3-0.1l0.2-0.1L74.8,123.4z"/>
		<path d="M84.5,112.9v0.9h-3.6v10.1h-1.1v-10.1h-3.6v-0.9H84.5z"/>
		<path d="M86.5,113c0.9-0.2,1.9-0.2,2.9-0.2c0.5,0,1,0,1.5,0.1c0.6,0.1,1.1,0.2,1.5,0.4c1.1,0.4,1.6,1.2,1.6,2.3
			c0,1.3-0.8,2.2-2.3,2.6v0c0.8,0.1,1.5,0.4,2,0.8c0.6,0.5,0.8,1.2,0.8,2c0,1.2-0.6,2.1-1.9,2.6c-0.5,0.2-1.1,0.3-1.8,0.4
			c-0.5,0.1-1.1,0.1-1.7,0.1c-0.5,0-1,0-1.5,0c-0.4,0-0.8,0-1.1-0.1V113z M87.5,123c0.6,0.1,1.2,0.1,1.9,0.1c0.4,0,0.9,0,1.2-0.1
			c0.5-0.1,0.9-0.2,1.3-0.3c1-0.4,1.4-1,1.4-1.8c0-0.9-0.4-1.5-1.3-1.9c-0.4-0.1-0.8-0.2-1.3-0.3c-0.4,0-0.9-0.1-1.5-0.1h-1.8V123z
			 M87.5,117.7h1.9c0.9,0,1.7-0.2,2.3-0.5c0.8-0.4,1.1-0.9,1.1-1.6c0-1.3-1.2-1.9-3.6-1.9c-0.4,0-0.7,0-1,0l-0.8,0.1V117.7z"/>
		<path d="M101.5,124.2c-1.5,0-2.7-0.5-3.6-1.5c-1-1.1-1.5-2.4-1.5-4.1c0-1.8,0.5-3.3,1.6-4.3c1-1,2.2-1.5,3.6-1.5
			c1.5,0,2.8,0.5,3.7,1.6c1,1.1,1.4,2.4,1.4,4.1c0,1-0.2,1.9-0.5,2.6c-0.3,0.7-0.7,1.3-1.2,1.8C104.1,123.7,102.9,124.2,101.5,124.2
			L101.5,124.2z M101.6,123.2c1.2,0,2.1-0.5,2.9-1.4c0.8-0.9,1.2-2.1,1.2-3.5c0-1.2-0.3-2.3-0.9-3.2c-0.8-1.1-1.8-1.6-3.1-1.6
			c-1.3,0-2.4,0.5-3.1,1.5c-0.7,0.9-1,2-1,3.3c0,1.4,0.4,2.5,1.1,3.5C99.5,122.8,100.4,123.2,101.6,123.2L101.6,123.2z"/>
		<path d="M127.6,114.8c0-0.7-0.1-1.3-0.1-1.9c-0.1-1.4-0.1-2.5-0.1-3.2h0l-0.9,2.6c-0.4,1.1-0.8,2.1-1.2,3.2l-3.3,8.4h-0.8l-3.7-10
			l-0.5-1.5c-0.4-1-0.6-1.9-0.9-2.7h0L116,113c-0.1,1.3-0.1,2.6-0.2,3.8l-0.5,7.1h-1.1l1.1-15.5h1.3l3.3,8.9c0.7,1.9,1.3,3.5,1.7,5
			h0.1c0.2-0.6,0.4-1.4,0.7-2.3l1-2.8l3.5-8.9h1.3l1,15.5h-1.1L127.6,114.8z"/>
		<path d="M132.7,118.3c0,1.7,0.4,2.9,1.2,3.8c0.8,0.8,1.7,1.1,3,1.1c0.7,0,1.4-0.1,1.9-0.2c0.2,0,0.4-0.1,0.6-0.2l0.5-0.2l0.3,0.9
			c-0.1,0.1-0.3,0.1-0.4,0.2c-0.2,0.1-0.5,0.2-0.7,0.2c-0.7,0.2-1.5,0.3-2.3,0.3c-1.6,0-2.8-0.5-3.8-1.6c-0.9-1-1.4-2.3-1.4-4
			c0-1.8,0.5-3.3,1.4-4.4c0.9-1.1,2.1-1.6,3.5-1.6c0.8,0,1.6,0.2,2.2,0.6c0.5,0.3,1,0.8,1.3,1.4c0.3,0.5,0.5,1,0.6,1.6
			c0.1,0.5,0.2,1,0.2,1.4c0,0.3,0,0.5,0,0.7H132.7z M139.7,117.4c0-1-0.2-1.8-0.6-2.5c-0.6-0.9-1.4-1.4-2.6-1.4
			c-1.1,0-2,0.4-2.7,1.3c-0.6,0.7-0.9,1.6-1,2.6H139.7z"/>
		<path d="M143.7,112.9l4.4,5h0.4v-5h1.1v5h0.4l4.4-5h1.4L151,118c1.8,0.1,3.1,1.1,3.8,3l0.6,1.5c0.2,0.6,0.4,1.1,0.6,1.4h-1.1
			c-0.2-0.3-0.4-0.7-0.6-1.2l-0.5-1.3c-0.4-1-0.9-1.7-1.6-2.1c-0.6-0.3-1.3-0.5-2.3-0.5h-0.4v5.2h-1.1v-5.2h-0.4
			c-1,0-1.8,0.2-2.3,0.5c-0.6,0.4-1.1,1.1-1.5,2.2l-0.5,1.3c-0.2,0.5-0.4,0.9-0.6,1.2h-1.1c0.2-0.3,0.4-0.8,0.6-1.4l0.5-1.5
			c0.8-1.9,2-2.9,3.8-3l-4.7-5.2H143.7z"/>
		<path d="M166.3,112.9V123h1.1l-0.1,4.4h-0.9l-0.1-3.5h-8.1l-0.1,3.5h-0.9l-0.1-4.4h0.9c0.5-0.7,0.9-1.5,1.1-2.2
			c0.5-1.4,0.7-3.1,0.7-4.9v-3H166.3z M160.8,115.9c0,1.8-0.2,3.4-0.7,4.9c-0.1,0.4-0.3,0.8-0.5,1.1l-0.3,0.5c0,0.1-0.1,0.2-0.1,0.2
			l-0.1,0.3h6v-9.2h-4.4V115.9z"/>
		<path d="M169.7,112.9l2.9,7.2c0.3,0.8,0.6,1.6,0.8,2.4h0l0.4-1.1c0.2-0.5,0.3-0.9,0.5-1.3l2.7-7.2h1.2l-3.3,8.2
			c-0.4,0.9-0.7,1.7-0.9,2.3c-0.3,0.7-0.6,1.3-0.9,1.9c-0.6,1.1-1.2,2-1.9,2.6c-0.4,0.3-0.8,0.6-1.2,0.8c-0.2,0.1-0.3,0.2-0.5,0.2
			c-0.1,0-0.2,0.1-0.3,0.1l-0.3-0.9c0.7-0.3,1.3-0.7,1.9-1.2c0.3-0.3,0.6-0.7,0.9-1.1c0.4-0.5,0.7-1.1,0.9-1.7
			c0.1-0.2,0.1-0.4,0.1-0.5c0-0.1,0-0.3-0.1-0.5l-4.1-10.2H169.7z"/>
		<path d="M181.3,112.9v4.7h6.3v-4.7h1.1v11h-1.1v-5.4h-6.3v5.4h-1.1v-11H181.3z"/>
		<path d="M199.2,121.3c0,0.5,0,0.9,0,1.3c0,0.5,0.1,0.9,0.1,1.3h-1l-0.2-1.6h0c-0.3,0.5-0.8,0.9-1.3,1.2c-0.7,0.4-1.4,0.6-2.2,0.6
			c-1,0-1.9-0.3-2.5-1c-0.5-0.6-0.8-1.3-0.8-2.1c0-2.7,2.2-4.1,6.7-4v-0.3c0-0.4,0-0.7-0.1-1c-0.1-0.4-0.2-0.8-0.4-1.1
			c-0.4-0.8-1.2-1.2-2.4-1.2c-1.1,0-2,0.3-2.8,0.8l-0.3-0.8c1-0.6,2-0.9,3.2-0.9c1.4,0,2.5,0.5,3.1,1.4c0.3,0.4,0.5,0.9,0.6,1.4
			c0.1,0.4,0.1,0.9,0.1,1.5V121.3z M198.1,118c-0.7,0-1.3,0-1.9,0.1c-0.7,0.1-1.3,0.2-1.8,0.4c-1.3,0.5-1.9,1.3-1.9,2.5
			c0,0.8,0.2,1.3,0.7,1.7c0.4,0.4,0.9,0.6,1.5,0.6c0.9,0,1.6-0.2,2.2-0.7c0.5-0.4,0.9-0.9,1.1-1.5c0.1-0.2,0.1-0.4,0.1-0.7V118z"/>
		<path d="M202.7,116.4c0-1.4,0-2.6-0.1-3.5h1.1l0.1,2.1h0c0.9-1.6,2.2-2.3,4.1-2.3c1.4,0,2.6,0.5,3.4,1.6c0.9,1,1.3,2.4,1.3,4
			c0,1.9-0.5,3.4-1.5,4.5c-0.9,1-2.1,1.5-3.5,1.5c-1.7,0-3-0.7-3.7-2h0v6.3h-1.1V116.4z M203.8,119.6c0,0.3,0,0.6,0.1,0.9
			c0.5,1.9,1.7,2.8,3.6,2.8c1.2,0,2.2-0.5,2.9-1.4c0.7-0.9,1-2.1,1-3.6c0-1.3-0.3-2.4-1-3.3c-0.7-1-1.7-1.4-2.9-1.4
			c-1.9,0-3.1,1-3.7,2.9l-0.1,0.5c0,0.2,0,0.4,0,0.5V119.6z"/>
		<path d="M219.6,124.2c-1.5,0-2.7-0.5-3.6-1.5c-1-1.1-1.5-2.4-1.5-4.1c0-1.8,0.5-3.3,1.6-4.3c1-1,2.2-1.5,3.6-1.5
			c1.5,0,2.8,0.5,3.7,1.6c1,1.1,1.4,2.4,1.4,4.1c0,1-0.2,1.9-0.5,2.6c-0.3,0.7-0.7,1.3-1.2,1.8C222.2,123.7,221,124.2,219.6,124.2
			L219.6,124.2z M219.7,123.2c1.2,0,2.1-0.5,2.9-1.4c0.8-0.9,1.2-2.1,1.2-3.5c0-1.2-0.3-2.3-0.9-3.2c-0.8-1.1-1.8-1.6-3.1-1.6
			c-1.3,0-2.4,0.5-3.1,1.5c-0.7,0.9-1,2-1,3.3c0,1.4,0.4,2.5,1.2,3.5C217.6,122.8,218.5,123.2,219.7,123.2L219.7,123.2z"/>
		<path d="M235.2,112.9V123h1.1l-0.1,4.4h-0.9l-0.1-3.5h-8.1l-0.1,3.5h-0.9L226,123h0.9c0.5-0.7,0.9-1.5,1.1-2.2
			c0.5-1.4,0.7-3.1,0.7-4.9v-3H235.2z M229.7,115.9c0,1.8-0.2,3.4-0.7,4.9c-0.1,0.4-0.3,0.8-0.5,1.1l-0.3,0.5c0,0.1-0.1,0.2-0.1,0.2
			l-0.1,0.3h6v-9.2h-4.4V115.9z"/>
		<path d="M240.1,112.9v4.7h6.3v-4.7h1.1v11h-1.1v-5.4h-6.3v5.4H239v-11H240.1z"/>
		<path d="M255.3,124.2c-1.5,0-2.7-0.5-3.6-1.5c-1-1.1-1.5-2.4-1.5-4.1c0-1.8,0.5-3.3,1.6-4.3c1-1,2.2-1.5,3.6-1.5
			c1.5,0,2.8,0.5,3.7,1.6c1,1.1,1.4,2.4,1.4,4.1c0,1-0.2,1.9-0.5,2.6c-0.3,0.7-0.7,1.3-1.2,1.8C257.9,123.7,256.7,124.2,255.3,124.2
			L255.3,124.2z M255.3,123.2c1.2,0,2.1-0.5,2.9-1.4c0.8-0.9,1.2-2.1,1.2-3.5c0-1.2-0.3-2.3-0.9-3.2c-0.8-1.1-1.8-1.6-3.1-1.6
			c-1.3,0-2.4,0.5-3.1,1.5c-0.7,0.9-1,2-1,3.3c0,1.4,0.4,2.5,1.2,3.5C253.2,122.8,254.2,123.2,255.3,123.2L255.3,123.2z"/>
		<path d="M269.5,112.9v0.9h-5.1v10.1h-1.1v-11H269.5z"/>
		<path d="M275.9,124.2c-1.5,0-2.7-0.5-3.6-1.5c-1-1.1-1.5-2.4-1.5-4.1c0-1.8,0.5-3.3,1.6-4.3c1-1,2.2-1.5,3.6-1.5
			c1.5,0,2.8,0.5,3.7,1.6c1,1.1,1.4,2.4,1.4,4.1c0,1-0.2,1.9-0.5,2.6c-0.3,0.7-0.7,1.3-1.2,1.8C278.5,123.7,277.3,124.2,275.9,124.2
			L275.9,124.2z M276,123.2c1.2,0,2.1-0.5,2.9-1.4c0.8-0.9,1.2-2.1,1.2-3.5c0-1.2-0.3-2.3-0.9-3.2c-0.8-1.1-1.8-1.6-3.1-1.6
			c-1.3,0-2.4,0.5-3.1,1.5c-0.7,0.9-1,2-1,3.3c0,1.4,0.4,2.5,1.2,3.5C273.9,122.8,274.8,123.2,276,123.2L276,123.2z"/>
		<path d="M82.1,151c-0.4,0.2-1,0.4-1.7,0.5c-0.8,0.2-1.6,0.3-2.5,0.3c-2.1,0-3.7-0.6-5.1-1.9c-0.7-0.7-1.3-1.5-1.6-2.5
			c-0.4-1-0.6-2.2-0.6-3.5c0-2.3,0.7-4.3,2.1-5.8c1.4-1.5,3.4-2.3,5.8-2.3c0.9,0,1.7,0.1,2.4,0.3c0.3,0.1,0.5,0.1,0.7,0.2
			c0.2,0.1,0.3,0.1,0.5,0.2l-0.3,0.9c-0.9-0.4-2-0.7-3.2-0.7c-2.1,0-3.7,0.6-4.9,1.9c-1.2,1.3-1.8,3-1.8,5.3c0,2.1,0.6,3.8,1.7,5
			c1.2,1.3,2.8,1.9,4.8,1.9c1.3,0,2.5-0.2,3.5-0.7L82.1,151z"/>
		<path d="M88.8,151.8c-1.5,0-2.7-0.5-3.6-1.5c-1-1.1-1.5-2.4-1.5-4.1c0-1.8,0.5-3.3,1.6-4.3c1-1,2.2-1.5,3.6-1.5
			c1.5,0,2.8,0.5,3.7,1.6c1,1.1,1.4,2.4,1.4,4.1c0,1-0.2,1.9-0.5,2.6c-0.3,0.7-0.7,1.3-1.2,1.8C91.4,151.3,90.2,151.8,88.8,151.8
			L88.8,151.8z M88.9,150.8c1.2,0,2.1-0.5,2.9-1.4c0.8-0.9,1.2-2.1,1.2-3.5c0-1.2-0.3-2.3-0.9-3.2c-0.8-1.1-1.8-1.6-3.1-1.6
			c-1.3,0-2.4,0.5-3.1,1.5c-0.7,0.9-1,2-1,3.3c0,1.4,0.4,2.5,1.1,3.5C86.8,150.4,87.7,150.8,88.9,150.8L88.9,150.8z"/>
		<path d="M103.6,140.5v0.9H100v10.1h-1.1v-10.1h-3.6v-0.9H103.6z"/>
		<path d="M105.6,144c0-1.4,0-2.6-0.1-3.5h1.1l0.1,2.1h0c0.9-1.6,2.2-2.3,4.1-2.3c1.4,0,2.6,0.5,3.4,1.6c0.9,1,1.3,2.4,1.3,4
			c0,1.9-0.5,3.4-1.5,4.5c-0.9,1-2.1,1.5-3.5,1.5c-1.7,0-3-0.7-3.7-2h0v6.3h-1.1V144z M106.7,147.2c0,0.3,0,0.6,0.1,0.9
			c0.5,1.9,1.7,2.8,3.6,2.8c1.2,0,2.2-0.5,2.9-1.4c0.7-0.9,1-2.1,1-3.6c0-1.3-0.3-2.4-1-3.3c-0.7-1-1.7-1.4-2.9-1.4
			c-1.9,0-3.1,1-3.7,2.9l-0.1,0.5c0,0.2,0,0.4,0,0.5V147.2z"/>
		<path d="M117.9,140.5l2.9,7.2c0.3,0.8,0.6,1.6,0.8,2.4h0l0.4-1.1c0.2-0.5,0.3-0.9,0.5-1.3l2.7-7.2h1.2l-3.3,8.2
			c-0.4,0.9-0.7,1.7-0.9,2.3c-0.3,0.7-0.6,1.3-0.9,1.9c-0.6,1.1-1.2,2-1.9,2.6c-0.4,0.3-0.8,0.6-1.2,0.8c-0.2,0.1-0.3,0.2-0.5,0.2
			c-0.1,0-0.2,0.1-0.3,0.1l-0.3-0.9c0.7-0.3,1.3-0.7,1.9-1.2c0.3-0.3,0.6-0.7,0.9-1.1c0.4-0.5,0.7-1.1,0.9-1.7
			c0.1-0.2,0.1-0.4,0.1-0.5c0-0.1,0-0.3-0.1-0.5l-4.1-10.2H117.9z"/>
		<path d="M135.6,140.5v10.1h1.1l-0.1,4.4h-0.9l-0.1-3.5h-8.1l-0.1,3.5h-0.9l-0.1-4.4h0.9c0.5-0.7,0.9-1.5,1.1-2.2
			c0.5-1.4,0.7-3.1,0.7-4.9v-3H135.6z M130.1,143.5c0,1.8-0.2,3.4-0.7,4.9c-0.1,0.4-0.3,0.8-0.5,1.1l-0.3,0.5c0,0.1-0.1,0.2-0.1,0.2
			l-0.1,0.3h6v-9.2h-4.4V143.5z"/>
		<path d="M140.5,140.5v4.7h6.3v-4.7h1.1v11h-1.1v-5.4h-6.3v5.4h-1.1v-11H140.5z"/>
		<path d="M152.5,140.5v7.7c0,0.7,0,1.4-0.1,2.1l0,0l1-1.7c0.3-0.5,0.7-1.1,1.1-1.8l4.3-6.3h1.2v11H159V146c0-1.7,0-3.1,0.1-4.3h0
			c-0.8,1.3-1.5,2.6-2.3,3.7l-1,1.4l-3.2,4.7h-1.2v-11H152.5z"/>
		<path d="M164.2,140.5v3.9c0,0.8,0.2,1.5,0.6,1.9c0.4,0.5,1.2,0.8,2.1,0.8c1.1,0,2.1-0.3,2.9-0.9v-5.6h1.1v11.2h-1.1V147h0
			c-0.9,0.6-2,0.9-3.1,0.9c-1.1,0-1.9-0.3-2.5-0.8c-0.7-0.6-1.1-1.4-1.1-2.6v-4.1H164.2z"/>
		<path d="M174.7,145.9c0,1.7,0.4,2.9,1.2,3.8c0.8,0.8,1.7,1.1,3,1.1c0.7,0,1.4-0.1,1.9-0.2c0.2,0,0.4-0.1,0.6-0.2l0.5-0.2l0.3,0.9
			c-0.1,0.1-0.3,0.1-0.4,0.2c-0.2,0.1-0.5,0.2-0.7,0.2c-0.7,0.2-1.5,0.3-2.3,0.3c-1.6,0-2.8-0.5-3.8-1.6c-0.9-1-1.4-2.3-1.4-4
			c0-1.8,0.5-3.3,1.4-4.4c0.9-1.1,2.1-1.6,3.5-1.6c0.8,0,1.6,0.2,2.2,0.6c0.5,0.3,1,0.8,1.3,1.4c0.3,0.5,0.5,1,0.6,1.6
			c0.1,0.5,0.2,1,0.2,1.4c0,0.3,0,0.5,0,0.7H174.7z M181.8,145c0-1-0.2-1.8-0.6-2.5c-0.6-0.9-1.4-1.4-2.6-1.4c-1.1,0-2,0.4-2.7,1.3
			c-0.6,0.7-0.9,1.6-1,2.6H181.8z"/>
		<path d="M193.3,151c-0.1,0-0.1,0.1-0.2,0.1c-0.1,0-0.2,0.1-0.3,0.1c-0.2,0.1-0.5,0.2-0.7,0.2c-0.7,0.2-1.3,0.3-2,0.3
			c-1.6,0-2.9-0.5-3.8-1.6c-1-1-1.4-2.4-1.4-4c0-1.7,0.5-3.2,1.6-4.3c1.1-1.1,2.4-1.6,4.1-1.6c0.6,0,1.2,0.1,1.8,0.2
			c0.5,0.1,0.9,0.3,1.1,0.5l-0.4,0.9c-0.3-0.2-0.7-0.3-1-0.4c-0.5-0.1-1-0.2-1.6-0.2c-1.4,0-2.5,0.5-3.4,1.4c-0.8,0.9-1.1,2-1.1,3.4
			c0,1.4,0.4,2.6,1.2,3.5c0.8,0.9,1.9,1.3,3.2,1.3c0.6,0,1.1-0.1,1.7-0.2c0.2,0,0.4-0.1,0.6-0.2l0.3-0.1l0.2-0.1L193.3,151z"/>
		<path d="M203,140.5v0.9h-3.6v10.1h-1.1v-10.1h-3.6v-0.9H203z"/>
		<path d="M205,140.6c0.9-0.2,1.9-0.2,2.9-0.2c0.5,0,1,0,1.5,0.1c0.6,0.1,1.1,0.2,1.5,0.4c1.1,0.4,1.6,1.2,1.6,2.3
			c0,1.3-0.8,2.2-2.3,2.6v0c0.8,0.1,1.5,0.4,2,0.8c0.6,0.5,0.8,1.2,0.8,2c0,1.2-0.6,2.1-1.9,2.6c-0.5,0.2-1.1,0.3-1.8,0.4
			c-0.5,0.1-1.1,0.1-1.7,0.1c-0.5,0-1,0-1.5,0c-0.4,0-0.8,0-1.1-0.1V140.6z M206,150.6c0.6,0.1,1.2,0.1,1.9,0.1c0.4,0,0.9,0,1.2-0.1
			c0.5-0.1,0.9-0.2,1.3-0.3c1-0.4,1.4-1,1.4-1.8c0-0.9-0.4-1.5-1.3-1.9c-0.4-0.1-0.8-0.2-1.3-0.3c-0.4,0-0.9-0.1-1.5-0.1H206V150.6z
			 M206.1,145.3h1.9c0.9,0,1.7-0.2,2.3-0.5c0.8-0.4,1.2-0.9,1.2-1.6c0-1.3-1.2-1.9-3.6-1.9c-0.4,0-0.7,0-1,0l-0.8,0.1V145.3z"/>
		<path d="M222.8,148.9c0,0.5,0,0.9,0,1.3c0,0.5,0.1,0.9,0.1,1.3h-1l-0.2-1.6h0c-0.3,0.5-0.8,0.9-1.3,1.2c-0.7,0.4-1.4,0.6-2.2,0.6
			c-1,0-1.9-0.3-2.5-1c-0.5-0.6-0.8-1.3-0.8-2.1c0-2.7,2.2-4.1,6.7-4v-0.3c0-0.4,0-0.7-0.1-1c-0.1-0.4-0.2-0.8-0.4-1.1
			c-0.4-0.8-1.2-1.2-2.4-1.2c-1.1,0-2,0.3-2.8,0.8l-0.3-0.8c1-0.6,2-0.9,3.2-0.9c1.4,0,2.5,0.5,3.1,1.4c0.3,0.4,0.5,0.9,0.6,1.4
			c0.1,0.4,0.1,0.9,0.1,1.5V148.9z M221.7,145.6c-0.7,0-1.3,0-1.9,0.1c-0.7,0.1-1.3,0.2-1.8,0.4c-1.3,0.5-1.9,1.3-1.9,2.5
			c0,0.8,0.2,1.3,0.7,1.7c0.4,0.4,0.9,0.6,1.5,0.6c0.9,0,1.6-0.2,2.2-0.7c0.5-0.4,0.9-0.9,1.1-1.5c0.1-0.2,0.1-0.4,0.1-0.7V145.6z"
			/>
	</g>
</g>
<path class="st0" d="M148.7,662.5c-5.6,0-10.8,4.8-15.4,14.3c-0.5,1-1,2-1.4,3.1h2.2c0.3-0.8,0.7-1.5,1-2.2
	c4.2-8.6,8.9-13.2,13.6-13.2h0L148.7,662.5L148.7,662.5z"/>
<path class="st1" d="M148.7,662.5v2c5.1,0,10.2,5.3,14.7,15.4h2.2C160.6,668.5,154.8,662.5,148.7,662.5z"/>
<g>
	<rect x="87" y="679.4" width="121.2" height="1"/>
</g>
<g>
	<rect x="62.5" y="702.4" width="31.3" height="1"/>
</g>
<g>
	<rect x="202" y="702.4" width="29.7" height="1"/>
</g>
<g>
	<rect x="54.2" y="739.6" width="189.5" height="1"/>
</g>
<path class="st1" d="M82.8,733.2l1.9,0.5c9.5-40.8,34.4-68.3,62.1-69.1v-2C118.2,663.3,92.6,691.5,82.8,733.2z"/>
<path class="st0" d="M148.7,662.5c-0.4,0-0.8,0-1.2,0v2c0.4,0,0.8,0,1.2,0c28.2,0,53.7,27.8,63.4,69.2l1.9-0.5
	C204.1,690.9,177.9,662.5,148.7,662.5z"/>
<path class="st1" d="M157.3,666.9c1,0,2,0,3,0.1c0.1,0,0.1,0,0.2,0c8.1,0,15.6,1.4,22.8,3.9c28.5,8.9,50.7,32.1,58.2,61.1h28.3
	c-16.4-46.4-58.7-78.9-99.7-78.9c-36.3,0-54.5,19.5-60.9,28.3C123,672.2,139.6,666.9,157.3,666.9z"/>
<path class="st0" d="M140,666.9c-1,0-2,0-3,0.1c-0.1,0-0.1,0-0.2,0c-8.1,0-15.6,1.4-22.8,3.9c-28.5,8.9-50.7,32.1-58.2,61.1H27.4
	c16.4-46.4,58.7-78.9,99.7-78.9c36.3,0,54.5,19.5,60.9,28.3C174.2,672.2,157.7,666.9,140,666.9z"/>
<g>
	<rect x="2.1" y="731.2" width="293.7" height="3"/>
</g>
<path class="st0" d="M146.6,9.5c-5.6,0-10.8,4.8-15.4,14.3c-0.5,1-1,2-1.4,3.1h2.2c0.3-0.8,0.7-1.5,1-2.2
	c4.2-8.6,8.9-13.2,13.6-13.2l0,0V9.5L146.6,9.5z"/>
<path class="st1" d="M146.6,9.5v2c5.1,0,10.2,5.3,14.7,15.4h2.2C158.6,15.5,152.7,9.5,146.6,9.5z"/>
<g>
	<rect x="84.9" y="26.4" width="121.2" height="1"/>
</g>
<g>
	<rect x="60.4" y="49.3" width="31.3" height="1"/>
</g>
<g>
	<rect x="198.7" y="49.3" width="31.9" height="1"/>
</g>
<g>
	<rect x="52.1" y="86.6" width="189.5" height="1"/>
</g>
<path class="st1" d="M80.7,80.2l1.9,0.5c9.5-40.8,34.4-68.3,62.1-69.1v-2C116.1,10.3,90.5,38.5,80.7,80.2z"/>
<path class="st0" d="M146.6,9.5c-0.4,0-0.8,0-1.2,0v2c0.4,0,0.8,0,1.2,0c28.2,0,53.7,27.8,63.4,69.2l1.9-0.5
	C202,37.9,175.8,9.5,146.6,9.5z"/>
<path class="st1" d="M155.2,13.8c1,0,2,0,3,0.1c0.1,0,0.1,0,0.2,0c8.1,0,15.6,1.4,22.8,3.9c28.5,8.9,50.7,32.1,58.2,61.1h28.3
	C251.3,32.5,209.1,0,168,0c-36.3,0-54.5,19.5-60.9,28.3C121,19.1,137.5,13.8,155.2,13.8z"/>
<path class="st0" d="M137.9,13.8c-1,0-2,0-3,0.1c-0.1,0-0.1,0-0.2,0c-8.1,0-15.6,1.4-22.8,3.9c-28.5,8.9-50.7,32.1-58.2,61.1H25.4
	C41.8,32.5,84,0,125.1,0c36.3,0,54.5,19.5,60.9,28.3C172.2,19.1,155.6,13.8,137.9,13.8z"/>
<g>
	<rect y="78.2" width="293.7" height="3"/>
</g>
</svg>
