<?xml version="1.0" encoding="iso-8859-1"?>
<!-- Generator: Adobe Illustrator 18.0.0, SVG Export Plug-In . SVG Version: 6.00 Build 0)  -->
<!DOCTYPE svg PUBLIC "-//W3C//DTD SVG 1.1//EN" "http://www.w3.org/Graphics/SVG/1.1/DTD/svg11.dtd">
<svg version="1.1" id="Capa_1" xmlns="http://www.w3.org/2000/svg" xmlns:xlink="http://www.w3.org/1999/xlink" x="0px" y="0px"
	 viewBox="0 0 435.861 435.861" style="enable-background:new 0 0 435.861 435.861;" xml:space="preserve">
<g fill="none" stroke="white" stroke-width="4">
	<path d="M382.374,167.672c-6.383-4.574-14.221-5.938-21.706-3.832c-6.8-26.279-19.536-48.792-37.803-66.406
		C296.492,72.005,259.226,58,217.931,58s-78.562,14.005-104.934,39.435c-18.343,17.688-31.111,40.316-37.889,66.737
		c-7.807-2.56-16.098-1.295-22.787,3.5c-6.762,4.847-10.641,12.398-10.641,20.718v45.03c0,19.067,15.512,34.58,34.58,34.58h0.677
		c7.128,26.028,19.195,49.895,35.627,69.889c10.17,12.374,21.571,22.723,33.866,30.905v61.567c0,3.038,2.462,5.5,5.5,5.5
		s5.5-2.462,5.5-5.5v-54.944c18.782,10.121,39.294,15.444,60.5,15.444c21.206,0,41.718-5.322,60.5-15.444v54.944
		c0,3.038,2.462,5.5,5.5,5.5s5.5-2.462,5.5-5.5v-61.567c12.295-8.182,23.696-18.53,33.865-30.904
		c16.435-19.998,28.504-43.869,35.631-69.902c18.84-0.266,34.087-15.665,34.087-34.567v-45.03
		C393.015,180.07,389.136,172.519,382.374,167.672z M315.229,105.353c24.398,23.526,38.117,56.779,39.975,96.585
		c-17.561-30.32-42.045-48.961-71.808-54.44c-2.93-4.268-6.299-8.284-10.092-11.989c-15.395-15.037-35.736-23.045-57.284-22.531
		c-18.212,0.429-35.482,7.102-49.319,18.905c-23.302-11.365-34.469-26.452-38.548-33.178C151.829,79.484,183.304,69,217.931,69
		C256.363,69,290.917,81.91,315.229,105.353z M187.912,298.64h60.038v12.107c0,16.552-13.466,30.019-30.019,30.019
		c-16.552,0-30.019-13.466-30.019-30.019V298.64z M212.755,253.35c0-2.854,2.322-5.175,5.175-5.175s5.175,2.322,5.175,5.175v34.289
		h-10.35V253.35z M247.996,287.64h-13.891V253.35c0-6.986-4.46-12.933-10.675-15.191v-13.464l17.603-17.603
		c2.148-2.148,2.148-5.63,0-7.778c-2.148-2.148-5.63-2.148-7.778,0l-15.325,15.325l-15.325-15.325c-2.148-2.148-5.63-2.148-7.778,0
		c-2.148,2.148-2.148,5.63,0,7.778l17.604,17.603v13.463c-6.215,2.258-10.675,8.206-10.675,15.192v34.289H187.86
		c-0.044-1.639-0.117-3.282-0.219-4.915c-0.988-15.917-7.915-31.487-19.504-43.842c-12.207-13.012-18.76-30.015-18.452-47.878
		c0.303-17.588,7.37-34.219,19.899-46.83c12.529-12.612,29.113-19.786,46.696-20.2c18.573-0.442,36.081,6.454,49.339,19.403
		c13.263,12.954,20.567,30.297,20.567,48.833c0,17.223-6.439,33.67-18.132,46.311c-12.14,13.125-19.229,29.565-19.96,46.292
		C248.052,285.75,248.02,286.693,247.996,287.64z M119.815,106.164c4.012,6.236,11.655,15.959,24.688,25.299
		c-3.667,13.075-19.579,58.862-63.45,64.125C83.977,159.034,97.228,128.367,119.815,106.164z M52.681,233.42v-45.03
		c0-4.729,2.205-9.022,6.048-11.777c3.846-2.756,8.622-3.466,13.104-1.945l0.88,0.299c-2.17,11.518-3.281,23.673-3.281,36.394
		c0,15.579,1.641,30.854,4.805,45.546C62.178,255.876,52.681,245.739,52.681,233.42z M217.931,379.861
		c-75.818,0-137.5-75.589-137.5-168.5c0-1.557,0.022-3.101,0.057-4.639c24.579-2.344,45.246-15.807,60.004-39.187
		c7.239-11.468,11.462-22.76,13.666-29.872c1.384,0.798,2.8,1.589,4.277,2.364c-12.438,14.134-19.423,31.981-19.747,50.789
		c-0.357,20.74,7.252,40.483,21.428,55.593c9.841,10.491,15.718,23.631,16.548,36.997c0.165,2.664,0.249,27.341,0.249,27.341
		c0,22.618,18.401,41.019,41.019,41.019c22.618,0,41.019-18.401,41.019-41.019c0,0,0.045-23.432,0.133-25.452
		c0.618-14.129,6.672-28.087,17.046-39.303c13.579-14.68,21.057-33.78,21.057-53.781c0-11.107-2.276-21.838-6.578-31.697
		c27.923,8.309,49.511,30.319,64.29,65.597C348.78,312.14,289.692,379.861,217.931,379.861z M382.015,233.42
		c0,11.909-8.877,21.778-20.36,23.354c3.145-14.652,4.776-29.882,4.776-45.414c0-12.853-1.133-25.13-3.348-36.753
		c4.416-1.424,9.1-0.706,12.883,2.005c3.844,2.755,6.049,7.048,6.049,11.777V233.42z"/>
	<path d="M220.181,45c3.038,0,5.5-2.462,5.5-5.5v-34c0-3.038-2.462-5.5-5.5-5.5s-5.5,2.462-5.5,5.5v34
		C214.681,42.538,217.143,45,220.181,45z"/>
	<path d="M109.811,73.616c1.074,1.074,2.481,1.611,3.889,1.611c1.407,0,2.815-0.537,3.889-1.611c2.148-2.148,2.148-5.63,0-7.778
		L93.548,41.796c-2.148-2.147-5.63-2.148-7.778,0s-2.148,5.63,0,7.778L109.811,73.616z"/>
	<path d="M327.247,73.813c1.408,0,2.815-0.537,3.889-1.611l24.042-24.042c2.148-2.148,2.148-5.63,0-7.778
		c-2.148-2.148-5.63-2.148-7.778,0l-24.042,24.042c-2.148,2.148-2.148,5.63,0,7.778C324.432,73.276,325.839,73.813,327.247,73.813z"
		/>
	<path d="M411.077,136.486c-0.639-2.969-3.566-4.859-6.534-4.22l-33.239,7.152c-2.97,0.639-4.859,3.564-4.22,6.534
		c0.555,2.58,2.835,4.344,5.372,4.344c0.383,0,0.772-0.04,1.162-0.124l33.239-7.152
		C409.826,142.381,411.716,139.456,411.077,136.486z"/>
	<path d="M63.406,150.296c2.536,0,4.816-1.765,5.372-4.344c0.639-2.97-1.25-5.895-4.22-6.534l-33.239-7.152
		c-2.97-0.64-5.895,1.25-6.534,4.22c-0.639,2.97,1.25,5.895,4.22,6.534l33.239,7.152C62.633,150.256,63.022,150.296,63.406,150.296z
		"/>
	<path d="M235.479,135.982c-5.665-1.751-11.568-2.639-17.548-2.639c-3.038,0-5.5,2.462-5.5,5.5s2.462,5.5,5.5,5.5
		c4.877,0,9.688,0.723,14.299,2.148c0.541,0.167,1.088,0.247,1.626,0.247c2.348,0,4.523-1.516,5.252-3.877
		C240.006,139.959,238.38,136.879,235.479,135.982z"/>
	<path d="M277.269,192.682c0-17.723-7.833-34.38-21.489-45.701c-2.338-1.938-5.805-1.615-7.745,0.724
		c-1.938,2.339-1.614,5.806,0.724,7.744c11.127,9.225,17.509,22.796,17.509,37.233c0,3.038,2.462,5.5,5.5,5.5
		S277.269,195.719,277.269,192.682z"/>
	<path d="M190.773,232.677c-1.979-1.346-3.873-2.853-5.631-4.477c-2.232-2.062-5.711-1.922-7.772,0.308
		c-2.061,2.231-1.923,5.711,0.308,7.772c2.156,1.992,4.48,3.839,6.906,5.49c0.947,0.645,2.024,0.954,3.09,0.954
		c1.759,0,3.487-0.842,4.552-2.406C193.935,237.807,193.285,234.386,190.773,232.677z"/>
	<path d="M169.592,192.682c0-3.038-2.462-5.5-5.5-5.5s-5.5,2.462-5.5,5.5c0,9.488,2.174,18.556,6.461,26.952
		c0.973,1.905,2.902,3,4.903,3c0.841,0,1.696-0.194,2.497-0.603c2.705-1.382,3.778-4.694,2.397-7.4
		C171.361,207.799,169.592,200.414,169.592,192.682z"/>
</g>
<g>
</g>
<g>
</g>
<g>
</g>
<g>
</g>
<g>
</g>
<g>
</g>
<g>
</g>
<g>
</g>
<g>
</g>
<g>
</g>
<g>
</g>
<g>
</g>
<g>
</g>
<g>
</g>
<g>
</g>
</svg>
