<?xml version="1.0" encoding="iso-8859-1"?>
<!-- Generator: Adobe Illustrator 19.1.0, SVG Export Plug-In . SVG Version: 6.00 Build 0)  -->
<svg version="1.1" id="Capa_1"  preserveAspectRatio="xMinYMin meet" xmlns="http://www.w3.org/2000/svg" xmlns:xlink="http://www.w3.org/1999/xlink" x="0px" y="0px"
	 viewBox="0 0 300.792 300.792" style="enable-background:new 0 0 180.792 180.792;" xml:space="preserve">


<style>

.waves {
	animation: waves_anim_1 0.6s infinite linear alternate;
	transform: scale(1);
	transform-origin: 30% 0;
}

@keyframes waves_anim_1 {
	100% {
		transform: scale(1.07);
	}
}

.waves:last-of-type {
	animation: waves_anim_2 0.6s 0.3s infinite linear alternate;
}

@keyframes waves_anim_2 {
	100% {
		transform: scale(1.1);
	}
}

</style>

<g fill="white" stroke="white"  stroke-width="2">
	<g>
		<path d="M101.133,180.792c-16.278,0-31.036-8.615-39.478-23.046c-1.3-2.223-3.76-6.321-6.608-11.066
			c-6.34-10.564-15.024-25.032-19.64-33.321c-0.006,0-5.041-7.311,2.824-13.252c6.776-5.123,19.741,8.396,26.293,16.133V43.797
			c0-5.996,4.878-10.874,10.874-10.874h0.559c5.895,0,10.874,4.68,10.874,10.221l-0.033,55.685c0,0.442-0.358,0.799-0.8,0.799h0
			c-0.442,0-0.8-0.358-0.799-0.8l0.033-55.684c0-4.592-4.334-8.621-9.274-8.621h-0.559c-5.114,0-9.274,4.161-9.274,9.274v74.654
			c0,0.338-0.212,0.64-0.531,0.753c-0.315,0.113-0.673,0.016-0.888-0.247c-9.01-11.004-20.443-21.397-25.509-17.574
			c-6.611,4.994-2.609,10.878-2.436,11.126c4.648,8.337,13.324,22.792,19.659,33.347c2.851,4.749,5.312,8.85,6.617,11.082
			c8.152,13.935,22.394,22.254,38.097,22.254c24.547,0,44.518-20.71,44.518-46.166V91.403c0-4.852-3.951-9.108-8.455-9.108h-0.517
			c-4.504,0-8.455,4.256-8.455,9.108c0,0.442-0.358,0.8-0.8,0.8s-0.8-0.358-0.8-0.8c0-5.705,4.698-10.708,10.055-10.708h0.517
			c5.356,0,10.054,5.003,10.054,10.708v41.624C147.251,159.365,126.563,180.792,101.133,180.792z"/>
		<path d="M106.705,99.627c-0.442,0-0.8-0.358-0.8-0.8V79.824c0-5.115-4.161-9.277-9.274-9.277h-0.559
			c-5.114,0-9.274,4.162-9.274,9.277c0,0.442-0.358,0.8-0.8,0.8s-0.8-0.358-0.8-0.8c0-5.998,4.878-10.877,10.874-10.877h0.559
			c5.996,0,10.874,4.879,10.874,10.877v19.003C107.505,99.27,107.147,99.627,106.705,99.627z"/>
		<path d="M127.425,99.627c-0.442,0-0.8-0.358-0.8-0.8V86.173c0-5.29-4.335-9.931-9.277-9.931h-0.559
			c-4.942,0-9.277,4.641-9.277,9.931c0,0.442-0.358,0.8-0.8,0.8s-0.8-0.358-0.8-0.8c0-6.143,5.083-11.53,10.877-11.53h0.559
			c5.794,0,10.877,5.388,10.877,11.53v12.655C128.225,99.27,127.867,99.627,127.425,99.627z"/>
	</g>
	<path class="waves" d="M98.22,55.545c-0.137,0-0.275-0.035-0.402-0.109c-0.381-0.223-0.511-0.712-0.289-1.094
		c2.221-3.814,3.396-8.18,3.396-12.626c0-13.861-11.276-25.138-25.137-25.138S50.65,27.855,50.65,41.716
		c0,4.007,0.914,7.834,2.715,11.375c0.201,0.394,0.043,0.875-0.35,1.076c-0.395,0.2-0.875,0.043-1.076-0.35
		c-1.917-3.768-2.889-7.839-2.889-12.101c0-14.743,11.994-26.737,26.737-26.737c14.743,0,26.737,11.994,26.737,26.737
		c0,4.729-1.249,9.373-3.612,13.432C98.763,55.403,98.495,55.545,98.22,55.545z"/>
	<path class="waves" d="M111.632,63.867c-0.137,0-0.275-0.035-0.402-0.109c-0.382-0.222-0.511-0.712-0.288-1.094
		c3.593-6.164,5.492-13.224,5.492-20.418C116.434,19.833,98.2,1.6,75.788,1.6S35.141,19.833,35.141,42.246
		c0,6.482,1.477,12.672,4.389,18.397c0.201,0.394,0.043,0.875-0.35,1.076c-0.394,0.201-0.875,0.043-1.076-0.35
		c-3.028-5.952-4.563-12.386-4.563-19.123C33.542,18.951,52.493,0,75.788,0s42.246,18.951,42.246,42.246
		c0,7.477-1.974,14.816-5.71,21.224C112.175,63.725,111.907,63.867,111.632,63.867z"/>
</g>
</svg>
