<?xml version="1.0" encoding="UTF-8" standalone="no"?>
<!-- Creator: CorelDRAW X7 -->

<svg
   xmlns:dc="http://purl.org/dc/elements/1.1/"
   xmlns:cc="http://creativecommons.org/ns#"
   xmlns:rdf="http://www.w3.org/1999/02/22-rdf-syntax-ns#"
   xmlns:svg="http://www.w3.org/2000/svg"
   xmlns="http://www.w3.org/2000/svg"
   xmlns:sodipodi="http://sodipodi.sourceforge.net/DTD/sodipodi-0.dtd"
   xmlns:inkscape="http://www.inkscape.org/namespaces/inkscape"
   xml:space="preserve"
   width="60mm"
   height="60mm"
   version="1.1"
   style="shape-rendering:geometricPrecision; text-rendering:geometricPrecision; image-rendering:optimizeQuality; fill-rule:evenodd; clip-rule:evenodd"
   viewBox="0 0 6000 6000"
   id="svg2"
   inkscape:version="0.91 r13725"
   sodipodi:docname="mountains_3.svg"><metadata
     id="metadata20"><rdf:RDF><cc:Work
         rdf:about=""><dc:format>image/svg+xml</dc:format><dc:type
           rdf:resource="http://purl.org/dc/dcmitype/StillImage" /></cc:Work></rdf:RDF></metadata><sodipodi:namedview
     pagecolor="#ffffff"
     bordercolor="#666666"
     borderopacity="1"
     objecttolerance="10"
     gridtolerance="10"
     guidetolerance="10"
     inkscape:pageopacity="0"
     inkscape:pageshadow="2"
     inkscape:window-width="1600"
     inkscape:window-height="837"
     id="namedview18"
     showgrid="false"
     inkscape:zoom="3.1397636"
     inkscape:cx="131.80941"
     inkscape:cy="120.79065"
     inkscape:window-x="-8"
     inkscape:window-y="-8"
     inkscape:window-maximized="1"
     inkscape:current-layer="svg2" /><defs
     id="defs4"><style
       type="text/css"
       id="style6"><![CDATA[
    .fil1 {fill:none}
    .fil2 {fill:#3D4D9A}
    .fil0 {fill:#7A87B4}
   ]]></style></defs><g
     id="Слой_x0020_1"><metadata
       id="CorelCorpID_0Corel-Layer" /><path
       class="fil0"
       d="m 3636,5670 c -450.9074,-261.7541 -906.7045,-565.7784 -1320,-848 -220.7534,398.0852 -513.7348,780.5508 -628.0027,1183.9546 950.398,0.7635 1947.8702,4.604 2822.1416,-2.6358 C 5009.2179,4170.348 5997.3846,1344.1095 6000.7126,452.79658 5413.2773,1813.2263 4652.377,3480.5172 3636,5670 Z"
       id="path10"
       inkscape:connector-curvature="0"
       style="fill:#7a87b4"
       sodipodi:nodetypes="cccccc" /><path
       class="fil1"
       d="M5756 -668c-2,401 155,641 71,1145 -66,395 -347,833 -369,1038 -4,214 96,265 267,369"
       id="path12" /><path
       class="fil2"
       d="m 1029.5057,6000.517 667.7414,6.7415 C 1905.2471,5641.2585 2162,5204 2316,4822 1844,5302 1535.5057,5575.517 1029.5057,6000.517 Z"
       id="path14"
       inkscape:connector-curvature="0"
       style="fill:#3d4d9a"
       sodipodi:nodetypes="cccc" /><path
       class="fil2"
       d="m 4510,6009 1490.6589,-8.7394 c 0.7617,-1637.5366 6.4956,-3218.0375 1.0672,-4697.9498 -1.0424,-284.1694 -1.0932,-565.43142 -3.5104,-846.77237 C 5555.66,2286.1604 4991.176,4255.6875 4510,6009 Z"
       id="path16"
       inkscape:connector-curvature="0"
       style="fill:#3d4d9a"
       sodipodi:nodetypes="ccscc" /></g></svg>