<?xml version="1.0" encoding="UTF-8" standalone="no"?>
<!-- Creator: CorelDRAW X7 -->

<svg
   xmlns:dc="http://purl.org/dc/elements/1.1/"
   xmlns:cc="http://creativecommons.org/ns#"
   xmlns:rdf="http://www.w3.org/1999/02/22-rdf-syntax-ns#"
   xmlns:svg="http://www.w3.org/2000/svg"
   xmlns="http://www.w3.org/2000/svg"
   xmlns:sodipodi="http://sodipodi.sourceforge.net/DTD/sodipodi-0.dtd"
   xmlns:inkscape="http://www.inkscape.org/namespaces/inkscape"
   xml:space="preserve"
   width="120mm"
   height="50mm"
   version="1.1"
   style="shape-rendering:geometricPrecision; text-rendering:geometricPrecision; image-rendering:optimizeQuality; fill-rule:evenodd; clip-rule:evenodd"
   viewBox="0 0 12000 5000"
   id="svg3344"
   inkscape:version="0.91 r13725"
   sodipodi:docname="mountains_1.svg"><metadata
     id="metadata3366"><rdf:RDF><cc:Work
         rdf:about=""><dc:format>image/svg+xml</dc:format><dc:type
           rdf:resource="http://purl.org/dc/dcmitype/StillImage" /></cc:Work></rdf:RDF></metadata><sodipodi:namedview
     pagecolor="#ffffff"
     bordercolor="#666666"
     borderopacity="1"
     objecttolerance="10"
     gridtolerance="10"
     guidetolerance="10"
     inkscape:pageopacity="0"
     inkscape:pageshadow="2"
     inkscape:window-width="1600"
     inkscape:window-height="837"
     id="namedview3364"
     showgrid="false"
     inkscape:zoom="2.8284271"
     inkscape:cx="262.66328"
     inkscape:cy="33.063631"
     inkscape:window-x="-8"
     inkscape:window-y="-8"
     inkscape:window-maximized="1"
     inkscape:current-layer="svg3344" /><defs
     id="defs3346"><style
       type="text/css"
       id="style3348"><![CDATA[
    .str0 {stroke:#3D4D9A;stroke-width:7.62}
    .fil0 {fill:#3D4D9A}
    .fil2 {fill:#5AC7D8}
    .fil1 {fill:#7A87B4}
    .fil3 {fill:#D9D9D7}
   ]]></style></defs><g
     id="Слой_x0020_1"><metadata
       id="CorelCorpID_0Corel-Layer" /><path
       class="fil0 str0"
       d="M 5748.0527,1799.5461 C 5744.5066,1806.0132 5568,2216.9737 5423,2587.9737 5325,2839.9737 5246,3072 5224,3151 c -525.6483,-232.7792 -567.5782,2.8539 -738,431 l 1566,375 c 518,131 1040,319 1558,449 1206,303 3076.945,679.617 4348.945,538.617 C 10988.334,3912.867 9982.8611,2415.0555 8953,1281 l -319,-177 -47,404 c 239.4247,1247.6139 538.6862,985.7231 -323,830 l -452,711 C 7109,2654 6442.0527,2204.5461 5748.0527,1799.5461 Z"
       id="path3352"
       inkscape:connector-curvature="0"
       style="fill:#3d4d9a;stroke:#3d4d9a;stroke-width:7.61999989"
       sodipodi:nodetypes="ccccccccccccc" /><path
       class="fil1"
       d="m 1070,3460 2552.7912,28.4945 c 268.7912,7.8352 581.143,35.0154 859.143,93.466 115.2555,-173.6086 215.9385,-335.5712 319.3673,-496.6042 l 422.5801,64.6174 c 186.2351,-481.4449 338.6464,-891.9472 526.0263,-1353.9211 L 5681,1737 c -293,238 -1324,981 -1629,1198 -79,-149 -129,-237 -237,-400 -5,-11 -293,-495 -381,-639 -23,-37 -297,-592 -337,-684 5,98 13,222 24,349 9,101 13,205 20,300 6,97 14,186 9,255 -154,-78 -167,-92 -291,-143 -139.3517,128.4615 -269,238 -432,365 -118,90 -238,179 -363,290 -185,166 -368,309 -561,483 -136,122 -288,236 -433,349 z"
       id="path3354"
       inkscape:connector-curvature="0"
       style="fill:#7a87b4"
       sodipodi:nodetypes="ccccccccccccccccccc" /><path
       class="fil0 str0"
       d="M 8,3601 1077.5159,3456.3365 C 1737.4872,2919.5033 2288.8663,2462.7292 2859,1973 c 134,69.3736 171,80 291,143 -8,-230 -42.1401,-649.8599 -56.1401,-900.8599 L 3026,1173 C 2365.8553,1744.6842 1418.0768,2501.1645 771,3035 717,2988 665,2942 605,2902 467.02194,2973.0329 149.95613,3154.1536 8,3234 Z"
       id="path3356"
       inkscape:connector-curvature="0"
       style="fill:#3d4d9a;stroke:#3d4d9a;stroke-width:7.61999989"
       sodipodi:nodetypes="cccccccccc" /><path
       class="fil1"
       d="m 8009,1132 c 0,0 -715,876 -911,1098 l -205,275 919,544 452,-711 c 153.3947,100 426.8574,289.3597 632.989,406.9123 -48.8688,-633.0439 -73.1813,-1256.6624 -76.7879,-1492.4576 C 8602.918,1198.3208 8405.7423,1251.631 8009,1132 Z"
       id="path3358"
       inkscape:connector-curvature="0"
       style="fill:#7a87b4"
       sodipodi:nodetypes="cccccccc" /><path
       class="fil2"
       d="M4691 552l10 -10c-1,1 -13,7 -10,10z"
       id="path3360" /><path
       class="fil3"
       d="M 8957.4097,1279.2361 8663,1231 l -76,277 -291,-67 c 4,-2 -357,375 -357,375 0,0 82,-671 70,-684 0,1 354,-350 453,-481 152,240 480.4097,608.2361 495.4097,628.2361 z"
       id="path3362"
       inkscape:connector-curvature="0"
       style="fill:#d9d9d7"
       sodipodi:nodetypes="cccccccc" /></g></svg>