<?xml version="1.0" encoding="UTF-8" standalone="no"?>
<!-- Creator: CorelDRAW X7 -->

<svg
   xmlns:dc="http://purl.org/dc/elements/1.1/"
   xmlns:cc="http://creativecommons.org/ns#"
   xmlns:rdf="http://www.w3.org/1999/02/22-rdf-syntax-ns#"
   xmlns:svg="http://www.w3.org/2000/svg"
   xmlns="http://www.w3.org/2000/svg"
   xmlns:sodipodi="http://sodipodi.sourceforge.net/DTD/sodipodi-0.dtd"
   xmlns:inkscape="http://www.inkscape.org/namespaces/inkscape"
   xml:space="preserve"
   width="170mm"
   height="70mm"
   version="1.1"
   style="shape-rendering:geometricPrecision; text-rendering:geometricPrecision; image-rendering:optimizeQuality; fill-rule:evenodd; clip-rule:evenodd"
   viewBox="0 0 17000 7000"
   id="svg2"
   inkscape:version="0.91 r13725"
   sodipodi:docname="mountains_2.svg"><metadata
     id="metadata27"><rdf:RDF><cc:Work
         rdf:about=""><dc:format>image/svg+xml</dc:format><dc:type
           rdf:resource="http://purl.org/dc/dcmitype/StillImage" /></cc:Work></rdf:RDF></metadata><sodipodi:namedview
     pagecolor="#ffffff"
     bordercolor="#666666"
     borderopacity="1"
     objecttolerance="10"
     gridtolerance="10"
     guidetolerance="10"
     inkscape:pageopacity="0"
     inkscape:pageshadow="2"
     inkscape:window-width="1600"
     inkscape:window-height="837"
     id="namedview25"
     showgrid="false"
     inkscape:zoom="8"
     inkscape:cx="407.45565"
     inkscape:cy="26.263165"
     inkscape:window-x="-8"
     inkscape:window-y="-8"
     inkscape:window-maximized="1"
     inkscape:current-layer="svg2" /><defs
     id="defs4"><style
       type="text/css"
       id="style6"><![CDATA[
    .str0 {stroke:#3D4D9A;stroke-width:7.62}
    .fil1 {fill:#3D4D9A}
    .fil0 {fill:#7A87B4}
    .fil2 {fill:#D9D9D7}
   ]]></style></defs><g
     id="Слой_x0020_1"><metadata
       id="CorelCorpID_0Corel-Layer" /><g
       id="_345196323904"><path
         class="fil0"
         d="m 144,6652 c 2018.6065,40.2619 2590.5444,-985.2442 4288,-1921 l -10,-2042 c -133,35 -268,169 -379,256 -121,96 -262,221 -375,266 L 4638.8741,1869.8626 C 4111.4123,1167.2243 4111.909,1581.2503 3705.8398,1508.1831 2541.1248,3223.9186 1326.305,4991.7346 144,6652 Z"
         id="path11"
         inkscape:connector-curvature="0"
         style="fill:#7a87b4"
         sodipodi:nodetypes="cccccccc" /><path
         class="fil1 str0"
         d="M 4569.7097,1784.767 4036,2453 l -385,427 -660,-128 691.1842,536.4737 C 3991.3702,3027.4403 4132.6521,2902.3319 4425,2677 l 10,2042 -3296.3684,1849.0789 C 1684.6316,6501.0789 3667,6288 4231,6266 c 616,-22 958,35 1589,48 1123,21 2131,84 3214,227 263.2431,-1718.4772 38.3862,-1379.5365 516,-3603 0,-55 -41.6774,-24.6087 -115.6774,67.3913 C 9238.3226,3251.3913 8615,3890 7612,5108 Z"
         id="path13"
         inkscape:connector-curvature="0"
         style="fill:#3d4d9a;stroke:#3d4d9a;stroke-width:7.61999989"
         sodipodi:nodetypes="ccccccccccccccc" /><path
         class="fil2"
         d="M 4444.6681,1636.206 4248,1594 4112,1876 3831,1667 c 3,-2 -241,491 -241,491 0,0 58.5507,-463.7398 76.2302,-590.4121 0,0 217.6554,-435.8168 287.7698,-575.5879 154,211 323.9428,430.1831 490.6681,644.206 z"
         id="path15"
         inkscape:connector-curvature="0"
         style="fill:#d9d9d7"
         sodipodi:nodetypes="cccccccc" /><path
         class="fil0"
         d="m 7629,6076 c -190.1908,103.3487 1088,-538 1312,-637 l -56.8158,1087.1184 C 9180.1842,6571.1184 9442,6853 10188,6826 c 936,-35 1885,-375 2840,-521 256,-40 544.25,-101.1111 796.25,-135.1111 C 15549.857,5838.1009 15622.383,5835.1244 16935,5612 L 14180,4779 C 9964.6893,6020.0661 10605.349,6630.8703 9924,3466 c -41,-215 -186,-407 -198,-491 -230.3234,4.9746 -254.729,-20.848 -286.6669,18.7015 C 8857.478,4001.53 8178.6238,5177.0914 7629,6076 Z"
         id="path17"
         inkscape:connector-curvature="0"
         style="fill:#7a87b4"
         sodipodi:nodetypes="cccccccccccc" /><path
         class="fil1 str0"
         d="m 10476.78,6802.237 c 815.751,-111.9572 922.131,-137.0561 1276.18,-233.7857 -84.473,-110.66 -1628.118,-3273.7934 -1816.1179,-3595.7934 -14.658,69.8222 -169.0125,53.8648 -154.4885,134.3357 245.6004,1152.0945 415.8994,2550.0934 694.4264,3695.2434 z"
         id="path19"
         inkscape:connector-curvature="0"
         style="fill:#3d4d9a;stroke:#3d4d9a;stroke-width:7.61999989"
         sodipodi:nodetypes="ccccc" /><path
         class="fil2"
         d="m 9404,3038 131,-60 110,229 229,-170 c -3,-1 311.564,405.0688 311.564,405.0688 C 10056.838,3144.7302 9891.2685,2786.8343 9773,2488 c -33,46 -62,89 -113,167 -52,77 -135,200 -256,383 z"
         id="path21"
         inkscape:connector-curvature="0"
         style="fill:#d9d9d7"
         sodipodi:nodetypes="cccccccc" /></g><path
       class="fil1"
       d="M 14838.954,4975.2976 C 14823.954,4970.2976 13788,6176 13787,6176 l 3153.016,-562.8626 c 20,-4 -929.062,-310.8398 -2101.062,-637.8398 z"
       id="path23"
       inkscape:connector-curvature="0"
       style="fill:#3d4d9a"
       sodipodi:nodetypes="cccc" /></g></svg>